<?xml version="1.0" encoding="utf-8"?>
<!-- Generator: Adobe Illustrator 22.0.1, SVG Export Plug-In . SVG Version: 6.00 Build 0)  -->
<svg version="1.1" xmlns="http://www.w3.org/2000/svg" xmlns:xlink="http://www.w3.org/1999/xlink" x="0px" y="0px"
	 viewBox="0 0 300 336.3" style="enable-background:new 0 0 300 336.3;" xml:space="preserve">
<style type="text/css">
	.st0{fill:#FFFFFF;}
</style>
<g id="Background">
	<g>
		<path class="st0" d="M181.9,103.7c-0.6,0-1.2-0.2-1.9-0.7l-30-21.9l-30,21.9c-1.4,1-2.7,0.7-3.5,0.2c-0.8-0.6-1.4-1.8-0.9-3.4
			L127,64.4L96.9,42.7c-1.4-1-1.6-2.3-1.3-3.3c0.3-0.9,1.2-1.9,2.9-1.9c0,0,0,0,0,0l37.4,0.1l11.2-35.4c0.5-1.6,1.7-2.2,2.7-2.2
			c0,0,0,0,0,0c1,0,2.2,0.6,2.7,2.2l11.5,35.5l37.1-0.2c1.6,0,2.6,1,2.9,1.9c0.3,0.9,0.1,2.3-1.2,3.3l-30.1,21.9l11.5,35.2
			c0.5,1.6-0.1,2.8-0.9,3.4C183,103.5,182.5,103.7,181.9,103.7z M105,42.5l25.3,18.2c1.4,1,2.1,3,1.5,4.7l-9.8,29.9l25.3-18.4
			c1.4-1,3.5-1,4.9,0l25.3,18.4l-9.7-29.7c-0.5-1.7,0.1-3.6,1.5-4.7l25.4-18.4l-31.2,0.2c-1.8,0-3.4-1.2-4-2.9l-9.7-29.9l-9.4,29.8
			c-0.5,1.7-2.2,2.9-4,2.9c0,0,0,0,0,0L105,42.5z"/>
		<path class="st0" d="M149.9,161.7c-0.8,0-1.6-0.2-2.3-0.6L86,125.8c-1.4-0.8-2.3-2.4-2.3-4v-15.3c0-1.2,0.6-2.3,1.5-2.8
			c1-0.6,2.2-0.5,3.2,0.1l61.4,34.8l61.4-34.9c1.1-0.6,2.3-0.6,3.2-0.1c1,0.6,1.5,1.6,1.5,2.8v15.3c0,1.6-0.9,3.2-2.3,4l-61.6,35.4
			C151.5,161.5,150.7,161.7,149.9,161.7z M88.6,121.6l61.3,35.2l61.3-35.2v-12.1l-59,33.4c-1.3,0.8-3.2,0.8-4.6,0l-59-33.4V121.6z
			 M149.8,138.6C149.8,138.6,149.8,138.6,149.8,138.6L149.8,138.6z M88.5,121.5L88.5,121.5C88.5,121.5,88.5,121.5,88.5,121.5z"/>
		<path class="st0" d="M149.9,200c-0.8,0-1.6-0.2-2.3-0.6L86,164c-1.4-0.8-2.3-2.4-2.3-4v-15.3c0-1.2,0.6-2.3,1.5-2.8
			c1-0.6,2.2-0.5,3.2,0.1l61.4,34.8l61.4-34.9c1.1-0.6,2.3-0.6,3.2-0.1c1,0.6,1.5,1.6,1.5,2.8V160c0,1.6-0.9,3.2-2.3,4l-61.6,35.4
			C151.5,199.8,150.7,200,149.9,200z M88.6,159.8l61.3,35.2l61.3-35.2v-12.1l-59,33.4c-1.3,0.8-3.2,0.8-4.6,0l-59-33.4V159.8z
			 M149.8,176.9C149.8,176.9,149.8,176.9,149.8,176.9L149.8,176.9z M88.5,159.7L88.5,159.7C88.5,159.7,88.5,159.7,88.5,159.7z"/>
	</g>
	<g>
		<path class="st0" d="M101.5,305.2h-3.8l-9-25.3h3.9l7.2,21.6l7.6-21.6h3.5L101.5,305.2z"/>
		<path class="st0" d="M113.6,297c-0.1,3.6,1.4,6.3,5,6.3c2.1,0,3.9-1.1,4.1-3.6h3.3c-0.1,0.9-0.2,2.3-1.5,3.7
			c-0.8,0.9-2.5,2.3-6.1,2.3c-5.5,0-8.2-3.4-8.2-9c0-3.5,0.7-6.3,3.5-8.3c1.7-1.2,3.8-1.3,4.8-1.3c7.9,0,7.7,7,7.6,9.8H113.6z
			 M122.9,294.7c0-1.7-0.3-5.2-4.3-5.2c-2.1,0-4.7,1.3-4.8,5.2H122.9z"/>
		<path class="st0" d="M128,287.6h3.1v-3.7l3.3-1v4.7h3.9v2.4h-3.9v10.5c0,0.9,0,2.3,2.3,2.3c0.7,0,1.3-0.1,1.6-0.2v2.6
			c-0.6,0.1-1.5,0.2-2.7,0.2c-3,0-4.4-0.9-4.4-3.7V290H128V287.6z"/>
		<path class="st0" d="M144,297c-0.1,3.6,1.4,6.3,5,6.3c2.1,0,3.9-1.1,4.1-3.6h3.3c-0.1,0.9-0.2,2.3-1.5,3.7
			c-0.8,0.9-2.5,2.3-6.1,2.3c-5.5,0-8.2-3.4-8.2-9c0-3.5,0.7-6.3,3.5-8.3c1.7-1.2,3.8-1.3,4.8-1.3c7.9,0,7.7,7,7.6,9.8H144z
			 M153.3,294.7c0-1.7-0.3-5.2-4.3-5.2c-2.1,0-4.7,1.3-4.8,5.2H153.3z"/>
		<path class="st0" d="M161.3,291.2c0-1.2-0.1-2.4-0.2-3.6h3.3l0.1,3.4c0.6-2.5,2.7-3.3,4.2-3.5c1-0.1,1.7-0.1,2.3-0.1v3.2
			c-0.2-0.1-0.4-0.1-0.6-0.1s-0.6,0-0.9,0c-3.9,0-4.8,2.3-4.8,5.3v9.3h-3.3V291.2z"/>
		<path class="st0" d="M185.1,305.2c-0.2-0.9-0.3-1.7-0.3-2.6c-1.6,2.9-4,3.2-5.4,3.2c-4,0-6.2-2.3-6.2-5.2c0-1.4,0.5-3.6,3.1-5.1
			c1.9-1.1,4.7-1.2,6.1-1.2c0.8,0,1.4,0,2.4,0.1c0-2.2,0-3.1-0.6-3.9c-0.7-0.9-2.1-1.2-3-1.2c-3.3,0-3.5,2.3-3.5,3h-3.3
			c0.1-0.9,0.2-2.1,1.2-3.3c1.3-1.5,3.8-1.9,5.7-1.9c2.6,0,5.3,0.8,6.2,2.6c0.6,1.1,0.6,1.9,0.6,2.7l-0.1,8.4c0,0.3,0,2.6,0.3,4.4
			H185.1z M182.8,296.6c-1.3,0-6.3,0-6.3,3.6c0,1.1,0.7,3,3.6,3c1.7,0,2.9-0.7,3.7-1.9c0.7-1.2,0.8-2.2,0.8-4.6
			C184.1,296.6,183.7,296.6,182.8,296.6z"/>
		<path class="st0" d="M193.6,289.7l0-2h3.3l0,2.8c0.4-0.7,1.6-3.2,5.6-3.2c1.6,0,6.4,0.6,6.4,6v11.9h-3.4v-11.2
			c0-1.2-0.1-2.2-0.9-3c-0.8-0.8-2-1.2-3.1-1.2c-2.4,0-4.6,1.7-4.6,5.2v10.1h-3.3V289.7z"/>
		<path class="st0" d="M91.3,320.2c0.5-0.8,1.8-3,5.7-3c1.8,0,4,0.4,5.6,2.2c0.9,1,2.1,2.8,2.1,6.6c0,3.4-0.8,5.3-1.7,6.4
			c-1.4,2-3.7,3-6.2,3c-0.8,0-2.4-0.1-3.9-1.1c-1-0.7-1.4-1.3-1.7-1.8l-0.1,2.7h-3.2l0.1-3.2V310h3.3V320.2z M96.3,319.4
			c-5,0-5,5.9-5,7c0,1.2,0,6.7,4.9,6.7c4.1,0,5.1-4,5.1-6.8C101.2,324.5,100.9,319.4,96.3,319.4z"/>
		<path class="st0" d="M111,327c-0.1,3.6,1.4,6.3,5,6.3c2.1,0,3.9-1.1,4.1-3.6h3.3c-0.1,0.9-0.2,2.3-1.5,3.7
			c-0.8,0.9-2.5,2.3-6.1,2.3c-5.5,0-8.2-3.4-8.2-9c0-3.5,0.7-6.3,3.5-8.3c1.7-1.2,3.8-1.3,4.8-1.3c7.9,0,7.7,7,7.6,9.8H111z
			 M120.3,324.7c0-1.7-0.3-5.2-4.3-5.2c-2.1,0-4.7,1.3-4.8,5.2H120.3z"/>
		<path class="st0" d="M128.3,319.7l0-2h3.3l0,2.8c0.4-0.7,1.6-3.2,5.6-3.2c1.6,0,6.4,0.6,6.4,6v11.9h-3.4v-11.2
			c0-1.2-0.1-2.2-0.9-3c-0.8-0.8-2-1.2-3.1-1.2c-2.4,0-4.6,1.7-4.6,5.2v10.1h-3.3V319.7z"/>
		<path class="st0" d="M151.2,327c-0.1,3.6,1.4,6.3,5,6.3c2.1,0,3.9-1.1,4.1-3.6h3.3c-0.1,0.9-0.2,2.3-1.5,3.7
			c-0.8,0.9-2.5,2.3-6.1,2.3c-5.5,0-8.2-3.4-8.2-9c0-3.5,0.7-6.3,3.5-8.3c1.7-1.2,3.8-1.3,4.8-1.3c7.9,0,7.7,7,7.6,9.8H151.2z
			 M160.5,324.7c0-1.7-0.3-5.2-4.3-5.2c-2.1,0-4.7,1.3-4.8,5.2H160.5z"/>
		<path class="st0" d="M177.1,312.4c-0.6,0-1.3-0.1-1.9-0.1c-2.7,0-2.7,1.3-2.7,2.6v2.8h4.1v2.4h-4.1v15.2h-3.3V320h-3.5v-2.4h3.5
			v-2c0-2.4,0.1-3.3,0.7-4.2c0.8-1.2,2.2-1.9,4.4-1.9c0.9,0,2,0.1,2.7,0.2V312.4z M179.6,310h3.9v3.6h-3.9V310z M180,335.2v-17.6
			h3.3v17.6H180z"/>
		<path class="st0" d="M186.6,317.6h3.1v-3.7l3.3-1v4.7h3.9v2.4H193v10.5c0,0.9,0,2.3,2.3,2.3c0.7,0,1.3-0.1,1.6-0.2v2.6
			c-0.6,0.1-1.5,0.2-2.7,0.2c-3,0-4.4-0.9-4.4-3.7V320h-3.1V317.6z"/>
		<path class="st0" d="M202.5,330c0,1.3,0.7,3.2,3.9,3.2c1.4,0,2.4-0.2,3.1-1.1c0.3-0.5,0.6-1,0.6-1.6c0-1.7-1.2-2-3.8-2.6
			c-3.7-0.8-6.8-1.6-6.8-5.2c0-3.2,2.8-5.3,6.9-5.3c2.2,0,5.3,0.6,6.3,2.7c0.5,1,0.5,1.8,0.5,2.6h-3.4c0.1-2.7-2.2-2.9-3.4-2.9
			c-0.5,0-3.6,0-3.6,2.5c0,1.6,1.6,2,2.5,2.2c4.9,1.2,5.9,1.4,7,2.4c1,0.9,1.3,2.1,1.3,3.3c0,2-1.1,3.6-2.4,4.4
			c-1.5,0.9-3.4,1.2-5.2,1.2c-3.6,0-6.9-1.5-6.9-5.7H202.5z"/>
	</g>
</g>
<g id="Financial">
</g>
<g id="Family">
</g>
<g id="App">
</g>
<g id="Volunteer">
</g>
<g id="Global_Company">
</g>
<g id="Time_Off">
</g>
<g id="Health_Care">
</g>
<g id="Guides">
</g>
</svg>
