<?xml version="1.0" encoding="utf-8"?>
<!-- Generator: Adobe Illustrator 22.0.1, SVG Export Plug-In . SVG Version: 6.00 Build 0)  -->
<svg version="1.1" xmlns="http://www.w3.org/2000/svg" xmlns:xlink="http://www.w3.org/1999/xlink" x="0px" y="0px"
	 viewBox="0 0 300 335.9" style="enable-background:new 0 0 300 335.9;" xml:space="preserve">
<style type="text/css">
	.st0{fill:#FFFFFF;}
</style>
<g id="Background">
</g>
<g id="Financial">
</g>
<g id="Family">
</g>
<g id="App">
</g>
<g id="Volunteer">
</g>
<g id="Global_Company">
</g>
<g id="Time_Off">
	<g>
		<g>
			<path class="st0" d="M185.5,7.9c-12.1-5.3-24.9-7.9-38-7.9C109.4,0,75,22.6,59.8,57.5c-0.7,1.6,0,3.5,1.6,4.2l169.4,73.6
				c0.4,0.2,0.8,0.3,1.3,0.3c1.2,0,2.4-0.7,2.9-1.9C256,85.3,233.8,28.9,185.5,7.9z M230.4,128.2l-163.5-71
				c14.8-31,46-50.8,80.5-50.8c12.2,0,24.2,2.5,35.5,7.4C227.1,32.9,247.9,83.7,230.4,128.2z"/>
			<path class="st0" d="M185.5,7.9c-12.1-5.3-24.9-7.9-38-7.9C109.4,0,75,22.6,59.8,57.5c-0.7,1.6,0,3.5,1.6,4.2l169.4,73.6
				c0.4,0.2,0.8,0.3,1.3,0.3c1.2,0,2.4-0.7,2.9-1.9C256,85.3,233.8,28.9,185.5,7.9z M230.4,128.2l-163.5-71
				c14.8-31,46-50.8,80.5-50.8c12.2,0,24.2,2.5,35.5,7.4C227.1,32.9,247.9,83.7,230.4,128.2z"/>
			<path class="st0" d="M185.5,7.9c-2.3-1-4.8-1.5-7.4-1.5c-20.2,0-48.3,30.9-66.7,73.4c-0.7,1.6,0,3.5,1.6,4.2l66.3,28.8
				c0.4,0.2,0.8,0.3,1.3,0.3c0.4,0,0.8-0.1,1.2-0.2c0.8-0.3,1.4-0.9,1.7-1.7C204.8,62.1,205.7,16.7,185.5,7.9z M178.9,105.8
				l-60.4-26.3c17.2-38.2,42.6-66.7,59.6-66.7c1.7,0,3.4,0.3,4.9,1C197.3,20,198.8,58.2,178.9,105.8z"/>
			<path class="st0" d="M147.8,94.6c-1.6-0.7-3.5,0-4.2,1.6l-43.2,99.3c-0.7,1.6,0,3.5,1.6,4.2c0.4,0.2,0.8,0.3,1.3,0.3
				c1.2,0,2.4-0.7,2.9-1.9l43.2-99.3C150.2,97.2,149.4,95.3,147.8,94.6z"/>
		</g>
		<path class="st0" d="M228.2,193.7H81.3c-1.8,0-3.2,1.4-3.2,3.2s1.4,3.2,3.2,3.2h146.9c1.8,0,3.2-1.4,3.2-3.2
			S230,193.7,228.2,193.7z"/>
		<path class="st0" d="M66.8,193.7H60c-1.8,0-3.2,1.4-3.2,3.2s1.4,3.2,3.2,3.2h6.8c1.8,0,3.2-1.4,3.2-3.2S68.6,193.7,66.8,193.7z"/>
	</g>
	<g>
		<path class="st0" d="M118.2,280h8.5c3.1,0,5.2,0.2,6.9,2c1.3,1.3,1.9,3,1.9,4.9c0,1.9-0.6,3.6-2,4.9c-1.3,1.3-3.1,2.2-7.6,2.2
			h-4.1v11.2h-3.5V280z M121.7,291.1h4.2c2.3,0,5.8-0.2,5.8-4.3c0-4-3.3-4-5.1-4h-4.9V291.1z"/>
		<path class="st0" d="M148.8,305.2c-0.2-0.9-0.3-1.7-0.3-2.6c-1.6,2.9-4,3.2-5.4,3.2c-4,0-6.2-2.3-6.2-5.2c0-1.4,0.5-3.6,3.1-5.1
			c1.9-1.1,4.7-1.2,6.1-1.2c0.8,0,1.4,0,2.4,0.1c0-2.2,0-3.1-0.6-3.9c-0.7-0.9-2.1-1.2-3-1.2c-3.3,0-3.5,2.3-3.5,3H138
			c0.1-0.9,0.2-2.1,1.2-3.3c1.3-1.5,3.8-1.9,5.7-1.9c2.6,0,5.3,0.8,6.2,2.6c0.6,1.1,0.6,1.9,0.6,2.7l-0.1,8.4c0,0.3,0,2.6,0.3,4.4
			H148.8z M146.6,296.6c-1.3,0-6.3,0-6.3,3.6c0,1.1,0.7,3,3.6,3c1.7,0,2.9-0.7,3.7-1.9c0.7-1.2,0.8-2.2,0.8-4.6
			C147.9,296.6,147.4,296.6,146.6,296.6z"/>
		<path class="st0" d="M156.9,280h4v3.6h-4V280z M157.3,287.7h3.3v17.6h-3.3V287.7z"/>
		<path class="st0" d="M178.8,280h3.3v22.4c0,0.4,0.1,1.9,0.1,2.8h-3.3l-0.1-2.8c-0.3,0.5-0.7,1.2-1.6,1.9c-1.4,1-3.2,1.3-4.3,1.3
			c-2.3,0-7.6-1.2-7.6-8.9c0-6.7,3.8-9.6,7.9-9.6c3.8,0,5,2.2,5.5,3V280z M177.6,291.3c-0.7-0.9-2-1.8-3.8-1.8c-4.8,0-4.8,5.8-4.8,7
			c0,3.1,0.8,6.7,4.8,6.7c5.2,0,5.2-5.7,5.2-7.1C178.9,293.6,178.3,292.2,177.6,291.3z"/>
		<path class="st0" d="M87.9,317.6H91v-3.7l3.3-1v4.7h3.9v2.4h-3.9v10.5c0,0.9,0,2.3,2.3,2.3c0.7,0,1.3-0.1,1.6-0.2v2.6
			c-0.6,0.1-1.5,0.2-2.7,0.2c-3,0-4.4-0.9-4.4-3.7V320h-3.1V317.6z"/>
		<path class="st0" d="M101.6,310h4v3.6h-4V310z M101.9,317.7h3.3v17.6h-3.3V317.7z"/>
		<path class="st0" d="M111.2,320l-0.1-2.3h3.3v2.6c1.7-2.8,4.1-3,5.6-3c3.9,0,5.1,2,5.7,3.3c0.6-1,2-3.3,5.9-3.3
			c2.5,0,6.4,1.1,6.4,6.2v11.8h-3.3V324c0-1.5-0.3-2.2-0.6-2.7c-0.6-0.8-1.7-1.5-3.4-1.5c-2.1,0-3.3,1.2-3.7,1.9
			c-0.8,1.1-0.8,3-0.8,3.8v9.8H123v-11.6c0-2.2-1.3-3.9-3.9-3.9c-2.2,0-3.5,1.4-3.9,1.9c-0.7,1-0.8,2.5-0.8,3.6v10h-3.3V320z"/>
		<path class="st0" d="M146,327c-0.1,3.6,1.4,6.3,5,6.3c2.1,0,3.9-1.1,4.1-3.6h3.3c-0.1,0.9-0.2,2.3-1.5,3.7
			c-0.8,0.9-2.5,2.3-6.1,2.3c-5.5,0-8.2-3.4-8.2-9c0-3.5,0.7-6.3,3.5-8.3c1.7-1.2,3.8-1.3,4.8-1.3c7.9,0,7.7,7,7.6,9.8H146z
			 M155.2,324.7c0-1.7-0.3-5.2-4.3-5.2c-2.1,0-4.7,1.3-4.8,5.2H155.2z"/>
		<path class="st0" d="M180.1,317.2c7,0,8.6,5.5,8.6,9.2c0,5.1-2.9,9.4-8.9,9.4c-5.8,0-8.6-4-8.6-9.2
			C171.2,322.3,173.2,317.2,180.1,317.2z M179.9,333.4c2.5,0,5.3-1.8,5.3-7.1c0-4.4-2-6.7-5.1-6.7c-2.1,0-5.5,1.3-5.5,6.8
			C174.6,330.1,176.1,333.4,179.9,333.4z"/>
		<path class="st0" d="M202.3,312.4c-0.6,0-1.3-0.1-1.9-0.1c-2.7,0-2.7,1.3-2.7,2.6v2.8h4.1v2.4h-4.1v15.2h-3.3V320H191v-2.4h3.5v-2
			c0-2.4,0.1-3.3,0.7-4.2c0.7-1.1,2.1-1.9,4.4-1.9c0.9,0,2,0.1,2.7,0.2V312.4z"/>
		<path class="st0" d="M212.7,312.4c-0.6,0-1.3-0.1-1.9-0.1c-2.7,0-2.7,1.3-2.7,2.6v2.8h4.1v2.4h-4.1v15.2h-3.3V320h-3.5v-2.4h3.5
			v-2c0-2.4,0.1-3.3,0.7-4.2c0.7-1.1,2.1-1.9,4.4-1.9c0.9,0,2,0.1,2.7,0.2V312.4z"/>
	</g>
</g>
<g id="Health_Care">
</g>
<g id="Guides">
</g>
</svg>
