<?xml version="1.0" encoding="utf-8"?>
<!-- Generator: Adobe Illustrator 22.0.1, SVG Export Plug-In . SVG Version: 6.00 Build 0)  -->
<svg version="1.1" xmlns="http://www.w3.org/2000/svg" xmlns:xlink="http://www.w3.org/1999/xlink" x="0px" y="0px"
	 viewBox="0 0 300 336.3" style="enable-background:new 0 0 300 336.3;" xml:space="preserve">
<style type="text/css">
	.st0{fill:#FFFFFF;}
</style>
<g id="Background">
	<g>
		<g>
			<path class="st0" d="M219.4,77.1h-139c-1.7,0-3.2,1.4-3.2,3.2c0,40.1,32.6,72.7,72.7,72.7s72.7-32.6,72.7-72.7
				C222.6,78.5,221.1,77.1,219.4,77.1z M149.9,146.6c-35.5,0-64.6-28.1-66.3-63.2h132.6C214.5,118.5,185.4,146.6,149.9,146.6z"/>
			<path class="st0" d="M157.4,0c-44.2,0-80.2,36-80.2,80.2c0,1.7,1.4,3.2,3.2,3.2h77c1.7,0,3.2-1.4,3.2-3.2V3.2
				C160.6,1.4,159.2,0,157.4,0z M154.3,77.1H83.6C85.2,38.8,116,8,154.3,6.4V77.1z"/>
			<path class="st0" d="M157.4,0c-21.4,0-41.6,8.3-56.7,23.5c-1.2,1.2-1.2,3.2,0,4.5l54.5,54.5c0.6,0.6,1.4,0.9,2.2,0.9
				c0.4,0,0.8-0.1,1.2-0.2c1.2-0.5,1.9-1.6,1.9-2.9V3.2C160.6,1.4,159.2,0,157.4,0z M154.3,72.6l-46.8-46.9
				c12.9-11.9,29.3-18.7,46.8-19.4V72.6z"/>
		</g>
		<path class="st0" d="M164.7,146.3c-1.3-1.2-3.2-1.2-4.5,0.1c-1.2,1.3-1.2,3.2,0.1,4.5l32.5,31.4c0.6,0.6,1.4,0.9,2.2,0.9
			c0.8,0,1.6-0.3,2.3-1c1.2-1.3,1.2-3.2-0.1-4.5L164.7,146.3z"/>
		<path class="st0" d="M135.1,146.3l-32.5,31.4c-1.3,1.2-1.3,3.2-0.1,4.5c0.6,0.6,1.4,1,2.3,1c0.8,0,1.6-0.3,2.2-0.9l32.5-31.4
			c1.3-1.2,1.3-3.2,0.1-4.5C138.4,145.1,136.4,145.1,135.1,146.3z"/>
		<path class="st0" d="M104.8,160c-11,0-20,9-20,20c0,11,9,20,20,20c11,0,20-9,20-20C124.9,168.9,115.9,160,104.8,160z M104.8,193.7
			c-7.6,0-13.7-6.2-13.7-13.7c0-7.6,6.2-13.7,13.7-13.7c7.6,0,13.7,6.2,13.7,13.7C118.6,187.5,112.4,193.7,104.8,193.7z"/>
		<path class="st0" d="M195,160c-11,0-20,9-20,20c0,11,9,20,20,20c11,0,20-9,20-20C215,168.9,206,160,195,160z M195,193.7
			c-7.6,0-13.7-6.2-13.7-13.7c0-7.6,6.2-13.7,13.7-13.7c7.6,0,13.7,6.2,13.7,13.7C208.7,187.5,202.5,193.7,195,193.7z"/>
	</g>
	<g>
		<path class="st0" d="M63,280h8.5c3.1,0,5.2,0.2,6.9,2c1.3,1.3,1.9,3,1.9,4.9c0,1.9-0.6,3.6-2,4.9c-1.3,1.3-3.1,2.2-7.6,2.2h-4.1
			v11.2H63V280z M66.5,291.1h4.2c2.3,0,5.8-0.2,5.8-4.3c0-4-3.3-4-5.1-4h-4.9V291.1z"/>
		<path class="st0" d="M93.7,305.2c-0.2-0.9-0.3-1.7-0.3-2.6c-1.6,2.9-4,3.2-5.4,3.2c-4,0-6.2-2.3-6.2-5.2c0-1.4,0.5-3.6,3.1-5.1
			c1.9-1.1,4.7-1.2,6.1-1.2c0.8,0,1.4,0,2.4,0.1c0-2.2,0-3.1-0.6-3.9c-0.7-0.9-2.1-1.2-3-1.2c-3.3,0-3.5,2.3-3.5,3h-3.3
			c0.1-0.9,0.2-2.1,1.2-3.3c1.3-1.5,3.8-1.9,5.7-1.9c2.6,0,5.3,0.8,6.2,2.6c0.6,1.1,0.6,1.9,0.6,2.7l-0.1,8.4c0,0.3,0,2.6,0.3,4.4
			H93.7z M91.4,296.6c-1.3,0-6.3,0-6.3,3.6c0,1.1,0.7,3,3.6,3c1.7,0,2.9-0.7,3.7-1.9c0.7-1.2,0.8-2.2,0.8-4.6
			C92.7,296.6,92.2,296.6,91.4,296.6z"/>
		<path class="st0" d="M101.8,280h4v3.6h-4V280z M102.1,287.7h3.3v17.6h-3.3V287.7z"/>
		<path class="st0" d="M123.6,280h3.3v22.4c0,0.4,0.1,1.9,0.1,2.8h-3.3l-0.1-2.8c-0.3,0.5-0.7,1.2-1.6,1.9c-1.4,1-3.2,1.3-4.3,1.3
			c-2.3,0-7.6-1.2-7.6-8.9c0-6.7,3.8-9.6,7.9-9.6c3.8,0,5,2.2,5.5,3V280z M122.4,291.3c-0.7-0.9-2-1.8-3.8-1.8c-4.8,0-4.8,5.8-4.8,7
			c0,3.1,0.8,6.7,4.8,6.7c5.2,0,5.2-5.7,5.2-7.1C123.7,293.6,123.1,292.2,122.4,291.3z"/>
		<path class="st0" d="M150.7,282.4c-0.6,0-1.3-0.1-1.9-0.1c-2.7,0-2.7,1.3-2.7,2.6v2.8h4.1v2.4h-4.1v15.2h-3.3V290h-3.5v-2.4h3.5
			v-2c0-2.4,0.1-3.3,0.7-4.2c0.7-1.1,2.1-1.9,4.4-1.9c0.9,0,2,0.1,2.7,0.2V282.4z"/>
		<path class="st0" d="M163.9,305.2c-0.2-0.9-0.3-1.7-0.3-2.6c-1.6,2.9-4,3.2-5.4,3.2c-4,0-6.2-2.3-6.2-5.2c0-1.4,0.5-3.6,3.1-5.1
			c1.9-1.1,4.7-1.2,6.1-1.2c0.8,0,1.4,0,2.4,0.1c0-2.2,0-3.1-0.6-3.9c-0.7-0.9-2.1-1.2-3-1.2c-3.3,0-3.5,2.3-3.5,3H153
			c0.1-0.9,0.2-2.1,1.2-3.3c1.3-1.5,3.8-1.9,5.7-1.9c2.6,0,5.3,0.8,6.2,2.6c0.6,1.1,0.6,1.9,0.6,2.7l-0.1,8.4c0,0.3,0,2.6,0.3,4.4
			H163.9z M161.6,296.6c-1.3,0-6.3,0-6.3,3.6c0,1.1,0.7,3,3.6,3c1.7,0,2.9-0.7,3.7-1.9c0.7-1.2,0.8-2.2,0.8-4.6
			C162.9,296.6,162.4,296.6,161.6,296.6z"/>
		<path class="st0" d="M172.2,290l-0.1-2.3h3.3v2.6c1.7-2.8,4.1-3,5.6-3c3.9,0,5.1,2,5.7,3.3c0.6-1,2-3.3,5.9-3.3
			c2.5,0,6.4,1.1,6.4,6.2v11.8h-3.3V294c0-1.5-0.3-2.2-0.6-2.7c-0.6-0.8-1.7-1.5-3.4-1.5c-2.1,0-3.3,1.2-3.7,1.9
			c-0.8,1.1-0.8,3-0.8,3.8v9.8H184v-11.6c0-2.2-1.3-3.9-3.9-3.9c-2.2,0-3.5,1.4-3.9,1.9c-0.7,1-0.8,2.5-0.8,3.6v10h-3.3V290z"/>
		<path class="st0" d="M204.7,280h4v3.6h-4V280z M205,287.7h3.3v17.6H205V287.7z"/>
		<path class="st0" d="M214.4,280h3.3v25.2h-3.3V280z"/>
		<path class="st0" d="M231.6,305.3l-2.5,6.5h-3.4l2.7-6.7l-7.3-17.5h3.7l5.5,13.9l5.6-13.9h3.6L231.6,305.3z"/>
		<path class="st0" d="M110.1,310h3.3v25.2h-3.3V310z"/>
		<path class="st0" d="M121.4,327c-0.1,3.6,1.4,6.3,5,6.3c2.1,0,3.9-1.1,4.1-3.6h3.3c-0.1,0.9-0.2,2.3-1.5,3.7
			c-0.8,0.9-2.5,2.3-6.1,2.3c-5.5,0-8.2-3.4-8.2-9c0-3.5,0.7-6.3,3.5-8.3c1.7-1.2,3.8-1.3,4.8-1.3c7.9,0,7.7,7,7.6,9.8H121.4z
			 M130.6,324.7c0-1.7-0.3-5.2-4.3-5.2c-2.1,0-4.7,1.3-4.8,5.2H130.6z"/>
		<path class="st0" d="M149.2,335.2c-0.2-0.9-0.3-1.7-0.3-2.6c-1.6,2.9-4,3.2-5.4,3.2c-4,0-6.2-2.3-6.2-5.2c0-1.4,0.5-3.6,3.1-5.1
			c1.9-1.1,4.7-1.2,6.1-1.2c0.8,0,1.4,0,2.4,0.1c0-2.2,0-3.1-0.6-3.9c-0.7-0.9-2.1-1.2-3-1.2c-3.3,0-3.5,2.3-3.5,3h-3.3
			c0.1-0.9,0.2-2.1,1.2-3.3c1.3-1.5,3.8-1.9,5.7-1.9c2.6,0,5.3,0.8,6.2,2.6c0.6,1.1,0.6,1.9,0.6,2.7l-0.1,8.4c0,0.3,0,2.6,0.3,4.4
			H149.2z M146.9,326.6c-1.3,0-6.3,0-6.3,3.6c0,1.1,0.7,3,3.6,3c1.7,0,2.9-0.7,3.7-1.9c0.7-1.2,0.8-2.2,0.8-4.6
			C148.2,326.6,147.7,326.6,146.9,326.6z"/>
		<path class="st0" d="M154.9,317.7h3.7l5.6,13.9l5.5-13.9h3.6l-7.7,17.6h-3.3L154.9,317.7z"/>
		<path class="st0" d="M178.7,327c-0.1,3.6,1.4,6.3,5,6.3c2.1,0,3.9-1.1,4.1-3.6h3.3c-0.1,0.9-0.2,2.3-1.5,3.7
			c-0.8,0.9-2.5,2.3-6.1,2.3c-5.5,0-8.2-3.4-8.2-9c0-3.5,0.7-6.3,3.5-8.3c1.7-1.2,3.8-1.3,4.8-1.3c7.9,0,7.7,7,7.6,9.8H178.7z
			 M188,324.7c0-1.7-0.3-5.2-4.3-5.2c-2.1,0-4.7,1.3-4.8,5.2H188z"/>
	</g>
</g>
<g id="Financial">
</g>
<g id="Family">
</g>
<g id="App">
</g>
<g id="Volunteer">
</g>
<g id="Global_Company">
</g>
<g id="Time_Off">
</g>
<g id="Health_Care">
</g>
<g id="Guides">
</g>
</svg>
