<?xml version="1.0" encoding="utf-8"?>
<!-- Generator: Adobe Illustrator 22.0.1, SVG Export Plug-In . SVG Version: 6.00 Build 0)  -->
<svg version="1.1" xmlns="http://www.w3.org/2000/svg" xmlns:xlink="http://www.w3.org/1999/xlink" x="0px" y="0px"
	 viewBox="0 0 300 342.2" style="enable-background:new 0 0 300 342.2;" xml:space="preserve">
<style type="text/css">
	.st0{fill:#FFFFFF;}
</style>
<g id="Background">
</g>
<g id="Financial">
	<g>
		<g>
			<path class="st0" d="M208.9,46.3L135.5,0.4c-0.6-0.4-1.3-0.5-2-0.3c-0.7,0.2-1.3,0.6-1.6,1.2l-93,148.8c-0.4,0.6-0.5,1.3-0.3,2
				c0.2,0.7,0.6,1.3,1.2,1.6l73.4,45.9c0.4,0.3,0.9,0.4,1.4,0.4c0.9,0,1.7-0.4,2.2-1.2l93-148.8C210.5,48.6,210.1,47,208.9,46.3z
				 M113.7,193.7l-69-43.1L134.9,6.2l69,43.1L113.7,193.7z"/>
			<path class="st0" d="M180.4,55.3c-0.8-2.6-1-5.2-0.7-7.4c0.1-1-0.3-2-1.2-2.6l-27.3-17.1c-0.9-0.5-2-0.5-2.8,0
				c-1.9,1.2-4.4,2.2-7,2.6c-3,0.5-6,0.4-8.2-0.4c-1.1-0.4-2.4,0.1-3,1.1L65.4,135.1c-0.6,1-0.5,2.4,0.4,3.2
				c1.6,1.7,3.1,4.3,3.9,7.2c0.8,2.6,1,5.2,0.7,7.4c-0.1,1,0.3,2,1.2,2.6L99,172.6c0.4,0.3,0.9,0.4,1.4,0.4c0.5,0,1-0.1,1.4-0.4
				c1.9-1.2,4.4-2.2,7-2.6c2.4-0.4,4.8-0.4,6.8,0c1.1,0.2,2.2-0.3,2.7-1.2l65.2-104.4c0.6-0.9,0.5-2.1-0.1-3
				C182.1,59.8,181.1,57.6,180.4,55.3z M114.8,164.5c-2.2-0.3-4.6-0.2-6.9,0.2c-2.7,0.5-5.3,1.3-7.5,2.5l-24.6-15.4
				c0.1-2.5-0.3-5.2-1-7.9c-0.9-3-2.2-5.7-3.9-7.8L133.4,36c2.6,0.5,5.7,0.5,8.7,0c2.8-0.5,5.3-1.3,7.5-2.5l24.6,15.4
				c-0.1,2.5,0.2,5.2,1,7.9c0.7,2.3,1.7,4.5,2.8,6.3L114.8,164.5z"/>
			<path class="st0" d="M135.3,82.4c-3.4-2.1-7.2-3.2-11.2-3.2c-7.2,0-13.7,3.6-17.5,9.6c-2.9,4.7-3.8,10.2-2.5,15.7
				c1.3,5.4,4.6,10,9.3,13c3.4,2.1,7.2,3.2,11.2,3.2c0,0,0,0,0,0c7.2,0,13.7-3.6,17.5-9.6C148.1,101.4,145.1,88.6,135.3,82.4z
				 M137.7,108.3c-2.8,4.5-7.7,7.2-13.1,7.2c-3,0-5.9-0.8-8.4-2.4c-3.6-2.2-6.1-5.7-7-9.7c-1-4-0.3-8.2,1.9-11.7
				c2.8-4.5,7.7-7.2,13.1-7.2c3,0,5.9,0.8,8.4,2.4C139.9,91.5,142.2,101.1,137.7,108.3z"/>
		</g>
		<g>
			<path class="st0" d="M197.1,1c-1.1-1-2.7-0.9-3.7,0.1l-13.6,14.7c-1,1.1-0.9,2.7,0.1,3.7c1.1,1,2.7,0.9,3.7-0.1l11.9-12.8
				l59.7,55.3L139.5,186.8l-4.9-4.5c-1.1-1-2.7-0.9-3.7,0.1c-1,1.1-0.9,2.7,0.1,3.7l6.8,6.3c0.5,0.5,1.1,0.7,1.8,0.7
				c0.7,0,1.4-0.3,1.9-0.8L260.8,63.5c1-1.1,0.9-2.7-0.1-3.7L197.1,1z"/>
			<path class="st0" d="M230.9,63.3c-0.3-2.7,0-5.3,0.7-7.4c0.3-1,0-2-0.7-2.7l-23.7-21.9c-1.1-1-2.7-0.9-3.7,0.1
				c-1,1.1-0.9,2.7,0.1,3.7l22.5,20.8c-0.6,2.5-0.7,5.2-0.5,7.9c0.2,2.4,0.8,4.7,1.6,6.7l-82.4,89c-1,1.1-0.9,2.7,0.1,3.7
				c0.5,0.5,1.1,0.7,1.8,0.7c0.7,0,1.4-0.3,1.9-0.8l83.6-90.3c0.7-0.8,0.9-2,0.4-3C231.8,68.1,231.2,65.8,230.9,63.3z"/>
		</g>
	</g>
	<g>
		<path class="st0" d="M80.8,280h15.1v3H84.4v7.9h10.8v2.9H84.4v11.5h-3.6V280z"/>
		<path class="st0" d="M99.4,280h4v3.6h-4V280z M99.7,287.7h3.3v17.6h-3.3V287.7z"/>
		<path class="st0" d="M109.2,289.7l0-2h3.3l0,2.8c0.4-0.7,1.6-3.2,5.6-3.2c1.6,0,6.4,0.6,6.4,6v11.9h-3.4v-11.2
			c0-1.2-0.1-2.2-0.9-3c-0.8-0.8-2-1.2-3.1-1.2c-2.4,0-4.6,1.7-4.6,5.2v10.1h-3.3V289.7z"/>
		<path class="st0" d="M140.8,305.2c-0.2-0.9-0.3-1.7-0.3-2.6c-1.6,2.9-4,3.2-5.4,3.2c-4,0-6.2-2.3-6.2-5.2c0-1.4,0.5-3.6,3.1-5.1
			c1.9-1.1,4.7-1.2,6.1-1.2c0.8,0,1.4,0,2.4,0.1c0-2.2,0-3.1-0.6-3.9c-0.7-0.9-2.1-1.2-3-1.2c-3.3,0-3.5,2.3-3.5,3h-3.3
			c0.1-0.9,0.2-2.1,1.2-3.3c1.3-1.5,3.8-1.9,5.7-1.9c2.6,0,5.3,0.8,6.2,2.6c0.6,1.1,0.6,1.9,0.6,2.7l-0.1,8.4c0,0.3,0,2.6,0.3,4.4
			H140.8z M138.5,296.6c-1.3,0-6.3,0-6.3,3.6c0,1.1,0.7,3,3.6,3c1.7,0,2.9-0.7,3.7-1.9c0.7-1.2,0.8-2.2,0.8-4.6
			C139.8,296.6,139.3,296.6,138.5,296.6z"/>
		<path class="st0" d="M149.3,289.7l0-2h3.3l0,2.8c0.4-0.7,1.6-3.2,5.6-3.2c1.6,0,6.4,0.6,6.4,6v11.9h-3.4v-11.2
			c0-1.2-0.1-2.2-0.9-3c-0.8-0.8-2-1.2-3.1-1.2c-2.4,0-4.6,1.7-4.6,5.2v10.1h-3.3V289.7z"/>
		<path class="st0" d="M180.2,293.3c-0.1-0.8-0.3-3.7-3.5-3.7c-4.6,0-4.6,5.3-4.6,6.6c0,3.6,0.9,7,4.4,7c2.8,0,3.7-2.1,3.8-3.8h3.3
			c-0.2,3.4-2.8,6.3-7.1,6.3c-1.2,0-3.9-0.2-5.8-2.3c-1.1-1.2-2.1-3.1-2.1-6.7c0-7.3,4.5-9.5,8-9.5c1.2,0,3.8,0.2,5.4,2.2
			c1.3,1.5,1.4,2.9,1.5,3.9H180.2z"/>
		<path class="st0" d="M187.1,280h4v3.6h-4V280z M187.4,287.7h3.3v17.6h-3.3V287.7z"/>
		<path class="st0" d="M207.5,305.2c-0.2-0.9-0.3-1.7-0.3-2.6c-1.6,2.9-4,3.2-5.4,3.2c-4,0-6.2-2.3-6.2-5.2c0-1.4,0.5-3.6,3.1-5.1
			c1.9-1.1,4.7-1.2,6.1-1.2c0.8,0,1.4,0,2.4,0.1c0-2.2,0-3.1-0.6-3.9c-0.7-0.9-2.1-1.2-3-1.2c-3.3,0-3.5,2.3-3.5,3h-3.3
			c0.1-0.9,0.2-2.1,1.2-3.3c1.3-1.5,3.8-1.9,5.7-1.9c2.6,0,5.3,0.8,6.2,2.6c0.6,1.1,0.6,1.9,0.6,2.7l-0.1,8.4c0,0.3,0,2.6,0.3,4.4
			H207.5z M205.2,296.6c-1.3,0-6.3,0-6.3,3.6c0,1.1,0.7,3,3.6,3c1.7,0,2.9-0.7,3.7-1.9c0.7-1.2,0.8-2.2,0.8-4.6
			C206.5,296.6,206,296.6,205.2,296.6z"/>
		<path class="st0" d="M215.9,280h3.3v25.2h-3.3V280z"/>
		<path class="st0" d="M91,330c0,1.3,0.7,3.2,3.9,3.2c1.4,0,2.4-0.2,3.1-1.1c0.3-0.5,0.6-1,0.6-1.6c0-1.7-1.2-2-3.8-2.6
			c-3.7-0.8-6.8-1.6-6.8-5.2c0-3.2,2.8-5.3,6.9-5.3c2.2,0,5.3,0.6,6.3,2.7c0.5,1,0.5,1.8,0.5,2.6h-3.4c0.1-2.7-2.2-2.9-3.4-2.9
			c-0.5,0-3.6,0-3.6,2.5c0,1.6,1.6,2,2.5,2.2c4.9,1.2,5.9,1.4,7,2.4c1,0.9,1.3,2.1,1.3,3.3c0,2-1.1,3.6-2.4,4.4
			c-1.5,0.9-3.4,1.2-5.2,1.2c-3.6,0-6.9-1.5-6.9-5.7H91z"/>
		<path class="st0" d="M108.3,327c-0.1,3.6,1.4,6.3,5,6.3c2.1,0,3.9-1.1,4.1-3.6h3.3c-0.1,0.9-0.2,2.3-1.5,3.7
			c-0.8,0.9-2.5,2.3-6.1,2.3c-5.5,0-8.2-3.4-8.2-9c0-3.5,0.7-6.3,3.5-8.3c1.7-1.2,3.8-1.3,4.8-1.3c7.9,0,7.7,7,7.6,9.8H108.3z
			 M117.6,324.7c0-1.7-0.3-5.2-4.3-5.2c-2.1,0-4.7,1.3-4.8,5.2H117.6z"/>
		<path class="st0" d="M135.4,323.3c-0.1-0.8-0.3-3.7-3.5-3.7c-4.5,0-4.5,5.3-4.5,6.6c0,3.6,0.9,7,4.4,7c2.8,0,3.7-2.1,3.8-3.8h3.3
			c-0.2,3.4-2.8,6.3-7.1,6.3c-1.2,0-3.9-0.2-5.8-2.3c-1.1-1.2-2.1-3.1-2.1-6.7c0-7.3,4.5-9.5,8-9.5c1.2,0,3.8,0.2,5.4,2.2
			c1.3,1.5,1.4,2.9,1.5,3.9H135.4z"/>
		<path class="st0" d="M145.6,317.7V329c0,1.7,0.4,3.9,3.7,3.9c1.6,0,3.2-0.6,4.1-2c0.7-1,0.7-2.4,0.7-3.3v-9.9h3.4v14.3
			c0,0.3,0.1,2.3,0.1,3.3h-3.4l-0.1-3c-0.6,1.2-1.8,3.2-5.6,3.2c-4.3,0-6.4-2.5-6.4-6v-11.8H145.6z"/>
		<path class="st0" d="M163.8,321.2c0-1.2-0.1-2.4-0.2-3.6h3.3l0.1,3.4c0.6-2.5,2.7-3.3,4.2-3.5c1-0.1,1.7-0.1,2.3-0.1v3.2
			c-0.2-0.1-0.4-0.1-0.6-0.1s-0.6,0-0.9,0c-3.9,0-4.8,2.3-4.8,5.3v9.3h-3.3V321.2z"/>
		<path class="st0" d="M176.5,310h4v3.6h-4V310z M176.9,317.7h3.3v17.6h-3.3V317.7z"/>
		<path class="st0" d="M183.5,317.6h3.1v-3.7l3.3-1v4.7h3.9v2.4h-3.9v10.5c0,0.9,0,2.3,2.3,2.3c0.7,0,1.3-0.1,1.6-0.2v2.6
			c-0.6,0.1-1.5,0.2-2.7,0.2c-3,0-4.4-0.9-4.4-3.7V320h-3.1V317.6z"/>
		<path class="st0" d="M205.5,335.3l-2.5,6.5h-3.4l2.7-6.7l-7.3-17.5h3.7l5.5,13.9l5.6-13.9h3.6L205.5,335.3z"/>
	</g>
</g>
<g id="Family">
</g>
<g id="App">
</g>
<g id="Volunteer">
</g>
<g id="Global_Company">
</g>
<g id="Time_Off">
</g>
<g id="Health_Care">
</g>
<g id="Guides">
</g>
</svg>
