<?xml version="1.0" encoding="utf-8"?>
<!-- Generator: Adobe Illustrator 22.0.1, SVG Export Plug-In . SVG Version: 6.00 Build 0)  -->
<svg version="1.1" xmlns="http://www.w3.org/2000/svg" xmlns:xlink="http://www.w3.org/1999/xlink" x="0px" y="0px"
	 viewBox="0 0 300 341.9" style="enable-background:new 0 0 300 341.9;" xml:space="preserve">
<style type="text/css">
	.st0{fill:#FFFFFF;}
</style>
<g id="Background">
</g>
<g id="Financial">
</g>
<g id="Family">
</g>
<g id="App">
</g>
<g id="Volunteer">
	<g>
		<path class="st0" d="M209.8,0c-13.4,0-26,3.8-36.4,10.9c-9,6.1-16.2,13.9-20.9,22.7c-0.9,1.7-1.8,3.4-2.6,5.3
			c-0.8-1.8-1.7-3.6-2.6-5.3c-4.7-8.7-11.9-16.6-20.9-22.7C116,3.8,103.4,0,90,0C63,0,33.1,16.7,28.4,48.7
			c-2.5,17.2,1.5,36.7,11.4,55.1c28.1,52.6,102.8,92.8,108,95.6c0.1,0.1,0.3,0.1,0.4,0.2c0.5,0.2,1,0.3,1.5,0.4c0.1,0,0.2,0,0.3,0
			c0.6,0,1.2-0.1,1.8-0.4c0.1-0.1,0.3-0.1,0.4-0.2c5.2-2.7,79.8-43,108-95.6c9.8-18.4,13.9-38,11.4-55.1C266.7,16.7,236.9,0,209.8,0
			z M252.6,99.9c-24.9,46.5-90.6,84.5-102.7,91.2c-12.1-6.7-77.8-44.7-102.7-91.2c-9-16.8-12.7-34.6-10.5-50
			C40.7,22.6,66.5,8.3,90,8.3c11.7,0,22.7,3.3,31.8,9.4c7.9,5.4,14.2,12.2,18.2,19.7c2.2,4.2,4.2,8.9,6,14.2c0.6,1.7,2.2,2.9,4,2.9
			c1.8,0,3.4-1.2,4-2.9c1.7-5.2,3.7-10,6-14.2c4-7.5,10.3-14.3,18.2-19.7c9.1-6.2,20.1-9.4,31.8-9.4c23.5,0,49.3,14.3,53.3,41.5
			C265.4,65.3,261.6,83,252.6,99.9z"/>
	</g>
	<g>
		<path class="st0" d="M85.3,305.2h-3.8l-9-25.3h3.9l7.2,21.6l7.6-21.6h3.5L85.3,305.2z"/>
		<path class="st0" d="M103.1,287.2c7,0,8.6,5.5,8.6,9.2c0,5.1-2.9,9.4-8.9,9.4c-5.8,0-8.6-4-8.6-9.2
			C94.2,292.3,96.2,287.2,103.1,287.2z M102.9,303.4c2.5,0,5.3-1.8,5.3-7.1c0-4.4-2-6.7-5.1-6.7c-2.1,0-5.5,1.3-5.5,6.8
			C97.6,300.1,99.1,303.4,102.9,303.4z"/>
		<path class="st0" d="M116.6,280h3.3v25.2h-3.3V280z"/>
		<path class="st0" d="M128.9,287.7V299c0,1.7,0.4,3.9,3.7,3.9c1.6,0,3.2-0.6,4.1-2c0.7-1,0.7-2.4,0.7-3.3v-9.9h3.4v14.3
			c0,0.3,0.1,2.3,0.1,3.3h-3.4l-0.1-3c-0.6,1.2-1.8,3.2-5.6,3.2c-4.3,0-6.4-2.5-6.4-6v-11.8H128.9z"/>
		<path class="st0" d="M147,289.7l0-2h3.3l0,2.8c0.4-0.7,1.6-3.2,5.6-3.2c1.6,0,6.4,0.6,6.4,6v11.9h-3.4v-11.2c0-1.2-0.1-2.2-0.9-3
			c-0.8-0.8-2-1.2-3.1-1.2c-2.4,0-4.6,1.7-4.6,5.2v10.1H147V289.7z"/>
		<path class="st0" d="M165.2,287.6h3.1v-3.7l3.3-1v4.7h3.9v2.4h-3.9v10.5c0,0.9,0,2.3,2.3,2.3c0.7,0,1.3-0.1,1.6-0.2v2.6
			c-0.6,0.1-1.5,0.2-2.7,0.2c-3,0-4.4-0.9-4.4-3.7V290h-3.1V287.6z"/>
		<path class="st0" d="M181.2,297c-0.1,3.6,1.4,6.3,5,6.3c2.1,0,3.9-1.1,4.1-3.6h3.3c-0.1,0.9-0.2,2.3-1.5,3.7
			c-0.8,0.9-2.5,2.3-6.1,2.3c-5.5,0-8.2-3.4-8.2-9c0-3.5,0.7-6.3,3.5-8.3c1.7-1.2,3.8-1.3,4.8-1.3c7.9,0,7.7,7,7.6,9.8H181.2z
			 M190.5,294.7c0-1.7-0.3-5.2-4.3-5.2c-2.1,0-4.7,1.3-4.8,5.2H190.5z"/>
		<path class="st0" d="M200.3,297c-0.1,3.6,1.4,6.3,5,6.3c2.1,0,3.9-1.1,4.1-3.6h3.3c-0.1,0.9-0.2,2.3-1.5,3.7
			c-0.8,0.9-2.5,2.3-6.1,2.3c-5.5,0-8.2-3.4-8.2-9c0-3.5,0.7-6.3,3.5-8.3c1.7-1.2,3.8-1.3,4.8-1.3c7.9,0,7.7,7,7.6,9.8H200.3z
			 M209.6,294.7c0-1.7-0.3-5.2-4.3-5.2c-2.1,0-4.7,1.3-4.8,5.2H209.6z"/>
		<path class="st0" d="M217.6,291.2c0-1.2-0.1-2.4-0.2-3.6h3.3l0.1,3.4c0.6-2.5,2.7-3.3,4.2-3.5c1-0.1,1.7-0.1,2.3-0.1v3.2
			c-0.2-0.1-0.4-0.1-0.6-0.1s-0.6,0-0.9,0c-3.9,0-4.8,2.3-4.8,5.3v9.3h-3.3V291.2z"/>
		<path class="st0" d="M52.4,317.2c7,0,8.6,5.5,8.6,9.2c0,5.1-2.9,9.4-8.9,9.4c-5.8,0-8.6-4-8.6-9.2
			C43.5,322.3,45.5,317.2,52.4,317.2z M52.2,333.4c2.5,0,5.3-1.8,5.3-7.1c0-4.4-2-6.7-5.1-6.7c-2.1,0-5.5,1.3-5.5,6.8
			C46.9,330.1,48.5,333.4,52.2,333.4z"/>
		<path class="st0" d="M65.7,320.5c0-0.8,0-1.2-0.1-2.9h3.3l0.1,2.9c1.6-2.8,4.6-3.2,6-3.2c3.8,0,7.4,2.6,7.4,9.1
			c0,6.5-3.8,9.4-8,9.4c-2.6,0-4.4-1.1-5.4-2.6v8.7h-3.3V320.5z M73.8,333.5c0.8,0,2.6-0.2,3.7-1.7c1.3-1.7,1.4-4.2,1.4-5.5
			c0-3.2-0.9-6.4-4.8-6.4c-5.2,0-5.2,5.6-5.2,7.1C68.9,329.1,69.2,333.5,73.8,333.5z"/>
		<path class="st0" d="M86.8,320.5c0-0.8,0-1.2-0.1-2.9H90l0.1,2.9c1.6-2.8,4.6-3.2,6-3.2c3.8,0,7.4,2.6,7.4,9.1
			c0,6.5-3.8,9.4-8,9.4c-2.6,0-4.4-1.1-5.4-2.6v8.7h-3.3V320.5z M94.8,333.5c0.8,0,2.6-0.2,3.7-1.7c1.3-1.7,1.4-4.2,1.4-5.5
			c0-3.2-0.9-6.4-4.8-6.4c-5.2,0-5.2,5.6-5.2,7.1C89.9,329.1,90.2,333.5,94.8,333.5z"/>
		<path class="st0" d="M115.5,317.2c7,0,8.6,5.5,8.6,9.2c0,5.1-2.9,9.4-8.9,9.4c-5.8,0-8.6-4-8.6-9.2
			C106.6,322.3,108.6,317.2,115.5,317.2z M115.3,333.4c2.5,0,5.3-1.8,5.3-7.1c0-4.4-2-6.7-5.1-6.7c-2.1,0-5.5,1.3-5.5,6.8
			C110,330.1,111.6,333.4,115.3,333.4z"/>
		<path class="st0" d="M129.1,321.2c0-1.2-0.1-2.4-0.2-3.6h3.3l0.1,3.4c0.6-2.5,2.7-3.3,4.2-3.5c1-0.1,1.7-0.1,2.3-0.1v3.2
			c-0.2-0.1-0.4-0.1-0.6-0.1s-0.6,0-0.9,0c-3.9,0-4.8,2.3-4.8,5.3v9.3h-3.3V321.2z"/>
		<path class="st0" d="M138.6,317.6h3.1v-3.7l3.3-1v4.7h3.9v2.4H145v10.5c0,0.9,0,2.3,2.3,2.3c0.7,0,1.3-0.1,1.6-0.2v2.6
			c-0.6,0.1-1.5,0.2-2.7,0.2c-3,0-4.4-0.9-4.4-3.7V320h-3.1V317.6z"/>
		<path class="st0" d="M155.6,317.7V329c0,1.7,0.4,3.9,3.7,3.9c1.6,0,3.2-0.6,4.1-2c0.7-1,0.7-2.4,0.7-3.3v-9.9h3.4v14.3
			c0,0.3,0.1,2.3,0.1,3.3h-3.4l-0.1-3c-0.6,1.2-1.8,3.2-5.6,3.2c-4.3,0-6.4-2.5-6.4-6v-11.8H155.6z"/>
		<path class="st0" d="M173.8,319.7l0-2h3.3l0,2.8c0.4-0.7,1.6-3.2,5.6-3.2c1.6,0,6.4,0.6,6.4,6v11.9h-3.4v-11.2
			c0-1.2-0.1-2.2-0.9-3c-0.8-0.8-2-1.2-3.1-1.2c-2.4,0-4.6,1.7-4.6,5.2v10.1h-3.3V319.7z"/>
		<path class="st0" d="M194.4,310h4v3.6h-4V310z M194.7,317.7h3.3v17.6h-3.3V317.7z"/>
		<path class="st0" d="M201.4,317.6h3.1v-3.7l3.3-1v4.7h3.9v2.4h-3.9v10.5c0,0.9,0,2.3,2.3,2.3c0.7,0,1.3-0.1,1.6-0.2v2.6
			c-0.6,0.1-1.5,0.2-2.7,0.2c-3,0-4.4-0.9-4.4-3.7V320h-3.1V317.6z"/>
		<path class="st0" d="M215.1,310h4v3.6h-4V310z M215.4,317.7h3.3v17.6h-3.3V317.7z"/>
		<path class="st0" d="M226.8,327c-0.1,3.6,1.4,6.3,5,6.3c2.1,0,3.9-1.1,4.1-3.6h3.3c-0.1,0.9-0.2,2.3-1.5,3.7
			c-0.8,0.9-2.5,2.3-6.1,2.3c-5.5,0-8.2-3.4-8.2-9c0-3.5,0.7-6.3,3.5-8.3c1.7-1.2,3.8-1.3,4.8-1.3c7.9,0,7.7,7,7.6,9.8H226.8z
			 M236,324.7c0-1.7-0.3-5.2-4.3-5.2c-2.1,0-4.7,1.3-4.8,5.2H236z"/>
		<path class="st0" d="M245.8,330c0,1.3,0.7,3.2,3.9,3.2c1.4,0,2.4-0.2,3.1-1.1c0.3-0.5,0.6-1,0.6-1.6c0-1.7-1.2-2-3.8-2.6
			c-3.7-0.8-6.8-1.6-6.8-5.2c0-3.2,2.8-5.3,6.9-5.3c2.2,0,5.3,0.6,6.3,2.7c0.5,1,0.5,1.8,0.5,2.6h-3.4c0.1-2.7-2.2-2.9-3.4-2.9
			c-0.5,0-3.6,0-3.6,2.5c0,1.6,1.6,2,2.5,2.2c4.9,1.2,5.9,1.4,7,2.4c1,0.9,1.3,2.1,1.3,3.3c0,2-1.1,3.6-2.4,4.4
			c-1.5,0.9-3.4,1.2-5.2,1.2c-3.6,0-6.9-1.5-6.9-5.7H245.8z"/>
	</g>
</g>
<g id="Global_Company">
</g>
<g id="Time_Off">
</g>
<g id="Health_Care">
</g>
<g id="Guides">
</g>
</svg>
