<?xml version="1.0" encoding="utf-8"?>
<!-- Generator: Adobe Illustrator 22.0.1, SVG Export Plug-In . SVG Version: 6.00 Build 0)  -->
<svg version="1.1" xmlns="http://www.w3.org/2000/svg" xmlns:xlink="http://www.w3.org/1999/xlink" x="0px" y="0px"
	 viewBox="0 0 300 335.8" style="enable-background:new 0 0 300 335.8;" xml:space="preserve">
<style type="text/css">
	.st0{fill:#FFFFFF;}
</style>
<g id="Background">
</g>
<g id="Financial">
</g>
<g id="Family">
</g>
<g id="App">
</g>
<g id="Volunteer">
</g>
<g id="Global_Company">
</g>
<g id="Time_Off">
</g>
<g id="Health_Care">
	<g>
		<path class="st0" d="M104.1,280v10.9h12V280h3.5v25.3h-3.5v-11.4h-12v11.4h-3.5V280H104.1z"/>
		<path class="st0" d="M127.5,297c-0.1,3.6,1.4,6.3,5,6.3c2.1,0,3.9-1.1,4.1-3.6h3.3c-0.1,0.9-0.2,2.3-1.5,3.7
			c-0.8,0.9-2.5,2.3-6.1,2.3c-5.5,0-8.2-3.4-8.2-9c0-3.5,0.7-6.3,3.5-8.3c1.7-1.2,3.8-1.3,4.8-1.3c7.9,0,7.7,7,7.6,9.8H127.5z
			 M136.8,294.7c0-1.7-0.3-5.2-4.3-5.2c-2.1,0-4.7,1.3-4.8,5.2H136.8z"/>
		<path class="st0" d="M155.3,305.2c-0.2-0.9-0.3-1.7-0.3-2.6c-1.6,2.9-4,3.2-5.4,3.2c-4,0-6.2-2.3-6.2-5.2c0-1.4,0.5-3.6,3.1-5.1
			c1.9-1.1,4.7-1.2,6.1-1.2c0.8,0,1.4,0,2.4,0.1c0-2.2,0-3.1-0.6-3.9c-0.7-0.9-2.1-1.2-3-1.2c-3.3,0-3.5,2.3-3.5,3h-3.3
			c0.1-0.9,0.2-2.1,1.2-3.3c1.3-1.5,3.8-1.9,5.7-1.9c2.6,0,5.3,0.8,6.2,2.6c0.6,1.1,0.6,1.9,0.6,2.7l-0.1,8.4c0,0.3,0,2.6,0.3,4.4
			H155.3z M153,296.6c-1.3,0-6.3,0-6.3,3.6c0,1.1,0.7,3,3.6,3c1.7,0,2.9-0.7,3.7-1.9c0.7-1.2,0.8-2.2,0.8-4.6
			C154.3,296.6,153.8,296.6,153,296.6z"/>
		<path class="st0" d="M163.8,280h3.3v25.2h-3.3V280z"/>
		<path class="st0" d="M170.4,287.6h3.1v-3.7l3.3-1v4.7h3.9v2.4h-3.9v10.5c0,0.9,0,2.3,2.3,2.3c0.7,0,1.3-0.1,1.6-0.2v2.6
			c-0.6,0.1-1.5,0.2-2.7,0.2c-3,0-4.4-0.9-4.4-3.7V290h-3.1V287.6z"/>
		<path class="st0" d="M184.4,280h3.3v10.3c1.1-1.9,3.3-2.9,5.7-2.9c1.9,0,4.5,0.7,5.5,2.8c0.4,0.7,0.6,1.5,0.6,4.1v11h-3.4v-10.4
			c0-1.6,0-5-3.8-5c-2.5,0-3.7,1.5-4.1,2.3c-0.6,1-0.6,2.6-0.6,3.7v9.3h-3.3V280z"/>
		<path class="st0" d="M128.7,323.3c-0.1-0.8-0.3-3.7-3.5-3.7c-4.6,0-4.6,5.3-4.6,6.6c0,3.6,0.9,7,4.4,7c2.8,0,3.7-2.1,3.8-3.8h3.3
			c-0.2,3.4-2.8,6.3-7.1,6.3c-1.2,0-3.9-0.2-5.8-2.3c-1.1-1.2-2.1-3.1-2.1-6.7c0-7.3,4.5-9.5,8-9.5c1.2,0,3.8,0.2,5.4,2.2
			c1.3,1.5,1.4,2.9,1.5,3.9H128.7z"/>
		<path class="st0" d="M146.5,335.2c-0.2-0.9-0.3-1.7-0.3-2.6c-1.6,2.9-4,3.2-5.4,3.2c-4,0-6.2-2.3-6.2-5.2c0-1.4,0.5-3.6,3.1-5.1
			c1.9-1.1,4.7-1.2,6.1-1.2c0.8,0,1.4,0,2.4,0.1c0-2.2,0-3.1-0.6-3.9c-0.7-0.9-2.1-1.2-3-1.2c-3.3,0-3.5,2.3-3.5,3h-3.3
			c0.1-0.9,0.2-2.1,1.2-3.3c1.3-1.5,3.8-1.9,5.7-1.9c2.6,0,5.3,0.8,6.2,2.6c0.6,1.1,0.6,1.9,0.6,2.7l-0.1,8.4c0,0.3,0,2.6,0.3,4.4
			H146.5z M144.3,326.6c-1.3,0-6.3,0-6.3,3.6c0,1.1,0.7,3,3.6,3c1.7,0,2.9-0.7,3.7-1.9c0.7-1.2,0.8-2.2,0.8-4.6
			C145.6,326.6,145.1,326.6,144.3,326.6z"/>
		<path class="st0" d="M155.1,321.2c0-1.2-0.1-2.4-0.2-3.6h3.3l0.1,3.4c0.6-2.5,2.7-3.3,4.2-3.5c1-0.1,1.7-0.1,2.3-0.1v3.2
			c-0.2-0.1-0.4-0.1-0.6-0.1s-0.6,0-0.9,0c-3.9,0-4.8,2.3-4.8,5.3v9.3h-3.3V321.2z"/>
		<path class="st0" d="M170.2,327c-0.1,3.6,1.4,6.3,5,6.3c2.1,0,3.9-1.1,4.1-3.6h3.3c-0.1,0.9-0.2,2.3-1.5,3.7
			c-0.8,0.9-2.5,2.3-6.1,2.3c-5.5,0-8.2-3.4-8.2-9c0-3.5,0.7-6.3,3.5-8.3c1.7-1.2,3.8-1.3,4.8-1.3c7.9,0,7.7,7,7.6,9.8H170.2z
			 M179.5,324.7c0-1.7-0.3-5.2-4.3-5.2c-2.1,0-4.7,1.3-4.8,5.2H179.5z"/>
	</g>
	<g>
		<path class="st0" d="M150,42.5c-11.7,0-21.2-9.5-21.2-21.2S138.3,0,150,0c11.7,0,21.2,9.5,21.2,21.2S161.7,42.5,150,42.5z
			 M150,7.2c-7.7,0-14,6.3-14,14c0,7.7,6.3,14,14,14c7.7,0,14-6.3,14-14C164,13.5,157.7,7.2,150,7.2z"/>
		<path class="st0" d="M150,200c-2,0-3.6-1.6-3.6-3.6V38.9c0-2,1.6-3.6,3.6-3.6c2,0,3.6,1.6,3.6,3.6v157.5
			C153.6,198.4,152,200,150,200z"/>
		<path class="st0" d="M188.5,71.9c-14.3,0-28.5-2.5-40.3-9.1c-1.7-1-2.3-3.2-1.4-4.9c1-1.7,3.2-2.3,4.9-1.4
			c31,17.4,80.4,2.9,99.5-5c-12-4.5-25.1-16.4-27.3-18.5c-10.1-8-20.8-11.4-31.7-9.9c-22.6,3-39.2,25.1-39.4,25.3
			c-1.2,1.6-3.4,1.9-5,0.7c-1.6-1.2-1.9-3.4-0.7-5c0.8-1,18.7-24.8,44.2-28.1c13-1.7,25.5,2.2,37.3,11.5c0.1,0.1,0.1,0.1,0.2,0.2
			c8,7.5,23.6,19.1,31.3,18.3c3.1-0.3,4.4,1,4.9,2.3c0.3,0.6,1,2.8-1.2,4.8C259.1,57.4,223.3,71.9,188.5,71.9z"/>
		<path class="st0" d="M111.5,71.9c-34.8,0-70.5-14.5-75.4-18.9c-2.2-2-1.5-4.2-1.2-4.8c0.6-1.2,1.9-2.6,4.9-2.3
			c7.8,0.9,23.3-10.8,31.3-18.3c0.1-0.1,0.1-0.1,0.2-0.2c11.8-9.4,24.3-13.2,37.3-11.5c25.6,3.3,43.5,27.1,44.2,28.1
			c1.2,1.6,0.9,3.9-0.7,5c-1.6,1.2-3.9,0.9-5-0.7c-0.2-0.2-16.9-22.4-39.4-25.3C96.8,21.7,86.1,25,76,33c-2.2,2.1-15.3,14-27.3,18.5
			c19.1,7.9,68.6,22.4,99.5,5c1.7-1,3.9-0.4,4.9,1.4c1,1.7,0.4,3.9-1.4,4.9C140,69.4,125.8,71.9,111.5,71.9z"/>
		<path class="st0" d="M135.2,194.2c-0.3,0-0.6,0-0.9-0.1c-1.9-0.5-3.1-2.4-2.7-4.4c1.9-8,8.8-12.8,15.6-17.1
			c1.2-0.7,2.4-1.4,3.8-2.2c5.7-3.1,9.8-5.7,9.8-9.8c0.1-6.1-5.5-9.1-14.7-13.4c-8.2-3.8-17.4-8.1-19.7-17.5
			c-1.2-5-0.6-9.3,1.9-12.9c5.4-8,18.5-10,29-11.5c3.9-0.6,7.5-1.1,9.8-1.8c9.1-2.9,14.3-6.8,15.6-11.7c0.9-3.4,0.3-6.1-1.7-7.9
			c-3-2.7-8.7-3.2-13.6-1.3c-1.9,0.7-4-0.2-4.7-2c-0.7-1.9,0.2-3.9,2-4.7c7.3-2.9,16-1.8,21,2.6c4.1,3.7,5.5,9.1,3.9,15.2
			c-2,7.5-8.8,13.1-20.4,16.8c-2.8,0.9-6.6,1.4-10.9,2.1c-8.6,1.3-20.4,3-24.1,8.4c-1.3,1.9-1.5,4.2-0.8,7.2
			c1.4,6,8.4,9.3,15.7,12.7c8.9,4.1,19,8.8,18.8,20c-0.1,8.7-7.9,13-13.6,16.1c-1.2,0.7-2.4,1.3-3.4,1.9
			c-5.6,3.5-11.1,7.3-12.4,12.7C138.3,193.1,136.8,194.2,135.2,194.2z"/>
		<path class="st0" d="M164.3,194.2c-1.6,0-3.1-1.1-3.5-2.8c-1.3-5.3-6.9-9.2-12.4-12.7c-1-0.7-2.2-1.3-3.4-1.9
			c-5.7-3.1-13.5-7.4-13.6-16.1c-0.1-11.2,10-15.9,18.8-20c7.3-3.4,14.3-6.6,15.7-12.7c0.7-3,0.4-5.3-0.8-7.2
			c-3.7-5.4-15.5-7.1-24.1-8.4c-4.3-0.6-8.1-1.2-10.9-2.1c-11.6-3.7-18.4-9.3-20.4-16.8c-1.6-6.1-0.2-11.5,3.9-15.2
			c5-4.5,13.7-5.5,21-2.6c1.9,0.7,2.8,2.8,2,4.7c-0.7,1.9-2.8,2.8-4.7,2c-4.8-1.9-10.6-1.4-13.6,1.3c-2.1,1.8-2.6,4.5-1.7,7.9
			c1.3,4.9,6.5,8.9,15.6,11.7c2.3,0.7,5.9,1.3,9.8,1.8c10.5,1.5,23.6,3.5,29,11.5c2.4,3.6,3.1,7.9,1.9,12.9
			c-2.2,9.4-11.5,13.7-19.7,17.5c-9.2,4.3-14.7,7.3-14.7,13.4c0,4.2,4.1,6.7,9.8,9.8c1.3,0.7,2.6,1.4,3.8,2.2
			c6.8,4.3,13.7,9.1,15.6,17.1c0.5,1.9-0.7,3.9-2.7,4.4C164.9,194.1,164.6,194.2,164.3,194.2z"/>
	</g>
</g>
<g id="Guides">
</g>
</svg>
