<?xml version="1.0" encoding="utf-8"?>
<!-- Generator: Adobe Illustrator 22.0.1, SVG Export Plug-In . SVG Version: 6.00 Build 0)  -->
<svg version="1.1" xmlns="http://www.w3.org/2000/svg" xmlns:xlink="http://www.w3.org/1999/xlink" x="0px" y="0px"
	 viewBox="0 0 300 342.1" style="enable-background:new 0 0 300 342.1;" xml:space="preserve">
<style type="text/css">
	.st0{fill:#FFFFFF;}
</style>
<g id="Background">
</g>
<g id="Financial">
</g>
<g id="Family">
</g>
<g id="App">
</g>
<g id="Volunteer">
</g>
<g id="Global_Company">
	<g>
		<path class="st0" d="M149.9,0c-55.1,0-100,44.9-100,100c0,55.1,44.9,100,100,100c55.1,0,100-44.9,100-100
			C249.9,44.9,205,0,149.9,0z M149.9,193.7c-51.6,0-93.7-42-93.7-93.7c0-51.6,42-93.7,93.7-93.7c51.6,0,93.7,42,93.7,93.7
			C243.6,151.6,201.5,193.7,149.9,193.7z"/>
		<path class="st0" d="M226.4,39.8C208.6,49,180,54.4,149.9,54.4c-30.1,0-58.7-5.5-76.5-14.7c-1.6-0.8-3.5-0.2-4.3,1.4
			c-0.8,1.6-0.2,3.5,1.4,4.3c18.9,9.8,47.9,15.4,79.4,15.4c31.6,0,60.5-5.6,79.4-15.4c1.6-0.8,2.2-2.7,1.4-4.3
			C229.9,39.6,228,39,226.4,39.8z"/>
		<path class="st0" d="M229.3,154.6c-18.9-9.8-47.9-15.4-79.4-15.4c-31.6,0-60.5,5.6-79.4,15.4c-1.6,0.8-2.2,2.7-1.4,4.3
			c0.6,1.1,1.7,1.7,2.8,1.7c0.5,0,1-0.1,1.5-0.4c17.8-9.2,46.4-14.7,76.5-14.7c30.1,0,58.7,5.5,76.5,14.7c1.6,0.8,3.5,0.2,4.3-1.4
			C231.5,157.3,230.9,155.4,229.3,154.6z"/>
		<path class="st0" d="M149.9,0c-27.9,0-49.8,43.9-49.8,100c0,56.1,21.9,100,49.8,100c27.9,0,49.8-43.9,49.8-100
			C199.7,43.9,177.8,0,149.9,0z M149.9,193.7c-23.5,0-43.4-42.9-43.4-93.7c0-50.8,19.9-93.7,43.4-93.7c23.5,0,43.4,42.9,43.4,93.7
			C193.3,150.8,173.4,193.7,149.9,193.7z"/>
		<path class="st0" d="M246.7,96.8H53.1c-1.8,0-3.2,1.4-3.2,3.2c0,1.8,1.4,3.2,3.2,3.2h193.6c1.8,0,3.2-1.4,3.2-3.2
			C249.9,98.2,248.5,96.8,246.7,96.8z"/>
	</g>
	<g>
		<path class="st0" d="M116.6,286.3c-0.4-2.3-2.3-4-5.7-4c-2.4,0-4.4,0.6-5.7,2.1c-2.2,2.5-2.7,5.7-2.7,8.1c0,2.1,0.5,5.7,2.3,7.9
			c1.6,1.9,4.2,2.5,6.7,2.5c2.9,0,4.7-0.6,5.5-0.8v-7.5h-5.8v-2.9h9.3v12.5c-1.5,0.5-4.7,1.5-9,1.5c-4.7,0-7.4-1.3-9.2-3.2
			c-2.5-2.5-3.5-6.1-3.5-9.6c0-2.5,0.6-8.5,5.4-11.7c2.5-1.7,5.8-1.8,7-1.8c2,0,5,0.2,7.5,2.7c1.5,1.6,1.6,3,1.7,4H116.6z"/>
		<path class="st0" d="M126.4,280h3.3v25.2h-3.3V280z"/>
		<path class="st0" d="M143.4,287.2c7,0,8.6,5.5,8.6,9.2c0,5.1-2.9,9.4-8.9,9.4c-5.8,0-8.6-4-8.6-9.2
			C134.5,292.3,136.5,287.2,143.4,287.2z M143.2,303.4c2.5,0,5.3-1.8,5.3-7.1c0-4.4-2-6.7-5.1-6.7c-2.1,0-5.5,1.3-5.5,6.8
			C137.9,300.1,139.4,303.4,143.2,303.4z"/>
		<path class="st0" d="M160.1,290.2c0.5-0.8,1.8-3,5.7-3c1.8,0,4,0.4,5.6,2.2c0.9,1,2.1,2.8,2.1,6.6c0,3.4-0.8,5.3-1.7,6.4
			c-1.4,2-3.7,3-6.2,3c-0.8,0-2.4-0.1-3.9-1.1c-1-0.7-1.4-1.3-1.7-1.8l-0.1,2.7h-3.2l0.1-3.2V280h3.3V290.2z M165.1,289.4
			c-5,0-5,5.9-5,7c0,1.2,0,6.7,4.9,6.7c4.1,0,5.1-4,5.1-6.8C170,294.5,169.6,289.4,165.1,289.4z"/>
		<path class="st0" d="M188.5,305.2c-0.2-0.9-0.3-1.7-0.3-2.6c-1.6,2.9-4,3.2-5.4,3.2c-4,0-6.2-2.3-6.2-5.2c0-1.4,0.5-3.6,3.1-5.1
			c1.9-1.1,4.7-1.2,6.1-1.2c0.8,0,1.4,0,2.4,0.1c0-2.2,0-3.1-0.6-3.9c-0.7-0.9-2.1-1.2-3-1.2c-3.3,0-3.5,2.3-3.5,3h-3.3
			c0.1-0.9,0.2-2.1,1.2-3.3c1.3-1.5,3.8-1.9,5.7-1.9c2.6,0,5.3,0.8,6.2,2.6c0.6,1.1,0.6,1.9,0.6,2.7l-0.1,8.4c0,0.3,0,2.6,0.3,4.4
			H188.5z M186.3,296.6c-1.3,0-6.3,0-6.3,3.6c0,1.1,0.7,3,3.6,3c1.7,0,2.9-0.7,3.7-1.9c0.7-1.2,0.8-2.2,0.8-4.6
			C187.6,296.6,187.1,296.6,186.3,296.6z"/>
		<path class="st0" d="M197,280h3.3v25.2H197V280z"/>
		<path class="st0" d="M87.7,323.3c-0.1-0.8-0.3-3.7-3.5-3.7c-4.6,0-4.6,5.3-4.6,6.6c0,3.6,0.9,7,4.4,7c2.8,0,3.7-2.1,3.8-3.8h3.3
			c-0.2,3.4-2.8,6.3-7.1,6.3c-1.2,0-3.9-0.2-5.8-2.3c-1.1-1.2-2.1-3.1-2.1-6.7c0-7.3,4.5-9.5,8-9.5c1.2,0,3.8,0.2,5.4,2.2
			c1.3,1.5,1.4,2.9,1.5,3.9H87.7z"/>
		<path class="st0" d="M102.5,317.2c7,0,8.6,5.5,8.6,9.2c0,5.1-2.9,9.4-8.9,9.4c-5.8,0-8.6-4-8.6-9.2
			C93.5,322.3,95.6,317.2,102.5,317.2z M102.2,333.4c2.5,0,5.3-1.8,5.3-7.1c0-4.4-2-6.7-5.1-6.7c-2.1,0-5.5,1.3-5.5,6.8
			C97,330.1,98.5,333.4,102.2,333.4z"/>
		<path class="st0" d="M115.8,320l-0.1-2.3h3.3v2.6c1.7-2.8,4.1-3,5.6-3c3.9,0,5.1,2,5.7,3.3c0.6-1,2-3.3,5.9-3.3
			c2.5,0,6.4,1.1,6.4,6.2v11.8h-3.3V324c0-1.5-0.3-2.2-0.6-2.7c-0.6-0.8-1.7-1.5-3.4-1.5c-2.1,0-3.3,1.2-3.7,1.9
			c-0.8,1.1-0.8,3-0.8,3.8v9.8h-3.3v-11.6c0-2.2-1.3-3.9-3.9-3.9c-2.2,0-3.5,1.4-3.9,1.9c-0.7,1-0.8,2.5-0.8,3.6v10h-3.3V320z"/>
		<path class="st0" d="M148.4,320.5c0-0.8,0-1.2-0.1-2.9h3.3l0.1,2.9c1.6-2.8,4.6-3.2,6-3.2c3.8,0,7.4,2.6,7.4,9.1
			c0,6.5-3.8,9.4-8,9.4c-2.6,0-4.4-1.1-5.4-2.6v8.7h-3.3V320.5z M156.5,333.5c0.8,0,2.6-0.2,3.7-1.7c1.3-1.7,1.4-4.2,1.4-5.5
			c0-3.2-0.9-6.4-4.8-6.4c-5.2,0-5.2,5.6-5.2,7.1C151.6,329.1,151.9,333.5,156.5,333.5z"/>
		<path class="st0" d="M180.3,335.2c-0.2-0.9-0.3-1.7-0.3-2.6c-1.6,2.9-4,3.2-5.4,3.2c-4,0-6.2-2.3-6.2-5.2c0-1.4,0.5-3.6,3.1-5.1
			c1.9-1.1,4.7-1.2,6.1-1.2c0.8,0,1.4,0,2.4,0.1c0-2.2,0-3.1-0.6-3.9c-0.7-0.9-2.1-1.2-3-1.2c-3.3,0-3.5,2.3-3.5,3h-3.3
			c0.1-0.9,0.2-2.1,1.2-3.3c1.3-1.5,3.8-1.9,5.7-1.9c2.6,0,5.3,0.8,6.2,2.6c0.6,1.1,0.6,1.9,0.6,2.7l-0.1,8.4c0,0.3,0,2.6,0.3,4.4
			H180.3z M178,326.6c-1.3,0-6.3,0-6.3,3.6c0,1.1,0.7,3,3.6,3c1.7,0,2.9-0.7,3.7-1.9c0.7-1.2,0.8-2.2,0.8-4.6
			C179.3,326.6,178.8,326.6,178,326.6z"/>
		<path class="st0" d="M188.8,319.7l0-2h3.3l0,2.8c0.4-0.7,1.6-3.2,5.6-3.2c1.6,0,6.4,0.6,6.4,6v11.9h-3.4v-11.2
			c0-1.2-0.1-2.2-0.9-3c-0.8-0.8-2-1.2-3.1-1.2c-2.4,0-4.6,1.7-4.6,5.2v10.1h-3.3V319.7z"/>
		<path class="st0" d="M216.9,335.3l-2.5,6.5H211l2.7-6.7l-7.3-17.5h3.7l5.5,13.9l5.6-13.9h3.6L216.9,335.3z"/>
	</g>
</g>
<g id="Time_Off">
</g>
<g id="Health_Care">
</g>
<g id="Guides">
</g>
</svg>
