<?xml version="1.0" encoding="utf-8"?>
<!-- Generator: Adobe Illustrator 23.0.2, SVG Export Plug-In . SVG Version: 6.00 Build 0)  -->
<svg version="1.1" id="Layer_1" xmlns="http://www.w3.org/2000/svg" xmlns:xlink="http://www.w3.org/1999/xlink" x="0px" y="0px"
	 viewBox="0 0 472.3 327" style="enable-background:new 0 0 472.3 327;" xml:space="preserve">
<style type="text/css">
	.st0{fill:#FFFFFF;}
	.st1{fill:none;}
	.st2{enable-background:new    ;}
	.st3{display:none;}
</style>
<g id="culture_title">
	<g>
		<path class="st0" d="M239.7,200c-26.7,0-51.8-10.4-70.7-29.3s-29.3-44-29.3-70.7s10.4-51.8,29.3-70.7S213,0,239.7,0
			s51.8,10.4,70.7,29.3s29.3,44,29.3,70.7s-10.4,51.8-29.3,70.7S266.4,200,239.7,200z M239.7,2.4c-26.1,0-50.6,10.2-69,28.6
			s-28.6,42.9-28.6,69s10.2,50.6,28.6,69s42.9,28.6,69,28.6s50.6-10.2,69-28.6c18.4-18.4,28.6-42.9,28.6-69s-10.2-50.6-28.6-69
			C290.3,12.5,265.8,2.4,239.7,2.4z"/>
		<g>
			<polygon class="st0" points="178.7,129.2 162.2,69.2 166.4,69.2 182.9,129.2 			"/>
			<path class="st0" d="M266.6,69.2l-16.3,60h-11.8L226,89.5l-12.4,39.7h-11.8l-16.5-60h12.8l10.1,37.9L220,69.2h12l12,38.2
				l9.9-38.2H266.6z M304.3,69.2v36.9v0.1c0,0.1,0.3,5.1-3,8.5c-2.1,2.2-5.3,3.4-9.4,3.4s-7.3-1.1-9.4-3.4c-3.2-3.4-3-8.5-3-8.5v-37
				h-5.3l-7.6,27.9v8.7c0,7.4,2.4,13.7,6.9,18.1c4.5,4.4,10.9,6.8,18.4,6.8s13.9-2.4,18.4-6.8c4.5-4.5,6.9-10.7,6.9-18.1V69.2H304.3
				z"/>
			<polygon class="st0" points="190.3,129.2 173.8,69.2 178,69.2 194.5,129.2 			"/>
		</g>
	</g>
	<rect x="-19.6" y="250.4" class="st1" width="518.5" height="77.1"/>
	<g class="st2">
		<path class="st0" d="M53.9,267.3c-1.2-8.8-8.8-12.4-17-12.4c-18.5,0-24.1,16.8-24.1,31.6s5.6,31.6,24.1,31.6c8,0,16-4,17.8-13h7
			c-2.1,12.1-13.2,19-24.8,19c-21.9,0-31.1-17.6-31.1-37.6c0-19.8,9.3-37.6,31.1-37.6c11.8,0,23,5.4,24,18.4H53.9z"/>
		<path class="st0" d="M87.5,250.4v46.7c0.5,13.1,8,21,19.9,21s19.4-7.9,19.9-21v-46.7h6.5v46.8c-0.2,15.5-8.9,26.9-26.4,26.9
			S81.2,312.7,81,297.2v-46.8H87.5z"/>
		<path class="st0" d="M158.5,322.6v-72.2h6.5v66.2h36.3v6H158.5z"/>
		<path class="st0" d="M224.4,256.4H201v-6h52.8v6H231l-0.1,66.2h-6.4L224.4,256.4z"/>
		<path class="st0" d="M276.5,250.4v46.7c0.5,13.1,8,21,19.9,21c11.9,0,19.4-7.9,19.9-21v-46.7h6.5v46.8
			c-0.2,15.5-8.9,26.9-26.4,26.9s-26.2-11.4-26.4-26.9v-46.8H276.5z"/>
		<path class="st0" d="M354.2,322.6h-6.5v-72.2h23.6c6.3,0,11.5,0.4,17,3.8c5,3,7.4,8.2,7.4,15.1c0,7.8-5.5,13.4-13.9,15.5v0.2
			c9.2,1.5,11.2,7.7,12.1,16.1c1.3,11.7,0.9,17.1,3.8,21.5h-7.5c-1.7-4.8-2.1-9.9-2.5-15c-1.5-16.5-2.5-19.4-15.6-19.4h-17.9V322.6z
			 M368.1,282.2c9.2,0,20.6-0.6,20.6-12.9c0-13.9-13-12.9-19.9-12.9h-14.6v25.8H368.1z"/>
		<path class="st0" d="M419.3,322.6v-72.2h42.9v6h-36.4v25.9h35v6h-35v28.3h37.9v6H419.3z"/>
	</g>
</g>
<g id="Development_title">
</g>
<g id="Business_Title">
</g>
<g id="Guides" class="st3">
</g>
</svg>
