<?xml version="1.0" encoding="utf-8"?>
<!-- Generator: Adobe Illustrator 22.0.1, SVG Export Plug-In . SVG Version: 6.00 Build 0)  -->
<svg version="1.1" xmlns="http://www.w3.org/2000/svg" xmlns:xlink="http://www.w3.org/1999/xlink" x="0px" y="0px"
	 viewBox="0 0 784.3 327" style="enable-background:new 0 0 784.3 327;" xml:space="preserve">
<defs>
	<style type="text/css">
	@font-face {
				font-family: UniversLTStd-Light;
				src: url('../fonts/UniversLTStd/UniversLTStd-Light.otf');
			}
	.st0{fill:#FFFFFF;}
	.st1{fill:none;}
	.st2{clip-path:url(#SVGID_2_);fill:#FFFFFF;}
	.st3{font-family: UniversLTStd-Light, Helvetica, Arial, sans-serif;}
	.st4{font-size:100px;}
	.st5{letter-spacing:5;}
	.st6{display:none;}
	</style>
</defs>
<g id="culture_title">
</g>
<g id="Development_title">
	<rect x="-1.8" y="253.3" class="st1" width="787.9" height="77.1"/>
	<text transform="matrix(1 0 0 1 36.5218 325.5088)" class="st0 st3 st4 st5">DEVELOPMENT</text>
	<g>
		<g>
			<path class="st0" d="M404.6,118.2c-0.2-0.9-1.1-1.6-2-1.4l-2,0.3c-2.5,0.3-5.1-0.8-6.5-3c-0.1-0.2-0.2-0.4-0.4-0.5c0,0,0,0,0,0
				c-1.5-2.2-1.5-5-0.2-7.2l1-1.7c0.5-0.8,0.3-1.9-0.5-2.4l-9.3-6.3c-0.8-0.5-1.9-0.3-2.4,0.5l-1.2,1.6c-1.6,2.1-4.2,3-6.7,2.5
				c-0.1,0-0.1,0-0.2,0c-0.2,0-0.3-0.1-0.5-0.1c-2.5-0.5-4.6-2.4-5.2-5l-0.5-1.9c-0.2-0.9-1.1-1.6-2-1.4l-11,2.1
				c-0.9,0.2-1.6,1.1-1.4,2l0.3,2c0.3,2.5-0.8,5.1-3,6.5c-0.2,0.1-0.4,0.2-0.5,0.4c0,0,0,0,0,0c-2.2,1.5-5,1.5-7.2,0.2l-1.7-1
				c-0.8-0.5-1.9-0.3-2.4,0.5L333,114c-0.5,0.8-0.3,1.9,0.5,2.4l1.6,1.2c2.1,1.6,3,4.2,2.5,6.7c0,0.1,0,0.1,0,0.2
				c0,0.2-0.1,0.3-0.1,0.5c-0.5,2.5-2.4,4.6-5,5.2l-1.9,0.5c-0.9,0.2-1.6,1.1-1.4,2l2.1,11c0.2,0.9,1.1,1.6,2,1.4l2-0.3
				c2.5-0.3,5.1,0.8,6.5,3c0.1,0.2,0.2,0.4,0.4,0.5c0,0,0,0,0,0c1.5,2.2,1.5,5,0.2,7.2l-1,1.7c-0.5,0.8-0.3,1.9,0.5,2.4l9.3,6.3
				c0.8,0.5,1.9,0.3,2.4-0.5l1.2-1.6c1.6-2.1,4.2-3,6.7-2.5c0.1,0,0.1,0,0.2,0c0.2,0,0.3,0.1,0.5,0.1c2.5,0.5,4.6,2.4,5.2,5l0.5,1.9
				c0.2,0.9,1.1,1.6,2,1.4l11-2.1c0.9-0.2,1.6-1.1,1.4-2l-0.3-2c-0.3-2.5,0.8-5.1,3-6.5c0.2-0.1,0.4-0.2,0.5-0.4c0,0,0,0,0,0
				c2.2-1.5,5-1.5,7.2-0.2l1.7,1c0.8,0.5,1.9,0.3,2.4-0.5l6.3-9.3c0.5-0.8,0.3-1.9-0.5-2.4l-1.6-1.2c-2.1-1.6-3-4.2-2.5-6.7
				c0-0.1,0-0.1,0-0.2c0-0.2,0.1-0.3,0.1-0.5c0.5-2.5,2.4-4.6,5-5.2l1.9-0.5c0.9-0.2,1.6-1.1,1.4-2L404.6,118.2z M371.7,150.4
				c-10.7,2.1-21.2-5-23.3-15.7c-2.1-10.7,5-21.2,15.7-23.3c10.7-2.1,21.2,5,23.3,15.7C389.5,137.9,382.5,148.3,371.7,150.4z"/>
			<path class="st0" d="M454.1,91l-1.5-0.3c-1.9-0.4-3.4-1.9-3.8-3.9c0-0.2-0.1-0.3-0.1-0.5c0,0,0,0,0,0c-0.5-1.9,0.2-4,1.8-5.2
				l1.2-0.9c0.6-0.4,0.7-1.3,0.3-1.9l-5-7c-0.4-0.6-1.3-0.7-1.9-0.3l-1.3,0.8c-1.7,1.1-3.8,1-5.5,0c0,0-0.1,0-0.1-0.1
				c-0.1-0.1-0.2-0.1-0.3-0.2c-1.7-1-2.6-3-2.4-4.9l0.2-1.5c0.1-0.7-0.4-1.4-1.1-1.5l-8.5-1.4c-0.7-0.1-1.4,0.4-1.5,1.1l-0.3,1.5
				c-0.4,1.9-1.9,3.4-3.9,3.8c-0.2,0-0.3,0.1-0.5,0.1c0,0,0,0,0,0c-1.9,0.5-4-0.2-5.2-1.8l-0.9-1.2c-0.4-0.6-1.3-0.7-1.9-0.3l-7,5
				c-0.6,0.4-0.7,1.3-0.3,1.9l0.8,1.3c1.1,1.7,1,3.8,0,5.5c0,0,0,0.1-0.1,0.1c-0.1,0.1-0.1,0.2-0.2,0.3c-1,1.7-3,2.6-4.9,2.4
				l-1.5-0.2c-0.7-0.1-1.4,0.4-1.5,1.1l-1.4,8.5c-0.1,0.7,0.4,1.4,1.1,1.5l1.5,0.3c1.9,0.4,3.4,1.9,3.8,3.9c0,0.2,0.1,0.3,0.1,0.5
				c0,0,0,0,0,0c0.5,1.9-0.2,4-1.8,5.2l-1.2,0.9c-0.6,0.4-0.7,1.3-0.3,1.9l5,7c0.4,0.6,1.3,0.7,1.9,0.3l1.3-0.8c1.7-1.1,3.8-1,5.5,0
				c0,0,0.1,0,0.1,0.1c0.1,0.1,0.2,0.1,0.3,0.2c1.7,1,2.6,3,2.4,4.9l-0.2,1.5c-0.1,0.7,0.4,1.4,1.1,1.5l8.5,1.4
				c0.7,0.1,1.4-0.4,1.5-1.1l0.3-1.5c0.4-1.9,1.9-3.4,3.9-3.8c0.2,0,0.3-0.1,0.5-0.1c0,0,0,0,0,0c1.9-0.5,4,0.2,5.2,1.8l0.9,1.2
				c0.4,0.6,1.3,0.7,1.9,0.3l7-5c0.6-0.4,0.7-1.3,0.3-1.9l-0.8-1.3c-1.1-1.7-1-3.8,0-5.5c0,0,0-0.1,0.1-0.1c0.1-0.1,0.1-0.2,0.2-0.3
				c1-1.7,3-2.6,4.9-2.4l1.5,0.2c0.7,0.1,1.4-0.4,1.5-1.1l1.4-8.5C455.3,91.8,454.8,91.1,454.1,91z M440.5,94.3
				c-1.4,8.3-9.3,13.9-17.5,12.5c-8.3-1.4-13.9-9.3-12.5-17.5c1.4-8.3,9.3-13.9,17.5-12.5C436.3,78.2,441.9,86.1,440.5,94.3z"/>
			<path class="st0" d="M365.9,55.1l1,0.3c1.3,0.4,2.3,1.5,2.5,2.9c0,0,0,0.1,0,0.1c0,0.1,0,0.2,0,0.3c0.2,1.4-0.4,2.8-1.5,3.5
				l-0.9,0.6c-0.4,0.3-0.6,0.8-0.3,1.3l3.1,5.1c0.3,0.4,0.8,0.6,1.3,0.3l0.9-0.5c1.2-0.6,2.7-0.5,3.8,0.3c0.1,0.1,0.2,0.1,0.3,0.2
				c0,0,0,0,0,0c1.1,0.8,1.7,2.2,1.4,3.6l-0.2,1c-0.1,0.5,0.2,1,0.7,1.1l5.9,1.4c0.5,0.1,1-0.2,1.1-0.7l0.3-1
				c0.4-1.3,1.5-2.3,2.9-2.5c0,0,0.1,0,0.1,0c0.1,0,0.2,0,0.3,0c1.4-0.2,2.8,0.4,3.5,1.5l0.6,0.9c0.3,0.4,0.8,0.6,1.3,0.3l5.1-3.1
				c0.4-0.3,0.6-0.8,0.3-1.3l-0.5-0.9c-0.7-1.2-0.5-2.7,0.3-3.8c0.1-0.1,0.1-0.2,0.2-0.3c0,0,0,0,0,0c0.8-1.1,2.2-1.7,3.6-1.4l1,0.2
				c0.5,0.1,1-0.2,1.1-0.7l1.4-5.9c0.1-0.5-0.2-1-0.7-1.1l-1-0.3c-1.3-0.4-2.3-1.5-2.5-2.9c0,0,0-0.1,0-0.1c0-0.1,0-0.2,0-0.3
				c-0.2-1.4,0.4-2.8,1.5-3.5l0.9-0.6c0.4-0.3,0.6-0.8,0.3-1.3l-3.1-5.1c-0.3-0.4-0.8-0.6-1.3-0.3l-0.9,0.5
				c-1.2,0.6-2.7,0.5-3.8-0.3c-0.1-0.1-0.2-0.1-0.3-0.2c0,0,0,0,0,0c-1.1-0.8-1.7-2.2-1.4-3.6l0.2-1c0.1-0.5-0.2-1-0.7-1.1l-5.9-1.4
				c-0.5-0.1-1,0.2-1.1,0.7l-0.3,1c-0.4,1.3-1.5,2.3-2.9,2.5c0,0-0.1,0-0.1,0c-0.1,0-0.2,0-0.3,0c-1.4,0.2-2.8-0.4-3.5-1.5l-0.6-0.9
				c-0.3-0.4-0.8-0.6-1.3-0.3l-5.1,3.1c-0.4,0.3-0.6,0.8-0.3,1.3l0.5,0.9c0.6,1.2,0.5,2.7-0.3,3.8c-0.1,0.1-0.1,0.2-0.2,0.3
				c0,0,0,0,0,0c-0.8,1.1-2.2,1.7-3.6,1.4l-1-0.2c-0.5-0.1-1,0.2-1.1,0.7l-1.4,5.9C365.1,54.5,365.4,55,365.9,55.1z M380.4,46.9
				c5-3.1,11.6-1.4,14.7,3.6c3.1,5,1.4,11.6-3.6,14.7c-5,3.1-11.6,1.4-14.7-3.6C373.8,56.5,375.4,50,380.4,46.9z"/>
		</g>
		<path class="st0" d="M392.2,202.5c-26.7,0-51.8-10.4-70.7-29.3c-18.9-18.9-29.3-44-29.3-70.7s10.4-51.8,29.3-70.7
			c18.9-18.9,44-29.3,70.7-29.3s51.8,10.4,70.7,29.3c18.9,18.9,29.3,44,29.3,70.7s-10.4,51.8-29.3,70.7S418.9,202.5,392.2,202.5z
			 M392.2,4.9c-26.1,0-50.6,10.2-69,28.6c-18.4,18.4-28.6,42.9-28.6,69s10.2,50.6,28.6,69s42.9,28.6,69,28.6s50.6-10.2,69-28.6
			c18.4-18.4,28.6-42.9,28.6-69s-10.2-50.6-28.6-69C442.7,15,418.2,4.9,392.2,4.9z"/>
	</g>
</g>
<g id="Business_Title">
</g>
<g id="Guides" class="st6">
</g>
</svg>
