<?xml version="1.0" encoding="utf-8"?>
<!-- Generator: Adobe Illustrator 22.0.1, SVG Export Plug-In . SVG Version: 6.00 Build 0)  -->
<svg version="1.1" xmlns="http://www.w3.org/2000/svg" xmlns:xlink="http://www.w3.org/1999/xlink" x="0px" y="0px"
	 viewBox="0 0 300 317" style="enable-background:new 0 0 300 317;" xml:space="preserve">
<style type="text/css">
	@font-face {
    	font-family: UniversLTStd;
    	src: url('../fonts/UniversLTStd/UniversLTStd.otf');
	}
	@font-face {
    	font-family: UniversLTStd-Bold;
    	src: url('../fonts/UniversLTStd/UniversLTStd-Bold.otf');
	}
	@font-face {
    	font-family: UniversLTStd-Light;
    	src: url('../fonts/UniversLTStd/UniversLTStd-Light.otf');
	}
	.st0{fill:#FFFFFF;}
	.st1{fill:none;}
	.st2{font-family: UniversLTStd, Helvetica, Arial, sans-serif;}
	.st3{font-size:35px;}
	.st4{font-family: UniversLTStd-Bold, Helvetica, Arial, sans-serif;}
	.st5{font-size:70px;}
	.st6{letter-spacing:-1;}
	.st7{font-family: UniversLTStd-Light, Helvetica, Arial, sans-serif;}
	.st8{font-size:20px;}
</style>
<g id="Background">
</g>
<g id="Peru">
</g>
<g id="Lithuania">
</g>
<g id="Asia">
</g>
<g id="America">
</g>
<g id="_x31_0">
</g>
<g id="_x35_">
</g>
<g id="_x31_6">
</g>
<g id="Digital_Edge">
	<rect x="25" y="141.8" class="st0" width="250" height="4"/>
	<rect y="166.2" class="st1" width="300" height="150.8"/>
	<text transform="matrix(1 0 0 1 54.6615 191.4286)"><tspan x="0" y="0" class="st0 st2 st3">Digital Edge </tspan><tspan x="19.6" y="35" class="st0 st2 st3">25 Award</tspan><tspan x="20.1" y="95" class="st0 st4 st5 st6">2016</tspan><tspan x="78.6" y="125" class="st0 st7 st8">IDG</tspan></text>
	<g>
		<path class="st0" d="M150,122.3c33.7,0,61.1-27.4,61.1-61.1C211.1,27.4,183.7,0,150,0c-33.7,0-61.1,27.4-61.1,61.1
			C88.9,94.8,116.3,122.3,150,122.3 M150,4.2c31.4,0,57,25.6,57,57c0,31.4-25.5,57-57,57c-31.4,0-57-25.5-57-57
			C93,29.7,118.6,4.2,150,4.2"/>
		<path class="st0" d="M131.1,104h37.7c2.2,0,4-1.8,4-4V21.8c0-2.2-1.8-4-4-4h-37.7c-2.2,0-3.9,1.8-3.9,4v78.2
			C127.1,102.3,128.9,104,131.1,104 M168.5,99.9l-37.2,0.2l0-14.3h37.3V99.9z M168.5,81.6h-37.3l-0.1-43.8h37.4V81.6z M168.5,21.8
			v11.8h-37.4l0-11.6L168.5,21.8z"/>
		<path class="st0" d="M149.9,96c1.6,0,2.9-1.3,2.9-2.9c0-1.6-1.3-2.9-2.9-2.9c-1.6,0-2.9,1.3-2.9,2.9C147,94.7,148.3,96,149.9,96"
			/>
		<path class="st0" d="M145.9,30h8c1.2,0,2.1-0.9,2.1-2.1c0-1.2-0.9-2.1-2.1-2.1h-8c-1.1,0-2.1,0.9-2.1,2.1
			C143.8,29.1,144.8,30,145.9,30"/>
	</g>
</g>
<g id="Innovation_Award">
</g>
<g id="Payments_Innovation">
</g>
<g id="Guides">
</g>
</svg>
