<?xml version="1.0" encoding="utf-8"?>
<!-- Generator: Adobe Illustrator 22.0.1, SVG Export Plug-In . SVG Version: 6.00 Build 0)  -->
<svg version="1.1" xmlns="http://www.w3.org/2000/svg" xmlns:xlink="http://www.w3.org/1999/xlink" x="0px" y="0px"
	 viewBox="0 0 300 355.4" style="enable-background:new 0 0 300 355.4;" xml:space="preserve">
<style type="text/css">
	@font-face {
    	font-family: UniversLTStd;
    	src: url('../fonts/UniversLTStd/UniversLTStd.otf');
	}
	@font-face {
    	font-family: UniversLTStd-Bold;
    	src: url('../fonts/UniversLTStd/UniversLTStd-Bold.otf');
	}
	@font-face {
    	font-family: UniversLTStd-Light;
    	src: url('../fonts/UniversLTStd/UniversLTStd-Light.otf');
	}
	.st0{fill:#FFFFFF;}
	.st1{fill:none;}
	.st2{font-family: UniversLTStd, Helvetica, Arial, sans-serif;}
	.st3{font-size:35px;}
	.st4{font-family: UniversLTStd-Bold, Helvetica, Arial, sans-serif;}
	.st5{font-size:70px;}
	.st6{letter-spacing:-1;}
	.st7{font-family: UniversLTStd-Light, Helvetica, Arial, sans-serif;}
	.st8{font-size:20px;}
</style>
<g id="Background">
</g>
<g id="Peru">
</g>
<g id="Lithuania">
</g>
<g id="Asia">
</g>
<g id="America">
</g>
<g id="_x31_0">
</g>
<g id="_x35_">
</g>
<g id="_x31_6">
</g>
<g id="Digital_Edge">
</g>
<g id="Innovation_Award">
</g>
<g id="Payments_Innovation">
	<rect x="25" y="141.8" class="st0" width="250" height="4"/>
	<g>
		<path class="st0" d="M135,75.7l2.9-0.5c2.7-0.4,5.3-0.3,7.6,0.2c0.6,6.2,0.2,12.4-3.9,17.2c-0.6,0.7-0.7,1.8-0.1,2.6
			c0.6,0.8,1.7,1,2.5,0.6l5.2-2.5l3.2,2.3c0.8,0.6,1.9,0.5,2.6-0.1l2.2-1.9l2.7,2c0.8,0.6,2,0.5,2.7-0.3l1.6-1.7l2.7,2.1
			c0.4,0.3,0.8,0.4,1.3,0.4c0.6,0,1.1-0.2,1.5-0.7l2.2-2.4l2.4,2.3c0.8,0.7,2,0.8,2.8,0.1c8-7,5.8-18.9,4-28.5
			c-0.3-1.6-0.6-3.2-0.8-4.6c-0.3-2-0.4-4.2-0.2-6.4c0.5-10.3,4.8-21.5,4.8-21.7c0.3-0.6,0.2-1.4-0.2-1.9c-0.4-0.6-1-0.9-1.7-0.9
			h-32.7c-0.9,0-1.6,0.5-1.9,1.3c-0.1,0.4-2,5.3-3.5,11.7c-2.4-0.3-5-0.4-7.8,0l-2.3,0.4c-3.8,0.6-8.5,1.4-13.1,1.4
			c-5.3,0-9.2-1.1-11.7-3.3c-0.6-0.5-1.5-0.7-2.2-0.3c-0.7,0.3-1.2,1.1-1.2,1.9l0,11.3l0,15.2c0,0.5,0.2,1,0.5,1.4
			c2.8,3.2,7.3,4.7,13.7,4.7C125.8,77.3,130.9,76.5,135,75.7 M151.8,35.7h28.3c-1.4,4.2-3.8,12.4-4.1,20.3c-0.1,2.4-0.1,4.8,0.3,7
			c0.2,1.5,0.5,3.1,0.8,4.7c1.5,8.3,3.3,17.5-1.4,23.2l-2.5-2.4c-0.4-0.4-0.9-0.5-1.5-0.6c-0.6,0-1.1,0.3-1.5,0.7l-2.3,2.5l-2.7-2.1
			c-0.8-0.6-2-0.6-2.8,0.2l-1.7,1.8l-2.6-1.9c-0.8-0.6-1.9-0.5-2.6,0.1l-2.2,1.9l-2.9-2.1c-0.4-0.3-0.8-0.4-1.2-0.4
			c-0.3,0-0.6,0.1-0.9,0.2l-0.2,0.1c1.5-4,1.7-8.4,1.4-12.6c3.1,1,5.1,2.3,5.1,2.3c0.3,0.2,0.7,0.3,1.1,0.3c0.3,0,0.7-0.1,1-0.3
			c0,0,0.1-0.1,0.1-0.1h11.2c0.9,0,1.7-0.7,1.7-1.7c0-0.9-0.7-1.7-1.7-1.7l-10.2,0l0-6.7h10.2c0.9,0,1.7-0.7,1.7-1.7
			c0-0.9-0.7-1.7-1.7-1.7H158l0-6.7h10.3c0.9,0,1.7-0.7,1.7-1.7c0-0.4-0.2-0.7-0.4-1c-0.3-0.4-0.7-0.6-1.2-0.6h-10.3l0-5
			c0-0.7-0.4-1.4-1-1.7c-0.2-0.1-3.3-2-7.9-3.3C150,41.1,151.1,37.5,151.8,35.7 M110.8,56l0-7.6c2.9,1.4,6.6,2.1,11,2.1
			c4.9,0,9.8-0.8,13.8-1.5l2.3-0.4c2.2-0.3,4.3-0.3,6.3,0c1.5,0.2,2.8,0.5,4.1,0.8c2.5,0.7,4.5,1.6,5.6,2.2l0,4.4l0.1,17.6
			c-1.2-0.5-2.8-1.1-4.6-1.6c-1.3-0.4-2.8-0.7-4.3-0.9c-1.2-0.2-2.4-0.3-3.7-0.3c-1.3,0-2.6,0.1-4,0.3l-3,0.5
			c-3.9,0.7-8.8,1.5-13.3,1.5c-4.7,0-8-0.9-10.1-2.8L110.8,56z"/>
		<path class="st0" d="M150,121.8c33.6,0,60.9-27.3,60.9-60.9c0-1.6-0.1-3.3-0.3-4.9C208.1,24.7,181.9,0,150,0
			c-31.9,0-58.1,24.7-60.6,56c-0.1,1.6-0.3,3.2-0.3,4.9C89.1,94.4,116.4,121.8,150,121.8 M93.5,56C96,27,120.4,4.2,150,4.2
			c29.6,0,54,22.9,56.5,51.9c0.1,1.6,0.2,3.2,0.2,4.9c0,31.3-25.5,56.7-56.7,56.7c-31.3,0-56.7-25.4-56.7-56.7
			C93.3,59.2,93.4,57.6,93.5,56"/>
		<path class="st0" d="M123.7,62.5c0.9-0.1,1.5-1,1.4-1.9c-0.1-0.9-1-1.5-1.9-1.4c-1.6,0.3-3.4,0-5.4-0.7c-0.9-0.3-1.8,0.1-2.1,1
			c-0.3,0.9,0.1,1.8,1,2.1c1.8,0.6,3.5,1,5.1,1C122.4,62.7,123.1,62.6,123.7,62.5"/>
		<path class="st0" d="M142,62.7c0.5-0.1,1-0.1,1.5-0.1c1.4-0.1,2.7-0.1,3.9,0.3c0.1,0,0.2,0,0.3,0.1c0.1,0,0.1,0,0.2,0
			c0.7,0,1.4-0.5,1.6-1.2c0.3-0.9-0.2-1.8-1.1-2.1c-0.3-0.1-0.7-0.1-1-0.2c-1.3-0.3-2.7-0.3-4.2-0.2c-0.6,0.1-1.2,0-1.9,0.2
			c-0.9,0.2-1.5,1.1-1.3,2C140.2,62.3,141.1,62.9,142,62.7"/>
		<path class="st0" d="M132.6,67.1c2.7,0,4.9-2.8,4.9-6.3c0-2-0.8-3.6-1.9-4.8c-0.8-0.9-1.9-1.5-3-1.5c-1.2,0-2.2,0.6-3,1.5
			c-1.1,1.2-1.9,2.8-1.9,4.8C127.8,64.3,130,67.1,132.6,67.1"/>
	</g>
	<rect y="165.9" class="st1" width="300" height="189.6"/>
	<text transform="matrix(1 0 0 1 71.391 191.0952)"><tspan x="0" y="0" class="st0 st2 st3">Payments </tspan><tspan x="-55.4" y="35" class="st0 st2 st3">Innovation of the </tspan><tspan x="42" y="70" class="st0 st2 st3">Year</tspan><tspan x="3.4" y="130" class="st0 st4 st5 st6">2016</tspan><tspan x="1" y="160" class="st0 st7 st8">Payments Awards</tspan></text>
</g>
<g id="Guides">
</g>
</svg>
