<?xml version="1.0" encoding="utf-8"?>
<!-- Generator: Adobe Illustrator 22.0.1, SVG Export Plug-In . SVG Version: 6.00 Build 0)  -->
<svg version="1.1" xmlns="http://www.w3.org/2000/svg" xmlns:xlink="http://www.w3.org/1999/xlink" x="0px" y="0px"
	 viewBox="0 0 300 281.5" style="enable-background:new 0 0 300 281.5;" xml:space="preserve">
<style type="text/css">
	@font-face {
    	font-family: UniversLTStd;
    	src: url('../fonts/UniversLTStd/UniversLTStd.otf');
	}
	@font-face {
    	font-family: UniversLTStd-Bold;
    	src: url('../fonts/UniversLTStd/UniversLTStd-Bold.otf');
	}
	@font-face {
    	font-family: UniversLTStd-Light;
    	src: url('../fonts/UniversLTStd/UniversLTStd-Light.otf');
	}
	.st0{fill:#FFFFFF;}
	.st1{fill:none;}
	.st2{font-family: UniversLTStd, Helvetica, Arial, sans-serif;}
	.st3{font-size:35px;}
	.st4{font-family: UniversLTStd-Bold, Helvetica, Arial, sans-serif;}
	.st5{font-size:70px;}
	.st6{letter-spacing:-1;}
	.st7{font-family: UniversLTStd-Light, Helvetica, Arial, sans-serif;}
	.st8{font-size:20px;}
</style>
<g id="Background">
</g>
<g id="Peru">
</g>
<g id="Lithuania">
</g>
<g id="Asia">
</g>
<g id="America">
</g>
<g id="_x31_0">
</g>
<g id="_x35_">
</g>
<g id="_x31_6">
</g>
<g id="Digital_Edge">
</g>
<g id="Innovation_Award">
	<rect x="25" y="141.8" class="st0" width="250" height="4"/>
	<rect y="165.7" class="st1" width="300" height="115.7"/>
	<text transform="matrix(1 0 0 1 8.7757 190.9799)"><tspan x="0" y="0" class="st0 st2 st3">Innovation Award</tspan><tspan x="66" y="60" class="st0 st4 st5 st6">2017</tspan><tspan x="43.4" y="90" class="st0 st7 st8">LSA Self Service News</tspan></text>
	<g>
		<g>
			<path class="st0" d="M169.2,54.9c-0.4-4.1-2.1-8-4.9-11.1c-2.8-3.1-6.6-5.2-10.6-6c-1.2-0.2-2.4-0.3-3.6-0.3
				c-4.4,0-8.7,1.5-12.1,4.3c-3.2,2.6-5.5,6.1-6.5,10.1c-1.3,4.9-0.6,10.1,1.9,14.5c1.1,1.9,2.5,3.6,3.6,5.6c0.6,1,1,2.1,1.4,3.2
				c0.4,1.2,0.5,2.4,0.5,3.6c0,0.6,0,1.2,0,1.7c0,0.5,0.1,1,0.4,1.4c0.5,0.9,1.4,1.4,2.4,1.4c2.4,0,4.9,0,7.3,0c2,0,4,0,5.9,0
				c1.3,0,2.5,0.1,3.8,0c1,0,1.9-0.6,2.3-1.5c0.2-0.5,0.3-0.9,0.3-1.5c0-0.6,0-1.1,0-1.7c0-1.3,0.2-2.5,0.5-3.7
				c0.7-2.1,1.9-4,3.1-5.9c0.6-0.9,1.3-1.8,1.8-2.8c0.7-1.2,1.2-2.4,1.6-3.6C169.2,60.1,169.5,57.5,169.2,54.9z M165.7,61.5
				c-0.4,1.2-0.9,2.4-1.5,3.5c-0.6,1-1.3,1.9-1.9,2.9c-1.2,1.7-2.3,3.6-3,5.5c-0.4,1.1-0.7,2.2-0.8,3.4c-0.1,0.6-0.1,1.3-0.1,2
				c0,0.3,0,0.6,0,0.8c0,0.1,0,0.2,0,0.4c0,0.1,0,0.4,0,0.4c0,0-0.3,0-0.3,0c-0.3,0-0.5,0-0.8,0c-0.7,0-1.4,0-2.1,0
				c-1.4,0-2.7,0-4.1,0c-2.8,0-5.6,0-8.4,0c-0.2,0-0.5,0-0.7,0c-0.1,0-0.1,0-0.2,0c-0.1,0,0,0-0.1-0.1c0-0.1,0-0.2,0-0.3
				c0-0.1,0-0.3,0-0.4c0-0.3,0-0.6,0-0.9c0-0.6,0-1.3-0.1-1.9c-0.3-2.3-1.1-4.5-2.2-6.4c-0.5-0.9-1-1.7-1.6-2.5
				c-0.6-0.9-1.3-1.9-1.9-2.8c-1.3-2.2-2-4.7-2.1-7.3c-0.2-4.1,1.2-8.2,3.8-11.4c2.6-3,6.2-5.1,10.1-5.6c0.8-0.1,1.6-0.2,2.4-0.2
				c3.8,0,7.6,1.4,10.6,3.8c3.1,2.6,5.1,6.3,5.7,10.2C166.5,56.8,166.4,59.2,165.7,61.5z"/>
			<path class="st0" d="M157.4,94.4h-14.7c-1,0-1.1,0.7-0.3,1.5l3.4,3c0.2,0.2,2.6,0.6,4.3,0.6c2,0,4-0.4,4.2-0.6l3.4-3
				C158.4,95.1,158.4,94.4,157.4,94.4z"/>
			<path class="st0" d="M149.5,42.6c-4.4,0.1-8.3,2-11.1,5.4c-2.1,2.6-2.9,5.1-2.9,5.2c-0.2,0.8,0.2,1.6,1,1.8
				c0.1,0,0.3,0.1,0.4,0.1c0.6,0,1.2-0.4,1.4-1c0.1-0.3,2.7-8.4,11.3-8.6c0.8,0,1.4-0.7,1.4-1.5C151,43.2,150.4,42.5,149.5,42.6z"/>
			<path class="st0" d="M158.6,84.6h-17.3c-1,0-1.8,0.8-1.8,1.8c0,1,0.8,1.8,1.8,1.8h17.3c1,0,1.8-0.8,1.8-1.8
				C160.4,85.4,159.6,84.6,158.6,84.6z"/>
			<path class="st0" d="M158.6,89.5h-17.3c-1,0-1.8,0.8-1.8,1.8c0,1,0.8,1.8,1.8,1.8h17.3c1,0,1.8-0.8,1.8-1.8
				C160.4,90.3,159.6,89.5,158.6,89.5z"/>
			<g>
				<path class="st0" d="M123.7,58.9c0-0.5,0-0.9,0-1.4c0-0.5,0-0.9,0-1.4c0,0,0,0,0,0h-10.9c-0.8,0-1.4,0.6-1.5,1.4
					c0,0.8,0.6,1.4,1.4,1.4L123.7,58.9C123.7,58.9,123.7,58.9,123.7,58.9z"/>
				<path class="st0" d="M130.4,39.9C130.4,39.9,130.4,39.9,130.4,39.9c0.6-0.7,1.3-1.4,2-2c0,0,0,0,0,0l-7.7-7.7
					c-0.6-0.6-1.5-0.5-2,0c-0.5,0.6-0.5,1.5,0.1,2L130.4,39.9z"/>
				<path class="st0" d="M169.6,39.9C169.6,39.9,169.6,39.9,169.6,39.9l7.7-7.7c0.5-0.5,0.5-1.4,0-2c-0.5-0.5-1.4-0.5-2,0l-7.7,7.7
					c0,0,0,0,0,0C168.3,38.6,169,39.2,169.6,39.9z"/>
				<path class="st0" d="M150,18.9c-0.8,0-1.4,0.6-1.4,1.4v10.9c0,0,0,0,0,0c0.5,0,0.9,0,1.4,0c0.5,0,0.9,0,1.4,0c0,0,0,0,0,0V20.4
					C151.4,19.6,150.8,18.9,150,18.9z"/>
				<path class="st0" d="M130.4,75.1C130.4,75.1,130.4,75.1,130.4,75.1l-7.7,7.7c-0.5,0.5-0.5,1.4,0,2c0.3,0.3,0.6,0.4,1,0.4
					s0.7-0.1,1-0.4l7.7-7.7c0,0,0,0,0,0C131.7,76.5,131,75.8,130.4,75.1z"/>
				<path class="st0" d="M187.2,56.1h-10.9c0,0,0,0,0,0c0,0.5,0,0.9,0,1.4c0,0.5,0,0.9,0,1.4c0,0,0,0,0,0h10.9
					c0.8,0,1.4-0.6,1.4-1.4C188.6,56.7,188,56.1,187.2,56.1z"/>
				<path class="st0" d="M169.6,75.2C169.6,75.2,169.6,75.2,169.6,75.2c-0.6,0.7-1.3,1.4-2,2c0,0,0,0,0,0l7.7,7.7
					c0.3,0.3,0.6,0.4,1,0.4c0.4,0,0.7-0.1,1-0.4c0.5-0.5,0.5-1.4,0-2L169.6,75.2z"/>
			</g>
		</g>
		<path class="st0" d="M150,122.3c-16.3,0-31.7-6.4-43.2-17.9C95.2,92.8,88.9,77.5,88.9,61.1s6.4-31.7,17.9-43.2S133.7,0,150,0
			s31.7,6.4,43.2,17.9c11.5,11.5,17.9,26.9,17.9,43.2s-6.4,31.7-17.9,43.2C181.7,115.9,166.3,122.3,150,122.3z M150,4.9
			c-15,0-29.2,5.9-39.8,16.5S93.7,46.1,93.7,61.1c0,15,5.9,29.2,16.5,39.8c10.6,10.6,24.8,16.5,39.8,16.5c15,0,29.2-5.9,39.8-16.5
			c10.6-10.6,16.5-24.8,16.5-39.8c0-15-5.9-29.2-16.5-39.8C179.2,10.7,165,4.9,150,4.9z"/>
	</g>
</g>
<g id="Payments_Innovation">
</g>
<g id="Guides">
</g>
</svg>
