<?xml version="1.0" encoding="utf-8"?>
<!-- Generator: Adobe Illustrator 22.0.1, SVG Export Plug-In . SVG Version: 6.00 Build 0)  -->
<svg version="1.1" xmlns="http://www.w3.org/2000/svg" xmlns:xlink="http://www.w3.org/1999/xlink" x="0px" y="0px"
	 viewBox="0 0 300 316.7" style="enable-background:new 0 0 300 316.7;" xml:space="preserve">
<style type="text/css">
	@font-face {
    	font-family: UniversLTStd;
    	src: url('../fonts/UniversLTStd/UniversLTStd.otf');
	}
	@font-face {
    	font-family: UniversLTStd-Bold;
    	src: url('../fonts/UniversLTStd/UniversLTStd-Bold.otf');
	}
	@font-face {
    	font-family: UniversLTStd-Light;
    	src: url('../fonts/UniversLTStd/UniversLTStd-Light.otf');
	}
	.st0{fill:#FFFFFF;}
	.st1{fill:none;}
	.st2{font-family: UniversLTStd, Helvetica, Arial, sans-serif;}
	.st3{font-size:35px;}
	.st4{font-family: UniversLTStd-Bold, Helvetica, Arial, sans-serif;}
	.st5{font-size:70px;}
	.st6{letter-spacing:-1;}
	.st7{font-family: UniversLTStd-Light, Helvetica, Arial, sans-serif;}
	.st8{font-size:20px;}
</style>
<g id="Background">
</g>
<g id="Peru">
	<rect x="25" y="141.8" class="st0" width="250" height="4"/>
	<path id="Peru_1_" class="st0" d="M179.8,119.5v-0.2l0.1-0.3l0.1-0.1l0.1-0.1l0.3-0.1h0.8l0.3,0.1l0,0l0,0h0l0.2-0.2l0.3-0.1h0.6
		l0.3-0.3l0.1-0.1l0.3-0.1l0.1-0.3l0.2-0.3v-0.1l0.1-0.3l0.1-0.1v-0.1l-0.1-0.1l-0.1-0.1l-0.1-0.1l-0.1-0.3V115l0-0.2l0.2-0.4
		c0.1-0.1,0.2-0.2,0.3-0.2h0.4l0.3,0.1l0.1-0.2l0.3-0.1h0l0.1-0.1l0.2-0.2l0.2-0.2h0l0.1-0.1V113l-0.5-0.4h-0.3l-0.3-0.1l-0.1-0.3
		l0.1-0.3l0.1-0.1l0.1-0.1l0.2-0.2l0.1,0v-0.1l0.1-0.3l0.3-0.1h0l0.1-0.1h0l0.2-0.2l0.3-0.1h0l0,0l0.1-0.3l0.1-0.1l0.1-0.1l0.2-0.2
		l0.1,0v-0.1l0.1-0.3l0.4-0.4c0,0,0.1,0,0.1-0.1l0.1-0.1l0.1,0v-0.3l0.1-0.3l0.3-0.1h0.1l0-0.1l0.3-0.1h0.1l0-0.1l0.1-0.1l0-0.1V107
		l0-0.2l0.2-0.4c0.1-0.1,0.1-0.1,0.2-0.2l0-0.1l0.3-0.1h0.1l0-0.1l0.1,0l-0.1,0l-0.1-0.1l-0.2-0.1l0-0.1H189l0,0.1l-0.3,0.1h-0.2
		l-0.3-0.1l0-0.1h-0.1l-0.3-0.1l0-0.1l-0.2-0.1l-0.1-0.1l-0.1-0.1l-0.1-0.3v-0.1l-0.1,0l-0.1-0.3v-0.3L187,104l-0.1-0.3v-0.1l-0.1,0
		l-0.1-0.3V103l-0.1,0l-0.1-0.3v-0.2l-0.1-0.1l-0.1-0.3V102l-0.1,0l-0.1-0.3v-0.8l0.1-0.3l0.1,0v-0.1l0.1-0.3l0.1,0v-0.1l0.1-0.3
		l0.2-0.2l0.1,0v-0.3L187,99l0.1-0.1l0.1-0.1l0.1-0.1l0.1-0.1l0.2-0.1l0-0.1h-0.1l-0.3-0.1l-0.1-0.1l-0.1-0.1l-0.1-0.3v0l-0.1-0.1
		l-0.1-0.2l-0.1-0.1l-0.1-0.1l-0.1-0.1l-0.1-0.3v-0.6l0.1-0.1l-0.1-0.1v-0.6l0.1-0.3l0.3-0.1h0.1l0-0.1l0.3-0.1h0v-0.7
		c0-0.1,0.1-0.3,0.2-0.3l0.1-0.1l0.3-0.1h0v0l0.1-0.3l0.1,0l0.1-0.1l0.1-0.1l0.1-0.1l0.1-0.1l0.1-0.1l0.3-0.1h0v0V92l0.1-0.3
		l0.3-0.1h0.3l0-0.1l0.1-0.1l0-0.1V91h0l-0.3-0.1l0-0.1l-0.2-0.1l-0.1-0.3v-0.5l-0.1,0l-0.1-0.3v-0.5l-0.1,0l-0.1-0.1l-0.1-0.1
		l-0.1-0.1l-0.1-0.1l-0.1-0.3v-0.2l0.1-0.3l0.3-0.1h0.2v0l0.1-0.3l0.1-0.1v-4.5l0.1-0.3l0.2-0.1c0,0,0-0.1,0-0.1l0.2-0.2
		c0,0,0.1,0,0.1-0.1l0.1-0.1l0.1-0.1l0.1-0.1l0.3-0.1h0.1l-0.1-0.2v-0.2l0.1-0.3l0.1-0.1l0.1-0.1l0.1-0.1l0.1-0.1l0.1,0v-0.2
		l-0.1-0.1l-0.1-0.3V80l-0.1,0l-0.1-0.3v-0.1l-0.1,0l-0.1-0.3v-0.1l-0.1,0l-0.1-0.3v-0.1l-0.1,0l-0.1-0.3v-0.1l-0.1,0l-0.1-0.3V78
		l-0.1,0l-0.1-0.3v-0.1l-0.1,0l-0.1-0.3v0l-0.1-0.1l-0.1-0.1l-0.1-0.1l-0.1-0.3v-0.1l-0.1,0l-0.1-0.3v0l-0.1-0.1l-0.1-0.1l-0.1-0.1
		l-0.1-0.3v-0.1l-0.1,0l-0.1-0.3v-0.1l-0.1-0.1l-0.1-0.1l-0.2-0.1l-0.1-0.3v-0.1l-0.1,0l-0.1-0.3v-0.1l-0.1-0.1l-0.1-0.1l-0.1-0.1
		l-0.1-0.3v-0.1l-0.1-0.1l-0.1-0.1l-0.2-0.4l0,0l-0.2-0.4l-0.2-0.4l-0.2-0.2l-0.1-0.1l-0.2-0.4l-0.2-0.4l-0.2-0.3l0-0.1h-0.3l0,0.1
		l-0.3,0.1h-0.4l-0.3-0.1l-0.1-0.1l-0.1,0h-0.2l-0.3-0.1l0-0.1h-0.2l-0.1,0.1l-0.1,0.1l-0.1,0.1l-0.3,0.1h-0.1l0,0.1l-0.3,0.1
		l-0.1,0l-0.1,0.1l-0.3,0.1h-0.6l-0.1,0.1l-0.3,0.1h-0.6l-0.3-0.1l0-0.1h-0.1l-0.3-0.1l-0.1-0.1l-0.1-0.1l-0.1-0.1l-0.1-0.1l0,0
		l-0.1,0l-0.2,0.2c-0.1,0.1-0.3,0.1-0.4,0.1c-0.1-0.1-0.2-0.2-0.2-0.3v-7.9l0.1-0.3l0.1-0.1l0.1-0.1l0.2-0.1l0-0.1l-0.2-0.1
		l-0.1-0.3v-0.3l-0.2,0.1h0v0c0,0.1-0.1,0.3-0.2,0.3c0,0,0,0,0,0l0,0.1l-0.3,0.1h-0.3l0,0.1l-0.1,0.1v0l-0.1,0.3l-0.3,0.1h-0.1
		l0,0.1l-0.1,0.1l-0.1,0.1l-0.3,0.1H176l0,0.1l-0.2,0.1l-0.1,0.1l-0.3,0.1h-0.1l0,0.1l-0.2,0.1l0,0.1l-0.2,0.1l-0.1,0.1l-0.1,0.1
		l-0.1,0.2l-0.3,0.1h-0.4l-0.1,0l-0.1,0h-5.5l-0.3-0.1l-0.1-0.3l0.1-0.2l-0.1-0.2l0.1-0.3l0.1-0.1l0-0.1v-0.2H168l-0.3-0.1l0-0.1
		l-0.1-0.1l-0.1-0.3l0.1-0.3l0.1,0V62l-0.1,0l-0.1-0.3v-0.1l-0.1,0l-0.1-0.1l-0.1-0.1l0-0.1h-0.3l-0.1,0l-0.1,0h-0.4l-0.3-0.1l0-0.1
		h-0.3l-0.1,0l-0.1,0l-0.3-0.1l0-0.1H165l-0.3-0.1l0-0.1h-2.9l-0.3-0.1l-0.1-0.3l0.1-0.3l0.1,0v-0.1l0.1-0.3l0.3-0.1l0,0
		c0-0.1,0-0.1,0-0.2c0-0.1,0.1-0.2,0.2-0.2l0.1-0.1l0.2-0.2c0,0,0.1-0.1,0.1-0.1c0-0.1,0-0.1,0.1-0.1l0.2-0.2l0.1-0.1l0.1-0.1l0.1,0
		l0,0l-0.1,0l-0.1-0.3v-0.1l-0.1,0l-0.1-0.3v0h0l-0.3-0.1l-0.1-0.3V57l-0.1,0l-0.1-0.1l-0.1-0.1l-0.1-0.3v-0.1l-0.1,0l-0.1-0.3v0
		h-0.4l-0.3-0.1l-0.1-0.1l-0.1-0.1l-0.1-0.1l-0.1-0.1l-0.1-0.3v-0.6h0l-0.3-0.1l-0.1-0.1l-0.1-0.1l-0.1-0.1l-0.1-0.1l0-0.1h-0.1
		l-0.3-0.1l-0.1-0.2l-0.1-0.1l-0.1-0.3l0.1-0.3c0,0-0.1,0-0.1,0c-0.1-0.1-0.2-0.2-0.2-0.4v-0.7l-0.1,0l-0.1-0.3v-0.2h0l-0.3-0.1
		l-0.1-0.1h-0.1l-0.3-0.1L158,51v-0.1l-0.1,0l-0.1-0.3v-0.4l0.1-0.3l0.3-0.1h0.1l0-0.1H158l-0.3-0.1l-0.1-0.1l-0.1-0.1l0-0.1
		l-0.2-0.1l-0.2-0.2l-0.1-0.3v0h0l-0.3-0.1l-0.2-0.2c-0.1-0.1-0.1-0.3-0.1-0.4c0-0.1,0.1-0.2,0.2-0.2c0-0.1,0.1-0.2,0.2-0.2l0-0.1
		v-0.1l-0.1,0l-0.1-0.3V47l0.1-0.3l0.3-0.1h0.4l0.1,0l0-0.1l0.3-0.1h0.2l0.1,0l0,0l-0.1-0.3v-0.1l-0.1,0l-0.1-0.1h0
		c0,0,0-0.1-0.1-0.1l0,0l0,0c-0.1-0.1-0.1-0.1-0.1-0.2v-0.2l0.1-0.3l0.1,0v-0.3l0,0c0,0,0-0.1,0-0.1l0-0.1l0.1-0.2
		c-0.1-0.1-0.1-0.2-0.1-0.4c0-0.1,0.1-0.2,0.2-0.2l0-0.1l0.1,0v-0.1l0.1-0.3l0.1-0.1l0.1-0.1l0.1,0v-0.1l0.1-0.3l0.3-0.1h0.1l0-0.1
		l0.3-0.1h0l0.1-0.1l0.3-0.1h0.1l0-0.1l0.3-0.1h0.2v0l0.1-0.3l0.3-0.1h0.7l0-0.1l0.1-0.1l0.1-0.1l0.1-0.1c0-0.1,0-0.1,0.1-0.2l0,0
		l0,0L162,41v-0.1l-0.1,0l-0.1-0.3v-0.3l-0.1,0l-0.1-0.1l-0.1-0.1l-0.1-0.3v-0.1l-0.1,0l-0.1-0.3v-0.6l0-0.1c0,0,0-0.1,0-0.1l0,0
		v-0.2l0.1-0.3l0.1,0c0-0.1,0-0.1,0.1-0.1l0,0l0,0c0,0,0,0,0,0v-0.3l0.1-0.3l0.2-0.1l0-0.1l0.1-0.1l0.1-0.1l0.1-0.1l0.1-0.1l0.1,0
		v-0.1l0.1-0.3l0.1-0.1l0.1-0.1l0.1,0v-0.1l0.1-0.3l0.1,0v-0.9l0-0.1l0-0.1l0.1-0.3l0.1,0V34l0.1-0.3l0.1,0v-0.1l0.1-0.3l0.1,0V33
		l-0.1-0.1c-0.1-0.1-0.1-0.3-0.1-0.4c0-0.1,0.2-0.2,0.3-0.2h0.1l0.1-0.1c0,0,0,0,0,0c0,0,0.1,0,0.1,0l0,0l0-0.1l0.3-0.1l0.1,0v0
		l0-0.1l0.3-0.1h0.3l0-0.1l0.1-0.1l0.1-0.1l0.1-0.1l0.1-0.1l0.1-0.1c0-0.1,0.1-0.2,0.2-0.2c0.1-0.1,0.2,0,0.3,0l0.1,0h0v0l0.1-0.3
		l0.3-0.1l0.1,0l0-0.1l0.1-0.1l0.1-0.1l0.1-0.1l0.1-0.1l0.3-0.1h0.3l0-0.1l0.3-0.1l0.1,0l0.1-0.1l0.3-0.1h0.2v0l0.1-0.3l0.3-0.1h0.1
		c0-0.1,0.1-0.1,0.2-0.2h0l0.1-0.1l0.3-0.1h0v0l0.1-0.3l0.1-0.1c0-0.1,0.1-0.2,0.2-0.2c0.1,0,0.2,0,0.3,0l0.1,0h0.2l0.1-0.1l0,0l0,0
		c0.1-0.1,0.2-0.1,0.2-0.1l0,0l0,0c0,0,0.1,0,0.1,0l0.1,0l0.3,0.1l0,0.1l0-0.1l0.3-0.1l0.1,0l0.1,0l0.2,0.1l0.2-0.1h0.1l0-0.1
		l0.3-0.1l0.1,0l0.1,0h0.7l0-0.1l0.2-0.1l0.1-0.1l0.3-0.1h0.6c0,0,0.1,0,0.1,0c0,0,0,0,0.1,0l0,0h0.7l0-0.1l0.3-0.1h0.2l0.1,0
		l0.1-0.1l0.1,0l0-0.1l0.1-0.3l0.1-0.1l0.1-0.2l0.1-0.1l0.1-0.1l0.2-0.1l0.1-0.1l0.3-0.1h0.2l0.3,0.1l0,0l0.1-0.2l0.3-0.1h0.2
		l0.2,0.1c0.1,0,0.1-0.1,0.2-0.1h0.2l0.3,0.1l0.1,0.1l0-0.1l0.3-0.1h0.4l0.1,0l0.1,0h0.2l0.3,0.1l0.1,0.1l0.1,0.1l0.1,0.3v0.4l0,0.1
		l0.1,0l0.2,0.1l0.1,0l0.1-0.1l0.3-0.1h0.2l0.3,0.1l0,0.1h0l-0.1-0.2v0l-0.3-0.3l-0.1-0.1l-0.2-0.1l-0.2-0.2l0,0l-0.2-0.2l-0.1-0.3
		v0l-0.1-0.1l0-0.1l-0.2-0.1l-0.4-0.4v0l-0.2-0.2l-0.2,0.1h-0.1l-0.1,0.1v0l-0.2,0.2l-0.3,0.1h-0.4l-0.3-0.1l-0.1-0.1l-0.1,0
		c-0.1,0.1-0.2,0.1-0.4,0.1c-0.1,0-0.2-0.1-0.2-0.2l-0.1-0.1l-0.1-0.1h-0.1c-0.1,0-0.3-0.1-0.3-0.2c0-0.1,0-0.3,0.1-0.4l0.2-0.2l0,0
		l0.1-0.1v0l0-0.2l0.2-0.4l0.1-0.1l0.2-0.2h0l0.1-0.1v0l0.1-0.3l0.3-0.3v0l0.1-0.3l0.3-0.3v0l0.1-0.3l0.2-0.2l0.1-0.1v0l0-0.2
		l0.2-0.4l0.1-0.1l0.1-0.1v0l0.1-0.3l0.2-0.2l0.1-0.1v0l0.1-0.3l0.2-0.2l0.1-0.1v-0.1l0.1-0.3l0.1-0.1v0l0.1-0.3l0.3-0.1h0v0
		l0.1-0.3l0.1-0.1V17h-0.2l-0.3-0.1l0-0.1h-0.1l-0.3-0.1l-0.1-0.3v-0.3l-0.2,0.1h-0.2l-0.3-0.1l-0.1-0.1c-0.1,0-0.3,0-0.3-0.1
		l-0.2-0.2l0-0.1l-0.1,0h-0.2l-0.1,0l-0.1,0h-0.4l-0.3-0.1l-0.2-0.2c0-0.1-0.1-0.1-0.1-0.1l-0.1-0.1l-0.1-0.3v-0.1l-0.1,0l-0.1-0.1
		l-0.1-0.1l0-0.1h-0.3l-0.3-0.1l-0.1-0.1l-0.1,0h-0.3l-0.1,0.1l-0.3,0.1h-0.2l-0.2-0.1l0,0v0.1l-0.1,0.3l-0.1,0c0,0,0,0,0,0
		c-0.1,0.1-0.2,0.2-0.3,0.2h-0.2l-0.3-0.1l0,0l0,0c-0.1,0.1-0.3,0.1-0.4,0.1l-0.1,0H174l0,0.1l-0.3,0.1h-0.2l-0.3-0.1l-0.1-0.3v0
		l0,0h-0.2l-0.3-0.1l-0.1-0.1l-0.1-0.1l-0.1-0.3V14h0l-0.3-0.1l-0.1-0.1h-0.1l-0.1,0.1c-0.1,0.1-0.3,0.1-0.4,0.1
		c-0.1,0-0.1-0.1-0.2-0.2l-0.1,0H171l0,0.1l-0.1,0.1v0.2l-0.1,0.3l-0.1,0c0,0.1,0,0.2,0,0.2c-0.1,0.1-0.2,0.2-0.4,0.2h-0.2l-0.2-0.1
		c-0.1,0.1-0.2,0.1-0.3,0.1c-0.1,0-0.1-0.1-0.2-0.1l0,0.1l-0.3,0.1h0v0.2l-0.1,0.3l-0.3,0.1l-0.3-0.1l-0.1-0.1l-0.1,0h-0.1l0,0.1
		l-0.3,0.1h-0.6l-0.3-0.1l-0.1-0.1c-0.1,0-0.3,0-0.3-0.1l-0.1-0.1H166l-0.3-0.1l-0.1,0.2l-0.3,0.1h-0.2l-0.3-0.1l-0.1-0.1l-0.1,0
		l-0.2-0.1l-0.1,0l-0.1,0.1l-0.3,0.1h-0.6l-0.3-0.1l-0.1-0.1l-0.1-0.1l-0.1-0.3v0h-0.2l-0.3-0.1l0-0.1h-0.1l-0.3-0.1l-0.1-0.3v0
		l-0.1-0.1l-0.1-0.1l-0.1-0.1l-0.1-0.3v-0.2l0.1-0.3l0.3-0.1h0v0l0.1-0.2c0,0,0,0-0.1-0.1c0-0.1,0-0.3,0.1-0.3l-0.1-0.2v-0.5l-0.1,0
		l-0.1-0.3v-0.3l0,0l-0.2,0.1h-0.1l0,0.1l-0.3,0.1H161l-0.3-0.1l0-0.1l-0.1,0h-0.2l-0.3-0.1l-0.1-0.3v0h0l-0.3-0.1l-0.2-0.2
		l-0.1-0.3V10l0-0.1l0-0.1l0.1-0.3l0.1-0.1l0-0.1V9.1l-0.1,0l-0.1-0.3v0h0l-0.3-0.1L159,8.4l0.1-0.2l0-0.1L158.9,8l-0.1-0.3V7.7l0,0
		l-0.2,0.1l-0.2-0.1c-0.1,0.1-0.2,0.1-0.4,0.1l-0.1,0l-0.3-0.1l0-0.1h-0.1l-0.3-0.1l-0.1-0.3v0L157.1,7l0-0.1h-0.1l-0.3-0.1
		l-0.1-0.1l-0.1-0.1l-0.2-0.2l0-0.1h-0.3l-0.3-0.1l-0.1-0.1h-0.2L155.1,6L155,5.9h-0.1l-0.3-0.1l-0.1-0.3V5.3l-0.1,0l-0.1-0.3V4.7
		c0,0,0-0.1,0-0.1c0-0.1,0-0.1,0-0.2l-0.1,0l-0.2-0.2l-0.1-0.3V3.7l0-0.1l0-0.1V3.3l-0.1-0.1l-0.1-0.1L153.6,3l-0.1-0.3v0h0l-0.1,0
		c-0.1,0-0.2,0-0.3,0c-0.1,0-0.2-0.1-0.2-0.2l-0.1-0.1l-0.1-0.1l-0.2-0.1l0-0.1c-0.1,0-0.3,0-0.4-0.1l-0.1-0.1l0,0h-0.2l-0.3-0.1
		l-0.1-0.3V1l0,0l-0.2,0.1h-0.4l-0.1,0l-0.1,0L150.4,1l-0.1-0.2l-0.1,0l0-0.2L150,0.6l-0.1-0.1l-0.1-0.1l-0.1-0.1l-0.1-0.1l-0.1-0.1
		h-0.2L149.1,0l-0.2,0.2l-0.2,0.1l-0.1,0.1l-0.1,0.1l-0.1,0.1l-0.3,0.1h-0.7l0.1,0.2v0.3l0.1,0.1c0,0,0.1,0.1,0.1,0.1l0.1,0.1
		l0.1,0.3v0h0.2l0.3,0.1l0.1,0.3v0c0.1,0,0.1,0,0.2,0c0.1,0.1,0.2,0.2,0.2,0.3V3l0.1,0.1c0.1,0.1,0.1,0.3,0.1,0.4
		c0,0.1-0.1,0.2-0.2,0.2l0,0.1L149,3.9l0.1,0.2l0,0.1l0,0.1v0.1l0.1,0l0.1,0.3v0.4l0,0l0.1,0.1c0.1,0.1,0.1,0.3,0.1,0.4
		c-0.1,0.1-0.2,0.2-0.3,0.2h-1l-0.2-0.1l-0.1,0.1v0.7l-0.1,0.3l-0.1,0.1V7l0,0.2l-0.2,0.3v0.3l0,0.2l-0.2,0.3v0.5l-0.1,0.3L147,9.1
		v0.3l-0.1,0.3l-0.3,0.1h-0.2l0,0v0l-0.1,0.3l-0.2,0.2l-0.2,0.2l-0.2,0.2l-0.1,0.2l-0.2,0.3l-0.1,0.1l-0.2,0.2l-0.2,0.2v0l-0.2,0.2
		l-0.2,0.3l-0.1,0.1l-0.2,0.2l-0.2,0.2l-0.2,0.2l-0.2,0.4l-0.1,0.1l-0.2,0.2l-0.2,0.2l-0.3,0.1h0l-0.1,0.1l-0.2,0.2l0,0l-0.2,0.2
		l-0.1,0.1l-0.3,0.2l-0.2,0.2l0,0l-0.2,0.2l-0.2,0.2l-0.3,0.1h-0.1l-0.3,0.3l0,0l-0.2,0.2l-0.2,0.2l-0.2,0.2l-0.1,0.1l-0.4,0.2
		l-0.2,0h-0.1l-0.1,0.1l-0.3,0.1h-0.4l-0.1,0.1l-0.3,0.1h-0.3l-0.1,0.1l-0.3,0.1h-0.1l-0.1,0.1l-0.3,0.1h-0.5l-0.1,0.1l-0.3,0.1h0
		l-0.1,0.1l-0.3,0.1h-0.4l-0.1,0.1l-0.3,0.1h-0.1l-0.3,0.2l-0.2,0h0l-0.1,0.1l-0.3,0.1h-0.3l-0.1,0.1l-0.3,0.1h-0.4l-0.1,0.1
		l-0.3,0.1h0l-0.1,0.1l-0.3,0.1h-0.3l-0.1,0.1l-0.1,0.1l-0.6,0.3l-0.1,0.2l-0.2,0.2l-0.1,0.1v0.1l-0.1,0.3l-0.1,0.1l-0.1,0.1
		l-0.3,0.1h0v0l-0.1,0.3l-0.2,0.2v0l-0.1,0.1l0.1,0l0.1,0.3v0.4l-0.1,0.3L130,22l0,0.1l-0.3,0.1h-0.4l-0.3-0.1l-0.1-0.3v-0.2h0l0,0
		v0.4l-0.1,0.3l-0.1,0v0.7l-0.1,0.1l0.1,0.1v0.2l-0.1,0.3l-0.1,0v0.1l-0.1,0.3l-0.1,0.1l-0.1,0.1l-0.1,0V25l-0.1,0.3l-0.3,0.1h-0.1
		l0.1,0.2v0.2l-0.1,0.3l-0.1,0v0.3l-0.1,0.3l-0.1,0.1V27l-0.1,0.3l-0.1,0v0.2l0.1,0l0.1,0.3V28l-0.1,0.3l-0.1,0.1v0.2l-0.1,0.2
		c0.1,0.1,0.1,0.2,0.1,0.4c-0.1,0.1-0.2,0.2-0.3,0.2h-0.1l0,0.1l-0.3,0.1h-0.3l0,0.1l-0.3,0.1h-0.1l0,0.1l-0.1,0.1v0.2l0,0.1l0,0.1
		v0.2l0,0.1l0,0.1V31l-0.1,0.3l-0.3,0.1h-0.2v0l-0.1,0.3l-0.1,0.1l-0.1,0.1l-0.3,0.1h-0.4l-0.3-0.1l0-0.1h-0.9l-0.3-0.1l-0.2-0.2
		l-0.1-0.1l-0.1-0.1l0-0.1l-0.1-0.1l-0.1-0.1c-0.1,0-0.2-0.1-0.2-0.2l-0.2-0.4l0-0.2v-0.1l-0.1,0l-0.1-0.3v-0.1l-0.1,0l-0.1-0.3V29
		h0l-0.3-0.1l-0.1-0.1l-0.1-0.1l-0.1-0.1l-0.1-0.1l0-0.1l0,0l0,0.1l-0.3,0.1h-0.1l0,0.1l-0.3,0.1H119l-0.3-0.1l-0.1-0.1l-0.1-0.1
		l-0.1-0.3v0h0l-0.1,0c0,0,0,0,0,0c0,0-0.1,0-0.1,0c0,0-0.1,0-0.1,0c0,0,0,0,0,0c0,0,0,0-0.1-0.1c0,0,0,0-0.1,0l-0.1-0.1h0l-0.3-0.1
		l-0.1-0.2l-0.1-0.1l0-0.1h-0.1l-0.2-0.1l-0.1,0l-0.1,0.1l-0.1,0.1l-0.1,0.2l-0.1,0.1l-0.1,0.1l-0.1,0.1l-0.1,0.1l-0.2,0.1l-0.1,0.1
		l-0.3,0.1h-0.1l0,0.1l-0.3,0.1l-0.3-0.1l0-0.1h-0.1l-0.3-0.1l-0.1-0.3v-0.8l0.1-0.3l0.1-0.1l0.1-0.1l-0.2-0.1l-0.1-0.3v-0.3l-0.1,0
		l-0.1-0.3v-0.6l0.1-0.3l0.1-0.1l0.1-0.1l0.1-0.1l0.1-0.1l0.3-0.1h0.4l0.3,0.1l0,0.1l0-0.1l0.1,0l0-0.1l0.3-0.1h0l0,0V24l-0.1,0
		l-0.1-0.3v-0.2l0-0.1l0-0.1v-0.7l-0.1-0.1c-0.1-0.1-0.1-0.2-0.1-0.4c0-0.1,0-0.1,0-0.2l0-0.1v-0.2h0l-0.3-0.1l-0.1-0.1
		c0,0-0.1,0-0.1-0.1c-0.3,0.8-1.6,1.3-2.2,1.9c-0.9,0.9-1.7,1.8-2.6,2.7c-1.5,1.4-1.5,2-1.4,4c0.2,2.2,2.6,4.2,2.6,6.5
		c0,0.8-0.2,0.5-0.6,0.9c-0.4,0.4-1,0.9-1.2,1.6c1,0.3,1.8,0.9,2.8,1.3c2.2,0.9,4.5,2.4,5.8,4.4c1.4,2.1,2.5,4.4,3.9,6.5
		c0.6,0.9,1.6,1.6,2.1,2.6c0.5,1.3,1.1,2.5,1.6,3.8c0.8,1.7,1.8,3.3,2.5,5.1c0.7,1.8,1.6,3.6,2.4,5.5c0.3,0.7,1,1.3,1.3,2.1
		c0.3,0.7,0,1.7,0.4,2.4c0.3,0.6,1.3,1.1,1.9,1.7c0.8,0.8,1.1,1,1.2,2c0.1,1.8,1.6,3.1,2.5,4.5c1.2,1.7,2.3,3.5,3.4,5.2
		c0.3,0.5,0.6,1.7,0.3,2.2c-0.3,0.5-1,1.3-1.1,1.8c0,0,0.4,0.7,0.4,0.9c0.1,0.4,0.1,0.7,0.3,1c0.4-0.6,1.1,1,1.2,1.2
		c0.4,0.6,0.6,1.4,1,1.9c0.5,0.5,1.5,0.9,2.1,1.3c1.3,0.9,2.3,2.4,3.3,3.6c0.6,0.7,1.8,1.2,2.7,1.6c3,1.6,6,3.7,9.2,5
		c2.9,1.2,5.6,2.2,8.2,3.9c1,0.7,2.1,1.4,3.1,2.1c0.6,0.4,0.6,1.4,0.8,2.1c0.4,1.2,2.2,1.5,3.2,2.3c0.4,0.3,0.8,0.7,1.2,1
		c-0.1,1.2,0.5,2.6,1.8,2.8c0.1,0,0.2,0,0.2,0c0.1-0.3,0.1-0.6,0.1-0.9C179.9,119.7,179.8,119.6,179.8,119.5z"/>
	<rect y="165.5" class="st1" width="300" height="151.2"/>
	<text transform="matrix(1 0 0 1 27.3265 190.6931)"><tspan x="0" y="0" class="st0 st2 st3">Best Workplace</tspan><tspan x="67" y="35" class="st0 st2 st3">in Peru</tspan><tspan x="47.5" y="95" class="st0 st4 st5 st6">2016</tspan><tspan x="37.7" y="125" class="st0 st7 st8">Great Place to Work</tspan></text>
</g>
<g id="Lithuania">
</g>
<g id="Asia">
</g>
<g id="America">
</g>
<g id="_x31_0">
</g>
<g id="_x35_">
</g>
<g id="_x31_6">
</g>
<g id="Digital_Edge">
</g>
<g id="Innovation_Award">
</g>
<g id="Payments_Innovation">
</g>
<g id="Guides">
</g>
</svg>
