<?xml version="1.0" encoding="utf-8"?>
<!-- Generator: Adobe Illustrator 22.0.1, SVG Export Plug-In . SVG Version: 6.00 Build 0)  -->
<svg version="1.1" xmlns="http://www.w3.org/2000/svg" xmlns:xlink="http://www.w3.org/1999/xlink" x="0px" y="0px"
	 viewBox="0 0 300 316.6" style="enable-background:new 0 0 300 316.6;" xml:space="preserve">
<style type="text/css">
	@font-face {
    	font-family: UniversLTStd;
    	src: url('../fonts/UniversLTStd/UniversLTStd.otf');
	}
	@font-face {
    	font-family: UniversLTStd-Bold;
    	src: url('../fonts/UniversLTStd/UniversLTStd-Bold.otf');
	}
	@font-face {
    	font-family: UniversLTStd-Light;
    	src: url('../fonts/UniversLTStd/UniversLTStd-Light.otf');
	}
	.st0{fill:#FFFFFF;}
	.st1{fill:none;}
	.st2{font-family: UniversLTStd, Helvetica, Arial, sans-serif;}
	.st3{font-size:35px;}
	.st4{font-family: UniversLTStd-Bold, Helvetica, Arial, sans-serif;}
	.st5{font-size:70px;}
	.st6{letter-spacing:-1;}
	.st7{font-family: UniversLTStd-Light, Helvetica, Arial, sans-serif;}
	.st8{font-size:20px;}
</style>
<g id="Background">
</g>
<g id="Peru">
</g>
<g id="Lithuania">
</g>
<g id="Asia">
</g>
<g id="America">
	<rect x="25" y="141.8" class="st0" width="250" height="4"/>
	<rect y="165.8" class="st1" width="300" height="150.9"/>
	<text transform="matrix(1 0 0 1 32.1917 190.9963)"><tspan x="0" y="0" class="st0 st2 st3">America’s Best</tspan><tspan x="32.8" y="35" class="st0 st2 st3">Employers</tspan><tspan x="42.6" y="95" class="st0 st4 st5 st6">2016</tspan><tspan x="88.5" y="125" class="st0 st7 st8">Forbes</tspan></text>
	<g>
		<path class="st0" d="M275,24.6v-0.3c0,0.1-0.1,0.1-0.1,0.1c0-0.1-0.1-0.2-0.1-0.3c-0.2,0.3-0.6-0.1-0.2-0.3c0.1,0,0.1-0.1,0.2-0.1
			l0,0v-0.1l-0.1,0l-0.1-0.2v-0.1l-0.1,0l-0.1-0.2v-0.1l-0.1,0l-0.1-0.2v0h-0.1l-0.1,0l0,0.1l-0.2,0.1h-0.3l-0.2-0.1l0-0.1l-0.1,0
			l-0.1-0.1l-0.1-0.2v0l-0.1-0.1l0-0.1l-0.1,0l-0.1-0.2V22l0.1-0.2l0.1,0v-0.1l0.1-0.2l-0.1-0.1l-0.1-0.2V21l0.1-0.2l0.1-0.1h-0.3
			l-0.2-0.1l-0.1-0.1h-0.2l-0.2-0.1l0-0.1l-0.1,0l0-0.1h-0.1l-0.2-0.1l-0.1-0.1l0-0.1l-0.1,0l-0.1-0.2l0.1-0.1l-0.1-0.1v-0.1
			l0.1-0.2l0.1,0l0-0.1v-0.3l0-0.1l0-0.1v-6c0,0-0.1,0-0.1-0.1h-0.1l-0.2-0.1l0-0.1l-0.1,0l-0.1-0.1l-0.1,0l-0.1-0.2V12l-0.1,0
			l0-0.1l-0.1,0l0-0.1h-0.1l-0.2-0.1l0-0.1l-0.1,0l0-0.1h-0.1l-0.2-0.1l0-0.1l-0.1,0l0-0.1h-0.1l-0.2-0.1l0-0.1h-0.1v0.2l-0.1,0.2
			l-0.2,0.1h-0.4l-0.1,0l-0.1,0h-0.2l-0.1,0.1l-0.1,0l0,0.1l-0.2,0.1h-0.4l-0.1,0.1l-0.2,0.1h-0.1l0,0.1l-0.2,0.1h-0.3l-0.2-0.1
			l0-0.1h-0.1l-0.2-0.1l0-0.1h-0.1l-0.2-0.1l-0.1-0.2v0l-0.1-0.1c0,0,0-0.1,0-0.1c0,0,0-0.1,0-0.1v-0.5l-0.1,0l-0.1-0.1l-0.2-0.1
			l-0.2,0.2l-0.1,0.2l0,0l-0.3,0.4l0,0l-0.3,0.3v0l-0.3,0.3l-0.2,0.3l-0.3,0.4l0,0l-0.3,0.3l-0.3,0.4l-0.3,0.4l-0.3,0.4l0,0
			l-0.3,0.3l-0.2,0.2l-0.2,1.4v0.1l-0.1,0.2l-0.2,0.1h-0.1l0,0.1l-0.1,0l0,0.1l-0.1,0v0.1l-0.1,0.2l-0.2,0.1h0V17l-0.1,0.1l0,0
			c0.1,0,0.1,0.1,0.2,0.1c0,0.1,0,0.2-0.1,0.3l-0.1,0.1v0l-0.1,0.2l-0.1,0V18l-0.1,0.2l0.1,0.1l0.1,0.2v0.4l-0.1,0.2l-0.1,0l0,0.1
			l-0.1,0l-0.1,0.1l-0.2,0.1h-0.1l0,0.1l0,0l0,0c0.1,0.1,0.1,0.2,0.1,0.3c0,0.1-0.1,0.1-0.2,0.1l0,0.1l-0.1,0l0,0.1l-0.2,0.1h-0.1
			l0,0.1l-0.2,0.1h-0.1l0,0.1l-0.1,0l0,0.1l-0.2,0.1h0v0l-0.1,0.2l-0.1,0c0,0.1,0,0.1-0.1,0.1l0,0l0.1,0l0,0.1l0.1,0l0,0.1l0.1,0
			l0.1,0.2v0.1l-0.1,0.2l-0.2,0.1H259l-0.2-0.1l0,0l0,0.1v0.1l-0.1,0.2l-0.1,0.1l-0.1,0v0.1l-0.1,0.2l-0.2,0.1h-0.1l-0.2-0.1
			l-0.1-0.2v-0.1l-0.1,0l-0.1-0.1l-0.1,0l0,0.1l-0.2,0.1h0v0l-0.1,0.2l-0.2,0.1H257l-0.2-0.1l-0.1-0.1h0l-0.2-0.1l0,0l0,0l-0.1,0
			l0,0.1l-0.1,0v0.2l-0.1,0.2l-0.1,0V23l-0.1,0.2l-0.1,0l0,0.1l-0.1,0.1v0.2c0,0.1-0.1,0.3-0.2,0.3h-1l-0.2,0.1l-0.1,0H251l-0.2-0.1
			l-0.1-0.1h-3.1l-0.4,0.1l-0.1,0h-5.9l-0.1,0l-0.1,0h-0.1l0,0.1l-0.2,0.1h-0.2l0,0.1l-0.2,0.1h0l-0.1,0.1l-0.2,0.1H240l0,0.1
			l-0.1,0l0,0.1l-0.2,0.1h-0.2l-0.1,0.1l-0.1,0l0,0.1l-0.1,0.1c0,0-0.1,0-0.1,0l0,0.1l-0.2,0.1h-0.1c0,0-0.1,0.1-0.1,0.1l-0.2,0.1
			l-0.1,0.1l-0.4,0.4l-0.1,0l-0.2,0.1l0,0v0l-0.1,0.2l-0.2,0.1h0l0,0l-0.1,0.2l-0.1,0.1l-0.1,0.1l-0.1,0.2l-0.1,0.1l-0.2,0.1
			l-0.1,0.1l-0.2,0.1h-0.3l-0.1,0.1c0,0.1-0.1,0.1-0.2,0.1h-0.2v0.2l-0.1,0.2l-0.2,0.1H235l0,0.1l-0.2,0.1l-0.1,0.1l-0.1,0.1
			l-0.3,0.3l-0.5,0.6l-0.5,0.9l0,0l-0.5,0.8l-0.2,0.1h-8.2l-1,0.4l-0.8,0.4l0.4,0.7l0.1,0.1l0.1,0.2v0.7l0,0c0,0,0,0,0,0l0,0
			c0,0,0.1,0.1,0.1,0.1c0.1,0,0.3,0.1,0.3,0.2c0,0.1,0,0.2,0,0.3l0.1,0l0.1,0.2v0.3l0,0.1l-0.1,0.2c0.1,0.2,0.1,0.3-0.1,0.4
			c-1.2,0.9-2.4,1.7-3.7,2.6c-2.1,1.5-4.9,1.6-7,2.9c-0.4,0.2-0.6,0.6-1,0.8c-0.8,0.5-1.6,0.5-2.6,0.6c-0.4,0-0.7,0.2-1.1,0.3
			c-0.8,0.1-1.8-0.1-2.6-0.3c0.4-0.3,0.8-0.1,1.2-0.3c0.4-0.1,0.4-0.1-0.1-0.3c-0.9-0.3-1.9-0.6-2.9-0.9c0.4-0.7,0.8-1.4,1.2-2.1v0
			v-0.5l0.1-0.2l0.1-0.1v-0.2l0.1-0.2l0.2-0.1h0l0.1-0.1l0.2-0.1h0.1c0.2-0.4,0.4-0.7,0.7-1.1c0.3-0.6,0.7-0.6,0.8,0h0.1
			c0.2-0.4,0.3-0.7,0.4-1.1v-0.6l0.1-0.2l0.1-0.1v0l0.1-0.2l0.1,0v-0.1l0-0.1l0-0.1c0-0.1-0.1-0.2-0.2-0.4c-0.1-0.2-0.1-0.4-0.2-0.6
			c-0.1-0.4-0.1-0.9-0.2-1.3c-0.2-0.8-0.2-1.9-0.8-2.6c-0.8-0.9-1.8,0-2.7,0.5c-0.4,0.2-2,1.4-2.4,1c-0.1-0.2-0.1-0.5,0-0.7
			c0-0.2,0.1-0.5,0.2-0.6c0.3-0.5,1-0.3,1.3-0.7c0.2-0.2,0-0.5,0.2-0.8c0.2-0.4,0.7-0.3,0.9-0.6c0.3-0.4,0.3-1.9,0.2-2.3
			c-0.1-0.6-1.4-1.9,0.1-1.4c0-0.5-0.3-0.5-0.4-0.8c-0.1-0.2-0.1-0.4-0.1-0.6c-0.2-0.3-1-0.6-1.4-0.7c-0.5-0.2-1-0.2-1.5-0.4
			c-0.4-0.2-0.5-0.8-1.1-0.9c-0.4-0.1-0.6,0-0.9-0.1c-0.3-0.1-0.4-0.4-0.8-0.4c-0.2-0.1-1-0.2-1.2,0c-0.3,0.3-0.5,2,0.2,1.9
			c-0.5,0.4-1.3,0.1-1.8,0.6c-0.4,0.4-0.3,1-0.3,1.6c0,0.6-0.3,0-0.5,0.1c-0.2,0.1-0.3,0.8-0.5,1c-0.2-0.3,0-0.7,0.1-1
			c0,0-0.1,0-0.1,0c0-0.2,0.3-1.2,0-1.1c-0.1,0-0.4,0.6-0.5,0.7c-0.1,0.2-0.2,0.5-0.3,0.6c-0.2,0.1-0.3-0.2-0.4-0.1
			c-0.1,0.1-0.2,0.2-0.3,0.3c-0.1,0-0.3,0-0.3,0c-0.2,0.2-0.3,0.7-0.5,0.9c-0.1,0.1-0.3,0.1-0.3,0.2c-0.6,0.8-0.7,2.2-1,3.2
			c-0.2,0.5,0.2,1,0.2,1.5c0.1,0.7-0.2,1.4-0.1,2.1c0.1,0.4,0.4,1.3,0.8,0.9c0,0.6,0,0.9,0.1,1.4c0.1,0.3,0,0.6,0,0.9
			c0,2.1-1.6,3.8-2.7,5.6c0.2,0,0.7-0.1,0.9,0c0.3,0.1,0.5,0.5,0.5,0.9c0-0.4-0.3-0.8-0.8-0.9c-0.8-0.1-1.3,0.5-2,0.7
			c-0.5,0.1-1.4-0.2-1.6-0.6c-0.6-1.3-1.2-2.2-1.1-3.6c0-1.2-0.3-2.4-0.4-3.6c-0.1-0.6,0-0.9,0.2-1.4c0.3-0.9,0.3-1.9,0.6-2.8
			c0.2-0.8,0.6-1.4,0.8-2.2c0.2-0.7,0.4-1.3,0.7-1.9c0.1-0.2,0.1-0.5,0-0.7c0.3,0.2,0.9-0.4,1-0.7c0.4-0.6,0.4-1,0.3-1.7
			c-0.2,0.3-0.2,0.5-0.5,0.7c-0.1,0.1-0.2,0-0.4,0.1c-0.1,0.1-0.1,0.4-0.1,0.5c0,0.1-0.2,0.1-0.3,0.3c-0.1,0.2-0.3,0.6-0.1,0.8
			c0-0.1-0.1-0.1-0.2-0.1c-0.3-0.1-0.9,0.2-1.1,0.5c-0.3,0.5-0.4,0.8-1,1c-0.2,0.1,0,0.3-0.4,0.2c-0.3-0.1-0.2-0.2-0.1-0.4
			c0.1-0.3,0.3-0.5,0.4-0.8c0.1-0.2,0.3-0.7,0.4-0.8c0.1-0.1,0.3,0,0.4-0.1c0.3-0.2,0.5-0.5,0.7-0.9c0.2-0.5,0.6-1,1-1.5
			c0.2-0.3,0.3-0.6,0.5-0.9c-0.1,0-0.1,0-0.2-0.1c0.1,0,0.2,0,0.4-0.1c0.5-0.4,0.7-1.1,1-1.7c0,0.4,0,0.8,0,1.2
			c0.3-0.1,0.5-0.3,0.7-0.5c0,0,0.1-0.4,0.1-0.4c-0.1,0.1,1-0.2,0.9-0.2c0.7,0.4-1.2,1.1-0.2,1.5c0.3-0.4,0.3-0.6,0.7-0.9
			c0.1,0,0.4-0.1,0.4-0.2c0.1-0.1,0.1-0.3,0.2-0.4c0.4-0.6,1.1-0.6,1.8-0.3c0-0.4,1-0.2,1.3-0.4c0.2-0.2,0.2-0.4,0.5-0.5
			c0.2-0.1,0.7,0,0.9,0c0.3,0.1,0.8,0.2,1.1,0.3c0.3,0.2,0.9,0.9,1.2,0.9c0.4,0,0.1-0.9,0.5-1c0.3-0.1,1,0.3,1.3,0.3
			c0.3,0,0.7,0.1,1,0.1c0.2,0,0.9,0.3,0.9-0.1c0,0,0,0,0-0.1h0h-0.1c-0.1,0-0.2,0-0.2-0.1l-0.1-0.2l-0.1-0.1v0c0,0-0.1,0-0.1,0
			c0,0,0-0.1,0-0.1l-0.2-0.1l-0.1-0.1l-0.1-0.1l-0.1-0.2v-0.1c-0.1-0.1-0.2-0.1-0.2-0.2c0.1-0.1-0.1-0.8-0.3-1c0,0-0.1-0.1-0.1-0.1
			h-0.5l-0.1,0.1c0,0.1-0.1,0.1-0.2,0.1H199l-0.2-0.1l-0.7-0.8c-0.3-0.1-0.6-0.1-0.8-0.2c-0.5,0-0.2-0.7,0-1c-0.6,0-1.4,0.2-2,0.3
			c-1.1,0.2-2.2,0.3-3.3,0.5c-0.4,0-0.7,0.3-1,0.4c-0.3,0.1-0.5,0.4-0.8,0.6c-0.4,0.2-0.8,0-1.3-0.3c-0.7-0.3-1.4-0.2-2.2-0.3
			c0-0.1-0.8-1.1-0.9-1.2c-0.7-0.7-1.6-0.6-2.5-0.8c0.1,0,0.1-0.1,0.1-0.2c-0.5,0.2-1.1,0.6-1.4,1.1c-0.1-0.4,0.2-0.8,0.1-1.1
			c0-0.1-0.2-0.6-0.3-0.6c-0.2-0.1-0.4-0.3-0.6-0.5c0,0,0.1-0.2,0-0.3c-0.2-0.1-1,0.4-1.2,0.5c-1.4,0.6-2.7,1.3-4,1.9c0,0,0,0,0,0
			c0,0,0,0,0,0c-0.8,0.4-1.6,0.7-2.4,1.1c-0.4,0.2-1.6-0.6-2-0.8c-0.3-0.1,0.4-0.6,0.4-0.8c0-0.9-2.2,0.2-2.6,0.4
			c-0.4,0.2-0.9,0.4-1.4,0.5c-0.6,0.1-1.2-0.1-1.8-0.2c1.5-1.2,3-2.5,4.6-3.7c0.6-0.5,1.1-0.9,1.8-1.3c1.3-0.6,2.6-1.1,4-1.6l-0.1,0
			l-0.1-0.1h-0.1l0,0.1l-0.2,0.1h-0.1l0,0.1l-0.2,0.1l-0.2-0.1l0-0.1h-0.2l-0.2-0.1l-0.1-0.2V7.2l0,0c-0.4-0.1-0.7-0.1-1.1-0.2
			c0.3,0,0.7,0,1,0.1l-0.1,0l0-0.1l-0.1,0l0-0.1h-0.5L174.3,7L174.2,7h-1.1L173,7L172.8,7h-0.7L172,7l0-0.1l-0.1,0l-0.1-0.2V6.6
			l-0.1,0l-0.1-0.2v0l0,0h-0.2l0,0.1l-0.2,0.1h-0.1l0,0.1l-0.2,0.1h-0.1l0,0.1l-0.2,0.1h0l-0.1,0.1l-0.1,0l0,0.1l-0.1,0l0,0.1
			l-0.2,0.1h-0.3l0,0.1l-0.2,0.1h-1l-0.2-0.1L168.4,7v0h-0.3L167.9,7l-0.1-0.2V6.6c0,0,0,0,0-0.1l-0.1,0l0-0.1h-0.3l-0.2-0.1l0-0.1
			H167l-0.2-0.1l0-0.1l-0.1,0l0-0.1l-0.1,0l-0.1-0.2V5.7h-0.3c0,0,0,0-0.1,0c0,0,0,0-0.1,0h-0.3V6c0,0.1-0.1,0.2-0.2,0.2l0,0.1
			l-0.2,0.1h-0.1l-0.2-0.1l0-0.1l-0.1,0L164.9,6V5.9l-0.1,0l-0.1-0.1c-0.1,0-0.2-0.1-0.2-0.2V5.2l-0.1,0l0-0.1h-0.7l-0.2-0.1
			l-0.1-0.2V4.6l0-0.1l-0.1,0l-0.1-0.1h-0.2L163,4.4L163,4.3h0l-0.2-0.1l-0.1-0.1h0l-0.2-0.1l0,0l0,0l-0.2,0.1h-0.4l-0.2-0.1l0-0.1
			h-0.4l0,0.1l-0.2,0.1h-0.1c0,0-0.1,0-0.1,0c0,0,0,0-0.1,0h0v0.2l-0.1,0.2l-0.2,0.1h-0.4L160,4.7c-0.1,0.1-0.2,0.1-0.3,0l0,0H159
			l-0.2-0.1l0-0.1l-0.1,0l-0.1-0.2V4.1l-0.1,0l0-0.1h-1.2L157.2,4l-0.1-0.1H157l-0.2-0.1l-0.1-0.2v0h-0.4l0,0.1l-0.2,0.1h-0.3
			l-0.2-0.1l0-0.1h-0.2l-0.2-0.1l0-0.1c-0.1,0-0.1-0.1-0.1-0.1l-0.1,0L155,3.2c-0.1,0-0.2-0.1-0.2-0.2V2.2l-0.1-0.4l0-0.1V1.6
			l-0.1-0.2l0-0.1V1.2L154.5,1l0-0.1V0.6l-0.1-0.2l0-0.1v0l-0.3-0.1C154,0.1,154,0,154,0h-0.6v1.8L153.3,2L153.1,2H33.4
			c0,0.1,0,0.3,0.1,0.5c0.1,0.2,0.3,0.4,0.4,0.5c0.3,0.4-0.1,0.3,0.7,0.2c-0.2,0.4,0.3,0.5,0.3,0.9c0,0.1-0.2,0.4-0.2,0.5
			c0,0.1,0.1,0.1,0,0.2c-0.1,0.1-0.5,0.2-0.6,0.3c0.2-0.1,0.9,0.4,1,0.7c0.2,0.4-0.1,0.8,0.4,1.2c0.2,0.2,0.4,0.1,0.4,0.3
			c0,0.1-0.3,0.2-0.4,0.3c0,0-0.1,0.3-0.1,0.4c0,0.1-0.2,0.1-0.2,0.3c0,0.1,0.1,0.3,0.1,0.4c0,0.1-0.2,0.3-0.2,0.3
			c0,0,0.1,0.2,0.1,0.3c0,0,0.2,0.2,0.2,0.3c0,0.1-0.2,0.2-0.2,0.3c0,0,0.1,0.1,0.1,0.2c0,0.1,0.1,0.3,0.1,0.4c0,0.4,0,0.1-0.2,0.4
			c-0.2,0.3-0.4,0.4-0.9,0.8c-0.5,0.5-0.7,0.4-1.4,0.6c0,0.1,0,0.1,0,0.1c-0.5-0.1-0.4-0.3-0.2-0.6c-0.2,0.1-0.4,0.3-0.6,0.4
			c0.1-0.2,0.4-0.3,0.5-0.5c0.1-0.1,0-0.3,0.1-0.4c0.2-0.3,0.5-0.2,0.5-0.7c0.1,0.4-0.1,0.8,0.2,1.1c0.2-0.6,0.2-0.8,0.6-1.2
			c0,0,0,0,0,0c0,0,0,0,0,0c0,0,0,0,0,0c0,0,0,0,0,0c0,0,0,0,0,0c-0.1,0.2-0.2,0.3-0.2,0.5c1.2-0.2,0.6-1.7,0.1-2.4
			c0.1,0.1,0.8,0,0.8-0.1c0.1-0.2-0.2-0.6-0.2-0.9c-0.3,0.4-0.7,0.6-1,1c-0.2,0.3-0.5,0.3-0.8,0.6c-0.2,0.2-0.5,0.6-0.5,0.8
			c-0.1,0.3-0.3,0.3,0,0.4c0.2,0.1,0.7-0.2,0.9-0.3c-0.1,0.1-1.1,0.8-1.2,0.4c-0.1-0.4,0.3-0.8,0.5-1.1c0.2-0.3,0.4-0.4,0.6-0.7
			c0.1-0.3,0.1-0.7,0.3-0.8c0.1,0.3,0.1,0.6,0,0.8c0.2-0.2,0.5-0.6,0.6-0.8C34,7.9,34.2,8,33.9,7.6c-0.3-0.3-0.6-0.9-0.4-1.2
			c-0.1,0.1-0.3,0.7-0.4,0.7C32.9,7.3,32,6.5,32,6.3c-1.1,0-2.1,0.2-3.2,0.1c-1.3-0.2-2.6-0.8-3.8-1.2c0.1,0.8,0,1.5,0.3,2.2
			c0.3,1,1,1.8,1.4,2.7c0.1,0.2,0.1,0.5,0.1,0.7c0.1,0.4,0.5,0.8,0.6,1.3c0.1,0.4,0.1,0.7,0,1.1c0.3-1.1,0.7-0.2,1.6-0.1
			c-0.3,0.1-1.1,0.2-1,0.7c-0.1-0.1-0.3-0.2-0.4-0.3c0,0.1,0.1,0.6,0.1,0.7c0.3,0.3,1-0.1,1.2,0.4c-0.3,0-0.5,0.2-0.3,0.5
			c0,0-0.2-0.1-0.2-0.1c0.2,0.2,0.2,0.4,0.2,0.6c0,0-0.1,0.6-0.1,0.6c-0.5,0.6-0.3-0.9-0.5-1.1c-0.1,0.6,0.1,1.3-0.2,1.8
			c1.3,0.2,2.6,0.4,3.9,0.5c-0.7,0.1-1.5,0.2-2.2,0.3c-0.6,0.1-0.9-0.3-1.3-0.5c0.4,0.8,0,1.4,0.1,2.3c0,0.4,0.2,0.6,0.2,1
			c0,0.3-0.1,0.6-0.1,0.9c0,0.3,0.1,0.5,0.1,0.7c0,0.8-0.2,1.7-0.4,2.5c-0.2,0.6-0.1,1.4-0.1,2c-0.1,0.8-0.1,1.7-0.2,2.6
			c0,0.3,0,0.6-0.1,0.9c0,0.2-0.1,0.5-0.1,0.7c-0.1,0.6-0.3,1.1-0.6,1.6c0.1-0.1,0.3-0.3,0.4-0.4c0.1,0.1,0.2,0.3,0.3,0.5
			c-0.1,0-0.1-0.1-0.2-0.1c-0.4,0.7-1.5,2.2-1.4,2.9c0,0.2,0.2,0.4,0.3,0.5c0.2,0.4,0.3,0.4,0.2,1c-0.1,0.4-0.1,0.8,0,1.2
			c0.1,0.6,0.3,1.1,0.8,1.5c0.2,0.2,0.1,1,0.1,1.2c0,1,0,1.9,0,2.9c0,0.1,0,2-0.1,2.2c0.2-0.2,0.3-0.4,0.5-0.3
			c-0.3,0.2-0.6,0.9-0.8,0.7c-0.3,0.5-0.6,1.1-0.4,1.6c0.2,0.4,1.3,2.1,1.6,2.1h-0.1c0.3,0.6,1,1.6,1.1,2.2c0,0.2-0.2,0.4-0.2,0.6
			c-0.1,0.6,0.2,1,0.4,1.6c0.2,0.6-0.2,0.8,0.2,1.3c0.9,1.2,1.9,2.4,2.8,3.6c0.2,0.2,0.2,0.4,0,0.7c0.4-0.7,1,0.3,1.4,0.5
			c0,0,0-0.1,0-0.1c0.2,0.2,1.2,0.9,0.8,0.2c0.1,0,0.1,0,0.2,0.1c-0.1-0.2-0.1-0.4-0.2-0.5c0,0.2,0-0.5,0-0.4
			c0.1-0.4,0.2-0.2,0.4-0.5c0.3,0.1,0.5,0.4,0.8,0.4c0.4,0.1,0.3,0,0.7-0.1c0.1,0,0.1-0.2,0.3-0.2c0.2,0,0.5,0.3,0.6,0.4
			c0.2,0,0.4,0,0.6-0.1c-0.1,0.1-0.1,0.2-0.2,0.2c0.7-0.2,0.8-0.3,1.4,0.2c-0.2-0.1-0.6-0.4-0.9-0.3c-0.1,0-0.1,0.2-0.2,0.2
			c-0.2,0-0.2,0.1-0.6,0.1c-0.2,0-0.5-0.1-0.7-0.1c-0.2,0-0.4,0.1-0.6,0.1c-0.4,0-0.8-0.2-1,0.2c-0.4,0.6,1,2.1,1.2,2.7
			c-0.3-0.2-0.6-0.4-0.9-0.6c-0.1-0.1-0.3-0.1-0.3-0.3c0-0.1,0.1-0.7-0.1-0.8c-0.6-0.4-0.6,1-0.6,1.2c0.1,0.4,0.4,0.8,0.5,1.2
			c0.1,0.6,0,0.5,0.7,1c0.4,0.3,0.9,0.5,1.2,0.7c0,0,0.2-0.1,0.3,0c0.3,0.2,0.5,1.1,0.3,1.5c-0.2,0.3-0.4,0.1-0.5,0.2
			c-0.2,0.2-0.1,0.5,0,0.7c0.1,0.2,0.1,0.5,0.2,0.7c0.3,0.8,1.3,1.7,1.9,2.4c0.7,0.8,1.3,1.5,2.1,2.2c0.3,0.3,0.3,0.4,0.4,0.6
			c0.1,0.2,0,0.3,0.2,0.5c0.3,0.2,0.7,0.6,0.8,0.9c0,0.1-0.1,0.2-0.1,0.3c0.1,0.3,0.1,0.6,0.1,0.8c0,0.2,0,0.6,0,0.7
			c0,0.1-0.1,0.3,0.1,0.4c0.5,0.2,1.1,0.4,1.6,0.5c0.6,0.1,1.1,0.1,1.7,0.3c0.5,0.2,1-0.1,1.6,0.1c0.7,0.3,1.3,0.8,1.9,1.2
			c0.3,0.2,0.7,0.6,1.1,0.6c0,0,0.2-0.1,0.3-0.1c0.2,0,0.7-0.1,0.8,0c0.2,0.3,0.3,1.1,0.5,1.3c0.2,0.1,0.5,0,0.8,0
			c0.6,0,0.8,0.4,1.2,0.7c0.4,0.3,0.9,0.5,1.3,0.8c0.6,0.5,0.9,0.9,1.2,1.7c0.3,0.8,0.6,1.5,0.9,2.3c0,0.1,0.1,0.2,0.1,0.2l0.3,0h1
			l0.1-0.1l0.2-0.1h1.3l0.1-0.1l0.2-0.1h1.3l0-0.1l0.2-0.1h1.4l0.1-0.1l0.2-0.1h1.4l0-0.1l0.2-0.1h1.4l0.1-0.1v0c0,0,0.1,0,0.1,0
			c0,0,0,0,0.1,0h1.2c0.1,0,0.2,0.1,0.2,0.3v0.1l-0.1,0.2l-0.1,0v0.1l-0.1,0.2l-0.1,0l0,0.1v0.1l0,0h0l0.2,0.1l0,0.1h0.2L69,87
			l0,0.1h0.2l0.2,0.1l0.1,0.1h0.2l0.2,0.1l0.1,0.1H70l0.2,0.1l0,0.1h0.2l0.2,0.1l0.1,0.1h0.2l0.2,0.1l0.1,0.1h0.2l0.2,0.1l0,0.1h0.2
			l0.2,0.1l0,0.1H72l0.2,0.1l0.1,0.1h0.2l0.2,0.1l0,0.1h0.2l0.2,0.1l0,0.1h0.2l0.2,0.1l0,0.1h0.1l0.2,0.1l0.1,0.1h0.3l0.2,0.1l0,0.1
			h0.2l0.2,0.1l0,0.1h0.1l0.2,0.1l0.1,0.1h0.2l0.2,0.1l0.1,0.1h0.3l0.2,0.1l0,0.1H76l0.2,0.1l0.1,0.1h0.2l0.2,0.1l0.1,0.1h0.2
			l0.2,0.1l0,0.1h0.2l0.2,0.1l0.1,0.1h0l0.2,0.1l0.1,0.1H78l0.2,0.1l0,0.1h0.2l0.2,0.1l0,0.1h0.1l0.2,0.1l0.1,0.1h0.2l0.2,0.1
			l0.1,0.1h0.2l0.2,0.1l0.1,0.1h0.2l0.2,0.1l0.1,0.1h0.2l0.2,0.1l0,0.1h0.2l0.2,0.1l0,0.1H81l0.2,0.1l0.1,0.1h0.2l0.2,0.1l0.1,0.1
			h0.2l0.2,0.1l0.1,0.1h0.2l0,0c0,0,0.1,0,0.1,0c0,0,0.1,0,0.1,0l0,0l0.1,0.1h0.2l0.2,0.1l0,0.1H83l0.2,0.1l0,0.1h0.1l0.2,0.1
			l0.1,0.1h0.2l0.2,0.1l0.1,0.1h0.2l0.2,0.1l0,0.1h12.1v-1.9l0.1-0.2l0.2-0.1h7.3c0.1,0,0.2,0.1,0.2,0.1h0.3l0.2,0.1l0.1,0.1l0.1,0
			l0,0.1l0.1,0l0.1,0.2v0.1l0.1,0l0.1,0.2v0.1l0.1,0l0.1,0.2v0l0.1,0.1v0c0,0,0,0.1,0,0.1c0,0,0,0.1,0,0.1v0h0l0.2,0.1l0,0.1l0.1,0
			l0,0.1h0.1L106,92l0,0.1h0.2l0.2,0.1l0.1,0.1l0.1,0l0,0.1l0.1,0l0,0.1l0.1,0l0.1,0.1h0l0.2,0.1l0.1,0.2v0l0.1,0.1l0,0
			c0,0,0,0,0,0.1c0,0,0,0,0,0l0.1,0l0,0.1l0.1,0l0.1,0.1h0l0.2,0.1l0,0.1l0.1,0l0,0.1h0.1l0.2,0.1l0.1,0.2v0.2h0l0.2,0.1l0,0.1
			l0.1,0l0,0.1c0.1,0,0.1,0.1,0.1,0.1h0.1l0.2,0.1l0.1,0.2v0h0l0.2,0.1l0,0.1h0.1l0.2,0.1l0,0.1h0.2l0.2,0.1l0,0.1l0.1,0l0,0.1
			l0.1,0l0,0.1l0.1,0l0.1,0.1h0.2c0.1,0,0.2,0.1,0.2,0.3v0.1l0.1,0l0,0.1l0.1,0l0,0.1l0.1,0l0.1,0.2v0l0.1,0.1l0.1,0.2v0.3
			c0.1,0,0.1,0.1,0.1,0.1l0.1,0l0.1,0.2v0l0.1,0.1l0.1,0.2v0h0l0.2,0.1l0.1,0.2v0.1l0.1,0l0.1,0.2v0.5l-0.1,0.2l-0.1,0l0.1,0
			l0.1,0.2v0.2l0.1,0l0.1,0.2v0.1l0.1,0l0.1,0.2v0.1l0.1,0l0.1,0.1l0.1,0.2v0.2l0.1,0.1l0,0c0,0,0,0,0,0l0.1,0.1l0,0.1l0.1,0
			l0.1,0.2v0h0l0.2,0.1l0,0.1h0.2l0.2,0.1l0,0.1h0.1l0.2,0.1l0,0.1l0.1,0l0.1,0.2v0l0.1,0.1l0.1,0.1h0l0.2,0.1l0,0.1l0.1,0l0,0.1
			l0.1,0l0,0.1h0.2l0.2,0.1l0,0.1h0.5l0.2,0.1l0,0.1l0.1,0l0,0.1l0.1,0l0,0.1c0.1,0,0.1,0,0.1,0.1h0.1l0.1,0l0.1,0h0.1l0.2,0.1
			l0,0.1h0.1l0.2,0.1l0,0.1l0.1,0l0.1,0.2v0h0.2l0.2,0.1l0,0.1h0.2c0.1,0,0.2,0.1,0.2,0.1h0.4l0,0v0l0.1-0.2l0.1,0l0-0.1l0.2-0.1h0
			v0l0.1-0.2l0.1,0l0-0.1l0.1-0.1c0.1-0.1,0.1-0.1,0.2-0.1l0,0v-0.3l0-0.1c0-0.1,0-0.1,0-0.2c0-0.1,0.1-0.1,0.2-0.1h0v0l0,0
			c0-0.1,0-0.2,0.1-0.3l0.1-0.1v-0.2l0.1-0.2l0.1,0v-0.2l0.1-0.2l0.1,0l0-0.1l0.1,0l0-0.1l0.1,0v-0.2c0-0.1,0.1-0.3,0.2-0.3h0.3
			l0.1-0.1c0.1-0.1,0.2-0.1,0.3-0.1l0,0h0.4v-0.2l0.1-0.2l0.2-0.1h0.1l0-0.1l0.2-0.1h0.1l0.2,0.1l0,0.1h0.1l0.1,0c0.1,0,0.1,0,0.2,0
			c0.1,0,0.1,0.1,0.1,0.1l0.1,0l0.1,0.1h0.4l0-0.1l0.2-0.1l0.2,0.1l0,0.1h0.7c0.1,0,0.2,0.1,0.2,0.1h0.4l0-0.1l0.2-0.1h0.1l0.1,0.1
			l0.1-0.1l0.2,0.1l0,0.1h0.1l0.2,0.1l0.1,0.2v0.1l0.1,0l0.1,0.2v0h0l0.2,0.1l0,0.1c0,0,0.1,0,0.2,0c0.1,0,0.1,0.1,0.1,0.2l0.1,0
			l0.1,0.2v0.1l0.1,0l0,0.1l0.1,0l0,0.1h0.2l0.2,0.1l0,0.1c0.1,0,0.2,0.1,0.2,0.2v0.2h0l0.2,0.1l0,0.1h0.1c0.1,0,0.2,0.1,0.2,0.2
			l0.1,0l0,0.1l0.1,0l0.1,0.1h0l0.2,0.1l0.1,0.2v0.2l0.1,0l0,0.1l0.1,0l0,0.1h0.1l0.2,0.1l0.1,0.2v0.2l0.1,0l0.1,0.2v0.3
			c0.1,0,0.1,0.1,0.1,0.2v0l0.1,0.1l0,0.1l0.1,0l0.1,0.2v0.1l0.1,0l0.1,0.2v0.2l0.1,0l0,0.1l0.1,0l0.1,0.2v0.1l0.1,0l0.1,0.2v0.1
			l0.1,0l0,0.1h0.1l0.2,0.1l0.1,0.2l-0.1,0.2l-0.1,0v0.1l0.1,0l0.1,0.2v0.1l0.1,0l0.1,0.2v0.2l0.1,0l0,0.1h0.1l0.2,0.1l0,0.1l0.1,0
			l0,0.1h0.2l0.2,0.1l0.1,0.2v0.2h0l0.2,0.1l0.1,0.2v0.1h0l0.2,0.1l0.1,0.2v0.1l0.1,0l0,0.1l0.1,0l0.1,0.2v0.3l0.1,0l0,0.1h0.1
			l0.2,0.1l0,0.1l0.1,0l0,0.1l0.1,0l0.1,0.2v0h0l0.1,0l0.1,0h0.1l0.2,0.1l0,0.1h0.1l0.2,0.1l0,0.1l0.1,0l0.1,0.2v0.2l0.1,0l0.1,0.2
			v0.7c0,0.1,0,0.1-0.1,0.1l0,0l0.1,0l0.1,0.2v1h0l0.2,0.1l0.1,0.2v0.1l0.1,0l0,0.1l0.1,0l0.1,0.2v0.1l0.1,0l0,0.1l0.1,0l0.1,0.2
			v0.1l0.1,0l0.1,0.2v0.1l0.1,0l0.1,0.2v0.2l0.1,0l0.1,0.2v0.1l0,0.1l0,0.1v0h0l0.2,0.1l0.1,0.2v0.3h0.6l0.2,0.1l0,0.1h0.3l0.2,0.1
			l0,0.1l0.1,0l0,0.1l0.1,0l0,0.1c0.1,0,0.1,0.1,0.1,0.1l0,0h0.3l0.1,0l0.1,0l0.2,0.1l0,0.1h0.2l0.2,0.1l0.1,0.1h0l0.2,0.1l0,0.1
			l0.1,0l0,0.1l0.1,0l0,0.1l0.1,0l0,0.1h0.2l0.1,0c0.1,0,0.1,0,0.2,0l0,0h0.1l0.2,0.1l0.1,0.1h1.1l0,0c0.1,0,0.2,0,0.2,0
			c0,0,0,0,0,0c0.1,0,0.2,0,0.3,0.1l0.1,0.1h0l0.2,0.1l0,0.1l0.1,0l0,0.1l0.1,0l0,0.1l0.1,0l0,0.1h0.1l0.2,0.1l0,0.1l0.1,0h0v0
			l0.1-0.2l0.2-0.1h0.1l0-0.1l0.2-0.1c-0.3,0-0.2-0.6-0.4-1.1c-0.3-0.9-0.7-1.9-0.8-2.8c0-0.2,0-0.5,0-0.7c0,0.1,0.3-0.2,0.2-0.2
			c0.1-0.2,0.2-0.8,0.2-1c-0.6,0.3-0.8-0.1-1.4-0.1c0.1-0.2,0-0.5,0-0.8c0.2,0.2,0.4,0.5,0.6,0.7c-0.1-0.1,0.8,0.1,0.4,0.1
			c0.1,0,0.3,0,0.5-0.2c0.2-0.2,0.3-0.7,0.4-0.9c0.1-0.3,0.3-0.6,0.3-0.9c0,0-0.2,0-0.3-0.1c-0.3-0.6-0.2-0.3-0.8-0.7
			c0.3,0.1,0.8-0.1,1.1,0c0.3,0.1,0.1,0.3,0.4,0.1c0.3-0.2,0.6-1,0.7-1.2c-0.2,0.2-0.4,0-0.6-0.3c0.2,0.2,0.4,0,0.6-0.2
			c0,0.1,0.1,0.3,0.1,0.4c0.1-0.2,0.2-0.4,0.3-0.6c0,0.2,0,0.4-0.1,0.6c0.1-0.3,0.3-1.6,0.7-1.6c0.1,0,0.3,0.4,0.4,0.5
			c0.2,0.2,0,0.3,0.4,0.2c0.2,0,0.8-0.5,0.9-0.6c-0.5-0.3-0.9-0.7-1-1.3c0.4-0.1,0.2,0.2,0.4,0.4c0.4,0.3,0.9,0.2,0.5-0.5
			c0.2,0.1,0.1,0.4,0.3,0.5c0.2,0.1,0.4-0.2,0.7-0.2c-0.4,0.9,0.3,0.2,0.9,0.4c-0.3,0.1-0.7,0.3-1,0.6c0.7-0.2,1.5-0.7,2.1-1.1
			c-0.3,0.1-0.6,0.2-0.9,0.1c0.7-0.2,1.2-0.2,1.8-0.6c0.7-0.4,0.9-0.9,1.4-1.5c0.3-0.5,0.3-0.1,0.5-0.2c0.4-0.2,0.9-0.6,1.2-0.9
			c-0.2-0.1-0.3-0.1-0.3-0.3c0,0-0.1,0.1-0.2,0c-0.1-0.1,0.2-0.3,0.1-0.4c-0.1-0.1-0.3,0-0.4-0.1c-0.1-0.1,0.1-0.3,0.1-0.4
			c-0.1-0.2-0.2-0.3-0.3-0.5c0.2,0,0.4,0.1,0.5,0.3c0.2-0.2,0.5-0.7,0.8-0.6c0.2,0.1,0.2,0.4,0.1,0.6c-0.3,0.6-0.5,0.5,0.1,0.6
			c0.4,0,0.6-0.2,1,0c-0.3,0.1-1.3,0.4-1.3,0.8c0,0.3,0.4-0.2,0.4-0.2c0.3-0.2,0.6-0.3,0.9-0.5c0.4-0.2,0.7-0.3,1.1-0.4
			c0.6-0.2,1-0.2,1.6-0.4c-0.3-0.3,0.2-1.1,0.3-1.4c-0.1,0.5-0.2,0.9-0.2,1.4c0.6-0.4,1.3-0.2,2-0.4c0.4-0.1-0.2-0.3-0.1-0.3
			c0,0-0.1-0.1-0.1-0.1c0-0.1,0.2,0,0.2-0.1c0,0.1,0.2-0.2,0.2-0.2c0.1-0.1,0.1-0.6,0.1-0.7c0.2,0.1,0.1,0.3,0.2,0.5
			c0.5,0.7,1.7,1,2.5,1.3c0.7,0.3,1.3,0.8,2,0.7c0.2,0,0.5-0.1,0.8-0.2c-0.1,0-0.5-0.4-0.5-0.5c-0.1-0.3-0.1,0,0.1-0.2
			c0.2-0.2,1-0.5,1.3-0.4c0.1,0,0.8,0.3,0.9,0.4c0.1,0,0,0.3,0.2,0.5c0.1,0.2,1.2,0.7,1.3,0.7c0.1,0,0.2-0.4,0.3-0.5
			c0.1,0.3-0.2,0.3-0.2,0.6c0,0.3,0.4,0.4,0.6,0.6c0.5,0.5,1.3,1.3,2,1c0.2-0.1,0.4-0.5,0.3-0.6c0.5-0.3,1.2-0.3,1.5,0.3
			c0.2,0.3-0.2,0.7,0.4,0.6c0.7-0.2,0-0.9,0.7-0.9c-0.2-0.2,0-0.2-0.2-0.5c0-0.1,0.1-0.1,0-0.2c-0.1-0.2-0.4-0.2-0.6-0.6
			c0.3,0.1,1.7,0.3,1.5,0.6c0.6,0.4,1,0.6,1.6,0.9c-0.1,0.2,0.1,0.3,0.3,0.5c0.2,0.2,0.5-0.4,0.5,0.1c0,0.2-0.4,0.7-0.5,0.9
			c0.3-0.3,0.8-0.2,1.1-0.3c-0.2-0.3,0.8-0.8,0.1-0.7c0.2,0,0.3-0.1,0.4-0.2c-0.2,0-0.4-0.1-0.6-0.2c0.4-0.3-0.8-0.5-1-0.6
			c0,0,0.1-0.1,0.2-0.1c-0.3,0-0.6,0-0.9-0.1c0,0,0.1,0,0.1-0.1c0-0.2-0.1,0,0-0.2c-0.4-0.2-0.6-0.3-0.9-0.7c0.3,0,0.7-0.1,1-0.2
			c0-0.1-0.1-0.1-0.2-0.2c0,0,0.1,0,0.1,0c-0.1,0-0.4,0-0.4-0.2c0.1-0.3,0.8-0.2,1.1-0.4c-0.1-0.2-0.1-0.2,0-0.4c-0.1,0-0.1,0-0.2,0
			c0,0,0.1-0.1,0.1-0.1c-0.1,0-0.1,0-0.2-0.1c0.4-0.2-0.2-0.3-0.2-0.8c0,0.3-0.3,0.2-0.4,0.4c-0.4,0.6-0.1,0.5-0.6,0.4
			c-0.1,0-0.6-0.2-0.5-0.4c0-0.1,0.6-0.2,0.7-0.4c-0.4-0.1-3.2,0.5-3.2-0.3c-0.1-0.5,1.8-0.9,2.3-0.7c0.4,0.1,1.5,0.7,1.8,0.4
			c0.4-0.4,0.6-0.7,1.1-0.8c0.6-0.1,1.2-0.2,1.7-0.2c1,0.1,2,0.3,2.9,0.4c0.2,0,0.4-1.3,0.5-1.5c0-0.1,0.1-0.2,0.1-0.3
			c0.1,0.3,0.3,0.2,0.4,0.5c0.1,0.2-0.1,0.5-0.1,0.6c0.1,0.2,0.3,0.2,0.5,0.3c0.1,0.1,0.1,0.5,0.4,0.7c0.2,0.2,0.7,0,0.8-0.2
			c-0.1,0-0.1,0-0.2,0c0.5-0.1,0.6-0.3,0.8-0.8c-0.1,0.3-0.2,0.6-0.4,0.9c0.4-0.2,0.9-0.3,1.2-0.6c0.3-0.3,0.1-0.5,0.3-0.8
			c0.1,0.1,0.2,0.2,0.3,0.3c0.4-0.7,0.6-0.4,0.8,0.3c-0.2-0.1-1,0.3-1.2,0.4c1.5-0.3,3-0.5,4.5-0.6c0,0.2,0,0.1,0.1,0.3
			c-0.2,0-0.4-0.1-0.6-0.1c0,0,0.1,0.1,0.1,0.1c-0.8-0.2,0,0.3,0.3,0.4c0.2,0.1,1.7,1,1.9,0.9c0.2-0.1-0.4-0.5-0.5-0.5
			c0.3-0.1,1.1-0.4,1.2-0.2c-0.1,0.1-0.5,0.2-0.5,0.3c0,0.1,1.1,0.7,1.2,0.9c-0.2-0.1-1.3-0.7-1.1-0.3c0.1,0.2,0.4,0.3,0.5,0.4
			c0,0-0.1,0-0.1,0c0.2,0.2,0.6,0.3,0.8,0.5c0.1,0.1,0.1,0.2,0.2,0.3c0.4,0.6,0.4,0.7,1,0.5c-0.1,0.1-0.3,0.1-0.5,0.2
			c1.3-0.5,2.7-1,4-1.5c0.6-0.2,0.9-0.4,1.4-0.2c0.4,0.2,1,0.5,1.3,0.8c0.3,0.3,0.4,0.6,0.7,0.9c0.3,0.3,0.2,0.2,0.4,0.5
			c0.1,0.2,0,0.3,0.3,0.5c0.6,0.6,1.6,0.8,2.2,1.4c0.3,0.3,1,1.5,0.8,1.8c-0.3,0,0,0.2,0,0.4c0,0.2,0,0.3-0.1,0.5
			c0,0.4-0.1,0.7-0.2,1c-0.1,0.3-0.4,0.7-0.5,1c-0.1,0.3,0.1,0.6,0,0.9c0,0.1-0.2,0.2-0.2,0.3c0,0.4,0.3,0.9,0.5,1.2
			c0-0.1,0-0.2-0.1-0.3c0.4,0.3,0.4,0.1,0.5-0.2c0.2-0.5,0-0.5-0.4-0.8c0.7,0.3,0.9,0.8,1.3,0.1c0.4,0.8-0.8,1.3-0.7,1.9
			c-0.1,0-0.2,0-0.3-0.1c0.1,0.3,0.3,0.5,0.4,0.9c0.3,1,1,1.8,1.7,2.5c0-0.1-0.1-0.5-0.1-0.5c0.1-0.2,0.4-0.3,0.8-0.4
			c0,0-0.2,0.3-0.2,0.2c0,0-0.1,0-0.1,0.1c0,0.1,0.1,0.2,0.1,0.3c-0.1,0.5-0.1,1.1,0.1,1.6c0.5,0,0.5-0.7,1.1-0.9
			c-0.4,0.3-0.5,0.5-0.7,1c0.7,0.1,0.8,2.3,1,2.7c0.1,0,0.3-0.1,0.4-0.1c0.5,0.2,1.3,1.2,1.7,1.7c0.2,0.2,1.7,1.5,1.2,1.6
			c-0.1,0-0.5-0.3-0.6-0.4c-0.1,0.2,0,0.5,0,0.8c0.2,0,0.4-0.1,0.7-0.1c0.1,0,0.2-0.2,0.3-0.2c0.1,0,0.3,0.1,0.4,0.1
			c0.3,0,0.4-0.1,0.5-0.2c0.4-0.2,0.4-0.2,0.8,0c-0.1-0.1-0.1-0.1-0.2-0.2c0.1,0,0.3,0.1,0.4,0.2c-0.2-0.2-0.1-0.2,0-0.4
			c0.3-0.5,0.6-1,0.8-1.6c0.6-1.5,0.6-3.2,0.7-4.8c0.1-1.1,0-2.3-1.1-2.8c0.2,0,0.4,0.1,0.5,0.2c-0.5-0.7-0.6-1.6-0.9-2.4
			c-0.3-0.7-0.7-1.4-1-2.1c-0.4-1-0.6-2-0.9-3c0.2,0.1,0.3,1.4,0.8,0.8c0.1,0.6,0.1,1.3,0.2,1.9c0.6-1.4,0.1-1.8-0.6-2.9
			c-0.4-0.6-0.8-1.2-1.1-1.9c-0.2-0.5-0.5-1-0.7-1.5c-0.3-0.8-0.5-1.7-0.7-2.5c-0.2-0.8-0.7-1.7-0.7-2.6c0-0.7-0.2-1.8,0.1-2.5
			c0.1-0.3,0.2-0.5,0.4-0.2c1.1-0.5,0.2-0.6-0.3-0.9c0,0,0.4,0.2,0.4,0.1c0.1-0.1,0.2-0.3,0.3-0.5c0.2-0.2,0.4-0.3,0.6-0.5
			c-0.1,0.1-0.3,0.1-0.5,0.1c0.1-0.4,0.3-0.9,0.1-1.3c0.2,0,0.5,0.2,0.6,0.2c0.3-0.1,0.6-0.8,0.7-1c0.3-0.4,1.3-1.1,1.2-1.4
			c0-0.1-0.3-0.1-0.3-0.1c-0.2-0.4-0.4-0.9-0.4-1.3c0.1,0,0.2,0.2,0.3,0.2c-0.4,0.8,0.8-0.3,0.5,0.6c0.1,0,0.1,0,0.1-0.1
			c0,0,0,0.1,0,0.2c0.3,0,0.9,0.1,0.9-0.3c0,0-0.1,0.1-0.1,0.1c0.2-0.6-0.5-0.5-0.9-0.7c0.2,0.1,0.5-0.1,0.6-0.1
			c0.1,0,0.2,0.2,0.3,0.2c0.3,0,0.6-0.4,0.8-0.6c0.2-0.1,0.8-0.1,0.9-0.1c0.1,0,0.2-0.1,0.2-0.2v0.2c0.1-0.3,0.2-0.7,0.2-1
			c0.4,0.4,0.2,0.4,0.7,0.3c0.5-0.1,1-0.8,1.4-1.1c0.3-0.2,1.4-0.6,1-1c-0.2-0.2-0.4-0.4-0.2-0.7c0.2,0.2,0.3,0.5,0.4,0.7
			c0.2-0.8,0.4-1.3,1-1.9c0.5-0.5,1-0.9,1.6-1.3c0.4-0.3,1.6-0.1,2.1-0.1c0.9,0,0.7-0.8,0.7-1.4c0.2,0.4,0.1,0.8,0.1,1.2
			c0.1-0.2,0.1-0.5,0.2-0.7c0.3-0.8,1.3-1.4,1.9-1.9c-0.3,0.2-0.5,0.3-0.8,0.5c0.3-0.3,1.5-0.8,0.9-1c0.3-0.3,0.1-0.5-0.1-0.8
			c0.1,0,0.3,0.2,0.2,0.2c0.2,0,0.8-0.3,1-0.3c0.4,0.1,0,0.3,0.5,0.3c0.4,0,0.9-0.3,1.3-0.4c0.5-0.2,1.6-0.3,1.9-0.8
			c0.3-0.4-0.5,0-0.7,0c0.4-0.7-0.3-0.1-0.5,0c-0.1,0-0.2-0.2-0.3-0.2c-0.2,0-0.3,0.3-0.5,0.3c-0.6,0-1.1-0.7-1.3-1.2
			c0.4,0.4,0.6,0.6,1.1,0.5c0.6-0.2,1.9-0.7,1.2-1.2c-0.7-0.6-1.7-0.3-2.2-1.1c0.6,0.4,1.3,0.5,2,0.6c-0.1-0.2-0.1-0.6,0-0.7
			c0.2-0.1,0,0.3,0,0.3c0.1,0.2,0.2,0.3,0.3,0.4c0.3-0.2,0.6-0.3,0.6,0.1c0.9,0,3.3-0.7,2.9-2c-0.1-0.4-0.4-0.6-0.9-0.5
			c-0.4,0.1-0.4,0.9-0.5,1.3c-0.1-0.3-0.2-1,0.1-1.4c0,0-0.1,0-0.1,0c0.1-0.3-0.4-0.4-0.6-0.3c-0.2,0.1-0.3,0.3-0.4,0.4
			c-0.1,0-0.3-0.1-0.4-0.1c0-0.4-1.1,0-1.5,0c0.3-0.3-0.1-0.5-0.1-0.8c0-0.2,0.2-1.3,0.3-0.9c0.1,0.2-0.1,0.2-0.2,0.4
			c0,1.1,0.8,1.1,1.8,0.6c-0.3-0.1-0.5-0.3-0.6-0.5c0.3,0.2,0.6,0.4,1.1,0.4c-0.2-0.1-0.3-0.3-0.3-0.5c0.2,0.3,0.6,0.3,1,0.2
			c-0.2-0.2-0.5-0.5-0.6-0.8c0.2,0.2,0.8,0.7,1.2,0.7c-0.2-0.2-0.2-0.4-0.3-0.7c0.3,0.3,0.4,0.9,0.9,1.2c-0.3-0.9-0.8-1.5-1.1-2.3
			c0.4,0.1,0.3-0.5,0.4-0.8c0.2,0.4,0.3,1,0.5,1.4c-0.1-0.6-0.3-2.1-0.8-2.4c-0.1-0.1-0.5,0.1-0.7,0c-0.5-0.2-0.4,0-0.6,0
			c0.1,0,0,0.2,0,0.2c-0.2,0.1-0.7,0.1-0.9,0.1c0.5-0.3-0.4-1.3-0.7-1.6c0.2,0.2,0.5,0.4,0.6,0.6c0.3,0.3,0.5,0.7,0.8,0.4
			c0-0.6-0.1-1-0.4-1.3c0,0,0,0,0,0c0,0,0,0,0.1,0c0,0-0.1-0.1-0.1-0.1c0,0-0.1-0.1-0.1-0.1c0.2,0.1,0.4,0.2,0.5,0
			c0.4,0,0.4,0,0.6-0.3c0.3-0.6-0.5-1-0.9-1.4c-0.1,0-0.1-0.1-0.1-0.1c0.1-0.5,0.1,0,0.2,0c0.1,0,0.1,0.1,0.1,0.1
			c0.3,0,0.5-0.6,0.6-0.9c0.2-0.5,0.2-0.3-0.1-0.6c-0.4-0.4-1.4-0.8-1.8-1c-0.3-0.1-0.8-0.2-1.1-0.4c-0.2-0.1-0.4-0.5-0.5-0.7
			c-0.2-0.3-0.2,0-0.4,0c-0.2,0-0.4,0.2-0.6,0c0,0-0.1,0-0.2,0c0.4-0.9,1.3-1.8,1.2-2.8c0.3,0.7-0.2,1.4-0.6,2.1
			c-0.1,0.2-0.3,0.5-0.1,0.6c0.2,0.1,0.4-0.2,0.4-0.4c0.1,0.3,0.3,0.2,0.4-0.1c0.1,0.2,0.2,0.7,0.5,0.8c0.2,0.1,0.3-0.3,0.4-0.3
			c0.3,0.2,0.5,0.4,0.8,0.6c0.5,0.3,0.9,0.7,1.4,1c-0.1-0.2-0.2-0.6-0.3-0.8c0-0.1,0-0.4,0-0.5c-0.1-0.1-0.3,0.1-0.4,0
			c-0.7-0.5-0.9-0.9-0.9-1.8c0.1,0.9,0.3,1.2,1.3,1.5c-0.2-0.4-0.5-0.6-0.6-1.1c0-0.3,0-0.6,0-0.8c0.3-1,0.2-0.8-0.3-1.6
			c0.1,0.2,0.3,0.4,0.5,0.4c-0.3-0.4-0.5-0.9-0.7-1.3c0.5,0,0.7-0.4,1.1-0.7c0.2-0.2,0.2,0.1,0.5-0.2c0.2-0.2,0.2-0.2,0.2,0.1
			c0.4-0.3,0.8-0.6,1.2-0.9c0.9,0.2,0,0.3,0.3,0.6c-0.1,0-0.6,0.1-0.6,0.3c0,0.2,0.5,0.1,0.8,0.2c-0.6,0.1-1.1-0.1-1.5,0.4
			c-0.2,0.2-0.2,0.5-0.4,0.8c0.3,0.1,0.6,0,0.8,0.1c-0.2,0.2-0.3,0.4-0.4,0.7c-0.1,0.2-0.6-0.2-0.7,0c-0.1,0.3-0.1,0.5-0.2,0.8
			c0-0.2,0.3-0.5,0.4-0.4c0.1,0,0.7,0.6,0.6,0.8c0,0.1-0.4,0.2-0.5,0.3c0.3,0.4,0.6,0.5,1.2,0.7c-0.3,0.2-0.4,0-0.6,0
			c-0.3,0-0.2-0.2-0.6,0.1c-0.3,0.2,0.3,0.1,0.4,0.1c-0.1,0.2-0.7,0.3-0.6,0.5c0.1,0.3,0.3,0.5,0.4,0.7c0-0.1,0-0.3-0.1-0.4
			c0.4,0.2,1,1.3,0.9,0.3c0.1,0.1,0.2,0.3,0.3,0.4c0.1-0.3,0.2-0.5,0.5-0.7c-0.1,0.2,0.1,0.5,0.1,0.8c-0.1,0.2-0.4,0.4-0.5,0.6
			c0.2-0.2,0.4,0.2,0.8,0.1c-0.2,0.2-0.7,0.7-0.5,0.8c-0.1-0.1,0.9-0.2,0.9-0.2c-0.6,1.1-1.3,2-1.6,3.3c-0.1,0.3,0,0.9,0.5,0.7
			c0.2-0.1,0.1-0.8,0.3-1.1c0.2-0.3,0.7-0.4,1-0.8c0.1-0.1,0-0.3,0.1-0.5c0.1-0.3,0.2-0.6,0.4-0.9c0.2-0.5,0.5-1,0.8-1.5
			c0.3-0.5,0.6-1.5,1.1-1.7c0,0.2,0,0.4,0,0.6c0.1-0.5,0.1-0.9,0-1.4c-0.1,0.2-0.4,0.2-0.6,0.1c0.3-0.2,0.4-0.7,0.5-1
			c-1.1-0.4-1.5-2.1-1.9-3.1c-0.2-0.3-0.4-0.6-0.3-1c0.2-1,1.6-1.6,2.4-2h-0.1c0.1,0,0.2,0,0.2-0.1c-0.6,0.5-1.6,0.9-2,1.6
			c-0.7,1.2,0.4,1.6,1.2,2.3c0.4,0.3,1.3,0.2,1.4,0.6c0.1,0.3-0.3,0.7-0.3,1c0.2-0.1,1.3-0.7,0.9-1c0.3-0.1,0.5-0.5,0.7-0.8
			c-0.1,0-0.1-0.1-0.2-0.1c0.2-0.2,1.3-0.4,0.7-0.6c0.2-0.2,0.6-0.4,0.8-0.6c0,0,0.2-0.4,0.3-0.6c0.4-0.4,0.1-0.3,0.2-0.7
			c0-0.2,0.2-0.3,0.2-0.4c0.1-0.3,0.1-0.6,0.3-1c0.1,0.5-0.2,0.9-0.1,1.4c0.2-0.8,0.2-1.5,0.4-2.2c0.1-0.4,0.2-0.8,0-1
			c-0.2-0.3-1.1-0.1-1.2-0.4c-0.1-0.3,1-1.2,1.2-1.6c0-0.1,0.1-0.2,0.1-0.4c0,0.1,0,0.1,0,0.2c0.3-0.9,0.3-1.3,0.2-2.2
			c0-0.1,0-0.1,0-0.2c0,0,0,0.1,0,0.1c0-0.1,0-0.1,0-0.2c0,0,0,0,0,0c0,0.4,0.1,0.8,0.1,1.2c0.1,0.6-0.3,1.1-0.3,1.7
			c-0.1,0.1-0.2,0.3-0.2,0.4c0.3,0,0.6,0,0.9,0c0.1,0,0.1,0,0.2,0c0.5,0,1.1-0.1,1.6-0.1c0.2-0.1,0.4-0.1,0.5-0.2
			c0.2,0,0.4-0.1,0.6-0.1c0.3-0.1,1-0.1,1.3-0.2c0.2-0.1,0.3-0.1,0.5-0.2c0,0,0.1,0,0.1,0c0.2,0,0.4,0,0.7-0.1
			c0.1,0,0.2-0.1,0.2-0.2c0.1,0,0.1,0,0.2-0.1c0.1,0,0.1,0,0.1,0c0.2-0.1,0.4-0.2,0.6-0.3c0.6-0.3,1.1-0.5,1.7-0.7
			c-0.8,0-1.6,0.2-2.5,0.2c0.2-0.2,0.4-0.5,0.8-0.7c-1,0.2-1.9,0.6-2.9,0.9c-0.5,0.1-0.9,0.1-1.4,0.2c-0.5,0.1-2-0.3-1.8,0.6
			c-0.1-0.2-0.1-0.2-0.2-0.2c-0.1,0-0.1,0-0.2,0.1c0,0,0,0,0,0c-0.1,0-0.1,0.1-0.2,0.2c-0.2,0-0.4,0-0.6,0.1
			c-0.1,0.1-0.2,0.2-0.3,0.3c0.1-0.1,0.2-0.4,0.3-0.4c0.1-0.1,0.2-0.1,0.4-0.1c0.3,0,0-0.1,0.1-0.2c0.4-0.3,0.6-0.7,1-0.9
			c1-0.5,1.9-1,2.9-1.4c0.6,0.3,1.9-0.3,2.6-0.2c1.2,0.1,2.4,0.2,3.5-0.1c0.5-0.2,0.4-1.9,0.5-2.3c0.2,0.7,0.7,0.4,1.2,0.1
			c-0.3,0.6-0.3,0.7-0.1,1.4c0.5-0.3,1.3-1.1,1.9-1.2c0.3,0,0.3,0.1,0.2,0.3c0.6,0.1,2.8,0.4,3.1-0.1c0.1-0.1,0-0.6,0-0.8
			c-0.1-0.4-0.3-0.9-0.7-1c0,0-0.7-0.2-0.6,0c0.1,0.2,0.4-0.1,0.5,0c0.2,0.2,0.1,0.3,0.3,0.5c0.4,0.7,0.4,0.9-0.5,1.1
			c-0.3,0.1-0.8,0.2-1.2-0.1c-0.4-0.3-0.4-1-0.6-1.4c-0.2-0.3-0.4-0.9-0.6-1.1c-0.6-0.6-0.7,0.3-1.3-0.7c0.4-0.1,0.6-0.7,1-1
			c0.3-0.2,1.3-0.3,0.8-0.7c-0.1,0.4-0.3,0.2-0.5,0c-0.5-0.7-0.3-1.7,0.2-2.3c0.7-0.8,1.9-1.7,2.2-2.7c0.2-0.8,0.3-0.8,0.9-1.2
			c0,0-0.1,0.1-0.1,0.1c0.6-0.2,0.6-0.2,1,0.4c-0.1-0.3-0.1-0.8-0.1-1.2c0,0,0,0.1,0,0.1c0-0.1,0-0.1,0-0.2c0,0.4,0,0.8,0.3,1.1
			c0.1-0.4,0.2-0.9,0.4-1.2c0,0,0,0,0,0c-0.2,0.3-0.1,0.7,0.2,0.9c0-0.2,0-0.4,0.1-0.6c0,0,0,0,0,0.1c0,0,0,0,0-0.1
			c0,0,0,0.1,0.1,0.1c0.4-0.1,0.5-0.4,0.8-0.7c-0.1,0.2,0,0.2,0,0.4c0.4,0,1.2,0,1.3-0.5c-0.5,0,0.6-1.4,0.7-1.6
			c0.1-0.1,0.7-1.4,0.7-0.7c0,0.2-0.2,0.4-0.3,0.5c0.1,0,0.3-0.1,0.4-0.1c-0.1,0.2-0.4,0.4-0.4,0.6c0.3-0.2,1,0.3,1.3,0.4
			c-0.1-0.5,0-1,0.4-1.3c0.2-0.2,1-0.3,1,0c0.5-0.1,0.3,0.4,0.6,0.7c0.2-0.2,0.2-0.5,0.4-0.8c0.1,0.2,0.2,0.3,0.3,0.5
			c0.1-0.4,0.3-0.7,0.5-1c0.5,0.3,1.2-0.6,1.8-0.5c0.3,0,0.3,0.4,0.6,0.2C274.4,25.2,274.7,25,275,24.6L275,24.6z"/>
		<path class="st0" d="M233.8,61.4c0.1,0.1,0.1,0.1,0.2,0.2C233.9,61.5,233.8,61.4,233.8,61.4C233.7,61.4,233.8,61.4,233.8,61.4z"/>
		<path class="st0" d="M263.1,28.6c0,0.1,0,0.2-0.1,0.3C263.1,28.8,263.1,28.7,263.1,28.6c0,0.1-0.1,0.1-0.1,0.1
			C263.1,28.7,263.1,28.6,263.1,28.6C263.1,28.6,263.1,28.6,263.1,28.6z"/>
	</g>
</g>
<g id="_x31_0">
</g>
<g id="_x35_">
</g>
<g id="_x31_6">
</g>
<g id="Digital_Edge">
</g>
<g id="Innovation_Award">
</g>
<g id="Payments_Innovation">
</g>
<g id="Guides">
</g>
</svg>
