<?xml version="1.0" encoding="utf-8"?>
<!-- Generator: Adobe Illustrator 22.0.1, SVG Export Plug-In . SVG Version: 6.00 Build 0)  -->
<svg version="1.1" xmlns="http://www.w3.org/2000/svg" xmlns:xlink="http://www.w3.org/1999/xlink" x="0px" y="0px"
	 viewBox="0 0 300 316.9" style="enable-background:new 0 0 300 316.9;" xml:space="preserve">
<style type="text/css">
	@font-face {
    	font-family: UniversLTStd;
    	src: url('../fonts/UniversLTStd/UniversLTStd.otf');
	}
	@font-face {
    	font-family: UniversLTStd-Bold;
    	src: url('../fonts/UniversLTStd/UniversLTStd-Bold.otf');
	}
	@font-face {
    	font-family: UniversLTStd-Light;
    	src: url('../fonts/UniversLTStd/UniversLTStd-Light.otf');
	}
	.st0{fill:#FFFFFF;}
	.st1{fill:none;}
	.st2{font-family: UniversLTStd, Helvetica, Arial, sans-serif;}
	.st3{font-size:35px;}
	.st4{font-family: UniversLTStd-Bold, Helvetica, Arial, sans-serif;}
	.st5{font-size:70px;}
	.st6{letter-spacing:-1;}
	.st7{font-family: UniversLTStd-Light, Helvetica, Arial, sans-serif;}
	.st8{font-size:20px;}
</style>
<g id="Background">
</g>
<g id="Peru">
</g>
<g id="Lithuania">
	<rect x="25" y="141.8" class="st0" width="250" height="4"/>
	<path id="Lithuania_1_" class="st0" d="M57.2,53.8l1.5-0.7h2.2l1.4,0.7l0.4,0.8l0.7,0.3l0.6,1.4v0.2h0.2l1.4,0.6l0.2,0.5h3.9
		l1.5,0.6l0.4,0.8l0.7,0.3l0.2,0.6h0.6l1.5,0.6l0.2,0.5h1.7l1.4,0.6l0.2,0.5h0.6l1.4,0.6l0.2,0.5h2.8l1.5,0.6l0.4,1.1l1.4-0.6h3.9
		l0.3-0.5l1.4-0.6h1.1l1.4,0.6l0.3,0.5h4.4l0.2-0.5l1.4-0.6h3.4l1.4,0.6l0.6,1.5v2.4h0.2l1.5,0.6l0.2,0.5h0.6l1.4,0.6l0.3,0.8
		c0.6,0.2,0.9,0.6,1.2,1.1l0.7,0.3l0.3,0.5h0.5l1.5,0.5l0.6,1.5v5.5c0,0.9-0.7,1.5-1.4,1.8l-0.3,0.7l-0.8,0.4l-0.4,0.8l-1.4,0.6
		h-0.1v0.2l-0.3,0.6l0.3,0.5v2.3c0,0.7-0.6,1.3-1.2,1.6V96l0.5,0.2l0.3,0.7l0.5-0.2h4.5l1.4,0.6l0.2,0.5h1.7l1.5,0.6l0.4,0.8
		l0.7,0.3l0.6,1.4v0.2c0.1,0,0.1,0,0.1,0h1.1l1.4,0.6l0.3,0.5h0.5l1.5,0.6l0.3,0.7c0.5,0.2,0.7,0.4,1,0.9h2.8l1.4,0.6l0.3,0.8
		l0.9,0.3l0.3,0.8l0.8,0.3l0.3,0.8l0.8,0.3l0.4,0.8l0.9,0.3l0.5,1.4v1.7l0.5,0.2l0.6,1.4v3.4l-0.5,1.1l0.1,0.2h0.6l1.5,0.6l0.2,0.8
		l0.8,0.4l0.1,0.3l0.4-0.3l1.4-0.6h1.7l0.3-0.5l1.5-0.6l1.4,0.6l0.2,0.5l0.3-0.5l1.4-0.6h3.4l1.5,0.6l0.2,0.3l0.2-0.3l1.4-0.6h0.6
		l0.2-0.5l1.4-0.6h2.3l1.5,0.6l0.3,0.8c0.6,0.2,0.8,0.6,1.1,1.1l0.8,0.4l0.2,0.5h1.7l0.6,0.2l0.5-0.2h0.6l0.2-0.5l0.8-0.4l0.3-0.8
		l1.5-0.6h0.6c0.4-0.6,0.9-1.1,1.7-1.1h0.6l0.2-0.5l1.5-0.6h3.4l1.4,0.6l0.2,0.5h0.7v-1.9l-0.5-0.1l-0.6-1.5v-1.1l0.6-1.5l0.7-0.3
		l0.4-0.9l1.1-1.1c0.2-0.2,0.6-0.2,0.9-0.3c0.2-0.1,0.4-0.2,0.6-0.2h5.6c0.6,0,1.2,0.4,1.5,0.9l0.4-0.4l0.7-0.2l0.4-0.8l0.8-0.3
		l0.3-0.8l0.5-0.2v-1.7l0.6-1.5l1.5-0.6h2.2l1.5,0.6l0.5,0.5h0.7l0.3-0.5l0.7-0.3l0.4-0.7l0.8-0.3l0.3-0.8l1.4-0.6h1.3v-1.3l0.6-1.5
		l1.5-0.6h0.3l0.5-0.5l0.5-0.5v-3.6l0.6-1.4l0.8-0.3c0.3-0.8,0.9-1.4,1.8-1.4h0.6l0.3-0.5l0.5-0.2l0,0l-0.5-0.2l-0.6-1.4v-4.5
		c0-0.2,0.2-0.4,0.2-0.6l-0.2-0.5v-3.3l0.6-1.5l1.4-0.6h0.2v-1.3l0.6-1.5l0.8-0.3l0.3-0.8l0.5-0.2V72l0.6-1.5l1.4-0.6h0.6l0.2-0.5
		l1.4-0.6h1.1l1.5,0.6l0.3,0.5l0,0l0.2-0.5l1.4-0.6h0.6l0.2-0.5l1.5-0.6h1.6l0.3-0.5l0.5-0.2v-0.5l0.4-1.1c-0.1-0.2-0.3-0.2-0.3-0.4
		c-0.3-0.7-0.1-1.6,0.5-2.2l1.1-1.1l1.5-0.6h0.3l0.5-0.5l1.5-0.6h3.3l1.1,0.4l0.4-0.2c0.2-0.6,0.5-1,1-1.3c0.8-0.3,1.7-0.1,2.3,0.4
		l0.5,0.6h0.7l0.3-0.6l0.5-0.2c0.2-0.3,0.3-0.6,0.6-0.8l1.1-1.1c0.3-0.2,0.5-0.3,0.8-0.5L250,56l0.9-0.9h-0.5l-1.2-0.5l-1.1,0.5
		h-4.5l-1.4-0.6l-0.5-0.6h-0.3l-1.5-0.6l-0.6-1.5l0.6-1.4l0.8-0.3l0.4-0.8l0.7-0.3l0.4-0.8l0.6-0.2v-2.2c-0.5-0.2-0.9-0.5-1-1
		c-0.3-0.8-0.2-1.7,0.5-2.2l1.1-1.1l0.7-0.3l0.3-0.8l1.2-1.1l0.5-0.2v-1.8h-3.5l-1.4-0.6l-0.2-0.5h-1.7l-1.5-0.7l-0.2-0.5H237
		l-1.5-0.6l-0.4-0.9l-0.7-0.3l-0.3-0.8l-0.8-0.3l-0.5-1.5v-0.3l-0.5-0.5l-0.6-1.4v-0.2l-0.5-0.5l-0.3-0.5h-0.5l-1.5-0.6l-0.6-0.6
		h-0.2l-1.5-0.6l-0.6-1.5v-0.2h-0.1l-1.5-0.6l-0.3-0.5h-0.6l-1.4-0.6l-0.5-0.5h-0.2c-0.9,0-1.5-0.6-1.8-1.4l-0.8-0.3l-0.3-0.8
		l-0.8-0.3l-0.3-0.8c-0.5-0.2-0.7-0.5-1-0.9h-1.7l-1.4-0.6l-0.6-1.5v-1.3h-2.5l-1.4-0.6l-0.1-0.3l-0.3,0.3c-0.5,0.6-1.5,0.7-2.2,0.4
		c-0.5-0.2-0.8-0.5-1-1h-6.1l-1.4-0.6l-0.3-0.5h-3.9l-1.4-0.6l-0.4-0.8l-0.7-0.3l-0.3-0.8l-0.8-0.3l-0.6-1.5V6.8l-0.5-0.2l-0.4-0.8
		l-0.7-0.3l-0.3-0.8l-0.8-0.3l-0.6-1.5l0.3-0.5l-0.3-0.6l0.2-0.3l-0.5-1c-0.1,0-0.2-0.1-0.4-0.2l-0.4,0.2h-1.2L183,0.2l-0.6,0.2
		h-1.3v0.2l-0.6,1.5l-1.4,0.6h-0.6l-0.2,0.5l-1.5,0.6h-0.1v1.3L176,6.5l-1.5,0.6H172l-0.5,0.5l-1.4,0.6h-1.2l-1.4-0.6l-0.2-0.5h-0.6
		l-1.1-0.4l-1.1,0.4h-1.7l-0.2,0.5l-1.5,0.6h-3.3l-1.4-0.6l-0.2-0.5h-0.6l-1.4-0.6l-0.4-0.7L153,5.5l-0.3-0.5h-1.7l-1.5-0.6
		l-0.2-0.5h-1.9l-0.4,0.5c-0.6,0.6-1.5,0.8-2.3,0.5c-0.8-0.3-1.3-1.1-1.3-1.9V2.7h-1.8l-0.3,0.5L140,3.8h-0.5c-0.2,0.4-0.5,0.7-1,1
		c-0.7,0.3-1.6,0.2-2.2-0.4l-0.6-0.5h-2.4l-1.5-0.6l-0.4-0.8l-0.7-0.3l-0.3-0.3l-0.1,0.3l-1.4,0.6h-2.4v0.1l-0.6,1.5l-1.5,0.6h-0.6
		l-0.2,0.5L122.1,6h-1l-1.5-0.6l-0.2-0.5h-0.6l-1.5-0.6l-0.5-1.5V1.1V1.1l-0.6,0.2l-0.3,0.8l-1.4,0.6h-8.9L104,2.1l-0.2-0.5h-1.7
		L100.6,1l-0.3-0.5h-6.7L93.5,1L92,1.6h-1L89.5,1l-0.2-0.5h-0.5L87.6,0l-1.1,0.5h-1.7L84.6,1l-1.5,0.6h-1.4l-0.5,0.5l-1.5,0.6h-1.7
		l-0.2,0.5l-1.4,0.6h-1.7l-0.2,0.5l-1.5,0.6h-3.9L69,5.5l-0.8,0.3l-0.3,0.7l-1.4,0.6h-0.6l-0.2,0.5l-1.4,0.6h-0.5l-0.3,0.5L62,9.4
		h-1.4l-0.5,0.5l-0.8,0.3L59,11l-0.8,0.3l-0.3,0.8l-0.5,0.2v0.6l-0.6,1.5l-0.5,0.2v0.6l-0.6,1.5l-1.4,0.6h-4.8
		c-0.6,2.1-0.2,4.6-0.2,8.4c0,4.9,4,11.6,5.6,16.2c1.5,4.3,1.7,8,1.9,12.5h0.1L57.2,53.8z"/>
	<rect x="0" y="165.8" class="st1" width="300" height="150.9"/>
	<text transform="matrix(1 0 0 1 15.5667 190.9963)"><tspan x="0" y="0" class="st0 st2 st3">Best Employer in </tspan><tspan x="4.4" y="35" class="st0 st2 st3">Lithuania Award</tspan><tspan x="59.2" y="95" class="st0 st4 st5 st6">2015</tspan><tspan x="92" y="125" class="st0 st7 st8">CV Online</tspan></text>
</g>
<g id="Asia">
</g>
<g id="America">
</g>
<g id="_x31_0">
</g>
<g id="_x35_">
</g>
<g id="_x31_6">
</g>
<g id="Digital_Edge">
</g>
<g id="Innovation_Award">
</g>
<g id="Payments_Innovation">
</g>
<g id="Guides">
</g>
</svg>
