<?xml version="1.0" encoding="utf-8"?>
<!-- Generator: Adobe Illustrator 22.0.1, SVG Export Plug-In . SVG Version: 6.00 Build 0)  -->
<svg version="1.1" xmlns="http://www.w3.org/2000/svg" xmlns:xlink="http://www.w3.org/1999/xlink" x="0px" y="0px"
	 viewBox="0 0 300 285.6" style="enable-background:new 0 0 300 285.6;" xml:space="preserve">
<style type="text/css">
	@font-face {
    	font-family: UniversLTStd;
    	src: url('../fonts/UniversLTStd/UniversLTStd.otf');
	}
	@font-face {
    	font-family: UniversLTStd-Bold;
    	src: url('../fonts/UniversLTStd/UniversLTStd-Bold.otf');
	}
	@font-face {
    	font-family: UniversLTStd-Light;
    	src: url('../fonts/UniversLTStd/UniversLTStd-Light.otf');
	}
	.st0{fill:#FFFFFF;}
	.st1{fill:none;}
	.st2{font-family: UniversLTStd, Helvetica, Arial, sans-serif;}
	.st3{font-size:35px;}
	.st4{font-family: UniversLTStd-Bold, Helvetica, Arial, sans-serif;}
	.st5{font-size:70px;}
	.st6{letter-spacing:-1;}
	.st7{font-family: UniversLTStd-Light, Helvetica, Arial, sans-serif;}
	.st8{font-size:20px;}
</style>
<g id="Background">
</g>
<g id="Peru">
</g>
<g id="Lithuania">
</g>
<g id="Asia">
</g>
<g id="America">
</g>
<g id="_x31_0">
</g>
<g id="_x35_">
	<rect x="25" y="141.8" class="st0" width="250" height="4"/>
	<g>
		<path class="st0" d="M116.8,0h65.6v10.3h-54.9l-1.9,42.5l0.3,0.3c6.7-7.8,15.5-12.6,26.2-12.6c22.4,0,36.3,18.4,36.3,39.8
			c0,22.9-14.6,41.3-38.2,41.3c-20.2,0-37.9-9.3-38.6-31.9h12.1c0.7,14.3,11.7,21.5,25.3,21.5c18.6,0,27.4-14.3,27.4-31.5
			S167.6,51,149.7,51c-11.4,0-21.7,6.9-24.1,18.1H114L116.8,0z"/>
	</g>
	<rect y="165.9" class="st1" width="300" height="119.6"/>
	<text transform="matrix(1 0 0 1 92.8626 191.1074)"><tspan x="0" y="0" class="st0 st2 st3">TOP 40</tspan><tspan x="-18.1" y="60" class="st0 st4 st5 st6">2017</tspan><tspan x="-57.8" y="90" class="st0 st7 st8"> Learning Elite Organization</tspan></text>
</g>
<g id="_x31_6">
</g>
<g id="Digital_Edge">
</g>
<g id="Innovation_Award">
</g>
<g id="Payments_Innovation">
</g>
<g id="Guides">
</g>
</svg>
