<?xml version="1.0" encoding="utf-8"?>
<!-- Generator: Adobe Illustrator 22.0.1, SVG Export Plug-In . SVG Version: 6.00 Build 0)  -->
<svg version="1.1" xmlns="http://www.w3.org/2000/svg" xmlns:xlink="http://www.w3.org/1999/xlink" x="0px" y="0px"
	 viewBox="0 0 300 286" style="enable-background:new 0 0 300 286;" xml:space="preserve">
<style type="text/css">
	@font-face {
    	font-family: UniversLTStd;
    	src: url('../fonts/UniversLTStd/UniversLTStd.otf');
	}
	@font-face {
    	font-family: UniversLTStd-Bold;
    	src: url('../fonts/UniversLTStd/UniversLTStd-Bold.otf');
	}
	@font-face {
    	font-family: UniversLTStd-Light;
    	src: url('../fonts/UniversLTStd/UniversLTStd-Light.otf');
	}
	.st0{fill:#FFFFFF;}
	.st1{fill:none;}
	.st2{font-family: UniversLTStd, Helvetica, Arial, sans-serif;}
	.st3{font-size:35px;}
	.st4{font-family: UniversLTStd-Bold, Helvetica, Arial, sans-serif;}
	.st5{font-size:70px;}
	.st6{letter-spacing:-1;}
	.st7{font-family: UniversLTStd-Light, Helvetica, Arial, sans-serif;}
	.st8{font-size:20px;}
</style>
<g id="Background">
</g>
<g id="Peru">
</g>
<g id="Lithuania">
</g>
<g id="Asia">
</g>
<g id="America">
</g>
<g id="_x31_0">
	<rect x="25" y="141.8" class="st0" width="250" height="4"/>
	<g>
		<path class="st0" d="M82.2,19.1c10.4-4.2,20-11.2,27.9-19.1H121v121.5h-11.4V12.2C101.5,20,92,25.8,82.2,30.5V19.1z"/>
		<path class="st0" d="M217.8,61c0,29.6-6.9,60.7-38.7,60.7S140.5,90.6,140.5,61c0-29.6,6.9-60.7,38.7-60.7S217.8,31.4,217.8,61z
			 M152.3,61c0,17.3,2.2,50.6,26.9,50.6c24.7,0,26.9-33.3,26.9-50.6s-2.2-50.6-26.9-50.6C154.4,10.4,152.3,43.7,152.3,61z"/>
	</g>
	<rect y="165.8" class="st1" width="300" height="119.7"/>
	<text transform="matrix(1 0 0 1 92.8626 191.0515)"><tspan x="0" y="0" class="st0 st2 st3">TOP 40</tspan><tspan x="-18.1" y="60" class="st0 st4 st5 st6">2016</tspan><tspan x="-57.8" y="90" class="st0 st7 st8"> Learning Elite Organization</tspan></text>
</g>
<g id="_x35_">
</g>
<g id="_x31_6">
</g>
<g id="Digital_Edge">
</g>
<g id="Innovation_Award">
</g>
<g id="Payments_Innovation">
</g>
<g id="Guides">
</g>
</svg>
