<?xml version="1.0" encoding="utf-8"?>
<!-- Generator: Adobe Illustrator 22.0.1, SVG Export Plug-In . SVG Version: 6.00 Build 0)  -->
<svg version="1.1" xmlns="http://www.w3.org/2000/svg" xmlns:xlink="http://www.w3.org/1999/xlink" x="0px" y="0px"
	 viewBox="0 0 300 285.5" style="enable-background:new 0 0 300 285.5;" xml:space="preserve">
<style type="text/css">
	@font-face {
    	font-family: UniversLTStd;
    	src: url('../fonts/UniversLTStd/UniversLTStd.otf');
	}
	@font-face {
    	font-family: UniversLTStd-Bold;
    	src: url('../fonts/UniversLTStd/UniversLTStd-Bold.otf');
	}
	@font-face {
    	font-family: UniversLTStd-Light;
    	src: url('../fonts/UniversLTStd/UniversLTStd-Light.otf');
	}
	.st0{fill:#FFFFFF;}
	.st1{fill:none;}
	.st2{font-family: UniversLTStd, Helvetica, Arial, sans-serif;}
	.st3{font-size:35px;}
	.st4{font-family: UniversLTStd-Bold, Helvetica, Arial, sans-serif;}
	.st5{font-size:70px;}
	.st6{letter-spacing:-1;}
	.st7{font-family: UniversLTStd-Light, Helvetica, Arial, sans-serif;}
	.st8{font-size:20px;}
</style>
<g id="Background">
</g>
<g id="Peru">
</g>
<g id="Lithuania">
</g>
<g id="Asia">
</g>
<g id="America">
</g>
<g id="_x31_0">
</g>
<g id="_x35_">
</g>
<g id="_x31_6">
	<rect x="25" y="141.8" class="st0" width="250" height="4"/>
	<rect y="165.9" class="st1" width="300" height="119.6"/>
	<text transform="matrix(1 0 0 1 83.5706 191.0977)"><tspan x="0" y="0" class="st0 st2 st3">TOP 125</tspan><tspan x="-8.8" y="60" class="st0 st4 st5 st6">2016</tspan><tspan x="-10.1" y="90" class="st0 st7 st8">Training Magazine</tspan></text>
	<g>
		<path class="st0" d="M81.9,19.4c10.4-4.2,20-11.2,27.9-19.1h10.9v121.5h-11.4V12.5c-8.1,7.7-17.6,13.5-27.4,18.3V19.4z"/>
		<path class="st0" d="M216.6,30.1h-11.8c-0.5-12.1-10.3-19.7-22.2-19.7c-27.9,0-31.1,30.4-31.1,52.3h0.3c5.2-12.8,17-19,30.6-19
			c23,0,35.7,16.3,35.7,38.5c0,22.2-13.8,39.5-36.7,39.5c-32.5,0-41.7-26.9-41.7-54.8c0-29.8,4.7-66.6,42.4-66.6
			C201.1,0.3,216.2,9.9,216.6,30.1z M153.5,83.8c0,14.6,11.1,27.9,26.2,27.9c17.2,0,26.6-12.3,26.6-28.8c0-15.3-7.1-29.9-24.4-29.9
			C163.4,53,153.5,66.4,153.5,83.8z"/>
	</g>
</g>
<g id="Digital_Edge">
</g>
<g id="Innovation_Award">
</g>
<g id="Payments_Innovation">
</g>
<g id="Guides">
</g>
</svg>
