<?xml version="1.0" encoding="utf-8"?>
<!-- Generator: Adobe Illustrator 22.0.1, SVG Export Plug-In . SVG Version: 6.00 Build 0)  -->
<svg version="1.1" xmlns="http://www.w3.org/2000/svg" xmlns:xlink="http://www.w3.org/1999/xlink" x="0px" y="0px"
	 viewBox="0 0 300 384" style="enable-background:new 0 0 300 384;" xml:space="preserve">
<style type="text/css">
	.st0{fill:#FFFFFF;}
</style>
<g id="Send">
</g>
<g id="Currency">
</g>
<g id="App">
</g>
<g id="Bank">
</g>
<g id="WU_Flow">
</g>
<g id="ATM">
</g>
<g id="Transactions">
</g>
<g id="Location">
</g>
<g id="Globe">
</g>
<g id="Person">
	<g>
		<path class="st0" d="M60.3,244v6.5c3.6,0.1,17,0.6,17.3,13.1h-8.4c-0.2-5.1-4.2-6.5-9-6.6v16.7c8.2,2.2,18.2,5.3,18.2,16.5
			c0,7.8-5.1,11.8-7.2,13.2c-3.7,2.4-8.3,2.8-11.1,3v7.9H56v-7.9c-3.5-0.1-8.5-0.2-13.3-4.5c-4.2-3.8-4.5-7.7-4.5-11.1h8.2
			c-0.2,3.5,1.9,8.6,9.6,8.8v-18.7c-13.1-3.9-16.7-7.3-16.7-15.8c0-6.6,4-10.2,6.8-12c3.7-2.2,8-2.4,10.2-2.5V244H60.3z M56.1,257
			c-8.6,0.9-9,6.1-9,7.5c0,5.4,5,6.9,9,8V257z M60.2,299.6c7-0.1,9.8-4.6,9.8-8.5c0-6-5.8-7.9-9.8-9.2V299.6z"/>
		<path class="st0" d="M83.9,298.7l14.5-14.2c3-3,6.1-6.2,8.6-9.5c3.2-4.4,4.1-6.9,4.1-9.8c0-2.7-1-9-8.9-9c-8.9,0-9,7.6-9,9.7h-8.4
			c0.1-2.7,0.3-8,5.1-12.2c3.8-3.3,8.5-4,12-4c8.5,0,17.1,4.3,17.1,16.2c0,3.5-0.2,6.2-6.2,13.8c-1.6,2-8.6,9.3-10.2,10.9l-9.7,9.2
			h26.3v6.3H83.9V298.7z"/>
		<path class="st0" d="M136.1,292.9c0.2,5.6,5,7.8,9.2,7.8c9.7,0,11-9.1,11-12.7c0-7.5-4.1-11.9-10.5-11.9c-3.2,0-5.8,1.2-7.4,2.9
			c-1.7,1.7-2.2,3.4-2.6,4.6h-7.3l1.4-33h31.1v6.5h-24.2l-1,17.9c1.7-1.7,5.2-5.1,11.7-5.1c11.1,0,16.6,8.7,16.6,18.2
			c0,10.9-7.7,19.1-19.8,19.1c-9,0-16.1-5-16.5-14.4H136.1z"/>
		<path class="st0" d="M189.1,249.5c16.6,0,18.6,17.8,18.6,28.2c0,13.1-2.6,20.5-7.7,25.2c-3.9,3.7-8.6,4.2-11,4.2
			c-7.4,0-12.4-4.3-14.8-9.2c-1.8-3.7-3.6-9-3.6-19C170.5,270.7,171.5,249.5,189.1,249.5z M189,300.5c9.3,0,10.9-12.2,10.9-22.1
			c0-13.3-2.3-22.5-10.7-22.5c-9.7,0-11,12.7-11,22.6C178.2,290.9,180.6,300.5,189,300.5z"/>
		<path class="st0" d="M218.3,248.2h20.6c7,0,11,0.7,14.6,4.2c2.5,2.4,4.1,5.8,4.1,10.3c0,9.5-7,12-9.8,13c3.4,1,11.5,3.4,11.5,14.4
			c0,7.8-5,11.8-7,13.1c-4,2.6-8.5,2.6-13,2.6h-21V248.2z M226,272.6h11.2c2.7,0,12,0,12-9.1c0-8.7-7.3-8.7-11.7-8.7H226V272.6z
			 M226,299.5h13.7c6.3,0,11.4-3.4,11.4-10c0-5.8-4-10-11-10h-14V299.5z"/>
		<path class="st0" d="M80.8,311.3h5.3l6.1,17.8l6.3-17.8h4.9V333h-2.9v-19.5L93.4,333h-2.9l-6.8-19.4V333h-2.9V311.3z"/>
		<path class="st0" d="M115.3,317.6c6,0,7.4,4.7,7.4,7.9c0,4.4-2.5,8.1-7.6,8.1c-5,0-7.4-3.4-7.4-7.9
			C107.6,321.9,109.4,317.6,115.3,317.6z M115.1,331.4c2.1,0,4.6-1.5,4.6-6.1c0-3.8-1.7-5.7-4.4-5.7c-1.8,0-4.7,1.1-4.7,5.9
			C110.6,328.6,111.9,331.4,115.1,331.4z"/>
		<path class="st0" d="M124.1,317.9h3.1l4.8,11.9l4.7-11.9h3.1l-6.6,15.1h-2.8L124.1,317.9z"/>
		<path class="st0" d="M144.4,326c-0.1,3.1,1.2,5.4,4.3,5.4c1.8,0,3.3-1,3.5-3.1h2.8c-0.1,0.8-0.2,2-1.3,3.2c-0.7,0.8-2.2,2-5.2,2
			c-4.7,0-7-2.9-7-7.7c0-3,0.6-5.4,3-7.1c1.4-1,3.2-1.1,4.1-1.1c6.8,0,6.6,6,6.5,8.4H144.4z M152.4,324c0-1.4-0.2-4.4-3.7-4.4
			c-1.8,0-4,1.1-4.1,4.4H152.4z"/>
		<path class="st0" d="M169.5,311.4h2.8v19.2c0,0.3,0.1,1.6,0.1,2.4h-2.8l-0.1-2.4c-0.2,0.4-0.6,1.1-1.4,1.6
			c-1.2,0.8-2.7,1.1-3.7,1.1c-2,0-6.5-1-6.5-7.6c0-5.7,3.3-8.2,6.8-8.2c3.2,0,4.3,1.9,4.7,2.5V311.4z M168.5,321.1
			c-0.6-0.8-1.7-1.5-3.3-1.5c-4.1,0-4.1,5-4.1,6c0,2.7,0.7,5.8,4.1,5.8c4.4,0,4.4-4.9,4.4-6.1C169.6,323.1,169.1,321.9,168.5,321.1z
			"/>
		<path class="st0" d="M192.7,313.4c-0.5,0-1.1-0.1-1.7-0.1c-2.3,0-2.3,1.1-2.3,2.2v2.4h3.5v2h-3.5v13H186v-13h-3v-2h3v-1.7
			c0-2.1,0.1-2.8,0.6-3.6c0.6-1,1.8-1.7,3.8-1.7c0.8,0,1.7,0.1,2.3,0.2V313.4z"/>
		<path class="st0" d="M201.4,317.6c6,0,7.4,4.7,7.4,7.9c0,4.4-2.5,8.1-7.6,8.1c-5,0-7.4-3.4-7.4-7.9
			C193.7,321.9,195.5,317.6,201.4,317.6z M201.2,331.4c2.1,0,4.6-1.5,4.6-6.1c0-3.8-1.7-5.7-4.4-5.7c-1.8,0-4.7,1.1-4.7,5.9
			C196.7,328.6,198,331.4,201.2,331.4z"/>
		<path class="st0" d="M213,321c0-1-0.1-2.1-0.2-3.1h2.9l0.1,2.9c0.5-2.1,2.3-2.8,3.6-3c0.8-0.1,1.5-0.1,2-0.1v2.8
			c-0.2-0.1-0.3-0.1-0.5-0.1c-0.2,0-0.5,0-0.8,0c-3.3,0-4.1,2-4.1,4.6v8H213V321z"/>
		<path class="st0" d="M75.9,347.8c-0.1-0.7-0.3-3.2-3-3.2c-3.9,0-3.9,4.5-3.9,5.7c0,3.1,0.7,6,3.7,6c2.4,0,3.2-1.8,3.3-3.3h2.8
			c-0.2,2.9-2.4,5.4-6.1,5.4c-1,0-3.4-0.2-5-1.9c-0.9-1.1-1.8-2.6-1.8-5.8c0-6.3,3.8-8.1,6.8-8.1c1,0,3.2,0.2,4.6,1.9
			c1.1,1.3,1.2,2.5,1.3,3.4H75.9z"/>
		<path class="st0" d="M88.6,342.6c6,0,7.4,4.7,7.4,7.9c0,4.4-2.5,8.1-7.6,8.1c-5,0-7.4-3.4-7.4-7.9
			C80.9,346.9,82.7,342.6,88.6,342.6z M88.4,356.4c2.1,0,4.6-1.5,4.6-6.1c0-3.8-1.7-5.7-4.4-5.7c-1.8,0-4.7,1.1-4.7,5.9
			C83.9,353.6,85.2,356.4,88.4,356.4z"/>
		<path class="st0" d="M100.1,344.7l0-1.7h2.8l0,2.4c0.3-0.6,1.4-2.7,4.8-2.7c1.3,0,5.5,0.5,5.5,5.1V358h-2.9v-9.6
			c0-1-0.1-1.9-0.8-2.6c-0.7-0.7-1.7-1-2.7-1c-2,0-3.9,1.5-3.9,4.5v8.7h-2.8V344.7z"/>
		<path class="st0" d="M119.7,353.5c0,1.1,0.6,2.7,3.3,2.7c1.2,0,2-0.2,2.6-1c0.3-0.4,0.5-0.9,0.5-1.4c0-1.5-1-1.7-3.3-2.2
			c-3.2-0.7-5.8-1.4-5.8-4.5c0-2.8,2.4-4.6,5.9-4.6c1.9,0,4.5,0.5,5.4,2.3c0.4,0.8,0.4,1.6,0.4,2.2h-2.9c0.1-2.3-1.9-2.5-2.9-2.5
			c-0.4,0-3.1,0-3.1,2.2c0,1.4,1.4,1.7,2.1,1.9c4.2,1,5.1,1.2,6,2.1c0.8,0.8,1.1,1.8,1.1,2.8c0,1.7-0.9,3.1-2,3.8
			c-1.3,0.8-2.9,1-4.5,1c-3.1,0-5.9-1.3-5.9-4.9H119.7z"/>
		<path class="st0" d="M135.4,342.9v9.7c0,1.5,0.3,3.3,3.2,3.3c1.4,0,2.7-0.5,3.5-1.7c0.6-0.9,0.6-2.1,0.6-2.8v-8.5h2.9v12.2
			c0,0.3,0.1,2,0.1,2.8h-2.9l-0.1-2.6c-0.5,1-1.6,2.7-4.8,2.7c-3.7,0-5.5-2.1-5.5-5.1v-10.1H135.4z"/>
		<path class="st0" d="M150.8,345l-0.1-2h2.8v2.2c1.4-2.4,3.5-2.6,4.8-2.6c3.3,0,4.4,1.7,4.9,2.8c0.5-0.8,1.7-2.8,5.1-2.8
			c2.2,0,5.5,0.9,5.5,5.3V358H171v-9.7c0-1.3-0.2-1.9-0.5-2.3c-0.5-0.7-1.4-1.3-2.9-1.3c-1.8,0-2.8,1-3.2,1.6
			c-0.7,0.9-0.7,2.6-0.7,3.2v8.4h-2.8v-10c0-1.9-1.1-3.3-3.3-3.3c-1.9,0-3,1.2-3.3,1.7c-0.6,0.9-0.7,2.1-0.7,3.1v8.5h-2.8V345z"/>
		<path class="st0" d="M180.5,351c-0.1,3.1,1.2,5.4,4.3,5.4c1.8,0,3.3-1,3.5-3.1h2.8c-0.1,0.8-0.2,2-1.3,3.2c-0.7,0.8-2.2,2-5.2,2
			c-4.7,0-7-2.9-7-7.7c0-3,0.6-5.4,3-7.1c1.4-1,3.2-1.1,4.1-1.1c6.8,0,6.6,6,6.5,8.4H180.5z M188.5,349c0-1.4-0.2-4.4-3.7-4.4
			c-1.8,0-4,1.1-4.1,4.4H188.5z"/>
		<path class="st0" d="M195.4,346c0-1-0.1-2.1-0.2-3.1h2.9l0.1,2.9c0.5-2.1,2.3-2.8,3.6-3c0.8-0.1,1.5-0.1,2-0.1v2.8
			c-0.2-0.1-0.3-0.1-0.5-0.1c-0.2,0-0.5,0-0.8,0c-3.3,0-4.1,2-4.1,4.6v8h-2.8V346z"/>
		<path class="st0" d="M232.7,344c0,4.2-0.6,6.4-2.6,9l5.2,5h-4.2l-2.8-2.7c-2,2-4.5,3.2-7.5,3.2c-4.7,0-7.3-2.8-7.3-6.2
			c0-3.4,2.3-5.2,4.6-6.9c-0.9-0.8-2.5-2.4-2.5-5c0-2.8,2.1-4.8,5.8-4.8c2.8,0,3.8,0.7,4.5,1.3c0.8,0.8,1.3,1.8,1.3,3
			c0,3.2-2.9,5.1-4.2,5.9l5.3,5.2c1.1-1.9,1.6-3.4,1.6-7.2H232.7z M219.9,347.3c-2.5,1.8-3.3,3.3-3.3,4.9c0,3,2.8,3.8,4.6,3.8
			c2.7,0,4.3-1.7,5.1-2.5L219.9,347.3z M223.9,340.1c0-0.9-0.7-2-2.5-2c-1.6,0-2.7,1.1-2.7,2.2c0,1.2,1,2.4,2.3,3.7
			C221.8,343.4,223.9,342,223.9,340.1z"/>
		<path class="st0" d="M45.2,370.1c0.4-0.7,1.5-2.6,4.9-2.6c1.5,0,3.4,0.4,4.8,1.9c0.8,0.9,1.8,2.4,1.8,5.7c0,2.9-0.7,4.5-1.4,5.5
			c-1.2,1.7-3.2,2.6-5.3,2.6c-0.7,0-2.1-0.1-3.4-1c-0.8-0.6-1.2-1.1-1.5-1.5L45,383h-2.7l0.1-2.7v-19h2.8V370.1z M49.5,369.5
			c-4.3,0-4.3,5-4.3,6c0,1,0,5.7,4.2,5.7c3.5,0,4.3-3.4,4.3-5.8C53.7,373.8,53.4,369.5,49.5,369.5z"/>
		<path class="st0" d="M63,367.9v9.7c0,1.5,0.3,3.3,3.2,3.3c1.4,0,2.7-0.5,3.5-1.7c0.6-0.9,0.6-2.1,0.6-2.8v-8.5h2.9v12.2
			c0,0.3,0.1,2,0.1,2.8h-2.9l-0.1-2.6c-0.5,1-1.6,2.7-4.8,2.7c-3.7,0-5.5-2.1-5.5-5.1v-10.1H63z"/>
		<path class="st0" d="M80.1,378.5c0,1.1,0.6,2.7,3.3,2.7c1.2,0,2-0.2,2.6-1c0.3-0.4,0.5-0.9,0.5-1.4c0-1.5-1-1.7-3.3-2.2
			c-3.2-0.7-5.8-1.4-5.8-4.5c0-2.8,2.4-4.6,5.9-4.6c1.9,0,4.5,0.5,5.4,2.3c0.4,0.8,0.4,1.6,0.4,2.2h-2.9c0.1-2.3-1.9-2.5-2.9-2.5
			c-0.4,0-3.1,0-3.1,2.2c0,1.4,1.4,1.7,2.1,1.9c4.2,1,5.1,1.2,6,2.1c0.8,0.8,1.1,1.8,1.1,2.8c0,1.7-0.9,3.1-2,3.8
			c-1.3,0.8-2.9,1-4.5,1c-3.1,0-5.9-1.3-5.9-4.9H80.1z"/>
		<path class="st0" d="M92.9,361.4h3.4v3.1h-3.4V361.4z M93.2,367.9H96V383h-2.8V367.9z"/>
		<path class="st0" d="M101.3,369.7l0-1.7h2.8l0,2.4c0.3-0.6,1.4-2.7,4.8-2.7c1.3,0,5.5,0.5,5.5,5.1V383h-2.9v-9.6
			c0-1-0.1-1.9-0.8-2.6c-0.7-0.7-1.7-1-2.7-1c-2,0-3.9,1.5-3.9,4.5v8.7h-2.8V369.7z"/>
		<path class="st0" d="M120.9,376c-0.1,3.1,1.2,5.4,4.3,5.4c1.8,0,3.3-1,3.5-3.1h2.8c-0.1,0.8-0.2,2-1.3,3.2c-0.7,0.8-2.2,2-5.2,2
			c-4.7,0-7-2.9-7-7.7c0-3,0.6-5.4,3-7.1c1.4-1,3.2-1.1,4.1-1.1c6.8,0,6.6,6,6.5,8.4H120.9z M128.9,374c0-1.4-0.2-4.4-3.7-4.4
			c-1.8,0-4,1.1-4.1,4.4H128.9z"/>
		<path class="st0" d="M137.2,378.5c0,1.1,0.6,2.7,3.3,2.7c1.2,0,2-0.2,2.6-1c0.3-0.4,0.5-0.9,0.5-1.4c0-1.5-1-1.7-3.3-2.2
			c-3.2-0.7-5.8-1.4-5.8-4.5c0-2.8,2.4-4.6,5.9-4.6c1.9,0,4.5,0.5,5.4,2.3c0.4,0.8,0.4,1.6,0.4,2.2h-2.9c0.1-2.3-1.9-2.5-2.9-2.5
			c-0.4,0-3.1,0-3.1,2.2c0,1.4,1.4,1.7,2.1,1.9c4.2,1,5.1,1.2,6,2.1c0.8,0.8,1.1,1.8,1.1,2.8c0,1.7-0.9,3.1-2,3.8
			c-1.3,0.8-2.9,1-4.5,1c-3.1,0-5.9-1.3-5.9-4.9H137.2z"/>
		<path class="st0" d="M151.9,378.5c0,1.1,0.6,2.7,3.3,2.7c1.2,0,2-0.2,2.6-1c0.3-0.4,0.5-0.9,0.5-1.4c0-1.5-1-1.7-3.3-2.2
			c-3.2-0.7-5.8-1.4-5.8-4.5c0-2.8,2.4-4.6,5.9-4.6c1.9,0,4.5,0.5,5.4,2.3c0.4,0.8,0.4,1.6,0.4,2.2h-2.9c0.1-2.3-1.9-2.5-2.9-2.5
			c-0.4,0-3.1,0-3.1,2.2c0,1.4,1.4,1.7,2.1,1.9c4.2,1,5.1,1.2,6,2.1c0.8,0.8,1.1,1.8,1.1,2.8c0,1.7-0.9,3.1-2,3.8
			c-1.3,0.8-2.9,1-4.5,1c-3.1,0-5.9-1.3-5.9-4.9H151.9z"/>
		<path class="st0" d="M181.6,372.8c-0.1-0.7-0.3-3.2-3-3.2c-3.9,0-3.9,4.5-3.9,5.7c0,3.1,0.8,6,3.8,6c2.4,0,3.2-1.8,3.3-3.3h2.8
			c-0.2,2.9-2.4,5.4-6.1,5.4c-1,0-3.4-0.2-5-1.9c-0.9-1.1-1.8-2.6-1.8-5.8c0-6.3,3.8-8.1,6.8-8.1c1,0,3.2,0.2,4.6,1.9
			c1.1,1.3,1.2,2.5,1.3,3.4H181.6z"/>
		<path class="st0" d="M187.8,361.4h2.8V383h-2.8V361.4z"/>
		<path class="st0" d="M195.5,361.4h3.4v3.1h-3.4V361.4z M195.8,367.9h2.8V383h-2.8V367.9z"/>
		<path class="st0" d="M205.5,376c-0.1,3.1,1.2,5.4,4.3,5.4c1.8,0,3.3-1,3.5-3.1h2.8c-0.1,0.8-0.2,2-1.3,3.2c-0.7,0.8-2.2,2-5.2,2
			c-4.7,0-7-2.9-7-7.7c0-3,0.6-5.4,3-7.1c1.4-1,3.2-1.1,4.1-1.1c6.8,0,6.6,6,6.5,8.4H205.5z M213.5,374c0-1.4-0.2-4.4-3.7-4.4
			c-1.8,0-4,1.1-4.1,4.4H213.5z"/>
		<path class="st0" d="M220.3,369.7l0-1.7h2.8l0,2.4c0.3-0.6,1.4-2.7,4.8-2.7c1.3,0,5.5,0.5,5.5,5.1V383h-2.9v-9.6
			c0-1-0.1-1.9-0.8-2.6c-0.7-0.7-1.7-1-2.7-1c-2,0-3.9,1.5-3.9,4.5v8.7h-2.8V369.7z"/>
		<path class="st0" d="M235.9,367.9h2.7v-3.2l2.8-0.9v4h3.4v2.1h-3.4v9c0,0.8,0,2,2,2c0.6,0,1.1-0.1,1.3-0.2v2.2
			c-0.5,0.1-1.3,0.2-2.3,0.2c-2.6,0-3.8-0.8-3.8-3.2v-10h-2.7V367.9z"/>
		<path class="st0" d="M249.5,378.5c0,1.1,0.6,2.7,3.3,2.7c1.2,0,2-0.2,2.6-1c0.3-0.4,0.5-0.9,0.5-1.4c0-1.5-1-1.7-3.3-2.2
			c-3.2-0.7-5.8-1.4-5.8-4.5c0-2.8,2.4-4.6,5.9-4.6c1.9,0,4.5,0.5,5.4,2.3c0.4,0.8,0.4,1.6,0.4,2.2h-2.9c0.1-2.3-1.9-2.5-2.9-2.5
			c-0.4,0-3.1,0-3.1,2.2c0,1.4,1.4,1.7,2.1,1.9c4.2,1,5.1,1.2,6,2.1c0.8,0.8,1.1,1.8,1.1,2.8c0,1.7-0.9,3.1-2,3.8
			c-1.3,0.8-2.9,1-4.5,1c-3.1,0-5.9-1.3-5.9-4.9H249.5z"/>
	</g>
	<g>
		<path class="st0" d="M124.3,38.7c0.6,0,1.2-0.2,1.7-0.5c14.9-8.9,30.1-7.1,37.2-5.6l-9.7,7.1c-1.5,1.1-1.8,3.3-0.7,4.8
			c0.7,0.9,1.7,1.4,2.8,1.4c0.7,0,1.4-0.2,2-0.7l15.9-11.7c1.5-1.1,1.8-3.2,0.8-4.7l-10.5-14.9c-1.1-1.5-3.2-1.9-4.7-0.8
			c-1.5,1.1-1.9,3.2-0.8,4.7l5.5,7.9c-8.5-1.8-24.9-3.2-41.2,6.6c-1.6,1-2.1,3.1-1.2,4.7C122,38.1,123.1,38.7,124.3,38.7"/>
		<path class="st0" d="M171.2,159.2c-15.8,6.7-29.7,3.2-36.1,0.8l10.6-5.7c1.6-0.9,2.3-3,1.4-4.6c-0.9-1.6-3-2.3-4.6-1.4l-17.4,9.4
			c-1.6,0.9-2.3,2.9-1.4,4.6l8.3,16.2c0.6,1.2,1.8,1.9,3,1.9c0.5,0,1.1-0.1,1.6-0.4c1.7-0.9,2.3-2.9,1.5-4.6l-4.4-8.5
			c4.3,1.5,10.7,3.2,18.5,3.2c6.5,0,13.8-1.1,21.7-4.5c1.7-0.7,2.5-2.7,1.8-4.5C174.9,159.3,172.9,158.5,171.2,159.2"/>
		<path class="st0" d="M150,200.1c55.2,0,100.1-44.9,100.1-100.1c0-2.7-0.2-5.4-0.4-8C245.6,40.6,202.5,0,150,0
			C97.5,0,54.4,40.6,50.3,92.1c-0.2,2.6-0.4,5.3-0.4,8C49.9,155.3,94.8,200.1,150,200.1 M57.2,92.1C61.2,44.4,101.3,6.8,150,6.8
			c48.7,0,88.8,37.6,92.9,85.3c0.2,2.6,0.4,5.3,0.4,8c0,51.4-41.8,93.2-93.3,93.2c-51.4,0-93.2-41.8-93.2-93.2
			C56.7,97.4,56.9,94.7,57.2,92.1"/>
		<circle class="st0" cx="149.3" cy="73.9" r="14.7"/>
		<path class="st0" d="M120.6,134.5v-27.7c0,0,0-11.9,10-11.9c10,0,37.3,0,37.3,0s10.2,0,10.2,10s0,29.6,0,29.6H120.6z"/>
	</g>
	<rect x="25" y="220" class="st0" width="250" height="4"/>
</g>
<g id="Money">
</g>
<g id="Guides">
</g>
</svg>
