<?xml version="1.0" encoding="utf-8"?>
<!-- Generator: Adobe Illustrator 22.0.1, SVG Export Plug-In . SVG Version: 6.00 Build 0)  -->
<svg version="1.1" xmlns="http://www.w3.org/2000/svg" xmlns:xlink="http://www.w3.org/1999/xlink" x="0px" y="0px"
	 viewBox="0 0 300 400.9" style="enable-background:new 0 0 300 400.9;" xml:space="preserve">
<style type="text/css">
	.st0{fill:#FFFFFF;}
</style>
<g id="Send">
</g>
<g id="Currency">
</g>
<g id="App">
</g>
<g id="Bank">
</g>
<g id="WU_Flow">
</g>
<g id="ATM">
</g>
<g id="Transactions">
	<g>
		<path class="st0" d="M150,200c55.1,0,100-44.9,100-100C250,44.9,205.1,0,150,0C94.9,0,50,44.9,50,100C50,155.1,94.9,200,150,200
			 M150,6.8c51.4,0,93.2,41.8,93.2,93.2s-41.8,93.2-93.2,93.2c-51.4,0-93.2-41.8-93.2-93.2S98.6,6.8,150,6.8"/>
		<path class="st0" d="M148,164.4c0.1,0,0.1,0,0.2,0c0.1,0,0.1,0,0.1,0c0.2,0,0.3,0,0.5,0c30.5,0,55.4-24.8,55.4-55.4
			c0-15.5-6.4-29.6-16.8-39.6l5.6-6.1l1.8,1.6c0.7,0.6,1.4,0.8,2.2,0.8c0.9,0,1.9-0.4,2.6-1.2c1.2-1.4,1.1-3.6-0.3-4.8l-8.6-7.5
			c-1.4-1.2-3.6-1.1-4.8,0.3c-1.2,1.4-1.1,3.6,0.3,4.8l1.7,1.4l-5.7,6.2c-8.6-6.6-19.2-10.6-30.6-11.2V42.5c0-0.4-0.1-0.8-0.2-1.1
			h13.4c1.9,0,3.4-1.5,3.4-3.4c0-1.9-1.5-3.4-3.4-3.4h-33.2c-1.9,0-3.4,1.5-3.4,3.4c0,1.9,1.5,3.4,3.4,3.4h13.4
			c-0.1,0.4-0.2,0.7-0.2,1.1v11.4c-28.7,2.1-51.3,26-51.3,55.2C93.5,139.3,117.9,164,148,164.4 M111,105.7h-10.4
			c1.7-23.8,20.5-42.8,44.2-44.8v13.7c0,1.9,1.5,3.4,3.4,3.4c1.9,0,3.4-1.5,3.4-3.4V60.8c24.3,1.4,43.7,20.6,45.4,44.9h-11.7
			c-1.9,0-3.4,1.5-3.4,3.4c0,1.9,1.5,3.4,3.4,3.4h11.7c-1.7,24.2-21.1,43.5-45.4,44.9v-11.1c0-1.9-1.5-3.4-3.4-3.4
			c-1.9,0-3.4,1.5-3.4,3.4v11c-23.7-2-42.5-21-44.2-44.8H111c1.9,0,3.4-1.5,3.4-3.4C114.4,107.2,112.9,105.7,111,105.7"/>
		<path class="st0" d="M148.9,117.4c4.6,0,8.3-3.7,8.3-8.3c0-1.6-0.6-3-1.3-4.2l17.8-19.5c1.3-1.4,1.2-3.5-0.2-4.8
			c-1.4-1.3-3.5-1.2-4.8,0.2l-18.5,20.3c-0.4-0.1-0.8-0.3-1.2-0.3c-4.6,0-8.3,3.7-8.3,8.3C140.6,113.7,144.3,117.4,148.9,117.4"/>
	</g>
	<g>
		<path class="st0" d="M117.6,286.2c-0.1,5.3,3.4,9,10.2,9c7.8,0,11-5,11-9.8c0-5.8-3.9-8.9-8-9.8c-2.9-0.6-4.9-0.5-7.7-0.4v-6.5
			c5.5,0.5,14.8-0.6,14.8-9.6c0-6.2-4.2-8.7-9.8-8.7c-4.2,0-9.4,1.8-10.1,8.7H110c0.5-13.8,13.4-15.1,17.9-15.1
			c12.1,0,18.1,7.3,18.1,15c0,4.6-2.5,11.1-11,13c11.8,1.7,11.8,12.3,11.8,13.4c0,7.8-6.3,16.3-19.2,16.3c-5.8,0-11.7-1.7-15.2-5.8
			c-3.1-3.5-3.2-7.5-3.3-9.8H117.6z"/>
		<path class="st0" d="M171.4,253.8c-3.4,2.9-9,6.2-12.9,8v-8c5.2-2.7,10.3-6.1,13.4-8.7h7.1v55.4h-7.7V253.8z"/>
		<path class="st0" d="M101.8,303.7h3.2l8.8,21.7h-3.3l-2.3-5.6h-10l-2.3,5.6h-3.1L101.8,303.7z M99.1,317.3h8.2l-4-10.6L99.1,317.3
			z"/>
		<path class="st0" d="M113,310.3h3.1l4.8,11.9l4.7-11.9h3.1l-6.6,15.1h-2.8L113,310.3z"/>
		<path class="st0" d="M133.3,318.4c-0.1,3.1,1.2,5.4,4.3,5.4c1.8,0,3.3-1,3.5-3.1h2.8c-0.1,0.8-0.2,2-1.3,3.2c-0.7,0.8-2.2,2-5.2,2
			c-4.7,0-7-2.9-7-7.7c0-3,0.6-5.4,3-7.1c1.4-1,3.2-1.1,4.1-1.1c6.8,0,6.6,6,6.5,8.4H133.3z M141.3,316.4c0-1.4-0.2-4.4-3.7-4.4
			c-1.8,0-4,1.1-4.1,4.4H141.3z"/>
		<path class="st0" d="M148.2,313.4c0-1-0.1-2.1-0.2-3.1h2.9l0.1,2.9c0.5-2.1,2.3-2.8,3.6-3c0.8-0.1,1.5-0.1,2-0.1v2.8
			c-0.2-0.1-0.3-0.1-0.5-0.1c-0.2,0-0.5,0-0.8,0c-3.3,0-4.1,2-4.1,4.6v8h-2.8V313.4z"/>
		<path class="st0" d="M168.5,325.4c-0.2-0.8-0.3-1.5-0.3-2.2c-1.4,2.5-3.4,2.7-4.7,2.7c-3.4,0-5.3-2-5.3-4.4c0-1.2,0.4-3.1,2.6-4.4
			c1.6-0.9,4-1,5.2-1c0.7,0,1.2,0,2,0.1c0-1.9,0-2.7-0.5-3.3c-0.6-0.8-1.8-1-2.6-1c-2.8,0-3,2-3,2.6h-2.8c0.1-0.8,0.2-1.8,1-2.9
			c1.1-1.3,3.3-1.6,4.9-1.6c2.2,0,4.5,0.7,5.3,2.2c0.5,0.9,0.5,1.6,0.5,2.3l-0.1,7.2c0,0.2,0,2.2,0.2,3.8H168.5z M166.6,318
			c-1.1,0-5.4,0-5.4,3.1c0,1,0.6,2.6,3.1,2.6c1.4,0,2.5-0.6,3.2-1.6c0.6-1,0.7-1.9,0.7-4C167.7,318,167.3,318,166.6,318z"/>
		<path class="st0" d="M178.5,326.6c0.1,1.7,0.8,2.9,3.5,2.9c3.9,0,4-2.8,4-6.9c-1.2,2.5-4,2.6-5,2.6c-1.4,0-3.4-0.3-4.6-1.9
			c-1.3-1.5-1.7-3.5-1.7-5.5c0-5.1,3-7.6,6.7-7.6c3,0,4.1,1.5,4.7,2.3l0-2.1h2.7l-0.1,2.7l0,9.4c0,3.6-0.1,5.1-0.7,6.2
			c-1.3,2.4-4.2,2.7-6.3,2.7c-6,0-6.2-2.8-6.3-4.9H178.5z M185,321.5c0.6-0.8,1-1.6,1-4.3c0-1.9-0.4-3-1.2-3.8
			c-0.8-0.8-2-1.3-3.2-1.3c-3.6,0-4,3.6-4,5.5c0,2.3,0.7,5.4,4.1,5.4C183.4,323,184.3,322.4,185,321.5z"/>
		<path class="st0" d="M195.5,318.4c-0.1,3.1,1.2,5.4,4.3,5.4c1.8,0,3.3-1,3.5-3.1h2.8c-0.1,0.8-0.2,2-1.3,3.2c-0.7,0.8-2.2,2-5.2,2
			c-4.7,0-7-2.9-7-7.7c0-3,0.6-5.4,3-7.1c1.4-1,3.2-1.1,4.1-1.1c6.8,0,6.6,6,6.5,8.4H195.5z M203.4,316.4c0-1.4-0.2-4.4-3.7-4.4
			c-1.8,0-4,1.1-4.1,4.4H203.4z"/>
		<path class="st0" d="M65.4,335.3h2.7v-3.2l2.8-0.9v4h3.4v2.1h-3.4v9c0,0.8,0,2,2,2c0.6,0,1.1-0.1,1.3-0.2v2.2
			c-0.5,0.1-1.3,0.2-2.3,0.2c-2.6,0-3.8-0.8-3.8-3.2v-10h-2.7V335.3z"/>
		<path class="st0" d="M77.6,338.4c0-1-0.1-2.1-0.2-3.1h2.9l0.1,2.9c0.5-2.1,2.3-2.8,3.6-3c0.8-0.1,1.5-0.1,2-0.1v2.8
			c-0.2-0.1-0.3-0.1-0.5-0.1c-0.2,0-0.5,0-0.8,0c-3.3,0-4.1,2-4.1,4.6v8h-2.8V338.4z"/>
		<path class="st0" d="M98,350.4c-0.2-0.8-0.3-1.5-0.3-2.2c-1.4,2.5-3.4,2.7-4.7,2.7c-3.4,0-5.3-2-5.3-4.4c0-1.2,0.4-3.1,2.6-4.4
			c1.6-0.9,4-1,5.2-1c0.7,0,1.2,0,2,0.1c0-1.9,0-2.7-0.5-3.3c-0.6-0.8-1.8-1-2.6-1c-2.8,0-3,2-3,2.6h-2.8c0.1-0.8,0.2-1.8,1-2.9
			c1.1-1.3,3.3-1.6,4.9-1.6c2.2,0,4.5,0.7,5.3,2.2c0.5,0.9,0.5,1.6,0.5,2.3l-0.1,7.2c0,0.2,0,2.2,0.2,3.8H98z M96,343
			c-1.1,0-5.4,0-5.4,3.1c0,1,0.6,2.6,3.1,2.6c1.4,0,2.5-0.6,3.2-1.6c0.6-1,0.7-1.9,0.7-4C97.2,343,96.7,343,96,343z"/>
		<path class="st0" d="M105.3,337.1l0-1.7h2.8l0,2.4c0.3-0.6,1.4-2.7,4.8-2.7c1.3,0,5.5,0.5,5.5,5.1v10.2h-2.9v-9.6
			c0-1-0.1-1.9-0.8-2.6c-0.7-0.7-1.7-1-2.7-1c-2,0-3.9,1.5-3.9,4.5v8.7h-2.8V337.1z"/>
		<path class="st0" d="M124.8,345.9c0,1.1,0.6,2.7,3.3,2.7c1.2,0,2-0.2,2.6-1c0.3-0.4,0.5-0.9,0.5-1.4c0-1.5-1-1.7-3.3-2.2
			c-3.2-0.7-5.8-1.4-5.8-4.5c0-2.8,2.4-4.6,5.9-4.6c1.9,0,4.5,0.5,5.4,2.3c0.4,0.8,0.4,1.6,0.4,2.2H131c0.1-2.3-1.9-2.5-2.9-2.5
			c-0.4,0-3.1,0-3.1,2.2c0,1.4,1.4,1.7,2.1,1.9c4.2,1,5.1,1.2,6,2.1c0.8,0.8,1.1,1.8,1.1,2.8c0,1.7-0.9,3.1-2,3.8
			c-1.3,0.8-2.9,1-4.5,1c-3.1,0-5.9-1.3-5.9-4.9H124.8z"/>
		<path class="st0" d="M147.1,350.4c-0.2-0.8-0.3-1.5-0.3-2.2c-1.4,2.5-3.4,2.7-4.7,2.7c-3.4,0-5.3-2-5.3-4.4c0-1.2,0.4-3.1,2.6-4.4
			c1.6-0.9,4-1,5.2-1c0.7,0,1.2,0,2,0.1c0-1.9,0-2.7-0.5-3.3c-0.6-0.8-1.8-1-2.6-1c-2.8,0-3,2-3,2.6h-2.8c0.1-0.8,0.2-1.8,1-2.9
			c1.1-1.3,3.3-1.6,4.9-1.6c2.2,0,4.5,0.7,5.3,2.2c0.5,0.9,0.5,1.6,0.5,2.3l-0.1,7.2c0,0.2,0,2.2,0.2,3.8H147.1z M145.2,343
			c-1.1,0-5.4,0-5.4,3.1c0,1,0.6,2.6,3.1,2.6c1.4,0,2.5-0.6,3.2-1.6c0.6-1,0.7-1.9,0.7-4C146.3,343,145.8,343,145.2,343z"/>
		<path class="st0" d="M162.9,340.2c-0.1-0.7-0.3-3.2-3-3.2c-3.9,0-3.9,4.5-3.9,5.7c0,3.1,0.7,6,3.7,6c2.4,0,3.2-1.8,3.3-3.3h2.8
			c-0.2,2.9-2.4,5.4-6.1,5.4c-1,0-3.4-0.2-5-1.9c-0.9-1.1-1.8-2.6-1.8-5.8c0-6.3,3.8-8.1,6.8-8.1c1,0,3.2,0.2,4.6,1.9
			c1.1,1.3,1.2,2.5,1.3,3.4H162.9z"/>
		<path class="st0" d="M166.7,335.3h2.7v-3.2l2.8-0.9v4h3.4v2.1h-3.4v9c0,0.8,0,2,2,2c0.6,0,1.1-0.1,1.3-0.2v2.2
			c-0.5,0.1-1.3,0.2-2.3,0.2c-2.6,0-3.8-0.8-3.8-3.2v-10h-2.7V335.3z"/>
		<path class="st0" d="M178.4,328.8h3.4v3.1h-3.4V328.8z M178.7,335.3h2.8v15.1h-2.8V335.3z"/>
		<path class="st0" d="M193.3,335c6,0,7.4,4.7,7.4,7.9c0,4.4-2.5,8.1-7.6,8.1c-5,0-7.4-3.4-7.4-7.9C185.6,339.3,187.4,335,193.3,335
			z M193.1,348.8c2.1,0,4.6-1.5,4.6-6.1c0-3.8-1.7-5.7-4.4-5.7c-1.8,0-4.7,1.1-4.7,5.9C188.6,346,189.9,348.8,193.1,348.8z"/>
		<path class="st0" d="M204.9,337.1l0-1.7h2.8l0,2.4c0.3-0.6,1.4-2.7,4.8-2.7c1.3,0,5.5,0.5,5.5,5.1v10.2h-2.9v-9.6
			c0-1-0.1-1.9-0.8-2.6c-0.7-0.7-1.7-1-2.7-1c-2,0-3.9,1.5-3.9,4.5v8.7h-2.8V337.1z"/>
		<path class="st0" d="M224.4,345.9c0,1.1,0.6,2.7,3.3,2.7c1.2,0,2-0.2,2.6-1c0.3-0.4,0.5-0.9,0.5-1.4c0-1.5-1-1.7-3.3-2.2
			c-3.2-0.7-5.8-1.4-5.8-4.5c0-2.8,2.4-4.6,5.9-4.6c1.9,0,4.5,0.5,5.4,2.3c0.4,0.8,0.4,1.6,0.4,2.2h-2.9c0.1-2.3-1.9-2.5-2.9-2.5
			c-0.4,0-3.1,0-3.1,2.2c0,1.4,1.4,1.7,2.1,1.9c4.2,1,5.1,1.2,6,2.1c0.8,0.8,1.1,1.8,1.1,2.8c0,1.7-0.9,3.1-2,3.8
			c-1.3,0.8-2.9,1-4.5,1c-3.1,0-5.9-1.3-5.9-4.9H224.4z"/>
		<path class="st0" d="M75.7,362.8c0-0.7,0-1-0.1-2.5h2.8l0.1,2.5c1.4-2.4,3.9-2.7,5.1-2.7c3.2,0,6.3,2.2,6.3,7.8
			c0,5.6-3.3,8.1-6.9,8.1c-2.2,0-3.8-0.9-4.6-2.2v7.5h-2.8V362.8z M82.6,373.9c0.7,0,2.2-0.2,3.2-1.5c1.1-1.5,1.2-3.6,1.2-4.7
			c0-2.7-0.8-5.5-4.1-5.5c-4.5,0-4.5,4.8-4.5,6.1C78.4,370.2,78.7,373.9,82.6,373.9z"/>
		<path class="st0" d="M95.5,368.4c-0.1,3.1,1.2,5.4,4.3,5.4c1.8,0,3.3-1,3.5-3.1h2.8c-0.1,0.8-0.2,2-1.3,3.2c-0.7,0.8-2.2,2-5.2,2
			c-4.7,0-7-2.9-7-7.7c0-3,0.6-5.4,3-7.1c1.4-1,3.2-1.1,4.1-1.1c6.8,0,6.6,6,6.5,8.4H95.5z M103.5,366.4c0-1.4-0.2-4.4-3.7-4.4
			c-1.8,0-4,1.1-4.1,4.4H103.5z"/>
		<path class="st0" d="M110.3,363.4c0-1-0.1-2.1-0.2-3.1h2.9l0.1,2.9c0.5-2.1,2.3-2.8,3.6-3c0.8-0.1,1.5-0.1,2-0.1v2.8
			c-0.2-0.1-0.3-0.1-0.5-0.1c-0.2,0-0.5,0-0.8,0c-3.3,0-4.1,2-4.1,4.6v8h-2.8V363.4z"/>
		<path class="st0" d="M131.2,370.9c0,1.1,0.6,2.7,3.3,2.7c1.2,0,2-0.2,2.6-1c0.3-0.4,0.5-0.9,0.5-1.4c0-1.5-1-1.7-3.3-2.2
			c-3.2-0.7-5.8-1.4-5.8-4.5c0-2.8,2.4-4.6,5.9-4.6c1.9,0,4.5,0.5,5.4,2.3c0.4,0.8,0.4,1.6,0.4,2.2h-2.9c0.1-2.3-1.9-2.5-2.9-2.5
			c-0.4,0-3.1,0-3.1,2.2c0,1.4,1.4,1.7,2.1,1.9c4.2,1,5.1,1.2,6,2.1c0.8,0.8,1.1,1.8,1.1,2.8c0,1.7-0.9,3.1-2,3.8
			c-1.3,0.8-2.9,1-4.5,1c-3.1,0-5.9-1.3-5.9-4.9H131.2z"/>
		<path class="st0" d="M146,368.4c-0.1,3.1,1.2,5.4,4.3,5.4c1.8,0,3.3-1,3.5-3.1h2.8c-0.1,0.8-0.2,2-1.3,3.2c-0.7,0.8-2.2,2-5.2,2
			c-4.7,0-7-2.9-7-7.7c0-3,0.6-5.4,3-7.1c1.4-1,3.2-1.1,4.1-1.1c6.8,0,6.6,6,6.5,8.4H146z M154,366.4c0-1.4-0.2-4.4-3.7-4.4
			c-1.8,0-4,1.1-4.1,4.4H154z"/>
		<path class="st0" d="M169.3,365.2c-0.1-0.7-0.3-3.2-3-3.2c-3.9,0-3.9,4.5-3.9,5.7c0,3.1,0.8,6,3.8,6c2.4,0,3.2-1.8,3.3-3.3h2.8
			c-0.2,2.9-2.4,5.4-6.1,5.4c-1,0-3.4-0.2-5-1.9c-0.9-1.1-1.8-2.6-1.8-5.8c0-6.3,3.8-8.1,6.8-8.1c1,0,3.2,0.2,4.6,1.9
			c1.1,1.3,1.2,2.5,1.3,3.4H169.3z"/>
		<path class="st0" d="M181.9,360c6,0,7.4,4.7,7.4,7.9c0,4.4-2.5,8.1-7.6,8.1c-5,0-7.4-3.4-7.4-7.9C174.3,364.3,176,360,181.9,360z
			 M181.7,373.8c2.1,0,4.6-1.5,4.6-6.1c0-3.8-1.7-5.7-4.4-5.7c-1.8,0-4.7,1.1-4.7,5.9C177.2,371,178.5,373.8,181.7,373.8z"/>
		<path class="st0" d="M193.5,362.1l0-1.7h2.8l0,2.4c0.3-0.6,1.4-2.7,4.8-2.7c1.3,0,5.5,0.5,5.5,5.1v10.2h-2.9v-9.6
			c0-1-0.1-1.9-0.8-2.6c-0.7-0.7-1.7-1-2.7-1c-2,0-3.9,1.5-3.9,4.5v8.7h-2.8V362.1z"/>
		<path class="st0" d="M221.9,353.8h2.8V373c0,0.3,0.1,1.6,0.1,2.4H222l-0.1-2.4c-0.2,0.4-0.6,1.1-1.4,1.6c-1.2,0.8-2.7,1.1-3.7,1.1
			c-2,0-6.5-1-6.5-7.6c0-5.7,3.3-8.2,6.8-8.2c3.2,0,4.3,1.9,4.7,2.5V353.8z M220.8,363.5c-0.6-0.8-1.7-1.5-3.3-1.5
			c-4.1,0-4.1,5-4.1,6c0,2.7,0.7,5.8,4.1,5.8c4.4,0,4.4-4.9,4.4-6.1C222,365.5,221.5,364.3,220.8,363.5z"/>
		<path class="st0" d="M119.9,397.7l5.4-5.3c1.1-1.1,2.3-2.3,3.2-3.6c1.2-1.6,1.5-2.6,1.5-3.7c0-1-0.4-3.4-3.3-3.4
			c-3.3,0-3.4,2.8-3.4,3.6h-3.2c0-1,0.1-3,1.9-4.6c1.4-1.2,3.2-1.5,4.5-1.5c3.2,0,6.4,1.6,6.4,6.1c0,1.3-0.1,2.3-2.3,5.2
			c-0.6,0.8-3.2,3.5-3.8,4.1l-3.6,3.4h9.9v2.4h-13.2V397.7z"/>
		<path class="st0" d="M142.9,379.2c6.2,0,7,6.7,7,10.6c0,4.9-1,7.7-2.9,9.4c-1.5,1.4-3.2,1.6-4.1,1.6c-2.8,0-4.6-1.6-5.5-3.5
			c-0.7-1.4-1.3-3.4-1.3-7.1C136,387.2,136.3,379.2,142.9,379.2z M142.9,398.3c3.5,0,4.1-4.6,4.1-8.3c0-5-0.9-8.4-4-8.4
			c-3.6,0-4.1,4.8-4.1,8.5C138.9,394.7,139.8,398.3,142.9,398.3z"/>
		<path class="st0" d="M157.5,382.9c-1.3,1.1-3.4,2.3-4.8,3v-3c2-1,3.9-2.3,5-3.3h2.7v20.8h-2.9V382.9z"/>
		<path class="st0" d="M177.5,384.6c0-2.4-1.8-3.1-3.2-3.1c-3,0-4.3,2.6-4.6,8.1c0.7-1,1.8-2.6,4.8-2.6c3.4,0,6.3,2.2,6.3,6.7
			c0,4.8-3.5,7.3-7,7.3c-2,0-4-0.8-5.1-2.2c-1.5-2-1.9-5-1.9-7.6c0-4.5,1.1-11.7,7.7-11.7c2.7,0,4.3,1.2,5,2c1,1.2,1.1,2.5,1.1,3.4
			H177.5z M178,393.9c0-1.5-0.4-4.6-3.9-4.6c-2.8,0-4.1,2.3-4.1,4.6c0,2.7,1.7,4.7,4,4.7C175.8,398.6,178,397.3,178,393.9z"/>
	</g>
	<rect x="25" y="220" class="st0" width="250" height="4"/>
</g>
<g id="Location">
</g>
<g id="Globe">
</g>
<g id="Person">
</g>
<g id="Money">
</g>
<g id="Guides">
</g>
</svg>
