<?xml version="1.0" encoding="utf-8"?>
<!-- Generator: Adobe Illustrator 22.0.1, SVG Export Plug-In . SVG Version: 6.00 Build 0)  -->
<svg version="1.1" xmlns="http://www.w3.org/2000/svg" xmlns:xlink="http://www.w3.org/1999/xlink" x="0px" y="0px"
	 viewBox="0 0 300 332.3" style="enable-background:new 0 0 300 332.3;" xml:space="preserve">
<style type="text/css">
	.st0{fill:#FFFFFF;}
</style>
<g id="Send">
</g>
<g id="Currency">
</g>
<g id="App">
</g>
<g id="Bank">
</g>
<g id="WU_Flow">
</g>
<g id="ATM">
	<g>
		<path class="st0" d="M124.3,72.9c-4.9,0.8-10.1,0.1-15.8-2c-1.8-0.7-3.7,0.3-4.4,2c-0.6,1.8,0.3,3.7,2,4.4
			c4.9,1.8,9.7,2.7,14.2,2.7c1.7,0,3.4-0.1,5-0.4c1.9-0.3,3.1-2,2.8-3.9C127.9,73.9,126.1,72.7,124.3,72.9"/>
		<path class="st0" d="M194.1,80.9c1.4,0,2.8-0.9,3.2-2.4c0.6-1.8-0.4-3.7-2.2-4.3c-5.8-1.8-12.2-2-19.3-0.6c-1.8,0.4-3,2.2-2.7,4
			c0.4,1.8,2.2,3,4,2.7c5.9-1.2,11.3-1.1,15.9,0.4C193.4,80.8,193.7,80.9,194.1,80.9"/>
		<path class="st0" d="M150.9,58.4c-7.6,0-13.8,8-13.8,17.8c0,6.9,3.1,12.9,7.6,15.8c1.9,1.2,4,2,6.2,2c2.2,0,4.3-0.7,6.2-2
			c4.5-2.9,7.6-8.9,7.6-15.8C164.7,66.4,158.5,58.4,150.9,58.4"/>
		<path class="st0" d="M87.4,177.8c17.2,13.8,38.9,22.2,62.6,22.2c9.2,0,18-1.3,26.5-3.7l0.2,0.1c0,0,0.1-0.1,0.1-0.2
			C219,184.5,250,145.8,250,100c0-2.7-0.2-5.3-0.4-8C245.5,40.6,202.4,0,150,0c-23.7,0-45.5,8.3-62.6,22.2
			C66.6,38.9,52.7,63.8,50.4,92c-0.2,2.6-0.4,5.3-0.4,8C50,131.4,64.6,159.5,87.4,177.8 M172.4,190.4c-7.2,1.8-14.6,2.8-22.4,2.8
			c-7.6,0-14.9-1-22-2.7l2.8-7.6l2.4-6.7c2.8-22.4,15.6-32.8,19.4-35.4l0.9-0.6l9.4-25.7l1.3-3.6l1.3-3.5l2-5.4
			c0.6-1.5,1.7-2.7,3.2-3.4c1.5-0.7,3.1-0.8,4.7-0.2c1.5,0.5,2.8,1.7,3.4,3.1c0.7,1.5,0.7,3.1,0.2,4.7l-0.4,1.2l-1.1,3.3l-1.1,3.3
			l-7.6,22l-0.3,0.8l-0.5,1.6c-0.3,1.8-1.1,6,3.5,7.6c2.1,0.8,5.8,1.3,7.9-3.8l9.7-26.1c4.4,1.1,8.3,2.5,11.6,3.8l-2.8,24.8
			c0,0-0.5,2.9-2,5.5C194.4,152.7,177.6,181.5,172.4,190.4 M185,98.8c-1.4-3.1-4-5.5-7.3-6.7c-0.1,0-0.2,0-0.4-0.1
			c-2.5-0.9-5.2-0.8-7.7,0c-0.6,0.2-1.2,0.2-1.8,0.4c-3.1,1.4-5.5,4-6.7,7.3l-3.1,8.6c-2.8,0.5-5.5,0.9-8.5,1.5
			c-19.5,3.6-43.7,8.2-57-5.7V92V56.2h117V92v24.4c-5.1-2.5-13.6-6-24-7.9C186.5,105.3,186.4,101.9,185,98.8 M150.7,116.5
			c1.6-0.3,3-0.5,4.6-0.8l-1.8,4.8l-7.7,15.5l-19-8.9c-1.3-0.6-5.1-2.8-4.6-6.8C131.8,120,141.7,118.2,150.7,116.5 M121.4,151.3
			c-1.2-0.5-1.8-1.6-2-2.2c-0.5-1.3-0.4-2.8,0.1-4.2c0.5-1.5,1.6-2.7,2.8-3.2c0.6-0.3,1.6-0.5,2.7-0.1l12.6,4.5
			c-2.1,2.8-4.1,6.1-5.8,10L121.4,151.3z M231.6,55.1c6.1,11.1,10,23.6,11.2,36.9c0.2,2.6,0.4,5.3,0.4,8c0,40.1-25.5,74.3-61.2,87.4
			c7-11.9,18.6-31.7,19.7-33.7c2.2-3.9,2.9-7.8,2.9-8l2.6-22.8c2.4,1.2,3.8,2,3.9,2.1c0.5,0.3,1.2,0.5,1.8,0.5
			c0.6,0,1.1-0.1,1.7-0.4c1.1-0.6,1.8-1.7,1.8-3V92V56.2h15.4V55.1z M87.4,31.2C103.9,16.1,125.9,6.8,150,6.8
			c32.7,0,61.5,17,78.1,42.5H87.4H71.9C76.3,42.7,81.5,36.6,87.4,31.2 M57.2,92c1.1-13.4,5.1-25.9,11.3-37.1v1.3h17.1V92v13.5
			c0,0.8,0.3,1.6,0.9,2.2c0.3,0.3,0.6,0.6,0.9,0.9c7.5,8,17.4,11,28,11.6c-0.4,6,3.6,10.7,8.5,13l5.4,2.5l-1.9-0.7
			c-2.6-0.9-5.4-0.8-7.9,0.3c-2.9,1.3-5.1,3.8-6.3,7c-1.1,2.9-1.1,6.1-0.1,8.9c1.1,3,3.3,5.2,5.8,6.2l10.5,4.8
			c-1.2,3.7-2.2,7.6-2.7,12.1l-5.2,14.1c-12.8-4.1-24.3-11-34-19.9c-18.7-17-30.6-41.5-30.6-68.8C56.8,97.3,57,94.6,57.2,92"/>
	</g>
	<g>
		<path class="st0" d="M57.3,255.1c-3.4,2.9-9,6.2-12.9,8v-8c5.2-2.7,10.3-6.1,13.4-8.7h7.1v55.4h-7.7V255.1z"/>
		<path class="st0" d="M96.9,245.3c16.6,0,18.6,17.8,18.6,28.2c0,13.1-2.6,20.5-7.7,25.2c-3.9,3.7-8.6,4.2-11,4.2
			c-7.4,0-12.4-4.3-14.8-9.2c-1.8-3.7-3.6-9-3.6-19C78.4,266.5,79.3,245.3,96.9,245.3z M96.9,296.2c9.3,0,10.9-12.2,10.9-22.1
			c0-13.3-2.3-22.5-10.7-22.5c-9.7,0-11,12.7-11,22.6C86.1,286.6,88.5,296.2,96.9,296.2z"/>
		<path class="st0" d="M143.8,245.3c16.6,0,18.6,17.8,18.6,28.2c0,13.1-2.6,20.5-7.7,25.2c-3.9,3.7-8.6,4.2-11,4.2
			c-7.4,0-12.4-4.3-14.8-9.2c-1.8-3.7-3.6-9-3.6-19C125.3,266.5,126.2,245.3,143.8,245.3z M143.7,296.2c9.3,0,10.9-12.2,10.9-22.1
			c0-13.3-2.3-22.5-10.7-22.5c-9.7,0-11,12.7-11,22.6C132.9,286.6,135.3,296.2,143.7,296.2z"/>
		<path class="st0" d="M172.9,244h7.9v25.3l24.1-25.3h11L190,269.8l28.6,31.9h-11.2l-26.6-30.6v30.6h-7.9V244z"/>
		<path class="st0" d="M238,277.7h-17v-6.2h17v-17h6.7v17h17v6.2h-17v17H238V277.7z"/>
		<path class="st0" d="M62.4,310.1h3.2l8.8,21.7h-3.3l-2.3-5.6h-10l-2.3,5.6h-3.1L62.4,310.1z M59.7,323.7h8.2l-4-10.6L59.7,323.7z"
			/>
		<path class="st0" d="M80.1,331.8v-19.1h-7.3v-2.5h17.5v2.5H83v19.1H80.1z"/>
		<path class="st0" d="M92.9,310.1h5.3l6.1,17.8l6.3-17.8h4.9v21.7h-2.9v-19.5l-7.1,19.5h-2.9l-6.8-19.4v19.4h-2.9V310.1z"/>
		<path class="st0" d="M122.5,327.3c0,1.1,0.6,2.7,3.3,2.7c1.2,0,2-0.2,2.6-1c0.3-0.4,0.5-0.9,0.5-1.4c0-1.5-1-1.7-3.3-2.2
			c-3.2-0.7-5.8-1.4-5.8-4.5c0-2.8,2.4-4.6,5.9-4.6c1.9,0,4.5,0.5,5.4,2.3c0.4,0.8,0.4,1.6,0.4,2.2h-2.9c0.1-2.3-1.9-2.5-2.9-2.5
			c-0.4,0-3.1,0-3.1,2.2c0,1.4,1.4,1.7,2.1,1.9c4.2,1,5.1,1.2,6,2.1c0.8,0.8,1.1,1.8,1.1,2.8c0,1.7-0.9,3.1-2,3.8
			c-1.3,0.8-2.9,1-4.5,1c-3.1,0-5.9-1.3-5.9-4.9H122.5z"/>
		<path class="st0" d="M147.7,310.4h1.9l-7,21.9h-2L147.7,310.4z"/>
		<path class="st0" d="M159.8,310.1h3v9.5l9-9.5h4.1l-9.7,9.7l10.7,12h-4.2l-10-11.5v11.5h-3V310.1z"/>
		<path class="st0" d="M179.1,310.2h3.4v3.1h-3.4V310.2z M179.4,316.7h2.8v15.1h-2.8V316.7z"/>
		<path class="st0" d="M194,316.3c6,0,7.4,4.7,7.4,7.9c0,4.4-2.5,8.1-7.6,8.1c-5,0-7.4-3.4-7.4-7.9C186.3,320.7,188,316.3,194,316.3
			z M193.8,330.2c2.1,0,4.6-1.5,4.6-6.1c0-3.8-1.7-5.7-4.4-5.7c-1.8,0-4.7,1.1-4.7,5.9C189.2,327.3,190.6,330.2,193.8,330.2z"/>
		<path class="st0" d="M207.1,327.3c0,1.1,0.6,2.7,3.3,2.7c1.2,0,2-0.2,2.6-1c0.3-0.4,0.5-0.9,0.5-1.4c0-1.5-1-1.7-3.3-2.2
			c-3.2-0.7-5.8-1.4-5.8-4.5c0-2.8,2.4-4.6,5.9-4.6c1.9,0,4.5,0.5,5.4,2.3c0.4,0.8,0.4,1.6,0.4,2.2h-2.9c0.1-2.3-1.9-2.5-2.9-2.5
			c-0.4,0-3.1,0-3.1,2.2c0,1.4,1.4,1.7,2.1,1.9c4.2,1,5.1,1.2,6,2.1c0.8,0.8,1.1,1.8,1.1,2.8c0,1.7-0.9,3.1-2,3.8
			c-1.3,0.8-2.9,1-4.5,1c-3.1,0-5.9-1.3-5.9-4.9H207.1z"/>
		<path class="st0" d="M219.9,310h2.8v12.9l5.6-6.2h3.7l-6.4,6.4l6.8,8.7h-3.7l-6-8.1v8.1h-2.8V310z"/>
		<path class="st0" d="M236.5,327.3c0,1.1,0.6,2.7,3.3,2.7c1.2,0,2-0.2,2.6-1c0.3-0.4,0.5-0.9,0.5-1.4c0-1.5-1-1.7-3.3-2.2
			c-3.2-0.7-5.8-1.4-5.8-4.5c0-2.8,2.4-4.6,5.9-4.6c1.9,0,4.5,0.5,5.4,2.3c0.4,0.8,0.4,1.6,0.4,2.2h-2.9c0.1-2.3-1.9-2.5-2.9-2.5
			c-0.4,0-3.1,0-3.1,2.2c0,1.4,1.4,1.7,2.1,1.9c4.2,1,5.1,1.2,6,2.1c0.8,0.8,1.1,1.8,1.1,2.8c0,1.7-0.9,3.1-2,3.8
			c-1.3,0.8-2.9,1-4.5,1c-3.1,0-5.9-1.3-5.9-4.9H236.5z"/>
	</g>
	<rect x="25" y="220" class="st0" width="250" height="4"/>
</g>
<g id="Transactions">
</g>
<g id="Location">
</g>
<g id="Globe">
</g>
<g id="Person">
</g>
<g id="Money">
</g>
<g id="Guides">
</g>
</svg>
