<?xml version="1.0" encoding="utf-8"?>
<!-- Generator: Adobe Illustrator 22.0.1, SVG Export Plug-In . SVG Version: 6.00 Build 0)  -->
<svg version="1.1" xmlns="http://www.w3.org/2000/svg" xmlns:xlink="http://www.w3.org/1999/xlink" x="0px" y="0px"
	 viewBox="0 0 300 338" style="enable-background:new 0 0 300 338;" xml:space="preserve">
<style type="text/css">
	.st0{fill:#FFFFFF;}
</style>
<g id="Send">
</g>
<g id="Currency">
</g>
<g id="App">
</g>
<g id="Bank">
</g>
<g id="WU_Flow">
</g>
<g id="ATM">
</g>
<g id="Transactions">
</g>
<g id="Location">
	<g>
		<path class="st0" d="M165.1,87.7l8.6-13.3c3.2-5.1,5-10.9,5-17c0-17.3-14.1-31.4-31.4-31.4c-17.3,0-31.4,14.1-31.4,31.4
			c0,6,1.7,11.9,5,17.1L132,91.8c-2.8,0.3-5.6,0.5-8.4,0.5c-10.5,0-18.3-2.5-24.7-8c-1-0.9-2.4-1.1-3.6-0.5c-1.2,0.6-2,1.8-2,3.1
			v61.4c0,0.8,0.3,1.6,0.8,2.2c6.2,7.1,15.2,10.5,27.4,10.5c8.6,0,17.6-1.7,25.6-3.2c3-0.6,5.9-1.1,8.7-1.5c2.5-0.4,5.1-0.6,7.7-0.6
			c17.7,0,32.2,8.9,32.3,9c0.6,0.3,1.2,0.5,1.8,0.5c0.6,0,1.1-0.1,1.7-0.4c1.1-0.6,1.8-1.7,1.8-3v-61.4c0-1.2-0.6-2.3-1.6-2.9
			C198.9,97.2,184.1,88.1,165.1,87.7 M126.5,70.6c-2.5-4-3.9-8.6-3.9-13.3c0-13.6,11-24.6,24.6-24.6c13.6,0,24.6,11,24.6,24.6
			c0,4.8-1.3,9.4-3.9,13.3l-11.2,17.5l-4.8,7.5l-4.7,7.2l-3.7-5.8l-4-6.2L126.5,70.6z M194.3,156.2c-6.2-3-17.6-7.2-30.7-7.2
			c-3,0-5.9,0.2-8.8,0.7c-2.8,0.4-5.8,1-8.9,1.6c-7.7,1.4-16.4,3.1-24.3,3.1c-9.6,0-16.6-2.4-21.4-7.3V93.5
			c6.5,3.8,14.3,5.6,23.5,5.6c4.2,0,8.4-0.4,12.5-0.9l7.9,12.3c-4.7,1.8-8.1,7.3-8.1,13.8c0,8,5,14.5,11.2,14.5s11.2-6.5,11.2-14.5
			c0-6.6-3.4-12.1-8.1-13.8l10.2-15.9c1-0.1,2-0.2,3-0.2c14.3,0,26.5,5.8,30.7,8.1V156.2z"/>
		<path class="st0" d="M149.9,0c-55,0-99.8,44.8-99.8,99.8s44.8,99.8,99.8,99.8c55,0,99.8-44.8,99.8-99.8S205,0,149.9,0
			 M149.9,192.8c-51.3,0-93-41.7-93-93s41.7-93,93-93c51.3,0,93,41.7,93,93S201.2,192.8,149.9,192.8"/>
	</g>
	<g>
		<path class="st0" d="M70.7,288.6c0.2,5.6,5,7.8,9.2,7.8c9.7,0,11-9.1,11-12.7c0-7.5-4.1-11.9-10.5-11.9c-3.2,0-5.8,1.2-7.4,2.9
			c-1.7,1.7-2.2,3.4-2.6,4.6h-7.3l1.4-33h31.1v6.5H71.5l-1,17.9c1.7-1.7,5.2-5.1,11.7-5.1c11.1,0,16.6,8.7,16.6,18.2
			c0,10.9-7.7,19.1-19.8,19.1c-9,0-16.1-5-16.5-14.4H70.7z"/>
		<path class="st0" d="M114.4,288.6c0.2,5.6,5,7.8,9.2,7.8c9.7,0,11-9.1,11-12.7c0-7.5-4.1-11.9-10.5-11.9c-3.2,0-5.8,1.2-7.4,2.9
			c-1.7,1.7-2.2,3.4-2.6,4.6h-7.3l1.4-33h31.1v6.5h-24.2l-1,17.9c1.7-1.7,5.2-5.1,11.7-5.1c11.1,0,16.6,8.7,16.6,18.2
			c0,10.9-7.7,19.1-19.8,19.1c-9,0-16.1-5-16.5-14.4H114.4z"/>
		<path class="st0" d="M167.4,245.3c16.6,0,18.6,17.8,18.6,28.2c0,13.1-2.6,20.5-7.7,25.2c-3.9,3.7-8.6,4.2-11,4.2
			c-7.4,0-12.4-4.3-14.8-9.2c-1.8-3.7-3.6-9-3.6-19C148.8,266.5,149.8,245.3,167.4,245.3z M167.3,296.2c9.3,0,10.9-12.2,10.9-22.1
			c0-13.3-2.3-22.5-10.7-22.5c-9.7,0-11,12.7-11,22.6C156.5,286.6,158.9,296.2,167.3,296.2z"/>
		<path class="st0" d="M196.4,244h7.9v25.3l24.1-25.3h11l-25.8,25.8l28.6,31.9H231l-26.6-30.6v30.6h-7.9V244z"/>
		<path class="st0" d="M50.8,310.1H54l8.8,21.7h-3.3l-2.3-5.6h-10l-2.3,5.6h-3.1L50.8,310.1z M48.1,323.7h8.2l-4-10.6L48.1,323.7z"
			/>
		<path class="st0" d="M68.1,332.9c0.1,1.7,0.8,2.9,3.5,2.9c3.9,0,4-2.8,4-6.9c-1.2,2.5-4,2.6-5,2.6c-1.4,0-3.4-0.3-4.6-1.9
			c-1.3-1.5-1.7-3.5-1.7-5.5c0-5.1,3-7.6,6.7-7.6c3,0,4.1,1.5,4.7,2.3l0-2.1h2.7l-0.1,2.7l0,9.4c0,3.6-0.1,5.1-0.7,6.2
			c-1.3,2.4-4.2,2.7-6.3,2.7c-6,0-6.2-2.8-6.3-4.9H68.1z M74.7,327.9c0.6-0.8,1-1.6,1-4.3c0-1.9-0.4-3-1.2-3.8
			c-0.8-0.8-2-1.3-3.2-1.3c-3.6,0-4,3.6-4,5.5c0,2.3,0.7,5.4,4.1,5.4C73,329.4,74,328.8,74.7,327.9z"/>
		<path class="st0" d="M85.1,324.7c-0.1,3.1,1.2,5.4,4.3,5.4c1.8,0,3.3-1,3.5-3.1h2.8c-0.1,0.8-0.2,2-1.3,3.2c-0.7,0.8-2.2,2-5.2,2
			c-4.7,0-7-2.9-7-7.7c0-3,0.6-5.4,3-7.1c1.4-1,3.2-1.1,4.1-1.1c6.8,0,6.6,6,6.5,8.4H85.1z M93.1,322.8c0-1.4-0.2-4.4-3.7-4.4
			c-1.8,0-4,1.1-4.1,4.4H93.1z"/>
		<path class="st0" d="M99.9,318.4l0-1.7h2.8l0,2.4c0.3-0.6,1.4-2.7,4.8-2.7c1.3,0,5.5,0.5,5.5,5.1v10.2h-2.9v-9.6
			c0-1-0.1-1.9-0.8-2.6c-0.7-0.7-1.7-1-2.7-1c-2,0-3.9,1.5-3.9,4.5v8.7h-2.8V318.4z"/>
		<path class="st0" d="M115.5,316.6h2.7v-3.2l2.8-0.9v4h3.4v2.1H121v9c0,0.8,0,2,2,2c0.6,0,1.1-0.1,1.3-0.2v2.2
			c-0.5,0.1-1.3,0.2-2.3,0.2c-2.6,0-3.8-0.8-3.8-3.2v-10h-2.7V316.6z"/>
		<path class="st0" d="M135.6,310.1h2.8v21.6h-2.8V310.1z"/>
		<path class="st0" d="M150.1,316.3c6,0,7.4,4.7,7.4,7.9c0,4.4-2.5,8.1-7.6,8.1c-5,0-7.4-3.4-7.4-7.9
			C142.5,320.7,144.2,316.3,150.1,316.3z M150,330.2c2.1,0,4.6-1.5,4.6-6.1c0-3.8-1.7-5.7-4.4-5.7c-1.8,0-4.7,1.1-4.7,5.9
			C145.4,327.3,146.8,330.2,150,330.2z"/>
		<path class="st0" d="M170.2,321.5c-0.1-0.7-0.3-3.2-3-3.2c-3.9,0-3.9,4.5-3.9,5.7c0,3.1,0.7,6,3.7,6c2.4,0,3.2-1.8,3.3-3.3h2.8
			c-0.2,2.9-2.4,5.4-6.1,5.4c-1,0-3.4-0.2-5-1.9c-0.9-1.1-1.8-2.6-1.8-5.8c0-6.3,3.8-8.1,6.8-8.1c1,0,3.2,0.2,4.6,1.9
			c1.1,1.3,1.2,2.5,1.3,3.4H170.2z"/>
		<path class="st0" d="M185.5,331.8c-0.2-0.8-0.3-1.5-0.3-2.2c-1.4,2.5-3.4,2.7-4.7,2.7c-3.4,0-5.3-2-5.3-4.4c0-1.2,0.4-3.1,2.6-4.4
			c1.6-0.9,4-1,5.2-1c0.7,0,1.2,0,2,0.1c0-1.9,0-2.7-0.5-3.3c-0.6-0.8-1.8-1-2.6-1c-2.8,0-3,2-3,2.6h-2.8c0.1-0.8,0.2-1.8,1-2.9
			c1.1-1.3,3.3-1.6,4.9-1.6c2.2,0,4.5,0.7,5.3,2.2c0.5,0.9,0.5,1.6,0.5,2.3l-0.1,7.2c0,0.2,0,2.2,0.2,3.8H185.5z M183.6,324.4
			c-1.1,0-5.4,0-5.4,3.1c0,1,0.6,2.6,3.1,2.6c1.4,0,2.5-0.6,3.2-1.6c0.6-1,0.7-1.9,0.7-4C184.7,324.4,184.3,324.4,183.6,324.4z"/>
		<path class="st0" d="M190.4,316.6h2.7v-3.2l2.8-0.9v4h3.4v2.1h-3.4v9c0,0.8,0,2,2,2c0.6,0,1.1-0.1,1.3-0.2v2.2
			c-0.5,0.1-1.3,0.2-2.3,0.2c-2.6,0-3.8-0.8-3.8-3.2v-10h-2.7V316.6z"/>
		<path class="st0" d="M202.1,310.2h3.4v3.1h-3.4V310.2z M202.4,316.7h2.8v15.1h-2.8V316.7z"/>
		<path class="st0" d="M217,316.3c6,0,7.4,4.7,7.4,7.9c0,4.4-2.5,8.1-7.6,8.1c-5,0-7.4-3.4-7.4-7.9
			C209.3,320.7,211.1,316.3,217,316.3z M216.8,330.2c2.1,0,4.6-1.5,4.6-6.1c0-3.8-1.7-5.7-4.4-5.7c-1.8,0-4.7,1.1-4.7,5.9
			C212.3,327.3,213.6,330.2,216.8,330.2z"/>
		<path class="st0" d="M228.6,318.4l0-1.7h2.8l0,2.4c0.3-0.6,1.4-2.7,4.8-2.7c1.3,0,5.5,0.5,5.5,5.1v10.2h-2.9v-9.6
			c0-1-0.1-1.9-0.8-2.6c-0.7-0.7-1.7-1-2.7-1c-2,0-3.9,1.5-3.9,4.5v8.7h-2.8V318.4z"/>
		<path class="st0" d="M248.1,327.3c0,1.1,0.6,2.7,3.3,2.7c1.2,0,2-0.2,2.6-1c0.3-0.4,0.5-0.9,0.5-1.4c0-1.5-1-1.7-3.3-2.2
			c-3.2-0.7-5.8-1.4-5.8-4.5c0-2.8,2.4-4.6,5.9-4.6c1.9,0,4.5,0.5,5.4,2.3c0.4,0.8,0.4,1.6,0.4,2.2h-2.9c0.1-2.3-1.9-2.5-2.9-2.5
			c-0.4,0-3.1,0-3.1,2.2c0,1.4,1.4,1.7,2.1,1.9c4.2,1,5.1,1.2,6,2.1c0.8,0.8,1.1,1.8,1.1,2.8c0,1.7-0.9,3.1-2,3.8
			c-1.3,0.8-2.9,1-4.5,1c-3.1,0-5.9-1.3-5.9-4.9H248.1z"/>
	</g>
	<rect x="25" y="220" class="st0" width="250" height="4"/>
</g>
<g id="Globe">
</g>
<g id="Person">
</g>
<g id="Money">
</g>
<g id="Guides">
</g>
</svg>
