<?xml version="1.0" encoding="utf-8"?>
<!-- Generator: Adobe Illustrator 22.0.1, SVG Export Plug-In . SVG Version: 6.00 Build 0)  -->
<svg version="1.1" xmlns="http://www.w3.org/2000/svg" xmlns:xlink="http://www.w3.org/1999/xlink" x="0px" y="0px"
	 viewBox="0 0 300 404.2" style="enable-background:new 0 0 300 404.2;" xml:space="preserve">
<style type="text/css">
	.st0{fill:#FFFFFF;}
</style>
<g id="Send">
</g>
<g id="Currency">
</g>
<g id="App">
</g>
<g id="Bank">
</g>
<g id="WU_Flow">
</g>
<g id="ATM">
</g>
<g id="Transactions">
</g>
<g id="Location">
</g>
<g id="Globe">
	<g>
		<path class="st0" d="M150,200.5c55.3,0,100.3-45,100.3-100.3C250.2,45,205.3,0,150,0C94.7,0,49.8,45,49.8,100.3
			C49.8,155.5,94.7,200.5,150,200.5 M150,6.8c51.5,0,93.4,41.9,93.4,93.4c0,51.5-41.9,93.4-93.4,93.4c-51.5,0-93.4-41.9-93.4-93.4
			C56.6,48.7,98.5,6.8,150,6.8"/>
		<path class="st0" d="M150,158.7L150,158.7L150,158.7c0.1,0,0.1,0,0.1,0c32.2-0.1,58.3-26.3,58.3-58.5s-26.2-58.4-58.3-58.5
			c0,0,0,0-0.1,0h0h0c-32.2,0-58.5,26.2-58.5,58.5C91.5,132.5,117.8,158.7,150,158.7 M110.9,133.9c2.7-1.6,6.5-3,11.3-4.3
			c2.4,7.6,5.6,14,9.5,18.9C123.6,145.4,116.5,140.4,110.9,133.9 M146.6,151.3c-7.2-2.2-13.6-10.9-17.6-23.2
			c5.1-0.9,11-1.5,17.6-1.6V151.3z M146.6,119.9c-6.7,0.1-13.3,0.7-19.3,1.8c-1.3-5.6-2.1-11.7-2.3-18h21.6V119.9z M146.6,96.8
			h-21.6c0.2-5.8,0.9-11.4,1.9-16.5c6.2,1.1,12.9,1.8,19.7,1.9V96.8z M168.4,148.5c3.9-4.9,7.1-11.3,9.4-18.8
			c4.8,1.3,8.6,2.7,11.2,4.3C183.5,140.3,176.4,145.4,168.4,148.5 M193.2,128.5c-3.6-2.2-8.2-3.9-13.6-5.3c1.4-6,2.2-12.6,2.4-19.5
			h19.5C200.9,112.8,197.9,121.2,193.2,128.5 M193.8,73.1c4.3,7,7.1,15.1,7.6,23.7H182c-0.2-6.4-0.9-12.4-2.1-18
			C185.4,77.3,190.3,75.4,193.8,73.1 M189.9,67.5c-2.6,1.7-6.6,3.3-11.6,4.6c-2.4-8.1-5.8-14.9-9.9-20.1
			C176.8,55.3,184.2,60.6,189.9,67.5 M153.4,49.1c7.6,2.2,14.1,11.5,18.1,24.4c-5.2,1-11.3,1.6-18.1,1.7V49.1z M153.4,82.2
			c6.8-0.2,13.6-0.8,19.8-1.9c1.1,5.2,1.7,10.8,1.9,16.5h-21.8V82.2z M153.4,103.7h21.8c-0.2,6.4-1,12.5-2.3,18.1
			c-6.1-1.1-12.7-1.6-19.4-1.8V103.7z M153.4,126.5c6.6,0.2,12.5,0.7,17.7,1.7c-3.9,12.3-10.4,21.1-17.7,23.2V126.5z M150.5,151.9
			c-0.1,0-0.2,0-0.4,0c0,0-0.1,0-0.1,0c-0.1,0-0.3,0-0.4,0H150.5z M146.6,49.2v26.1c-6.7-0.2-12.7-0.8-17.9-1.7
			C132.5,60.7,139.1,51.4,146.6,49.2 M131.8,52c-4.1,5.2-7.5,12-9.9,20.1c-5.1-1.3-9.1-3-11.7-4.6C115.8,60.6,123.3,55.2,131.8,52
			 M106.2,73.1c3.6,2.4,8.5,4.3,14,5.7c-1.2,5.6-1.9,11.7-2.1,18H98.5C99.1,88.2,101.8,80.1,106.2,73.1 M98.5,103.7h19.6
			c0.2,6.9,1,13.5,2.4,19.5c-5.4,1.3-10.1,3.1-13.7,5.3C102.1,121.2,99.1,112.8,98.5,103.7"/>
	</g>
	<g>
		<path class="st0" d="M82.8,244l4.7,17.8l5.2-17.8h3.7l4.9,18l4.9-18h2.9l-6.4,21.7h-3.3l-5-18.5L89,265.7h-3.2L79.6,244H82.8z"/>
		<path class="st0" d="M114.9,244v13.4c0,2.3,0.5,3.3,1,3.9c1.3,1.8,3.4,2.1,4.9,2.1c5.8,0,5.8-4.6,5.8-6.2V244h2.9v13.3
			c0,1.2,0,3.6-1.8,5.8c-2.1,2.7-5.4,3-7,3c-2,0-5.6-0.6-7.6-3.5c-0.7-1-1.3-2.2-1.3-5.5V244H114.9z"/>
		<path class="st0" d="M153.2,244h2.8v19.2c0,0.3,0.1,1.6,0.1,2.4h-2.8l-0.1-2.4c-0.2,0.4-0.6,1-1.4,1.6c-1.2,0.8-2.7,1.1-3.7,1.1
			c-2,0-6.5-1-6.5-7.6c0-5.7,3.3-8.2,6.8-8.2c3.2,0,4.3,1.9,4.7,2.5V244z M152.2,253.7c-0.6-0.8-1.7-1.5-3.3-1.5c-4.1,0-4.1,5-4.1,6
			c0,2.7,0.7,5.8,4.1,5.8c4.4,0,4.4-4.9,4.4-6.1C153.3,255.7,152.8,254.5,152.2,253.7z"/>
		<path class="st0" d="M167.4,250.2c6,0,7.4,4.7,7.4,7.9c0,4.4-2.5,8.1-7.6,8.1c-5,0-7.4-3.4-7.4-7.9
			C159.7,254.6,161.5,250.2,167.4,250.2z M167.2,264.1c2.1,0,4.6-1.5,4.6-6.1c0-3.8-1.7-5.7-4.4-5.7c-1.8,0-4.7,1.1-4.7,5.9
			C162.7,261.2,164,264.1,167.2,264.1z"/>
		<path class="st0" d="M178.6,244.1h3.4v3.1h-3.4V244.1z M178.9,250.6h2.8v15.1h-2.8V250.6z"/>
		<path class="st0" d="M187,252.3l0-1.7h2.8l0,2.4c0.3-0.6,1.4-2.7,4.8-2.7c1.3,0,5.5,0.5,5.5,5.1v10.2h-2.9v-9.6
			c0-1-0.1-1.9-0.8-2.6c-0.7-0.7-1.7-1-2.7-1c-2,0-3.9,1.5-3.9,4.5v8.7H187V252.3z"/>
		<path class="st0" d="M207.6,266.8c0.1,1.7,0.8,2.9,3.5,2.9c3.9,0,4-2.8,4-6.9c-1.2,2.5-4,2.6-5,2.6c-1.4,0-3.4-0.3-4.6-1.9
			c-1.3-1.5-1.7-3.5-1.7-5.5c0-5.1,3-7.6,6.7-7.6c3,0,4.1,1.5,4.7,2.3l0-2.1h2.7l-0.1,2.7l0,9.4c0,3.6-0.1,5.1-0.7,6.2
			c-1.3,2.4-4.2,2.7-6.3,2.7c-6,0-6.2-2.8-6.3-4.9H207.6z M214.2,261.8c0.6-0.8,1-1.6,1-4.3c0-1.9-0.4-3-1.2-3.8
			c-0.8-0.8-2-1.3-3.2-1.3c-3.6,0-4,3.6-4,5.5c0,2.3,0.7,5.4,4.1,5.4C212.6,263.3,213.5,262.7,214.2,261.8z"/>
		<path class="st0" d="M77,279.8c0.4-0.7,1.5-2.6,4.9-2.6c1.5,0,3.4,0.4,4.8,1.9c0.8,0.9,1.8,2.4,1.8,5.7c0,2.9-0.7,4.5-1.4,5.5
			c-1.2,1.7-3.2,2.6-5.3,2.6c-0.7,0-2.1-0.1-3.4-1c-0.8-0.6-1.2-1.1-1.5-1.5l-0.1,2.3h-2.7l0.1-2.7v-19H77V279.8z M81.2,279.1
			c-4.3,0-4.3,5-4.3,6c0,1,0,5.7,4.2,5.7c3.5,0,4.3-3.4,4.3-5.8C85.4,283.5,85.1,279.1,81.2,279.1z"/>
		<path class="st0" d="M94.7,277.6v9.7c0,1.5,0.3,3.3,3.2,3.3c1.4,0,2.7-0.5,3.5-1.7c0.6-0.9,0.6-2.1,0.6-2.8v-8.5h2.9v12.2
			c0,0.3,0.1,2,0.1,2.8h-2.9l-0.1-2.6c-0.5,1-1.6,2.7-4.8,2.7c-3.7,0-5.5-2.1-5.5-5.1v-10.1H94.7z"/>
		<path class="st0" d="M111.8,288.2c0,1.1,0.6,2.7,3.3,2.7c1.2,0,2-0.2,2.6-1c0.3-0.4,0.5-0.9,0.5-1.4c0-1.5-1-1.7-3.3-2.2
			c-3.2-0.7-5.8-1.4-5.8-4.5c0-2.8,2.4-4.6,5.9-4.6c1.9,0,4.5,0.5,5.4,2.3c0.4,0.8,0.4,1.6,0.4,2.2H118c0.1-2.3-1.9-2.5-2.9-2.5
			c-0.4,0-3.1,0-3.1,2.2c0,1.4,1.4,1.7,2.1,1.9c4.2,1,5.1,1.2,6,2.1c0.8,0.8,1.1,1.8,1.1,2.8c0,1.7-0.9,3.1-2,3.8
			c-1.3,0.8-2.9,1-4.5,1c-3.1,0-5.9-1.3-5.9-4.9H111.8z"/>
		<path class="st0" d="M124.6,271.1h3.4v3.1h-3.4V271.1z M124.9,277.6h2.8v15.1h-2.8V277.6z"/>
		<path class="st0" d="M133,279.3l0-1.7h2.8l0,2.4c0.3-0.6,1.4-2.7,4.8-2.7c1.3,0,5.5,0.5,5.5,5.1v10.2h-2.9v-9.6
			c0-1-0.1-1.9-0.8-2.6c-0.7-0.7-1.7-1-2.7-1c-2,0-3.9,1.5-3.9,4.5v8.7H133V279.3z"/>
		<path class="st0" d="M152.7,285.6c-0.1,3.1,1.2,5.4,4.3,5.4c1.8,0,3.3-1,3.5-3.1h2.8c-0.1,0.8-0.2,2-1.3,3.2c-0.7,0.8-2.2,2-5.2,2
			c-4.7,0-7-2.9-7-7.7c0-3,0.6-5.4,3-7.1c1.4-1,3.2-1.1,4.1-1.1c6.8,0,6.6,6,6.5,8.4H152.7z M160.6,283.7c0-1.4-0.2-4.4-3.7-4.4
			c-1.8,0-4,1.1-4.1,4.4H160.6z"/>
		<path class="st0" d="M169,288.2c0,1.1,0.6,2.7,3.3,2.7c1.2,0,2-0.2,2.6-1c0.3-0.4,0.5-0.9,0.5-1.4c0-1.5-1-1.7-3.3-2.2
			c-3.2-0.7-5.8-1.4-5.8-4.5c0-2.8,2.4-4.6,5.9-4.6c1.9,0,4.5,0.5,5.4,2.3c0.4,0.8,0.4,1.6,0.4,2.2h-2.9c0.1-2.3-1.9-2.5-2.9-2.5
			c-0.4,0-3.1,0-3.1,2.2c0,1.4,1.4,1.7,2.1,1.9c4.2,1,5.1,1.2,6,2.1c0.8,0.8,1.1,1.8,1.1,2.8c0,1.7-0.9,3.1-2,3.8
			c-1.3,0.8-2.9,1-4.5,1c-3.1,0-5.9-1.3-5.9-4.9H169z"/>
		<path class="st0" d="M183.7,288.2c0,1.1,0.6,2.7,3.3,2.7c1.2,0,2-0.2,2.6-1c0.3-0.4,0.5-0.9,0.5-1.4c0-1.5-1-1.7-3.3-2.2
			c-3.2-0.7-5.8-1.4-5.8-4.5c0-2.8,2.4-4.6,5.9-4.6c1.9,0,4.5,0.5,5.4,2.3c0.4,0.8,0.4,1.6,0.4,2.2h-2.9c0.1-2.3-1.9-2.5-2.9-2.5
			c-0.4,0-3.1,0-3.1,2.2c0,1.4,1.4,1.7,2.1,1.9c4.2,1,5.1,1.2,6,2.1c0.8,0.8,1.1,1.8,1.1,2.8c0,1.7-0.9,3.1-2,3.8
			c-1.3,0.8-2.9,1-4.5,1c-3.1,0-5.9-1.3-5.9-4.9H183.7z"/>
		<path class="st0" d="M204.5,271.1h3.4v3.1h-3.4V271.1z M204.8,277.6h2.8v15.1h-2.8V277.6z"/>
		<path class="st0" d="M212.9,279.3l0-1.7h2.8l0,2.4c0.3-0.6,1.4-2.7,4.8-2.7c1.3,0,5.5,0.5,5.5,5.1v10.2h-2.9v-9.6
			c0-1-0.1-1.9-0.8-2.6c-0.7-0.7-1.7-1-2.7-1c-2,0-3.9,1.5-3.9,4.5v8.7h-2.8V279.3z"/>
		<path class="st0" d="M63.8,346.4l14.5-14.2c3-3,6.1-6.2,8.6-9.5c3.2-4.4,4.1-6.9,4.1-9.8c0-2.7-1-9-8.9-9c-8.9,0-9,7.6-9,9.7h-8.4
			c0.1-2.7,0.3-8,5.1-12.2c3.8-3.3,8.5-4,12-4c8.5,0,17.1,4.3,17.1,16.2c0,3.5-0.2,6.2-6.2,13.8c-1.6,2-8.6,9.3-10.2,10.9l-9.7,9.2
			H99v6.3H63.8V346.4z"/>
		<path class="st0" d="M125.3,297.2c16.6,0,18.6,17.8,18.6,28.2c0,13.1-2.6,20.5-7.7,25.2c-3.9,3.7-8.6,4.2-11,4.2
			c-7.4,0-12.4-4.3-14.8-9.2c-1.8-3.7-3.6-9-3.6-19C106.7,318.4,107.7,297.2,125.3,297.2z M125.2,348.1c9.3,0,10.9-12.2,10.9-22.1
			c0-13.3-2.3-22.5-10.7-22.5c-9.7,0-11,12.7-11,22.6C114.4,338.5,116.8,348.1,125.2,348.1z"/>
		<path class="st0" d="M172.2,297.2c16.6,0,18.6,17.8,18.6,28.2c0,13.1-2.6,20.5-7.7,25.2c-3.9,3.7-8.6,4.2-11,4.2
			c-7.4,0-12.4-4.3-14.8-9.2c-1.8-3.7-3.6-9-3.6-19C153.6,318.4,154.6,297.2,172.2,297.2z M172.1,348.1c9.3,0,10.9-12.2,10.9-22.1
			c0-13.3-2.3-22.5-10.7-22.5c-9.7,0-11,12.7-11,22.6C161.3,338.5,163.7,348.1,172.1,348.1z"/>
		<path class="st0" d="M213.8,329.6h-17v-6.2h17v-17h6.7v17h17v6.2h-17v17h-6.7V329.6z"/>
		<path class="st0" d="M81,368.4c-0.1-0.7-0.3-3.2-3-3.2c-3.9,0-3.9,4.5-3.9,5.7c0,3.1,0.7,6,3.7,6c2.4,0,3.2-1.8,3.3-3.3H84
			c-0.2,2.9-2.4,5.4-6.1,5.4c-1,0-3.4-0.2-5-1.9c-0.9-1.1-1.8-2.6-1.8-5.8c0-6.3,3.8-8.1,6.8-8.1c1,0,3.2,0.2,4.6,1.9
			c1.1,1.3,1.2,2.5,1.3,3.4H81z"/>
		<path class="st0" d="M93.7,363.2c6,0,7.4,4.7,7.4,7.9c0,4.4-2.5,8.1-7.6,8.1c-5,0-7.4-3.4-7.4-7.9
			C86.1,367.6,87.8,363.2,93.7,363.2z M93.5,377.1c2.1,0,4.6-1.5,4.6-6.1c0-3.8-1.7-5.7-4.4-5.7c-1.8,0-4.7,1.1-4.7,5.9
			C89,374.2,90.3,377.1,93.5,377.1z"/>
		<path class="st0" d="M107.8,363.6v9.7c0,1.5,0.3,3.3,3.2,3.3c1.4,0,2.7-0.5,3.5-1.7c0.6-0.9,0.6-2.1,0.6-2.8v-8.5h2.9v12.2
			c0,0.3,0.1,2,0.1,2.8h-2.9l-0.1-2.6c-0.5,1-1.6,2.7-4.8,2.7c-3.7,0-5.5-2.1-5.5-5.1v-10.1H107.8z"/>
		<path class="st0" d="M123.3,365.3l0-1.7h2.8l0,2.4c0.3-0.6,1.4-2.7,4.8-2.7c1.3,0,5.5,0.5,5.5,5.1v10.2h-2.9v-9.6
			c0-1-0.1-1.9-0.8-2.6c-0.7-0.7-1.7-1-2.7-1c-2,0-3.9,1.5-3.9,4.5v8.7h-2.8V365.3z"/>
		<path class="st0" d="M138.9,363.5h2.7v-3.2l2.8-0.9v4h3.4v2.1h-3.4v9c0,0.8,0,2,2,2c0.6,0,1.1-0.1,1.3-0.2v2.2
			c-0.5,0.1-1.3,0.2-2.3,0.2c-2.6,0-3.8-0.8-3.8-3.2v-10h-2.7V363.5z"/>
		<path class="st0" d="M151.1,366.7c0-1-0.1-2.1-0.2-3.1h2.9l0.1,2.9c0.5-2.1,2.3-2.8,3.6-3c0.8-0.1,1.5-0.1,2-0.1v2.8
			c-0.2-0.1-0.3-0.1-0.5-0.1c-0.2,0-0.5,0-0.8,0c-3.3,0-4.1,2-4.1,4.6v8h-2.8V366.7z"/>
		<path class="st0" d="M162,357.1h3.4v3.1H162V357.1z M162.3,363.6h2.8v15.1h-2.8V363.6z"/>
		<path class="st0" d="M172.1,371.6c-0.1,3.1,1.2,5.4,4.3,5.4c1.8,0,3.3-1,3.5-3.1h2.8c-0.1,0.8-0.2,2-1.3,3.2c-0.7,0.8-2.2,2-5.2,2
			c-4.7,0-7-2.9-7-7.7c0-3,0.6-5.4,3-7.1c1.4-1,3.2-1.1,4.1-1.1c6.8,0,6.6,6,6.5,8.4H172.1z M180,369.7c0-1.4-0.2-4.4-3.7-4.4
			c-1.8,0-4,1.1-4.1,4.4H180z"/>
		<path class="st0" d="M188.4,374.2c0,1.1,0.6,2.7,3.3,2.7c1.2,0,2-0.2,2.6-1c0.3-0.4,0.5-0.9,0.5-1.4c0-1.5-1-1.7-3.3-2.2
			c-3.2-0.7-5.8-1.4-5.8-4.5c0-2.8,2.4-4.6,5.9-4.6c1.9,0,4.5,0.5,5.4,2.3c0.4,0.8,0.4,1.6,0.4,2.2h-2.9c0.1-2.3-1.9-2.5-2.9-2.5
			c-0.4,0-3.1,0-3.1,2.2c0,1.4,1.4,1.7,2.1,1.9c4.2,1,5.1,1.2,6,2.1c0.8,0.8,1.1,1.8,1.1,2.8c0,1.7-0.9,3.1-2,3.8
			c-1.3,0.8-2.9,1-4.5,1c-3.1,0-5.9-1.3-5.9-4.9H188.4z"/>
		<path class="st0" d="M227.6,364.6c0,4.2-0.6,6.4-2.6,9l5.2,5h-4.2l-2.8-2.7c-2,2-4.5,3.2-7.5,3.2c-4.7,0-7.3-2.8-7.3-6.2
			c0-3.4,2.3-5.2,4.6-6.9c-0.9-0.8-2.5-2.4-2.5-5c0-2.8,2.1-4.8,5.8-4.8c2.8,0,3.8,0.7,4.5,1.3c0.8,0.8,1.3,1.8,1.3,3
			c0,3.2-2.9,5.1-4.2,5.9l5.3,5.2c1.1-1.9,1.6-3.4,1.6-7.2H227.6z M214.8,367.9c-2.5,1.8-3.3,3.3-3.3,4.9c0,3,2.8,3.8,4.6,3.8
			c2.7,0,4.3-1.7,5.1-2.5L214.8,367.9z M218.8,360.7c0-0.9-0.7-2-2.5-2c-1.6,0-2.7,1.1-2.7,2.2c0,1.2,1,2.4,2.3,3.7
			C216.6,364.1,218.8,362.6,218.8,360.7z"/>
		<path class="st0" d="M83,388.5h2.7v-3.2l2.8-0.9v4h3.4v2.1h-3.4v9c0,0.8,0,2,2,2c0.6,0,1.1-0.1,1.3-0.2v2.2
			c-0.5,0.1-1.3,0.2-2.3,0.2c-2.6,0-3.8-0.8-3.8-3.2v-10H83V388.5z"/>
		<path class="st0" d="M96.7,396.6c-0.1,3.1,1.2,5.4,4.3,5.4c1.8,0,3.3-1,3.5-3.1h2.8c-0.1,0.8-0.2,2-1.3,3.2c-0.7,0.8-2.2,2-5.2,2
			c-4.7,0-7-2.9-7-7.7c0-3,0.6-5.4,3-7.1c1.4-1,3.2-1.1,4.1-1.1c6.8,0,6.6,6,6.5,8.4H96.7z M104.7,394.7c0-1.4-0.2-4.4-3.7-4.4
			c-1.8,0-4,1.1-4.1,4.4H104.7z"/>
		<path class="st0" d="M111.6,391.7c0-1-0.1-2.1-0.2-3.1h2.9l0.1,2.9c0.5-2.1,2.3-2.8,3.6-3c0.8-0.1,1.5-0.1,2-0.1v2.8
			c-0.2-0.1-0.3-0.1-0.5-0.1c-0.2,0-0.5,0-0.8,0c-3.3,0-4.1,2-4.1,4.6v8h-2.8V391.7z"/>
		<path class="st0" d="M122.2,391.7c0-1-0.1-2.1-0.2-3.1h2.9l0.1,2.9c0.5-2.1,2.3-2.8,3.6-3c0.8-0.1,1.5-0.1,2-0.1v2.8
			c-0.2-0.1-0.3-0.1-0.5-0.1c-0.2,0-0.5,0-0.8,0c-3.3,0-4.1,2-4.1,4.6v8h-2.8V391.7z"/>
		<path class="st0" d="M133.1,382.1h3.4v3.1h-3.4V382.1z M133.4,388.6h2.8v15.1h-2.8V388.6z"/>
		<path class="st0" d="M139.1,388.5h2.7v-3.2l2.8-0.9v4h3.4v2.1h-3.4v9c0,0.8,0,2,2,2c0.6,0,1.1-0.1,1.3-0.2v2.2
			c-0.5,0.1-1.3,0.2-2.3,0.2c-2.6,0-3.8-0.8-3.8-3.2v-10h-2.7V388.5z"/>
		<path class="st0" d="M157.7,388.2c6,0,7.4,4.7,7.4,7.9c0,4.4-2.5,8.1-7.6,8.1c-5,0-7.4-3.4-7.4-7.9
			C150,392.6,151.8,388.2,157.7,388.2z M157.5,402.1c2.1,0,4.6-1.5,4.6-6.1c0-3.8-1.7-5.7-4.4-5.7c-1.8,0-4.7,1.1-4.7,5.9
			C153,399.2,154.3,402.1,157.5,402.1z"/>
		<path class="st0" d="M169.3,391.7c0-1-0.1-2.1-0.2-3.1h2.9l0.1,2.9c0.5-2.1,2.3-2.8,3.6-3c0.8-0.1,1.5-0.1,2-0.1v2.8
			c-0.2-0.1-0.3-0.1-0.5-0.1c-0.2,0-0.5,0-0.8,0c-3.3,0-4.1,2-4.1,4.6v8h-2.8V391.7z"/>
		<path class="st0" d="M180.3,382.1h3.4v3.1h-3.4V382.1z M180.6,388.6h2.8v15.1h-2.8V388.6z"/>
		<path class="st0" d="M190.3,396.6c-0.1,3.1,1.2,5.4,4.3,5.4c1.8,0,3.3-1,3.5-3.1h2.8c-0.1,0.8-0.2,2-1.3,3.2c-0.7,0.8-2.2,2-5.2,2
			c-4.7,0-7-2.9-7-7.7c0-3,0.6-5.4,3-7.1c1.4-1,3.2-1.1,4.1-1.1c6.8,0,6.6,6,6.5,8.4H190.3z M198.2,394.7c0-1.4-0.2-4.4-3.7-4.4
			c-1.8,0-4,1.1-4.1,4.4H198.2z"/>
		<path class="st0" d="M206.6,399.2c0,1.1,0.6,2.7,3.3,2.7c1.2,0,2-0.2,2.6-1c0.3-0.4,0.5-0.9,0.5-1.4c0-1.5-1-1.7-3.3-2.2
			c-3.2-0.7-5.8-1.4-5.8-4.5c0-2.8,2.4-4.6,5.9-4.6c1.9,0,4.5,0.5,5.4,2.3c0.4,0.8,0.4,1.6,0.4,2.2h-2.9c0.1-2.3-1.9-2.5-2.9-2.5
			c-0.4,0-3.1,0-3.1,2.2c0,1.4,1.4,1.7,2.1,1.9c4.2,1,5.1,1.2,6,2.1c0.8,0.8,1.1,1.8,1.1,2.8c0,1.7-0.9,3.1-2,3.8
			c-1.3,0.8-2.9,1-4.5,1c-3.1,0-5.9-1.3-5.9-4.9H206.6z"/>
	</g>
	<rect x="25" y="220" class="st0" width="250" height="4"/>
</g>
<g id="Person">
</g>
<g id="Money">
</g>
<g id="Guides">
</g>
</svg>
