<?xml version="1.0" encoding="utf-8"?>
<!-- Generator: Adobe Illustrator 22.0.1, SVG Export Plug-In . SVG Version: 6.00 Build 0)  -->
<svg version="1.1" xmlns="http://www.w3.org/2000/svg" xmlns:xlink="http://www.w3.org/1999/xlink" x="0px" y="0px"
	 viewBox="0 0 300 407.2" style="enable-background:new 0 0 300 407.2;" xml:space="preserve">
<style type="text/css">
	.st0{fill:#FFFFFF;}
</style>
<g id="Send">
</g>
<g id="Currency">
</g>
<g id="App">
</g>
<g id="Bank">
	<g>
		<path class="st0" d="M93,244l4.7,17.8l5.2-17.8h3.7l4.9,18l4.9-18h2.9l-6.4,21.7h-3.3l-5-18.5l-5.4,18.5H96L89.8,244H93z"/>
		<path class="st0" d="M125.1,244v13.4c0,2.3,0.5,3.3,1,3.9c1.3,1.8,3.4,2.1,4.9,2.1c5.8,0,5.8-4.6,5.8-6.2V244h2.9v13.3
			c0,1.2,0,3.6-1.8,5.8c-2.1,2.7-5.4,3-7,3c-2,0-5.6-0.6-7.6-3.5c-0.7-1-1.3-2.2-1.3-5.5V244H125.1z"/>
		<path class="st0" d="M144,262.1h3.3v3.6H144V262.1z"/>
		<path class="st0" d="M160.8,255.4c-0.1-0.7-0.3-3.2-3-3.2c-3.9,0-3.9,4.5-3.9,5.7c0,3.1,0.7,6,3.7,6c2.4,0,3.2-1.8,3.3-3.3h2.8
			c-0.2,2.9-2.4,5.4-6.1,5.4c-1,0-3.4-0.2-5-1.9c-0.9-1.1-1.8-2.6-1.8-5.8c0-6.3,3.8-8.1,6.8-8.1c1,0,3.2,0.2,4.6,1.9
			c1.1,1.3,1.2,2.5,1.3,3.4H160.8z"/>
		<path class="st0" d="M173.5,250.2c6,0,7.4,4.7,7.4,7.9c0,4.4-2.5,8.1-7.6,8.1c-5,0-7.4-3.4-7.4-7.9
			C165.9,254.6,167.6,250.2,173.5,250.2z M173.3,264.1c2.1,0,4.6-1.5,4.6-6.1c0-3.8-1.7-5.7-4.4-5.7c-1.8,0-4.7,1.1-4.7,5.9
			C168.8,261.2,170.1,264.1,173.3,264.1z"/>
		<path class="st0" d="M185,252.6l-0.1-2h2.8v2.2c1.4-2.4,3.5-2.6,4.8-2.6c3.3,0,4.4,1.7,4.9,2.8c0.5-0.8,1.7-2.8,5.1-2.8
			c2.2,0,5.5,0.9,5.5,5.3v10.1h-2.8V256c0-1.3-0.2-1.9-0.5-2.3c-0.5-0.7-1.4-1.3-2.9-1.3c-1.8,0-2.8,1-3.2,1.6
			c-0.7,0.9-0.7,2.6-0.7,3.2v8.4h-2.8v-10c0-1.9-1.1-3.3-3.3-3.3c-1.9,0-3,1.2-3.3,1.7c-0.6,0.9-0.7,2.1-0.7,3.1v8.5H185V252.6z"/>
		<path class="st0" d="M53.9,269h6.3c2.9,0,6.3,0,8.7,2.8c1.9,2.2,2.7,5.2,2.7,8.2c0,4.7-2,7.6-3.6,8.9c-2.1,1.8-4.8,1.8-8,1.8h-6.1
			V269z M56.9,288.2h2.9c2.1,0,4.2-0.1,5.7-1.2c2.8-2.1,2.9-5.6,2.9-6.9c0-0.8-0.1-4.5-2.1-6.8c-1.4-1.5-3.1-1.9-5.8-1.9h-3.6V288.2
			z"/>
		<path class="st0" d="M75,269.1h3.4v3.1H75V269.1z M75.3,275.6h2.8v15.1h-2.8V275.6z"/>
		<path class="st0" d="M83.4,278.7c0-1-0.1-2.1-0.2-3.1h2.9l0.1,2.9c0.5-2.1,2.3-2.8,3.6-3c0.8-0.1,1.5-0.1,2-0.1v2.8
			c-0.2-0.1-0.3-0.1-0.5-0.1c-0.2,0-0.5,0-0.8,0c-3.3,0-4.1,2-4.1,4.6v8h-2.8V278.7z"/>
		<path class="st0" d="M96.4,283.6c-0.1,3.1,1.2,5.4,4.3,5.4c1.8,0,3.3-1,3.5-3.1h2.8c-0.1,0.8-0.2,2-1.3,3.2c-0.7,0.8-2.2,2-5.2,2
			c-4.7,0-7-2.9-7-7.7c0-3,0.6-5.4,3-7.1c1.4-1,3.2-1.1,4.1-1.1c6.8,0,6.6,6,6.5,8.4H96.4z M104.3,281.7c0-1.4-0.2-4.4-3.7-4.4
			c-1.8,0-4,1.1-4.1,4.4H104.3z"/>
		<path class="st0" d="M119.6,280.4c-0.1-0.7-0.3-3.2-3-3.2c-3.9,0-3.9,4.5-3.9,5.7c0,3.1,0.8,6,3.8,6c2.4,0,3.2-1.8,3.3-3.3h2.8
			c-0.2,2.9-2.4,5.4-6.1,5.4c-1,0-3.4-0.2-5-1.9c-0.9-1.1-1.8-2.6-1.8-5.8c0-6.3,3.8-8.1,6.8-8.1c1,0,3.2,0.2,4.6,1.9
			c1.1,1.3,1.2,2.5,1.3,3.4H119.6z"/>
		<path class="st0" d="M123.4,275.5h2.7v-3.2l2.8-0.9v4h3.4v2.1h-3.4v9c0,0.8,0,2,2,2c0.6,0,1.1-0.1,1.3-0.2v2.2
			c-0.5,0.1-1.3,0.2-2.3,0.2c-2.6,0-3.8-0.8-3.8-3.2v-10h-2.7V275.5z"/>
		<path class="st0" d="M134.1,281.6h7.5v2.3h-7.5V281.6z"/>
		<path class="st0" d="M142.8,275.5h2.7v-3.2l2.8-0.9v4h3.4v2.1h-3.4v9c0,0.8,0,2,2,2c0.6,0,1.1-0.1,1.3-0.2v2.2
			c-0.5,0.1-1.3,0.2-2.3,0.2c-2.6,0-3.8-0.8-3.8-3.2v-10h-2.7V275.5z"/>
		<path class="st0" d="M161.4,275.2c6,0,7.4,4.7,7.4,7.9c0,4.4-2.5,8.1-7.6,8.1c-5,0-7.4-3.4-7.4-7.9
			C153.7,279.6,155.4,275.2,161.4,275.2z M161.2,289.1c2.1,0,4.6-1.5,4.6-6.1c0-3.8-1.7-5.7-4.4-5.7c-1.8,0-4.7,1.1-4.7,5.9
			C156.6,286.2,158,289.1,161.2,289.1z"/>
		<path class="st0" d="M171.5,281.6h7.5v2.3h-7.5V281.6z"/>
		<path class="st0" d="M182.7,269h7.7c2.6,0,4.1,0.3,5.5,1.6c0.9,0.9,1.5,2.2,1.5,3.9c0,3.6-2.6,4.5-3.7,4.9
			c1.3,0.4,4.3,1.3,4.3,5.4c0,2.9-1.9,4.4-2.6,4.9c-1.5,1-3.2,1-4.9,1h-7.9V269z M185.7,278.1h4.2c1,0,4.5,0,4.5-3.4
			c0-3.3-2.7-3.3-4.4-3.3h-4.3V278.1z M185.7,288.2h5.1c2.4,0,4.3-1.3,4.3-3.8c0-2.2-1.5-3.8-4.1-3.8h-5.2V288.2z"/>
		<path class="st0" d="M211.4,290.7c-0.2-0.8-0.3-1.5-0.3-2.2c-1.4,2.5-3.4,2.7-4.7,2.7c-3.4,0-5.3-1.9-5.3-4.4
			c0-1.2,0.4-3.1,2.6-4.4c1.6-0.9,4-1,5.2-1c0.7,0,1.2,0,2,0.1c0-1.9,0-2.7-0.5-3.3c-0.6-0.8-1.8-1-2.6-1c-2.8,0-3,2-3,2.5h-2.8
			c0.1-0.8,0.2-1.8,1-2.8c1.1-1.3,3.3-1.6,4.9-1.6c2.2,0,4.5,0.7,5.3,2.2c0.5,0.9,0.5,1.6,0.5,2.3l-0.1,7.2c0,0.2,0,2.2,0.2,3.8
			H211.4z M209.5,283.2c-1.1,0-5.4,0-5.4,3.1c0,1,0.6,2.6,3.1,2.6c1.4,0,2.5-0.6,3.2-1.6c0.6-1,0.7-1.9,0.7-4
			C210.6,283.3,210.2,283.2,209.5,283.2z"/>
		<path class="st0" d="M218.7,277.3l0-1.7h2.8l0,2.4c0.3-0.6,1.4-2.7,4.8-2.7c1.3,0,5.5,0.5,5.5,5.1v10.2h-2.9v-9.6
			c0-1-0.1-1.9-0.8-2.6c-0.7-0.7-1.7-1-2.7-1c-2,0-3.9,1.5-3.9,4.5v8.7h-2.8V277.3z"/>
		<path class="st0" d="M236.4,268.9h2.8v12.9l5.6-6.2h3.7l-6.4,6.4l6.8,8.7h-3.7l-6-8.1v8.1h-2.8V268.9z"/>
		<path class="st0" d="M29.3,302.6l-0.1-2h2.8v2.2c1.4-2.4,3.5-2.6,4.8-2.6c3.3,0,4.4,1.7,4.9,2.8c0.5-0.8,1.7-2.8,5.1-2.8
			c2.2,0,5.5,0.9,5.5,5.3v10.1h-2.8V306c0-1.3-0.2-1.9-0.5-2.3c-0.5-0.7-1.4-1.3-2.9-1.3c-1.8,0-2.8,1-3.2,1.6
			c-0.7,0.9-0.7,2.6-0.7,3.2v8.4h-2.8v-10c0-1.9-1.1-3.3-3.3-3.3c-1.9,0-3,1.2-3.3,1.7c-0.6,0.9-0.7,2.1-0.7,3.1v8.5h-2.8V302.6z"/>
		<path class="st0" d="M63.9,300.2c6,0,7.4,4.7,7.4,7.9c0,4.4-2.5,8.1-7.6,8.1c-5,0-7.4-3.4-7.4-7.9C56.2,304.6,58,300.2,63.9,300.2
			z M63.7,314.1c2.1,0,4.6-1.5,4.6-6.1c0-3.8-1.7-5.7-4.4-5.7c-1.8,0-4.7,1.1-4.7,5.9C59.2,311.2,60.5,314.1,63.7,314.1z"/>
		<path class="st0" d="M75.5,302.3l0-1.7h2.8l0,2.4c0.3-0.6,1.4-2.7,4.8-2.7c1.3,0,5.5,0.5,5.5,5.1v10.2h-2.9v-9.6
			c0-1-0.1-1.9-0.8-2.6c-0.7-0.7-1.7-1-2.7-1c-2,0-3.9,1.5-3.9,4.5v8.7h-2.8V302.3z"/>
		<path class="st0" d="M95.1,308.6c-0.1,3.1,1.2,5.4,4.3,5.4c1.8,0,3.3-1,3.5-3.1h2.8c-0.1,0.8-0.2,2-1.3,3.2c-0.7,0.8-2.2,2-5.2,2
			c-4.7,0-7-2.9-7-7.7c0-3,0.6-5.4,3-7.1c1.4-1,3.2-1.1,4.1-1.1c6.8,0,6.6,6,6.5,8.4H95.1z M103.1,306.7c0-1.4-0.2-4.4-3.7-4.4
			c-1.8,0-4,1.1-4.1,4.4H103.1z"/>
		<path class="st0" d="M116.6,315.7l-2.2,5.6h-2.9l2.3-5.8l-6.3-15h3.2l4.7,11.9l4.8-11.9h3.1L116.6,315.7z"/>
		<path class="st0" d="M131.9,300.5h2.7v-3.2l2.8-0.9v4h3.4v2.1h-3.4v9c0,0.8,0,2,2,2c0.6,0,1.1-0.1,1.3-0.2v2.2
			c-0.5,0.1-1.3,0.2-2.3,0.2c-2.6,0-3.8-0.8-3.8-3.2v-10h-2.7V300.5z"/>
		<path class="st0" d="M144,303.7c0-1-0.1-2.1-0.2-3.1h2.9l0.1,2.9c0.5-2.1,2.3-2.8,3.6-3c0.8-0.1,1.5-0.1,2-0.1v2.8
			c-0.2-0.1-0.3-0.1-0.5-0.1c-0.2,0-0.5,0-0.8,0c-3.3,0-4.1,2-4.1,4.6v8H144V303.7z"/>
		<path class="st0" d="M164.4,315.7c-0.2-0.8-0.3-1.5-0.3-2.2c-1.4,2.5-3.4,2.7-4.7,2.7c-3.4,0-5.3-1.9-5.3-4.4
			c0-1.2,0.4-3.1,2.6-4.4c1.6-0.9,4-1,5.2-1c0.7,0,1.2,0,2,0.1c0-1.9,0-2.7-0.5-3.3c-0.6-0.8-1.8-1-2.6-1c-2.8,0-3,2-3,2.5h-2.8
			c0.1-0.8,0.2-1.8,1-2.8c1.1-1.3,3.3-1.6,4.9-1.6c2.2,0,4.5,0.7,5.3,2.2c0.5,0.9,0.5,1.6,0.5,2.3l-0.1,7.2c0,0.2,0,2.2,0.2,3.8
			H164.4z M162.5,308.2c-1.1,0-5.4,0-5.4,3.1c0,1,0.6,2.6,3.1,2.6c1.4,0,2.5-0.6,3.2-1.6c0.6-1,0.7-1.9,0.7-4
			C163.6,308.3,163.2,308.2,162.5,308.2z"/>
		<path class="st0" d="M171.7,302.3l0-1.7h2.8l0,2.4c0.3-0.6,1.4-2.7,4.8-2.7c1.3,0,5.5,0.5,5.5,5.1v10.2H182v-9.6
			c0-1-0.1-1.9-0.8-2.6c-0.7-0.7-1.7-1-2.7-1c-2,0-3.9,1.5-3.9,4.5v8.7h-2.8V302.3z"/>
		<path class="st0" d="M191.3,311.2c0,1.1,0.6,2.7,3.3,2.7c1.2,0,2-0.2,2.6-1c0.3-0.4,0.5-0.9,0.5-1.4c0-1.5-1-1.7-3.3-2.2
			c-3.2-0.7-5.8-1.4-5.8-4.5c0-2.8,2.4-4.6,5.9-4.6c1.9,0,4.5,0.5,5.4,2.3c0.4,0.8,0.4,1.6,0.4,2.2h-2.9c0.1-2.3-1.9-2.5-2.9-2.5
			c-0.4,0-3.1,0-3.1,2.2c0,1.4,1.4,1.7,2.1,1.9c4.2,1,5.1,1.2,6,2.1c0.8,0.8,1.1,1.8,1.1,2.8c0,1.7-0.9,3.1-2,3.8
			c-1.3,0.8-2.9,1-4.5,1c-3.1,0-5.9-1.3-5.9-4.9H191.3z"/>
		<path class="st0" d="M211.9,296.1c-0.5,0-1.1-0.1-1.7-0.1c-2.3,0-2.3,1.1-2.3,2.2v2.4h3.5v2H208v13h-2.8v-13h-3v-2h3v-1.7
			c0-2.1,0.1-2.8,0.6-3.6c0.6-1,1.8-1.7,3.8-1.7c0.8,0,1.7,0.1,2.3,0.2V296.1z"/>
		<path class="st0" d="M215.8,308.6c-0.1,3.1,1.2,5.4,4.3,5.4c1.8,0,3.3-1,3.5-3.1h2.8c-0.1,0.8-0.2,2-1.3,3.2c-0.7,0.8-2.2,2-5.2,2
			c-4.7,0-7-2.9-7-7.7c0-3,0.6-5.4,3-7.1c1.4-1,3.2-1.1,4.1-1.1c6.8,0,6.6,6,6.5,8.4H215.8z M223.7,306.7c0-1.4-0.2-4.4-3.7-4.4
			c-1.8,0-4,1.1-4.1,4.4H223.7z"/>
		<path class="st0" d="M230.6,303.7c0-1-0.1-2.1-0.2-3.1h2.9l0.1,2.9c0.5-2.1,2.3-2.8,3.6-3c0.8-0.1,1.5-0.1,2-0.1v2.8
			c-0.2-0.1-0.3-0.1-0.5-0.1c-0.2,0-0.5,0-0.8,0c-3.3,0-4.1,2-4.1,4.6v8h-2.8V303.7z"/>
		<path class="st0" d="M249.6,294.1h3.4v3.1h-3.4V294.1z M249.9,300.6h2.8v15.1h-2.8V300.6z"/>
		<path class="st0" d="M258,302.3l0-1.7h2.8l0,2.4c0.3-0.6,1.4-2.7,4.8-2.7c1.3,0,5.5,0.5,5.5,5.1v10.2h-2.9v-9.6
			c0-1-0.1-1.9-0.8-2.6c-0.7-0.7-1.7-1-2.7-1c-2,0-3.9,1.5-3.9,4.5v8.7H258V302.3z"/>
		<path class="st0" d="M95.9,368.5c0.2,5.6,5,7.8,9.2,7.8c9.7,0,11-9.1,11-12.7c0-7.5-4.1-11.9-10.5-11.9c-3.2,0-5.8,1.2-7.4,2.9
			c-1.7,1.7-2.2,3.4-2.6,4.6h-7.3l1.4-33h31.1v6.5H96.6l-1,17.9c1.7-1.7,5.2-5.1,11.7-5.1c11.1,0,16.6,8.7,16.6,18.2
			c0,10.9-7.7,19.1-19.8,19.1c-9,0-16.1-5-16.5-14.4H95.9z"/>
		<path class="st0" d="M148.9,325.2c16.6,0,18.6,17.8,18.6,28.2c0,13.1-2.6,20.5-7.7,25.2c-3.9,3.7-8.6,4.2-11,4.2
			c-7.4,0-12.4-4.3-14.8-9.2c-1.8-3.7-3.6-9-3.6-19C130.3,346.4,131.3,325.2,148.9,325.2z M148.8,376.1c9.3,0,10.9-12.2,10.9-22.1
			c0-13.3-2.3-22.5-10.7-22.5c-9.7,0-11,12.7-11,22.6C138,366.5,140.4,376.1,148.8,376.1z"/>
		<path class="st0" d="M190.5,357.6h-17v-6.2h17v-17h6.7v17h17v6.2h-17v17h-6.7V357.6z"/>
		<path class="st0" d="M96.7,396.4c-0.1-0.7-0.3-3.2-3-3.2c-3.9,0-3.9,4.5-3.9,5.7c0,3.1,0.8,6,3.8,6c2.4,0,3.2-1.8,3.3-3.3h2.8
			c-0.2,2.9-2.4,5.4-6.1,5.4c-1,0-3.4-0.2-5-1.9c-0.9-1.1-1.8-2.6-1.8-5.8c0-6.3,3.8-8.1,6.8-8.1c1,0,3.2,0.2,4.6,1.9
			c1.1,1.3,1.2,2.5,1.3,3.4H96.7z"/>
		<path class="st0" d="M109.4,391.2c6,0,7.4,4.7,7.4,7.9c0,4.4-2.5,8.1-7.6,8.1c-5,0-7.4-3.4-7.4-7.9
			C101.7,395.6,103.5,391.2,109.4,391.2z M109.2,405.1c2.1,0,4.6-1.5,4.6-6.1c0-3.8-1.7-5.7-4.4-5.7c-1.8,0-4.7,1.1-4.7,5.9
			C104.7,402.2,106,405.1,109.2,405.1z"/>
		<path class="st0" d="M123.4,391.6v9.7c0,1.5,0.3,3.3,3.2,3.3c1.4,0,2.7-0.5,3.5-1.7c0.6-0.9,0.6-2.1,0.6-2.8v-8.5h2.9v12.2
			c0,0.3,0.1,2,0.1,2.8h-2.9l-0.1-2.6c-0.5,1-1.6,2.7-4.8,2.7c-3.7,0-5.5-2.1-5.5-5.1v-10.1H123.4z"/>
		<path class="st0" d="M139,393.3l0-1.7h2.8l0,2.4c0.3-0.6,1.4-2.7,4.8-2.7c1.3,0,5.5,0.5,5.5,5.1v10.2h-2.9v-9.6
			c0-1-0.1-1.9-0.8-2.6c-0.7-0.7-1.7-1-2.7-1c-2,0-3.9,1.5-3.9,4.5v8.7H139V393.3z"/>
		<path class="st0" d="M154.6,391.5h2.7v-3.2l2.8-0.9v4h3.4v2.1h-3.4v9c0,0.8,0,2,2,2c0.6,0,1.1-0.1,1.3-0.2v2.2
			c-0.5,0.1-1.3,0.2-2.3,0.2c-2.6,0-3.8-0.8-3.8-3.2v-10h-2.7V391.5z"/>
		<path class="st0" d="M166.8,394.7c0-1-0.1-2.1-0.2-3.1h2.9l0.1,2.9c0.5-2.1,2.3-2.8,3.6-3c0.8-0.1,1.5-0.1,2-0.1v2.8
			c-0.2-0.1-0.3-0.1-0.5-0.1c-0.2,0-0.5,0-0.8,0c-3.3,0-4.1,2-4.1,4.6v8h-2.8V394.7z"/>
		<path class="st0" d="M177.7,385.1h3.4v3.1h-3.4V385.1z M178,391.6h2.8v15.1H178V391.6z"/>
		<path class="st0" d="M187.7,399.6c-0.1,3.1,1.2,5.4,4.3,5.4c1.8,0,3.3-1,3.5-3.1h2.8c-0.1,0.8-0.2,2-1.3,3.2c-0.7,0.8-2.2,2-5.2,2
			c-4.7,0-7-2.9-7-7.7c0-3,0.6-5.4,3-7.1c1.4-1,3.2-1.1,4.1-1.1c6.8,0,6.6,6,6.5,8.4H187.7z M195.7,397.7c0-1.4-0.2-4.4-3.7-4.4
			c-1.8,0-4,1.1-4.1,4.4H195.7z"/>
		<path class="st0" d="M204,402.2c0,1.1,0.6,2.7,3.3,2.7c1.2,0,2-0.2,2.6-1c0.3-0.4,0.5-0.9,0.5-1.4c0-1.5-1-1.7-3.3-2.2
			c-3.2-0.7-5.8-1.4-5.8-4.5c0-2.8,2.4-4.6,5.9-4.6c1.9,0,4.5,0.5,5.4,2.3c0.4,0.8,0.4,1.6,0.4,2.2h-2.9c0.1-2.3-1.9-2.5-2.9-2.5
			c-0.4,0-3.1,0-3.1,2.2c0,1.4,1.4,1.7,2.1,1.9c4.2,1,5.1,1.2,6,2.1c0.8,0.8,1.1,1.8,1.1,2.8c0,1.7-0.9,3.1-2,3.8
			c-1.3,0.8-2.9,1-4.5,1c-3.1,0-5.9-1.3-5.9-4.9H204z"/>
	</g>
	<g>
		<path class="st0" d="M150,0C94.9,0,50,44.9,50,100s44.9,100,100,100c55.1,0,100-44.9,100-100S205.1,0,150,0 M150,193.2
			c-51.4,0-93.2-41.8-93.2-93.2c0-51.4,41.8-93.2,93.2-93.2c51.4,0,93.2,41.8,93.2,93.2C243.2,151.4,201.4,193.2,150,193.2"/>
		<path class="st0" d="M101.5,63.4h97c0.1,0,0.1,0,0.2,0c1.9,0,3.4-1.5,3.4-3.4c0-1.6-1.1-2.9-2.6-3.3l-48-23.4c-0.9-0.5-2-0.5-3,0
			L100,56.9c-1.4,0.7-2.2,2.3-1.8,3.8C98.5,62.3,99.9,63.4,101.5,63.4 M150,41c3.1,0,5.7,2.6,5.7,5.7c0,3.2-2.5,5.7-5.7,5.7
			c-3.2,0-5.7-2.5-5.7-5.7C144.3,43.5,146.9,41,150,41"/>
		<path class="st0" d="M206.7,135h-111c-1.9,0-3.4,1.5-3.4,3.4c0,1.9,1.5,3.4,3.4,3.4h111c1.9,0,3.4-1.5,3.4-3.4
			C210.1,136.5,208.5,135,206.7,135"/>
		<path class="st0" d="M209.5,118.7h-0.7c-0.5-0.5-1.1-0.9-1.9-0.9h-7c-1.4,0-2.6-1.2-2.7-2.6l-1.5-41.6c-0.1-1.4-1.2-2.6-2.7-2.6
			h-5.2c-1.4,0-2.6,1.2-2.7,2.6l-1.5,41.6c-0.1,1.4-1.2,2.6-2.7,2.6h-8c-1.4,0-2.6-1.2-2.7-2.6l-1.5-41.6c-0.1-1.4-1.2-2.6-2.7-2.6
			h-5.2c-1.4,0-2.6,1.2-2.7,2.6l-1.5,41.6c-0.1,1.4-1.3,2.6-2.7,2.6h-8c-1.4,0-2.6-1.2-2.7-2.6l-1.5-41.6c-0.1-1.4-1.3-2.6-2.7-2.6
			h-5.2c-1.4,0-2.6,1.2-2.7,2.6l-1.5,41.6c-0.1,1.4-1.3,2.6-2.7,2.6h-8c-1.4,0-2.6-1.2-2.7-2.6l-1.5-41.6c-0.1-1.4-1.3-2.6-2.7-2.6
			h-5.2c-1.4,0-2.6,1.2-2.7,2.6l-1.5,41.6c-0.1,1.4-1.3,2.6-2.7,2.6h-7c-0.8,0-1.4,0.4-1.9,0.9h-0.6c-1.9,0-3.4,1.5-3.4,3.4
			c0,1.9,1.5,3.4,3.4,3.4h118.9c1.9,0,3.4-1.5,3.4-3.4C212.9,120.3,211.4,118.7,209.5,118.7"/>
		<path class="st0" d="M192.3,151.2H110c-1.9,0-3.4,1.5-3.4,3.4c0,1.9,1.5,3.4,3.4,3.4h82.4c1.9,0,3.4-1.5,3.4-3.4
			C195.7,152.7,194.2,151.2,192.3,151.2"/>
	</g>
	<rect x="25" y="220" class="st0" width="250" height="4"/>
</g>
<g id="WU_Flow">
</g>
<g id="ATM">
</g>
<g id="Transactions">
</g>
<g id="Location">
</g>
<g id="Globe">
</g>
<g id="Person">
</g>
<g id="Money">
</g>
<g id="Guides">
</g>
</svg>
