<?xml version="1.0" encoding="utf-8"?>
<!-- Generator: Adobe Illustrator 22.0.1, SVG Export Plug-In . SVG Version: 6.00 Build 0)  -->
<svg version="1.1" xmlns="http://www.w3.org/2000/svg" xmlns:xlink="http://www.w3.org/1999/xlink" x="0px" y="0px"
	 viewBox="0 0 300 369.3" style="enable-background:new 0 0 300 369.3;" xml:space="preserve">
<style type="text/css">
	.st0{fill:#FFFFFF;}
</style>
<g id="Send">
</g>
<g id="Currency">
</g>
<g id="App">
</g>
<g id="Bank">
</g>
<g id="WU_Flow">
	<g>
		<path class="st0" d="M150,0C95,0,50.2,44.8,50.2,99.8S95,199.6,150,199.6c55,0,99.8-44.8,99.8-99.8S205,0,150,0 M150,192.8
			c-51.3,0-93-41.7-93-93c0-51.3,41.7-93,93-93c51.3,0,93,41.7,93,93C243,151.1,201.3,192.8,150,192.8"/>
		<polygon class="st0" points="158.4,79.2 144.2,79.2 140.8,104.5 140.7,104.5 137,79.2 120.5,79.2 116.8,104.5 116.7,104.5 
			113.3,79.2 99.1,79.2 107.8,119.4 125,119.4 128.7,93.4 128.8,93.4 132.5,119.4 149.8,119.4 		"/>
		<path class="st0" d="M185,105.2c0,3.2-1.5,4.4-3.2,4.4c-1.7,0-3.2-1.2-3.2-4.4v-26h-15.9v26.7c0,9.7,7,14.5,19,14.5
			c12.1,0,19.1-4.8,19.1-14.5V79.2H185V105.2z"/>
		<path class="st0" d="M138.9,51.9h20.2l-8.9,8.3c-1.4,1.3-1.5,3.4-0.2,4.8c0.7,0.7,1.6,1.1,2.5,1.1c0.8,0,1.7-0.3,2.3-0.9L170.1,51
			c0,0,0,0,0,0c0.3-0.3,0.5-0.6,0.6-0.9c0-0.1,0.1-0.1,0.1-0.2c0.2-0.4,0.3-0.9,0.3-1.3c0-0.5-0.1-0.9-0.3-1.4
			c0-0.1-0.1-0.1-0.1-0.2c-0.2-0.3-0.4-0.6-0.6-0.9c0,0,0,0,0-0.1l-15.2-14.2c-1.4-1.3-3.5-1.2-4.8,0.2c-1.3,1.4-1.2,3.5,0.2,4.8
			l8.9,8.3h-20.2c-1.9,0-3.4,1.5-3.4,3.4C135.5,50.4,137,51.9,138.9,51.9"/>
		<path class="st0" d="M167.8,144.3h-20.2l8.9-8.3c1.4-1.3,1.5-3.4,0.2-4.8c-1.3-1.4-3.4-1.5-4.8-0.2l-15.2,14.2c0,0,0,0,0,0
			c-0.3,0.3-0.5,0.6-0.6,0.9c0,0.1-0.1,0.1-0.1,0.2c-0.2,0.4-0.3,0.9-0.3,1.3c0,0.5,0.1,0.9,0.3,1.4c0,0.1,0.1,0.1,0.1,0.2
			c0.2,0.3,0.4,0.6,0.6,0.9c0,0,0,0,0,0.1l15.2,14.2c0.7,0.6,1.5,0.9,2.3,0.9c0.9,0,1.8-0.4,2.5-1.1c1.3-1.4,1.2-3.5-0.2-4.8
			l-8.9-8.3h20.2c1.9,0,3.4-1.5,3.4-3.4C171.2,145.8,169.7,144.3,167.8,144.3"/>
	</g>
	<g>
		<path class="st0" d="M60.9,244l4.7,17.8l5.2-17.8h3.7l4.9,18l4.9-18h2.9l-6.4,21.7h-3.3l-5-18.5l-5.4,18.5h-3.2L57.7,244H60.9z"/>
		<path class="st0" d="M92.9,244v13.4c0,2.3,0.5,3.3,1,3.9c1.3,1.8,3.4,2.1,4.9,2.1c5.8,0,5.8-4.6,5.8-6.2V244h2.9v13.3
			c0,1.2,0,3.6-1.8,5.8c-2.1,2.7-5.4,3-7,3c-2,0-5.6-0.6-7.6-3.5c-0.7-1-1.3-2.2-1.3-5.5V244H92.9z"/>
		<path class="st0" d="M129.4,255.4c-0.1-0.7-0.3-3.2-3-3.2c-3.9,0-3.9,4.5-3.9,5.7c0,3.1,0.8,6,3.8,6c2.4,0,3.2-1.8,3.3-3.3h2.8
			c-0.2,2.9-2.4,5.4-6.1,5.4c-1,0-3.4-0.2-5-1.9c-0.9-1.1-1.8-2.6-1.8-5.8c0-6.3,3.8-8.1,6.8-8.1c1,0,3.2,0.2,4.6,1.9
			c1.1,1.3,1.2,2.5,1.3,3.4H129.4z"/>
		<path class="st0" d="M144.7,265.7c-0.2-0.8-0.3-1.5-0.3-2.2c-1.4,2.5-3.4,2.7-4.7,2.7c-3.4,0-5.3-1.9-5.3-4.4
			c0-1.2,0.4-3.1,2.6-4.4c1.6-0.9,4-1,5.2-1c0.7,0,1.2,0,2,0.1c0-1.9,0-2.7-0.5-3.3c-0.6-0.8-1.8-1-2.6-1c-2.8,0-3,2-3,2.5h-2.8
			c0.1-0.8,0.2-1.8,1-2.8c1.1-1.3,3.3-1.6,4.9-1.6c2.2,0,4.5,0.7,5.3,2.2c0.5,0.9,0.5,1.6,0.5,2.3l-0.1,7.2c0,0.2,0,2.2,0.2,3.8
			H144.7z M142.8,258.2c-1.1,0-5.4,0-5.4,3.1c0,1,0.6,2.6,3.1,2.6c1.4,0,2.5-0.6,3.2-1.6c0.6-1,0.7-1.9,0.7-4
			C143.9,258.3,143.5,258.2,142.8,258.2z"/>
		<path class="st0" d="M152,252.3l0-1.7h2.8l0,2.4c0.3-0.6,1.4-2.7,4.8-2.7c1.3,0,5.5,0.5,5.5,5.1v10.2h-2.9v-9.6
			c0-1-0.1-1.9-0.8-2.6c-0.7-0.7-1.7-1-2.7-1c-2,0-3.9,1.5-3.9,4.5v8.7H152V252.3z"/>
		<path class="st0" d="M179.6,261.2c0,1.1,0.6,2.7,3.3,2.7c1.2,0,2-0.2,2.6-1c0.3-0.4,0.5-0.9,0.5-1.4c0-1.5-1-1.7-3.3-2.2
			c-3.2-0.7-5.8-1.4-5.8-4.5c0-2.8,2.4-4.6,5.9-4.6c1.9,0,4.5,0.5,5.4,2.3c0.4,0.8,0.4,1.6,0.4,2.2h-2.9c0.1-2.3-1.9-2.5-2.9-2.5
			c-0.4,0-3.1,0-3.1,2.2c0,1.4,1.4,1.7,2.1,1.9c4.2,1,5.1,1.2,6,2.1c0.8,0.8,1.1,1.8,1.1,2.8c0,1.7-0.9,3.1-2,3.8
			c-1.3,0.8-2.9,1-4.5,1c-3.1,0-5.9-1.3-5.9-4.9H179.6z"/>
		<path class="st0" d="M194.4,258.6c-0.1,3.1,1.2,5.4,4.3,5.4c1.8,0,3.3-1,3.5-3.1h2.8c-0.1,0.8-0.2,2-1.3,3.2c-0.7,0.8-2.2,2-5.2,2
			c-4.7,0-7-2.9-7-7.7c0-3,0.6-5.4,3-7.1c1.4-1,3.2-1.1,4.1-1.1c6.8,0,6.6,6,6.5,8.4H194.4z M202.4,256.7c0-1.4-0.2-4.4-3.7-4.4
			c-1.8,0-4,1.1-4.1,4.4H202.4z"/>
		<path class="st0" d="M209.2,252.3l0-1.7h2.8l0,2.4c0.3-0.6,1.4-2.7,4.8-2.7c1.3,0,5.5,0.5,5.5,5.1v10.2h-2.9v-9.6
			c0-1-0.1-1.9-0.8-2.6c-0.7-0.7-1.7-1-2.7-1c-2,0-3.9,1.5-3.9,4.5v8.7h-2.8V252.3z"/>
		<path class="st0" d="M237.6,244h2.8v19.2c0,0.3,0.1,1.6,0.1,2.4h-2.8l-0.1-2.4c-0.2,0.4-0.6,1-1.4,1.6c-1.2,0.8-2.7,1.1-3.7,1.1
			c-2,0-6.5-1-6.5-7.6c0-5.7,3.3-8.2,6.8-8.2c3.2,0,4.3,1.9,4.7,2.5V244z M236.5,253.7c-0.6-0.8-1.7-1.5-3.3-1.5c-4.1,0-4.1,5-4.1,6
			c0,2.7,0.7,5.8,4.1,5.8c4.4,0,4.4-4.9,4.4-6.1C237.7,255.7,237.1,254.5,236.5,253.7z"/>
		<path class="st0" d="M51.4,277.6l-0.1-2h2.8v2.2c1.4-2.4,3.5-2.6,4.8-2.6c3.3,0,4.4,1.7,4.9,2.8c0.5-0.8,1.7-2.8,5.1-2.8
			c2.2,0,5.5,0.9,5.5,5.3v10.1h-2.8V281c0-1.3-0.2-1.9-0.5-2.3c-0.5-0.7-1.4-1.3-2.9-1.3c-1.8,0-2.8,1-3.2,1.6
			c-0.7,0.9-0.7,2.6-0.7,3.2v8.4h-2.8v-10c0-1.9-1.1-3.3-3.3-3.3c-1.9,0-3,1.2-3.3,1.7c-0.6,0.9-0.7,2.1-0.7,3.1v8.5h-2.8V277.6z"/>
		<path class="st0" d="M86,275.2c6,0,7.4,4.7,7.4,7.9c0,4.4-2.5,8.1-7.6,8.1c-5,0-7.4-3.4-7.4-7.9C78.4,279.6,80.1,275.2,86,275.2z
			 M85.8,289.1c2.1,0,4.6-1.5,4.6-6.1c0-3.8-1.7-5.7-4.4-5.7c-1.8,0-4.7,1.1-4.7,5.9C81.3,286.2,82.6,289.1,85.8,289.1z"/>
		<path class="st0" d="M97.6,277.3l0-1.7h2.8l0,2.4c0.3-0.6,1.4-2.7,4.8-2.7c1.3,0,5.5,0.5,5.5,5.1v10.2h-2.9v-9.6
			c0-1-0.1-1.9-0.8-2.6c-0.7-0.7-1.7-1-2.7-1c-2,0-3.9,1.5-3.9,4.5v8.7h-2.8V277.3z"/>
		<path class="st0" d="M117.2,283.6c-0.1,3.1,1.2,5.4,4.3,5.4c1.8,0,3.3-1,3.5-3.1h2.8c-0.1,0.8-0.2,2-1.3,3.2c-0.7,0.8-2.2,2-5.2,2
			c-4.7,0-7-2.9-7-7.7c0-3,0.6-5.4,3-7.1c1.4-1,3.2-1.1,4.1-1.1c6.8,0,6.6,6,6.5,8.4H117.2z M125.2,281.7c0-1.4-0.2-4.4-3.7-4.4
			c-1.8,0-4,1.1-4.1,4.4H125.2z"/>
		<path class="st0" d="M138.7,290.7l-2.2,5.6h-2.9l2.3-5.8l-6.3-15h3.2l4.7,11.9l4.8-11.9h3.1L138.7,290.7z"/>
		<path class="st0" d="M154,275.5h2.7v-3.2l2.8-0.9v4h3.4v2.1h-3.4v9c0,0.8,0,2,2,2c0.6,0,1.1-0.1,1.3-0.2v2.2
			c-0.5,0.1-1.3,0.2-2.3,0.2c-2.6,0-3.8-0.8-3.8-3.2v-10H154V275.5z"/>
		<path class="st0" d="M172.6,275.2c6,0,7.4,4.7,7.4,7.9c0,4.4-2.5,8.1-7.6,8.1c-5,0-7.4-3.4-7.4-7.9
			C164.9,279.6,166.6,275.2,172.6,275.2z M172.4,289.1c2.1,0,4.6-1.5,4.6-6.1c0-3.8-1.7-5.7-4.4-5.7c-1.8,0-4.7,1.1-4.7,5.9
			C167.8,286.2,169.2,289.1,172.4,289.1z"/>
		<path class="st0" d="M198.6,275.2c6,0,7.4,4.7,7.4,7.9c0,4.4-2.5,8.1-7.6,8.1c-5,0-7.4-3.4-7.4-7.9
			C191,279.6,192.7,275.2,198.6,275.2z M198.4,289.1c2.1,0,4.6-1.5,4.6-6.1c0-3.8-1.7-5.7-4.4-5.7c-1.8,0-4.7,1.1-4.7,5.9
			C193.9,286.2,195.2,289.1,198.4,289.1z"/>
		<path class="st0" d="M207.4,275.6h3.1l4.8,11.9l4.7-11.9h3.1l-6.6,15.1h-2.8L207.4,275.6z"/>
		<path class="st0" d="M227.8,283.6c-0.1,3.1,1.2,5.4,4.3,5.4c1.8,0,3.3-1,3.5-3.1h2.8c-0.1,0.8-0.2,2-1.3,3.2c-0.7,0.8-2.2,2-5.2,2
			c-4.7,0-7-2.9-7-7.7c0-3,0.6-5.4,3-7.1c1.4-1,3.2-1.1,4.1-1.1c6.8,0,6.6,6,6.5,8.4H227.8z M235.7,281.7c0-1.4-0.2-4.4-3.7-4.4
			c-1.8,0-4,1.1-4.1,4.4H235.7z"/>
		<path class="st0" d="M242.6,278.7c0-1-0.1-2.1-0.2-3.1h2.9l0.1,2.9c0.5-2.1,2.3-2.8,3.6-3c0.8-0.1,1.5-0.1,2-0.1v2.8
			c-0.2-0.1-0.3-0.1-0.5-0.1c-0.2,0-0.5,0-0.8,0c-3.3,0-4.1,2-4.1,4.6v8h-2.8V278.7z"/>
		<path class="st0" d="M41.8,308.1c-2.6,2.2-6.8,4.7-9.8,6.1v-6.1c4-2.1,7.9-4.6,10.2-6.6h5.4v42.2h-5.9V308.1z"/>
		<path class="st0" d="M72.3,299.6h15.7c5.4,0,8.4,0.5,11.1,3.2c1.9,1.8,3.1,4.4,3.1,7.9c0,7.3-5.3,9.2-7.4,9.9
			c2.6,0.7,8.8,2.6,8.8,11c0,6-3.8,9-5.3,10c-3,2-6.5,2-9.9,2h-16V299.6z M78.2,318.2h8.5c2.1,0,9.2,0,9.2-7c0-6.6-5.6-6.6-8.9-6.6
			h-8.8V318.2z M78.2,338.7h10.4c4.8,0,8.7-2.6,8.7-7.6c0-4.4-3.1-7.6-8.4-7.6H78.2V338.7z"/>
		<path class="st0" d="M107.8,299.6h6.1v44h-6.1V299.6z"/>
		<path class="st0" d="M120.2,299.6h6v38.6h20.5v5.4h-26.5V299.6z"/>
		<path class="st0" d="M149.3,299.6h6v38.6h20.5v5.4h-26.5V299.6z"/>
		<path class="st0" d="M178.1,299.6h6.1v44h-6.1V299.6z"/>
		<path class="st0" d="M194.1,304.4c4.6-4.9,10.6-5.9,14.7-5.9c12.2,0,19.9,7.8,19.9,22.8c0,11.7-4.7,23.5-20.4,23.5
			c-15,0-19.9-10.7-19.9-22.8C188.5,316.9,189.3,309.6,194.1,304.4z M198.8,335.5c2.5,3.1,6.3,4,9.8,4c3.6,0,7.2-1,9.8-4
			c3.6-4.4,4-11.3,4-14.3c0-10-3.3-17.6-13.4-17.6c-11.2,0-14,9-14,18C194.9,326.4,195.7,331.7,198.8,335.5z"/>
		<path class="st0" d="M233.3,299.6h8.5l21.7,36.4v-36.4h5.6v44h-7.8l-22.4-37.4v37.4h-5.6V299.6z"/>
		<path class="st0" d="M99.7,368.7c-0.2-0.8-0.3-1.5-0.3-2.2c-1.4,2.5-3.4,2.7-4.7,2.7c-3.4,0-5.3-1.9-5.3-4.4
			c0-1.2,0.4-3.1,2.6-4.4c1.6-0.9,4-1,5.2-1c0.7,0,1.2,0,2,0.1c0-1.9,0-2.7-0.5-3.3c-0.6-0.8-1.8-1-2.6-1c-2.8,0-3,2-3,2.5h-2.8
			c0.1-0.8,0.2-1.8,1-2.8c1.1-1.3,3.3-1.6,4.9-1.6c2.2,0,4.5,0.7,5.3,2.2c0.5,0.9,0.5,1.6,0.5,2.3l-0.1,7.2c0,0.2,0,2.2,0.2,3.8
			H99.7z M97.7,361.2c-1.1,0-5.4,0-5.4,3.1c0,1,0.6,2.6,3.1,2.6c1.4,0,2.5-0.6,3.2-1.6c0.6-1,0.7-1.9,0.7-4
			C98.8,361.3,98.4,361.2,97.7,361.2z"/>
		<path class="st0" d="M115.5,358.4c-0.1-0.7-0.3-3.2-3-3.2c-3.9,0-3.9,4.5-3.9,5.7c0,3.1,0.8,6,3.8,6c2.4,0,3.2-1.8,3.3-3.3h2.8
			c-0.2,2.9-2.4,5.4-6.1,5.4c-1,0-3.4-0.2-5-1.9c-0.9-1.1-1.8-2.6-1.8-5.8c0-6.3,3.8-8.1,6.8-8.1c1,0,3.2,0.2,4.6,1.9
			c1.1,1.3,1.2,2.5,1.3,3.4H115.5z"/>
		<path class="st0" d="M130.2,358.4c-0.1-0.7-0.3-3.2-3-3.2c-3.9,0-3.9,4.5-3.9,5.7c0,3.1,0.7,6,3.7,6c2.4,0,3.2-1.8,3.3-3.3h2.8
			c-0.2,2.9-2.4,5.4-6.1,5.4c-1,0-3.4-0.2-5-1.9c-0.9-1.1-1.8-2.6-1.8-5.8c0-6.3,3.8-8.1,6.8-8.1c1,0,3.2,0.2,4.6,1.9
			c1.1,1.3,1.2,2.5,1.3,3.4H130.2z"/>
		<path class="st0" d="M142.8,353.2c6,0,7.4,4.7,7.4,7.9c0,4.4-2.5,8.1-7.6,8.1c-5,0-7.4-3.4-7.4-7.9
			C135.2,357.6,136.9,353.2,142.8,353.2z M142.6,367.1c2.1,0,4.6-1.5,4.6-6.1c0-3.8-1.7-5.7-4.4-5.7c-1.8,0-4.7,1.1-4.7,5.9
			C138.1,364.2,139.4,367.1,142.6,367.1z"/>
		<path class="st0" d="M156.9,353.6v9.7c0,1.5,0.3,3.3,3.2,3.3c1.4,0,2.7-0.5,3.5-1.7c0.6-0.9,0.6-2.1,0.6-2.8v-8.5h2.9v12.2
			c0,0.3,0.1,2,0.1,2.8h-2.9l-0.1-2.6c-0.5,1-1.6,2.7-4.8,2.7c-3.7,0-5.5-2.1-5.5-5.1v-10.1H156.9z"/>
		<path class="st0" d="M172.4,355.3l0-1.7h2.8l0,2.4c0.3-0.6,1.4-2.7,4.8-2.7c1.3,0,5.5,0.5,5.5,5.1v10.2h-2.9v-9.6
			c0-1-0.1-1.9-0.8-2.6c-0.7-0.7-1.7-1-2.7-1c-2,0-3.9,1.5-3.9,4.5v8.7h-2.8V355.3z"/>
		<path class="st0" d="M188.1,353.5h2.7v-3.2l2.8-0.9v4h3.4v2.1h-3.4v9c0,0.8,0,2,2,2c0.6,0,1.1-0.1,1.3-0.2v2.2
			c-0.5,0.1-1.3,0.2-2.3,0.2c-2.6,0-3.8-0.8-3.8-3.2v-10h-2.7V353.5z"/>
		<path class="st0" d="M201.7,364.2c0,1.1,0.6,2.7,3.3,2.7c1.2,0,2-0.2,2.6-1c0.3-0.4,0.5-0.9,0.5-1.4c0-1.5-1-1.7-3.3-2.2
			c-3.2-0.7-5.8-1.4-5.8-4.5c0-2.8,2.4-4.6,5.9-4.6c1.9,0,4.5,0.5,5.4,2.3c0.4,0.8,0.4,1.6,0.4,2.2h-2.9c0.1-2.3-1.9-2.5-2.9-2.5
			c-0.4,0-3.1,0-3.1,2.2c0,1.4,1.4,1.7,2.1,1.9c4.2,1,5.1,1.2,6,2.1c0.8,0.8,1.1,1.8,1.1,2.8c0,1.7-0.9,3.1-2,3.8
			c-1.3,0.8-2.9,1-4.5,1c-3.1,0-5.9-1.3-5.9-4.9H201.7z"/>
	</g>
	<rect x="25" y="220" class="st0" width="250" height="4"/>
</g>
<g id="ATM">
</g>
<g id="Transactions">
</g>
<g id="Location">
</g>
<g id="Globe">
</g>
<g id="Person">
</g>
<g id="Money">
</g>
<g id="Guides">
</g>
</svg>
