<?xml version="1.0" encoding="utf-8"?>
<!-- Generator: Adobe Illustrator 22.0.1, SVG Export Plug-In . SVG Version: 6.00 Build 0)  -->
<svg version="1.1" xmlns="http://www.w3.org/2000/svg" xmlns:xlink="http://www.w3.org/1999/xlink" x="0px" y="0px"
	 viewBox="0 0 300 361.2" style="enable-background:new 0 0 300 361.2;" xml:space="preserve">
<style type="text/css">
	.st0{fill:#FFFFFF;}
</style>
<g id="Send">
	<g>
		<path class="st0" d="M150,200c55.1,0,100-44.9,100-100C250,44.9,205.1,0,150,0C94.9,0,50,44.9,50,100C50,155.1,94.9,200,150,200
			 M150,6.8c51.4,0,93.2,41.8,93.2,93.2c0,51.4-41.8,93.2-93.2,93.2c-51.4,0-93.2-41.8-93.2-93.2C56.8,48.6,98.6,6.8,150,6.8"/>
		<path class="st0" d="M150,158.3L150,158.3L150,158.3c0.1,0,0.1,0,0.1,0c32.1-0.1,58.2-26.2,58.2-58.3s-26.1-58.2-58.2-58.3
			c0,0,0,0-0.1,0h0h0c-32.2,0-58.3,26.2-58.3,58.3C91.7,132.2,117.8,158.3,150,158.3 M111,133.6c2.7-1.6,6.5-3,11.3-4.3
			c2.4,7.5,5.6,14,9.5,18.9C123.7,145.1,116.6,140,111,133.6 M146.6,150.9c-7.2-2.2-13.6-10.9-17.5-23.1c5.1-0.9,11-1.5,17.5-1.6
			V150.9z M146.6,119.6c-6.7,0.1-13.2,0.7-19.3,1.8c-1.3-5.6-2.1-11.6-2.3-18h21.6V119.6z M146.6,96.6H125
			c0.2-5.8,0.9-11.3,1.9-16.5c6.2,1.1,12.9,1.8,19.6,1.9V96.6z M168.3,148.1c3.9-4.9,7.1-11.3,9.4-18.8c4.8,1.2,8.5,2.7,11.2,4.3
			C183.4,140,176.4,145,168.3,148.1 M193.1,128.1c-3.5-2.2-8.2-3.9-13.6-5.3c1.4-6,2.2-12.6,2.4-19.4h19.4
			C200.7,112.5,197.8,120.9,193.1,128.1 M193.7,72.9c4.3,7,7,15,7.6,23.7h-19.4c-0.2-6.4-0.9-12.4-2.1-18
			C185.3,77.1,190.2,75.2,193.7,72.9 M189.8,67.3c-2.6,1.7-6.6,3.3-11.6,4.6c-2.4-8-5.8-14.9-9.8-20
			C176.7,55.2,184.1,60.5,189.8,67.3 M153.4,49c7.5,2.2,14.1,11.5,18,24.4c-5.2,1-11.3,1.6-18,1.7V49z M153.4,82
			c6.8-0.2,13.6-0.8,19.8-1.9c1.1,5.1,1.7,10.7,1.9,16.5h-21.7V82z M153.4,103.4h21.7c-0.2,6.4-1,12.4-2.3,18
			c-6.1-1.1-12.7-1.6-19.4-1.8V103.4z M153.4,126.2c6.6,0.2,12.5,0.7,17.6,1.7c-3.9,12.3-10.3,21-17.6,23.1V126.2z M150.5,151.5
			c-0.1,0-0.2,0-0.4,0c0,0-0.1,0-0.1,0c-0.1,0-0.3,0-0.4,0H150.5z M146.6,49.1v26.1c-6.7-0.2-12.7-0.8-17.9-1.7
			C132.6,60.6,139.1,51.3,146.6,49.1 M131.8,51.9c-4.1,5.1-7.5,12-9.9,20.1c-5.1-1.3-9.1-3-11.7-4.6
			C115.9,60.4,123.3,55.1,131.8,51.9 M106.3,72.9c3.6,2.4,8.4,4.3,14,5.7c-1.2,5.6-1.9,11.6-2.1,18H98.7
			C99.2,87.9,101.9,79.9,106.3,72.9 M98.7,103.4h19.5c0.2,6.9,1,13.4,2.4,19.4c-5.4,1.3-10.1,3.1-13.7,5.3
			C102.2,120.9,99.3,112.5,98.7,103.4"/>
	</g>
	<g>
		<path class="st0" d="M117.6,286.2c-0.1,5.3,3.4,9,10.2,9c7.8,0,11-5,11-9.8c0-5.8-3.9-8.9-8-9.8c-2.9-0.6-4.9-0.5-7.7-0.4v-6.5
			c5.5,0.5,14.8-0.6,14.8-9.6c0-6.2-4.2-8.7-9.8-8.7c-4.2,0-9.4,1.8-10.1,8.7H110c0.5-13.8,13.4-15.1,17.9-15.1
			c12.1,0,18.1,7.3,18.1,15c0,4.6-2.5,11.1-11,13c11.8,1.7,11.8,12.3,11.8,13.4c0,7.8-6.3,16.3-19.2,16.3c-5.8,0-11.7-1.7-15.2-5.8
			c-3.1-3.5-3.2-7.5-3.3-9.8H117.6z"/>
		<path class="st0" d="M152.5,245h36.6v6.7l-20.3,48.6h-9l21.3-48.7h-28.5V245z"/>
		<path class="st0" d="M50.5,324.1c0.1,1.5,0.2,4.3,5.2,4.3c4.5,0,5.1-2.8,5.1-3.9c0-2.4-2-2.9-5-3.7c-3.3-0.8-4.8-1.2-5.9-1.9
			c-1.8-1.2-2.2-2.8-2.2-4.3c0-4.4,4.2-6.3,8.2-6.3c1.4,0,4.3,0.2,6.1,2.1c1.2,1.3,1.3,2.8,1.3,3.7h-3.1c-0.2-2.7-2.4-3.3-4.6-3.3
			c-3,0-4.8,1.4-4.8,3.5c0,1.9,1.3,2.6,3.9,3.2c5.2,1.3,5.7,1.4,7,2.3c2,1.3,2.2,3.4,2.2,4.3c0,3.8-3,6.8-8.5,6.8
			c-1.6,0-5-0.3-6.7-2.5c-1.2-1.6-1.3-3.3-1.3-4.4H50.5z"/>
		<path class="st0" d="M69.2,323.4c-0.1,3.1,1.2,5.4,4.3,5.4c1.8,0,3.3-1,3.5-3.1h2.8c-0.1,0.8-0.2,2-1.3,3.2c-0.7,0.8-2.2,2-5.2,2
			c-4.7,0-7-2.9-7-7.7c0-3,0.6-5.4,3-7.1c1.4-1,3.2-1.1,4.1-1.1c6.8,0,6.6,6,6.5,8.4H69.2z M77.1,321.4c0-1.4-0.2-4.4-3.7-4.4
			c-1.8,0-4,1.1-4.1,4.4H77.1z"/>
		<path class="st0" d="M83.9,317.1l0-1.7h2.8l0,2.4c0.3-0.6,1.4-2.7,4.8-2.7c1.3,0,5.5,0.5,5.5,5.1v10.2h-2.9v-9.6
			c0-1-0.1-1.9-0.8-2.6c-0.7-0.7-1.7-1-2.7-1c-2,0-3.9,1.5-3.9,4.5v8.7h-2.8V317.1z"/>
		<path class="st0" d="M112.3,308.8h2.8V328c0,0.3,0.1,1.6,0.1,2.4h-2.8l-0.1-2.4c-0.2,0.4-0.6,1.1-1.4,1.6
			c-1.2,0.8-2.7,1.1-3.7,1.1c-2,0-6.5-1-6.5-7.6c0-5.7,3.3-8.2,6.8-8.2c3.2,0,4.3,1.9,4.7,2.5V308.8z M111.3,318.5
			c-0.6-0.8-1.7-1.5-3.3-1.5c-4.1,0-4.1,5-4.1,6c0,2.7,0.7,5.8,4.1,5.8c4.4,0,4.4-4.9,4.4-6.1C112.4,320.5,111.9,319.3,111.3,318.5z
			"/>
		<path class="st0" d="M136.5,320.2c-0.1-0.7-0.3-3.2-3-3.2c-3.9,0-3.9,4.5-3.9,5.7c0,3.1,0.8,6,3.8,6c2.4,0,3.2-1.8,3.3-3.3h2.8
			c-0.2,2.9-2.4,5.4-6.1,5.4c-1,0-3.4-0.2-5-1.9c-0.9-1.1-1.8-2.6-1.8-5.8c0-6.3,3.8-8.1,6.8-8.1c1,0,3.2,0.2,4.6,1.9
			c1.1,1.3,1.2,2.5,1.3,3.4H136.5z"/>
		<path class="st0" d="M149.2,315c6,0,7.4,4.7,7.4,7.9c0,4.4-2.5,8.1-7.6,8.1c-5,0-7.4-3.4-7.4-7.9C141.5,319.3,143.3,315,149.2,315
			z M149,328.8c2.1,0,4.6-1.5,4.6-6.1c0-3.8-1.7-5.7-4.4-5.7c-1.8,0-4.7,1.1-4.7,5.9C144.5,326,145.8,328.8,149,328.8z"/>
		<path class="st0" d="M163.2,315.3v9.7c0,1.5,0.3,3.3,3.2,3.3c1.4,0,2.7-0.5,3.5-1.7c0.6-0.9,0.6-2.1,0.6-2.8v-8.5h2.9v12.2
			c0,0.3,0.1,2,0.1,2.8h-2.9l-0.1-2.6c-0.5,1-1.6,2.7-4.8,2.7c-3.7,0-5.5-2.1-5.5-5.1v-10.1H163.2z"/>
		<path class="st0" d="M178.8,317.1l0-1.7h2.8l0,2.4c0.3-0.6,1.4-2.7,4.8-2.7c1.3,0,5.5,0.5,5.5,5.1v10.2H189v-9.6
			c0-1-0.1-1.9-0.8-2.6c-0.7-0.7-1.7-1-2.7-1c-2,0-3.9,1.5-3.9,4.5v8.7h-2.8V317.1z"/>
		<path class="st0" d="M194.4,315.3h2.7v-3.2l2.8-0.9v4h3.4v2.1h-3.4v9c0,0.8,0,2,2,2c0.6,0,1.1-0.1,1.3-0.2v2.2
			c-0.5,0.1-1.3,0.2-2.3,0.2c-2.6,0-3.8-0.8-3.8-3.2v-10h-2.7V315.3z"/>
		<path class="st0" d="M206.6,318.4c0-1-0.1-2.1-0.2-3.1h2.9l0.1,2.9c0.5-2.1,2.3-2.8,3.6-3c0.8-0.1,1.5-0.1,2-0.1v2.8
			c-0.2-0.1-0.3-0.1-0.5-0.1c-0.2,0-0.5,0-0.8,0c-3.3,0-4.1,2-4.1,4.6v8h-2.8V318.4z"/>
		<path class="st0" d="M217.5,308.8h3.4v3.1h-3.4V308.8z M217.8,315.3h2.8v15.1h-2.8V315.3z"/>
		<path class="st0" d="M227.5,323.4c-0.1,3.1,1.2,5.4,4.3,5.4c1.8,0,3.3-1,3.5-3.1h2.8c-0.1,0.8-0.2,2-1.3,3.2c-0.7,0.8-2.2,2-5.2,2
			c-4.7,0-7-2.9-7-7.7c0-3,0.6-5.4,3-7.1c1.4-1,3.2-1.1,4.1-1.1c6.8,0,6.6,6,6.5,8.4H227.5z M235.5,321.4c0-1.4-0.2-4.4-3.7-4.4
			c-1.8,0-4,1.1-4.1,4.4H235.5z"/>
		<path class="st0" d="M243.8,325.9c0,1.1,0.6,2.7,3.3,2.7c1.2,0,2-0.2,2.6-1c0.3-0.4,0.5-0.9,0.5-1.4c0-1.5-1-1.7-3.3-2.2
			c-3.2-0.7-5.8-1.4-5.8-4.5c0-2.8,2.4-4.6,5.9-4.6c1.9,0,4.5,0.5,5.4,2.3c0.4,0.8,0.4,1.6,0.4,2.2H250c0.1-2.3-1.9-2.5-2.9-2.5
			c-0.4,0-3.1,0-3.1,2.2c0,1.4,1.4,1.7,2.1,1.9c4.2,1,5.1,1.2,6,2.1c0.8,0.8,1.1,1.8,1.1,2.8c0,1.7-0.9,3.1-2,3.8
			c-1.3,0.8-2.9,1-4.5,1c-3.1,0-5.9-1.3-5.9-4.9H243.8z"/>
		<path class="st0" d="M77.7,340.8c-0.5,0-1.1-0.1-1.7-0.1c-2.3,0-2.3,1.1-2.3,2.2v2.4h3.5v2h-3.5v13H71v-13h-3v-2h3v-1.7
			c0-2.1,0.1-2.8,0.6-3.6c0.6-1,1.8-1.7,3.8-1.7c0.8,0,1.7,0.1,2.3,0.2V340.8z"/>
		<path class="st0" d="M86.4,345c6,0,7.4,4.7,7.4,7.9c0,4.4-2.5,8.1-7.6,8.1c-5,0-7.4-3.4-7.4-7.9C78.7,349.3,80.5,345,86.4,345z
			 M86.2,358.8c2.1,0,4.6-1.5,4.6-6.1c0-3.8-1.7-5.7-4.4-5.7c-1.8,0-4.7,1.1-4.7,5.9C81.7,356,83,358.8,86.2,358.8z"/>
		<path class="st0" d="M98,348.4c0-1-0.1-2.1-0.2-3.1h2.9l0.1,2.9c0.5-2.1,2.3-2.8,3.6-3c0.8-0.1,1.5-0.1,2-0.1v2.8
			c-0.2-0.1-0.3-0.1-0.5-0.1c-0.2,0-0.5,0-0.8,0c-3.3,0-4.1,2-4.1,4.6v8H98V348.4z"/>
		<path class="st0" d="M115.1,338.7l4.7,17.8l5.2-17.8h3.7l4.9,18l4.9-18h2.9l-6.4,21.7h-3.3l-5-18.5l-5.4,18.5H118l-6.1-21.7H115.1
			z"/>
		<path class="st0" d="M147.1,338.7v13.4c0,2.3,0.5,3.3,1,3.9c1.3,1.8,3.4,2.1,4.9,2.1c5.8,0,5.8-4.6,5.8-6.2v-13.3h2.9v13.3
			c0,1.2,0,3.6-1.8,5.8c-2.1,2.7-5.4,3-7,3c-2,0-5.6-0.6-7.6-3.5c-0.7-1-1.3-2.2-1.3-5.5v-13.2H147.1z"/>
		<path class="st0" d="M166.1,356.8h3.3v3.6h-3.3V356.8z"/>
		<path class="st0" d="M182.9,350.2c-0.1-0.7-0.3-3.2-3-3.2c-3.9,0-3.9,4.5-3.9,5.7c0,3.1,0.8,6,3.8,6c2.4,0,3.2-1.8,3.3-3.3h2.8
			c-0.2,2.9-2.4,5.4-6.1,5.4c-1,0-3.4-0.2-5-1.9c-0.9-1.1-1.8-2.6-1.8-5.8c0-6.3,3.8-8.1,6.8-8.1c1,0,3.2,0.2,4.6,1.9
			c1.1,1.3,1.2,2.5,1.3,3.4H182.9z"/>
		<path class="st0" d="M195.6,345c6,0,7.4,4.7,7.4,7.9c0,4.4-2.5,8.1-7.6,8.1c-5,0-7.4-3.4-7.4-7.9C187.9,349.3,189.7,345,195.6,345
			z M195.4,358.8c2.1,0,4.6-1.5,4.6-6.1c0-3.8-1.7-5.7-4.4-5.7c-1.8,0-4.7,1.1-4.7,5.9C190.9,356,192.2,358.8,195.4,358.8z"/>
		<path class="st0" d="M207,347.4l-0.1-2h2.8v2.2c1.4-2.4,3.5-2.6,4.8-2.6c3.3,0,4.4,1.7,4.9,2.8c0.5-0.8,1.7-2.8,5.1-2.8
			c2.2,0,5.5,0.9,5.5,5.3v10.1h-2.8v-9.7c0-1.3-0.2-1.9-0.5-2.3c-0.5-0.7-1.4-1.3-2.9-1.3c-1.8,0-2.8,1-3.2,1.6
			c-0.7,0.9-0.7,2.6-0.7,3.2v8.4h-2.8v-10c0-1.9-1.1-3.3-3.3-3.3c-1.9,0-3,1.2-3.3,1.7c-0.6,0.9-0.7,2.1-0.7,3.1v8.5H207V347.4z"/>
	</g>
	<rect x="25" y="220" class="st0" width="250" height="4"/>
</g>
<g id="Currency">
</g>
<g id="App">
</g>
<g id="Bank">
</g>
<g id="WU_Flow">
</g>
<g id="ATM">
</g>
<g id="Transactions">
</g>
<g id="Location">
</g>
<g id="Globe">
</g>
<g id="Person">
</g>
<g id="Money">
</g>
<g id="Guides">
</g>
</svg>
