<?xml version="1.0" encoding="utf-8"?>
<!-- Generator: Adobe Illustrator 22.0.1, SVG Export Plug-In . SVG Version: 6.00 Build 0)  -->
<svg version="1.1" xmlns="http://www.w3.org/2000/svg" xmlns:xlink="http://www.w3.org/1999/xlink" x="0px" y="0px"
	 viewBox="0 0 300 336.8" style="enable-background:new 0 0 300 336.8;" xml:space="preserve">
<style type="text/css">
	.st0{fill:#FFFFFF;}
</style>
<g id="Send">
</g>
<g id="Currency">
</g>
<g id="App">
</g>
<g id="Bank">
</g>
<g id="WU_Flow">
</g>
<g id="ATM">
</g>
<g id="Transactions">
</g>
<g id="Location">
</g>
<g id="Globe">
</g>
<g id="Person">
</g>
<g id="Money">
	<g>
		<path class="st0" d="M149.9,200.1c55.2,0,100.1-44.9,100.1-100.1c0-2.7-0.2-5.4-0.4-8C245.5,40.6,202.4,0,149.9,0
			C97.5,0,54.4,40.6,50.3,92.1c-0.2,2.6-0.4,5.3-0.4,8C49.9,155.3,94.8,200.1,149.9,200.1 M57.1,92.1c4.1-47.7,44.1-85.3,92.8-85.3
			c48.7,0,88.8,37.6,92.9,85.3c0.2,2.6,0.4,5.3,0.4,8c0,51.4-41.8,93.2-93.3,93.2c-51.4,0-93.2-41.8-93.2-93.2
			C56.7,97.4,56.9,94.7,57.1,92.1"/>
		<path class="st0" d="M123.6,139.3c8.8,0,18.1-1.7,26.3-3.3c3.1-0.6,6.1-1.1,8.9-1.6c2.6-0.4,5.3-0.6,8-0.6
			c18.3,0,33.1,9.1,33.3,9.2c0.6,0.3,1.2,0.5,1.8,0.5c0.6,0,1.1-0.1,1.7-0.4c1.1-0.6,1.8-1.7,1.8-3V92.1v-15c0-1.2-0.6-2.3-1.6-2.9
			c-0.7-0.4-16.6-10.3-36.9-10.3c-3.1,0-6.1,0.2-9,0.7c-2.5,0.4-5.2,0.9-7.9,1.3c-7.9,1.4-16.1,2.9-24.2,2.9
			c-10.8,0-18.9-2.6-25.4-8.2c-1-0.9-2.4-1.1-3.6-0.5c-1.2,0.6-2,1.8-2,3.1v28.9v34.2c0,0.8,0.3,1.6,0.9,2.2
			C101.8,135.8,111,139.3,123.6,139.3 M101.4,92.1V69.8c6.7,3.9,14.7,5.9,24.3,5.9c8.7,0,17.6-1.6,25.4-3c2.6-0.5,5.2-0.9,7.7-1.3
			c2.6-0.4,5.3-0.6,8-0.6c14.8,0,27.4,6,31.7,8.3v13v42.5c-6.4-3-18.1-7.5-31.7-7.5c-3.1,0-6.1,0.2-9,0.7c-2.9,0.4-5.9,1-9.1,1.6
			c-7.9,1.5-16.8,3.1-25,3.1c-9.9,0-17.2-2.5-22.2-7.6V92.1z"/>
		<path class="st0" d="M128.6,105.1c1.9-0.3,3.1-2,2.8-3.9c-0.3-1.9-2-3.1-3.9-2.8c-4,0.6-8.3,0.1-13-1.6c-1.8-0.7-3.7,0.3-4.4,2
			c-0.7,1.8,0.3,3.7,2,4.4c4.2,1.5,8.2,2.3,12.1,2.3C125.7,105.5,127.2,105.4,128.6,105.1"/>
		<path class="st0" d="M172.1,105.7c4.9-1,9.2-0.9,13.1,0.3c0.3,0.1,0.7,0.2,1,0.2c1.4,0,2.8-0.9,3.3-2.4c0.6-1.8-0.4-3.7-2.2-4.3
			c-4.9-1.6-10.5-1.7-16.5-0.5c-1.8,0.4-3,2.2-2.7,4C168.4,104.8,170.2,106,172.1,105.7"/>
		<path class="st0" d="M149.9,116.6c6.4,0,11.6-6.7,11.6-14.9c0-3.7-1.1-7-2.8-9.6c-2.1-3.2-5.2-5.3-8.8-5.3c-3.5,0-6.6,2.1-8.8,5.3
			c-1.7,2.6-2.8,5.9-2.8,9.6C138.4,109.9,143.6,116.6,149.9,116.6"/>
	</g>
	<rect x="25" y="220" class="st0" width="250" height="4"/>
	<g>
		<path class="st0" d="M71.5,244v6.5c3.6,0.1,17,0.6,17.3,13.1h-8.4c-0.2-5.1-4.2-6.5-9-6.6v16.7c8.2,2.2,18.2,5.3,18.2,16.5
			c0,7.8-5.1,11.8-7.2,13.2c-3.7,2.4-8.3,2.8-11.1,3v7.9h-4.1v-7.9c-3.5-0.1-8.5-0.2-13.3-4.5c-4.2-3.8-4.5-7.7-4.5-11.1h8.2
			c-0.2,3.5,1.9,8.6,9.6,8.8v-18.7c-13.1-3.9-16.7-7.3-16.7-15.8c0-6.6,4-10.2,6.8-12c3.7-2.2,8-2.4,10.2-2.5V244H71.5z M67.4,257
			c-8.6,0.9-9,6.1-9,7.5c0,5.4,5,6.9,9,8V257z M71.5,299.6c7-0.1,9.8-4.6,9.8-8.5c0-6-5.8-7.9-9.8-9.2V299.6z"/>
		<path class="st0" d="M103.7,292.9c0.2,5.6,5,7.8,9.2,7.8c9.7,0,11-9.1,11-12.7c0-7.5-4.1-11.9-10.5-11.9c-3.2,0-5.8,1.2-7.4,2.9
			c-1.7,1.7-2.2,3.4-2.6,4.6h-7.3l1.4-33h31.1v6.5h-24.2l-1,17.9c1.7-1.7,5.2-5.1,11.7-5.1c11.1,0,16.6,8.7,16.6,18.2
			c0,10.9-7.7,19.1-19.8,19.1c-9,0-16.1-5-16.5-14.4H103.7z"/>
		<path class="st0" d="M141.1,296.4h8.9v9.6h-8.9V296.4z"/>
		<path class="st0" d="M183.2,294h-25v-9.5l24-34.6h8.6v37.6h8.1v6.5h-8.1v12h-7.7V294z M183.5,287.5v-29.2l-19.1,29.2H183.5z"/>
		<path class="st0" d="M207.3,248.2h20.6c7,0,11,0.7,14.6,4.2c2.5,2.4,4.1,5.8,4.1,10.3c0,9.5-7,12-9.8,13c3.4,1,11.5,3.4,11.5,14.4
			c0,7.8-5,11.8-7,13.1c-4,2.6-8.5,2.6-13,2.6h-21V248.2z M215.1,272.6h11.2c2.7,0,12,0,12-9.1c0-8.7-7.3-8.7-11.7-8.7h-11.5V272.6z
			 M215.1,299.5h13.7c6.3,0,11.4-3.4,11.4-10c0-5.8-4-10-11-10h-14V299.5z"/>
		<path class="st0" d="M79.1,314.3h3V336h-3V314.3z"/>
		<path class="st0" d="M87.2,322.7l0-1.7H90l0,2.4c0.3-0.6,1.4-2.7,4.8-2.7c1.3,0,5.5,0.5,5.5,5.1V336h-2.9v-9.6
			c0-1-0.1-1.9-0.8-2.6c-0.7-0.7-1.7-1-2.7-1c-2,0-3.9,1.5-3.9,4.5v8.7h-2.8V322.7z"/>
		<path class="st0" d="M113.4,324c0-1-0.1-2.1-0.2-3.1h2.9l0.1,2.9c0.5-2.1,2.3-2.8,3.6-3c0.8-0.1,1.5-0.1,2-0.1v2.8
			c-0.2-0.1-0.3-0.1-0.5-0.1c-0.2,0-0.5,0-0.8,0c-3.3,0-4.1,2-4.1,4.6v8h-2.8V324z"/>
		<path class="st0" d="M126.3,329c-0.1,3.1,1.2,5.4,4.3,5.4c1.8,0,3.3-1,3.5-3.1h2.8c-0.1,0.8-0.2,2-1.3,3.2c-0.7,0.8-2.2,2-5.2,2
			c-4.7,0-7-2.9-7-7.7c0-3,0.6-5.4,3-7.1c1.4-1,3.2-1.1,4.1-1.1c6.8,0,6.6,6,6.5,8.4H126.3z M134.2,327c0-1.4-0.2-4.4-3.7-4.4
			c-1.8,0-4,1.1-4.1,4.4H134.2z"/>
		<path class="st0" d="M138.7,320.9h3.1l4.8,11.9l4.7-11.9h3.1l-6.6,15.1H145L138.7,320.9z"/>
		<path class="st0" d="M159,329c-0.1,3.1,1.2,5.4,4.3,5.4c1.8,0,3.3-1,3.5-3.1h2.8c-0.1,0.8-0.2,2-1.3,3.2c-0.7,0.8-2.2,2-5.2,2
			c-4.7,0-7-2.9-7-7.7c0-3,0.6-5.4,3-7.1c1.4-1,3.2-1.1,4.1-1.1c6.8,0,6.6,6,6.5,8.4H159z M167,327c0-1.4-0.2-4.4-3.7-4.4
			c-1.8,0-4,1.1-4.1,4.4H167z"/>
		<path class="st0" d="M173.8,322.7l0-1.7h2.8l0,2.4c0.3-0.6,1.4-2.7,4.8-2.7c1.3,0,5.5,0.5,5.5,5.1V336H184v-9.6
			c0-1-0.1-1.9-0.8-2.6c-0.7-0.7-1.7-1-2.7-1c-2,0-3.9,1.5-3.9,4.5v8.7h-2.8V322.7z"/>
		<path class="st0" d="M194.3,320.9v9.7c0,1.5,0.3,3.3,3.2,3.3c1.4,0,2.7-0.5,3.5-1.7c0.6-0.9,0.6-2.1,0.6-2.8v-8.5h2.9v12.2
			c0,0.3,0.1,2,0.1,2.8h-2.9l-0.1-2.6c-0.5,1-1.6,2.7-4.8,2.7c-3.7,0-5.5-2.1-5.5-5.1v-10.1H194.3z"/>
		<path class="st0" d="M211.5,329c-0.1,3.1,1.2,5.4,4.3,5.4c1.8,0,3.3-1,3.5-3.1h2.8c-0.1,0.8-0.2,2-1.3,3.2c-0.7,0.8-2.2,2-5.2,2
			c-4.7,0-7-2.9-7-7.7c0-3,0.6-5.4,3-7.1c1.4-1,3.2-1.1,4.1-1.1c6.8,0,6.6,6,6.5,8.4H211.5z M219.4,327c0-1.4-0.2-4.4-3.7-4.4
			c-1.8,0-4,1.1-4.1,4.4H219.4z"/>
	</g>
</g>
<g id="Guides">
</g>
</svg>
