<?xml version="1.0" encoding="utf-8"?>
<!-- Generator: Adobe Illustrator 22.0.1, SVG Export Plug-In . SVG Version: 6.00 Build 0)  -->
<svg version="1.1" xmlns="http://www.w3.org/2000/svg" xmlns:xlink="http://www.w3.org/1999/xlink" x="0px" y="0px"
	 viewBox="0 0 300 330.9" style="enable-background:new 0 0 300 330.9;" xml:space="preserve">
<style type="text/css">
	.st0{fill:#FFFFFF;}
</style>
<g id="Send">
</g>
<g id="Currency">
	<g>
		<path class="st0" d="M124.6,38.7c0.6,0,1.2-0.2,1.7-0.5c14.8-8.9,30.1-7.1,37.1-5.6l-9.7,7.1c-1.5,1.1-1.8,3.3-0.7,4.8
			c0.7,0.9,1.7,1.4,2.8,1.4c0.7,0,1.4-0.2,2-0.7l15.9-11.7c1.5-1.1,1.8-3.2,0.8-4.7L164,13.9c-1.1-1.5-3.2-1.9-4.7-0.8
			c-1.5,1.1-1.9,3.2-0.8,4.7l5.5,7.9c-8.5-1.8-24.9-3.2-41.2,6.6c-1.6,1-2.1,3.1-1.2,4.7C122.3,38.1,123.4,38.7,124.6,38.7"/>
		<path class="st0" d="M171.5,159.1c-15.7,6.7-29.6,3.2-36,0.8l10.6-5.7c1.6-0.9,2.3-3,1.4-4.6c-0.9-1.6-2.9-2.3-4.6-1.4l-17.3,9.4
			c-1.6,0.9-2.3,2.9-1.4,4.6l8.3,16.2c0.6,1.2,1.8,1.9,3,1.9c0.5,0,1.1-0.1,1.6-0.4c1.7-0.9,2.3-2.9,1.5-4.6l-4.4-8.5
			c4.3,1.5,10.7,3.2,18.4,3.2c6.5,0,13.8-1.1,21.6-4.5c1.7-0.7,2.5-2.7,1.8-4.5C175.2,159.2,173.2,158.4,171.5,159.1"/>
		<path class="st0" d="M150.3,200c55.1,0,100-44.9,100-100c0-2.7-0.2-5.4-0.4-8c-4.1-51.4-47.1-92-99.6-92C97.8,0,54.8,40.6,50.7,92
			c-0.2,2.6-0.4,5.3-0.4,8C50.3,155.1,95.1,200,150.3,200 M57.5,92c4.1-47.7,44.1-85.2,92.8-85.2C199,6.8,239,44.4,243.1,92
			c0.2,2.6,0.4,5.3,0.4,8c0,51.4-41.8,93.2-93.2,93.2c-51.4,0-93.2-41.8-93.2-93.2C57.1,97.3,57.3,94.7,57.5,92"/>
		<path class="st0" d="M98.2,114.8h4.1c1.2,4.8,4.4,8.2,10.1,8.2c2.4,0,4.6-0.5,6.3-1.6c1.7-1.1,2.9-2.8,3.4-5h-6.9
			c-0.2,0.8-0.7,1.8-2.8,1.8c-1.9,0-2.9-1.5-3.3-3.4h4.5l1.6-3.9h-6.4v-0.9v-1h7.2l1.6-3.9h-8.4c0.3-2,1.3-3.7,3.3-3.7
			c0.9,0,1.5,0.1,1.9,0.5c0.4,0.3,0.7,0.8,0.8,1.5h6.8c-0.8-4.5-4-6.8-9.5-6.8c-5.8,0-9,3.6-10.2,8.5H100l-1.5,3.9h3.4
			c0,0.3,0,0.7,0,1c0,0.4,0,0.6,0,0.9h-2L98.2,114.8z"/>
		<path class="st0" d="M112.5,139.5c16.2,0,29.3-12.9,29.9-28.9c2.8,0.9,5.7,1.5,8.8,1.5c3.2,0,6.2-0.6,9-1.5
			c1,15.6,13.9,28.1,29.8,28.1c16.5,0,30-13.4,30-30c0-6.1-1.9-11.8-5-16.6c-5.4-8.1-14.5-13.4-24.9-13.4c-3.2,0-6.1,0.6-9,1.5
			c-1-15.6-13.9-28.1-29.8-28.1C135,52.1,121.8,65,121.3,81c-2.8-0.9-5.7-1.5-8.8-1.5c-10,0-18.8,5-24.2,12.5
			c-3.6,4.9-5.7,10.9-5.7,17.5C82.5,126,96,139.5,112.5,139.5 M180.5,87.5c2.9-1.3,6-2,9.4-2c6.3,0,11.9,2.5,16.1,6.6
			c4.3,4.2,7.1,10.1,7.1,16.6c0,12.8-10.4,23.1-23.1,23.1c-12.8,0-23.1-10.4-23.1-23.1c0-0.4,0.1-0.8,0.1-1.2
			c5.7-3.6,10.1-9,12.4-15.4C179.8,90.5,180.2,89,180.5,87.5 M151.1,58.9c12.8,0,23.2,10.4,23.2,23.1c0,0.4-0.1,0.8-0.1,1.2
			c-0.1,1.6-0.3,3.2-0.7,4.7c-0.4,1.4-0.9,2.8-1.5,4.1c-1.7,3.5-4.2,6.5-7.2,8.7c-1.3,1-2.7,1.8-4.2,2.5c-2.9,1.3-6,2-9.4,2
			c-3.3,0-6.5-0.8-9.4-2c-5-2.2-9.1-6.2-11.4-11.2c-1.2-2.4-1.9-5.1-2.1-7.9c-0.1-0.7-0.2-1.3-0.2-2C128,69.3,138.4,58.9,151.1,58.9
			 M97.5,92c4.1-3.5,9.3-5.7,15-5.7c3.3,0,6.5,0.7,9.4,2c0.3,1.3,0.7,2.5,1.1,3.7c2.3,6.5,6.7,11.9,12.4,15.4c0.1,0.7,0.2,1.3,0.2,2
			c0,12.8-10.4,23.1-23.1,23.1c-12.8,0-23.2-10.4-23.2-23.1C89.3,102.5,92.5,96.3,97.5,92"/>
		<path class="st0" d="M182.3,116.5h-2.7v4.3h21v-4.3h-11.5v-8h5.3v-4.1h-5.3c0-3.2,0-6.4,3.1-6.4c2.9,0,2.9,2.6,2.9,3.9h6.7
			c0-2.3-0.1-8.1-9.5-8.1c-10,0-10,6.8-10,10.6h-3.5v4.1h3.5V116.5z"/>
		<path class="st0" d="M147.1,85.4h-6.5c0,3.5,1.6,5.5,3.6,6.6c1.8,1,3.9,1.3,5.6,1.4v3.2h2.1v-3.2c2.2-0.1,3.9-0.5,5.3-1.1
			c0.2-0.1,0.3-0.2,0.4-0.3c3.3-1.8,3.8-4.7,3.8-6.2c0-1.9-0.7-3.6-2.1-4.8c-1.7-1.4-3.6-1.8-7.4-2.7v-5.2c0.5,0.1,2,0.5,2,3.1h6.6
			c0-3.9-1.4-7.1-8.6-7.5v-3.3h-2.1v3.3c-6.4,0.2-8.8,3.9-8.8,7.3c0,4.9,4,6,6.5,6.7l2.3,0.6V89C147.3,88.3,147.1,86.5,147.1,85.4
			 M151.9,83.9l0.6,0.2c0.5,0.1,2.1,0.5,2.1,2.3c0,1.2-0.8,2.4-2.7,2.6V83.9z M147.7,75.4c0-0.5,0.1-1.8,2.1-2.3v4.7
			C148.5,77.5,147.7,76.5,147.7,75.4"/>
	</g>
	<g>
		<path class="st0" d="M106.5,253.8c-3.4,2.9-9,6.2-12.9,8v-8c5.2-2.7,10.3-6.1,13.4-8.7h7.1v55.4h-7.7V253.8z"/>
		<path class="st0" d="M138.8,286.2c-0.1,5.3,3.4,9,10.2,9c7.8,0,11-5,11-9.8c0-5.8-3.9-8.9-8-9.8c-2.9-0.6-4.9-0.5-7.7-0.4v-6.5
			c5.5,0.5,14.8-0.6,14.8-9.6c0-6.2-4.2-8.7-9.8-8.7c-4.2,0-9.4,1.8-10.1,8.7h-8.1c0.5-13.8,13.4-15.1,17.9-15.1
			c12.1,0,18.1,7.3,18.1,15c0,4.6-2.5,11.1-11,13c11.8,1.7,11.8,12.3,11.8,13.4c0,7.8-6.3,16.3-19.2,16.3c-5.8,0-11.7-1.7-15.2-5.8
			c-3.1-3.5-3.2-7.5-3.3-9.8H138.8z"/>
		<path class="st0" d="M193.1,244c16.6,0,18.6,17.8,18.6,28.2c0,13.1-2.6,20.5-7.7,25.2c-3.9,3.7-8.6,4.2-11,4.2
			c-7.4,0-12.4-4.3-14.8-9.2c-1.8-3.7-3.6-9-3.6-19C174.5,265.2,175.5,244,193.1,244z M193,295c9.3,0,10.9-12.2,10.9-22.1
			c0-13.3-2.3-22.5-10.7-22.5c-9.7,0-11,12.7-11,22.6C182.2,285.4,184.6,295,193,295z"/>
		<path class="st0" d="M91.7,314.7c-0.1-0.8-0.5-3.8-4.7-3.8c-5.2,0-6.2,5.3-6.2,8.9c0,4.1,1.2,8.5,6.1,8.5c1.3,0,2.6-0.3,3.5-1.3
			c0.8-0.8,1-1.8,1-2.3h3.3c-0.4,4.3-4.4,6-8.1,6c-7.6,0-9.1-6.7-9.1-10.9c0-4.6,1.8-11.4,9.5-11.4c3.1,0,7.4,1.2,7.8,6.1H91.7z"/>
		<path class="st0" d="M100.9,315.4v9.7c0,1.5,0.3,3.3,3.2,3.3c1.4,0,2.7-0.5,3.5-1.7c0.6-0.9,0.6-2.1,0.6-2.8v-8.5h2.9v12.2
			c0,0.3,0.1,2,0.1,2.8h-2.9l-0.1-2.6c-0.5,1-1.6,2.7-4.8,2.7c-3.7,0-5.5-2.1-5.5-5.1v-10.1H100.9z"/>
		<path class="st0" d="M116.5,318.5c0-1-0.1-2.1-0.2-3.1h2.9l0.1,2.9c0.5-2.1,2.3-2.8,3.6-3c0.8-0.1,1.5-0.1,2-0.1v2.8
			c-0.2-0.1-0.3-0.1-0.5-0.1c-0.2,0-0.5,0-0.8,0c-3.3,0-4.1,2-4.1,4.6v8h-2.8V318.5z"/>
		<path class="st0" d="M127.2,318.5c0-1-0.1-2.1-0.2-3.1h2.9l0.1,2.9c0.5-2.1,2.3-2.8,3.6-3c0.8-0.1,1.5-0.1,2-0.1v2.8
			c-0.2-0.1-0.3-0.1-0.5-0.1c-0.2,0-0.5,0-0.8,0c-3.3,0-4.1,2-4.1,4.6v8h-2.8V318.5z"/>
		<path class="st0" d="M140.1,323.5c-0.1,3.1,1.2,5.4,4.3,5.4c1.8,0,3.3-1,3.5-3.1h2.8c-0.1,0.8-0.2,2-1.3,3.2c-0.7,0.8-2.2,2-5.2,2
			c-4.7,0-7-2.9-7-7.7c0-3,0.6-5.4,3-7.1c1.4-1,3.2-1.1,4.1-1.1c6.8,0,6.6,6,6.5,8.4H140.1z M148,321.5c0-1.4-0.2-4.4-3.7-4.4
			c-1.8,0-4,1.1-4.1,4.4H148z"/>
		<path class="st0" d="M154.8,317.2l0-1.7h2.8l0,2.4c0.3-0.6,1.4-2.7,4.8-2.7c1.3,0,5.5,0.5,5.5,5.1v10.2h-2.9v-9.6
			c0-1-0.1-1.9-0.8-2.6c-0.7-0.7-1.7-1-2.7-1c-2,0-3.9,1.5-3.9,4.5v8.7h-2.8V317.2z"/>
		<path class="st0" d="M181.4,320.3c-0.1-0.7-0.3-3.2-3-3.2c-3.9,0-3.9,4.5-3.9,5.7c0,3.1,0.8,6,3.8,6c2.4,0,3.2-1.8,3.3-3.3h2.8
			c-0.2,2.9-2.4,5.4-6.1,5.4c-1,0-3.4-0.2-5-1.9c-0.9-1.1-1.8-2.6-1.8-5.8c0-6.3,3.8-8.1,6.8-8.1c1,0,3.2,0.2,4.6,1.9
			c1.1,1.3,1.2,2.5,1.3,3.4H181.4z"/>
		<path class="st0" d="M187.2,308.9h3.4v3.1h-3.4V308.9z M187.5,315.4h2.8v15.1h-2.8V315.4z"/>
		<path class="st0" d="M197.2,323.5c-0.1,3.1,1.2,5.4,4.3,5.4c1.8,0,3.3-1,3.5-3.1h2.8c-0.1,0.8-0.2,2-1.3,3.2c-0.7,0.8-2.2,2-5.2,2
			c-4.7,0-7-2.9-7-7.7c0-3,0.6-5.4,3-7.1c1.4-1,3.2-1.1,4.1-1.1c6.8,0,6.6,6,6.5,8.4H197.2z M205.2,321.5c0-1.4-0.2-4.4-3.7-4.4
			c-1.8,0-4,1.1-4.1,4.4H205.2z"/>
		<path class="st0" d="M213.5,326c0,1.1,0.6,2.7,3.3,2.7c1.2,0,2-0.2,2.6-1c0.3-0.4,0.5-0.9,0.5-1.4c0-1.5-1-1.7-3.3-2.2
			c-3.2-0.7-5.8-1.4-5.8-4.5c0-2.8,2.4-4.6,5.9-4.6c1.9,0,4.5,0.5,5.4,2.3c0.4,0.8,0.4,1.6,0.4,2.2h-2.9c0.1-2.3-1.9-2.5-2.9-2.5
			c-0.4,0-3.1,0-3.1,2.2c0,1.4,1.4,1.7,2.1,1.9c4.2,1,5.1,1.2,6,2.1c0.8,0.8,1.1,1.8,1.1,2.8c0,1.7-0.9,3.1-2,3.8
			c-1.3,0.8-2.9,1-4.5,1c-3.1,0-5.9-1.3-5.9-4.9H213.5z"/>
	</g>
	<rect x="25" y="220" class="st0" width="250" height="4"/>
</g>
<g id="App">
</g>
<g id="Bank">
</g>
<g id="WU_Flow">
</g>
<g id="ATM">
</g>
<g id="Transactions">
</g>
<g id="Location">
</g>
<g id="Globe">
</g>
<g id="Person">
</g>
<g id="Money">
</g>
<g id="Guides">
</g>
</svg>
