<?xml version="1.0" encoding="utf-8"?>
<!-- Generator: Adobe Illustrator 22.0.1, SVG Export Plug-In . SVG Version: 6.00 Build 0)  -->
<svg version="1.1" xmlns="http://www.w3.org/2000/svg" xmlns:xlink="http://www.w3.org/1999/xlink" x="0px" y="0px"
	 viewBox="0 0 300 378.2" style="enable-background:new 0 0 300 378.2;" xml:space="preserve">
<style type="text/css">
	.st0{fill:#FFFFFF;}
</style>
<g id="Send">
</g>
<g id="Currency">
</g>
<g id="App">
	<g>
		<path class="st0" d="M150,199.5c55,0,99.7-44.8,99.7-99.8C249.8,44.8,205,0,150,0C95,0,50.3,44.8,50.3,99.8
			C50.3,154.7,95,199.5,150,199.5 M150,6.8c51.3,0,92.9,41.7,92.9,93c0,51.3-41.7,92.9-92.9,92.9c-51.3,0-93-41.7-93-92.9
			C57.1,48.5,98.8,6.8,150,6.8"/>
		<path class="st0" d="M119.1,169.8h61.5c3.6,0,6.5-2.9,6.5-6.5V35.6c0-3.6-2.9-6.5-6.5-6.5h-61.5c-3.6,0-6.4,2.9-6.4,6.5v127.7
			C112.7,166.9,115.6,169.8,119.1,169.8 M180.3,163l-60.8,0.3l-0.1-23.3h60.8V163z M180.3,133.2h-60.9l-0.2-71.5h61.1V133.2z
			 M180.3,35.6v19.2h-61.1L119.1,36L180.3,35.6z"/>
		<path class="st0" d="M149.9,156.6c2.6,0,4.7-2.1,4.7-4.7c0-2.6-2.1-4.7-4.7-4.7c-2.6,0-4.7,2.1-4.7,4.7
			C145.2,154.5,147.3,156.6,149.9,156.6"/>
		<path class="st0" d="M132.6,108.1h5.4c0.3,0,0.6-0.2,0.6-0.5l2.3-9.3l2.2,9.3c0.1,0.3,0.3,0.5,0.6,0.5h5.4c0.3,0,0.6-0.2,0.7-0.6
			l2.8-16.2c0-0.2,0-0.4-0.1-0.6c-0.1-0.1-0.3-0.2-0.5-0.2h-4.1c-0.3,0-0.6,0.3-0.7,0.6l-1,7.7l-1.6-7.7c-0.1-0.3-0.3-0.6-0.7-0.6
			h-5.5c-0.3,0-0.6,0.2-0.6,0.5l-1.8,8l-1-8c-0.1-0.3-0.3-0.6-0.7-0.6h-4.5c-0.2,0-0.4,0.1-0.5,0.2c-0.1,0.2-0.2,0.4-0.1,0.6
			l2.7,16.2C132,107.8,132.3,108.1,132.6,108.1"/>
		<path class="st0" d="M162.1,108.5c2.3,0,5.3-0.5,7-2.6c0.9-1.1,1.4-2.9,1.4-5.4v-9.4c0-0.4-0.3-0.7-0.7-0.7h-4.4
			c-0.4,0-0.7,0.3-0.7,0.7v9.5c0,2.9-1.4,3.2-2.5,3.2c-1,0-1.8-0.4-2.2-1c-0.3-0.5-0.4-1.3-0.4-2.1v-9.6c0-0.4-0.3-0.7-0.7-0.7h-4.5
			c-0.4,0-0.7,0.3-0.7,0.7l0,9.2C153.8,103,153.8,108.5,162.1,108.5"/>
		<path class="st0" d="M143.4,48.9h13c1.9,0,3.4-1.5,3.4-3.4c0-1.9-1.5-3.4-3.4-3.4h-13c-1.9,0-3.4,1.5-3.4,3.4
			C140,47.4,141.5,48.9,143.4,48.9"/>
	</g>
	<g>
		<g>
			<path class="st0" d="M40.8,244l4.7,17.8l5.2-17.8h3.7l4.9,18l4.9-18h2.9l-6.4,21.7h-3.3l-5-18.5l-5.4,18.5h-3.2L37.5,244H40.8z"
				/>
			<path class="st0" d="M72.8,244v13.4c0,2.3,0.5,3.3,1,3.9c1.3,1.8,3.4,2.1,4.9,2.1c5.8,0,5.8-4.6,5.8-6.2V244h2.9v13.3
				c0,1.2,0,3.6-1.8,5.8c-2.1,2.7-5.4,3-7,3c-2,0-5.6-0.6-7.6-3.5c-0.7-1-1.3-2.2-1.3-5.5V244H72.8z"/>
			<path class="st0" d="M91.7,262.1h3.3v3.6h-3.3V262.1z"/>
			<path class="st0" d="M108.6,255.4c-0.1-0.7-0.3-3.2-3-3.2c-3.9,0-3.9,4.5-3.9,5.7c0,3.1,0.8,6,3.8,6c2.4,0,3.2-1.8,3.3-3.3h2.8
				c-0.2,2.9-2.4,5.4-6.1,5.4c-1,0-3.4-0.2-5-1.9c-0.9-1.1-1.8-2.6-1.8-5.8c0-6.3,3.8-8.1,6.8-8.1c1,0,3.2,0.2,4.6,1.9
				c1.1,1.3,1.2,2.5,1.3,3.4H108.6z"/>
			<path class="st0" d="M121.2,250.2c6,0,7.4,4.7,7.4,7.9c0,4.4-2.5,8.1-7.6,8.1c-5,0-7.4-3.4-7.4-7.9
				C113.6,254.6,115.3,250.2,121.2,250.2z M121,264.1c2.1,0,4.6-1.5,4.6-6.1c0-3.8-1.7-5.7-4.4-5.7c-1.8,0-4.7,1.1-4.7,5.9
				C116.5,261.2,117.8,264.1,121,264.1z"/>
			<path class="st0" d="M132.7,252.6l-0.1-2h2.8v2.2c1.4-2.4,3.5-2.6,4.8-2.6c3.3,0,4.4,1.7,4.9,2.8c0.5-0.8,1.7-2.8,5.1-2.8
				c2.2,0,5.5,0.9,5.5,5.3v10.1h-2.8V256c0-1.3-0.2-1.9-0.5-2.3c-0.5-0.7-1.4-1.3-2.9-1.3c-1.8,0-2.8,1-3.2,1.6
				c-0.7,0.9-0.7,2.6-0.7,3.2v8.4h-2.8v-10c0-1.9-1.1-3.3-3.3-3.3c-1.9,0-3,1.2-3.3,1.7c-0.6,0.9-0.7,2.1-0.7,3.1v8.5h-2.8V252.6z"
				/>
			<path class="st0" d="M168.7,252.6l-0.1-2h2.8v2.2c1.4-2.4,3.5-2.6,4.8-2.6c3.3,0,4.4,1.7,4.9,2.8c0.5-0.8,1.7-2.8,5.1-2.8
				c2.2,0,5.5,0.9,5.5,5.3v10.1H189V256c0-1.3-0.2-1.9-0.5-2.3c-0.5-0.7-1.4-1.3-2.9-1.3c-1.8,0-2.8,1-3.2,1.6
				c-0.7,0.9-0.7,2.6-0.7,3.2v8.4h-2.8v-10c0-1.9-1.1-3.3-3.3-3.3c-1.9,0-3,1.2-3.3,1.7c-0.6,0.9-0.7,2.1-0.7,3.1v8.5h-2.8V252.6z"
				/>
			<path class="st0" d="M203.3,250.2c6,0,7.4,4.7,7.4,7.9c0,4.4-2.5,8.1-7.6,8.1c-5,0-7.4-3.4-7.4-7.9
				C195.7,254.6,197.4,250.2,203.3,250.2z M203.1,264.1c2.1,0,4.6-1.5,4.6-6.1c0-3.8-1.7-5.7-4.4-5.7c-1.8,0-4.7,1.1-4.7,5.9
				C198.6,261.2,199.9,264.1,203.1,264.1z"/>
			<path class="st0" d="M217.6,252.8c0.4-0.7,1.5-2.6,4.9-2.6c1.5,0,3.4,0.4,4.8,1.9c0.8,0.9,1.8,2.4,1.8,5.7c0,2.9-0.7,4.5-1.4,5.5
				c-1.2,1.7-3.2,2.6-5.3,2.6c-0.7,0-2.1-0.1-3.4-1c-0.8-0.6-1.2-1.1-1.5-1.5l-0.1,2.3h-2.7l0.1-2.7v-19h2.8V252.8z M221.9,252.1
				c-4.3,0-4.3,5-4.3,6c0,1,0,5.7,4.2,5.7c3.5,0,4.3-3.4,4.3-5.8C226.1,256.5,225.8,252.1,221.9,252.1z"/>
			<path class="st0" d="M232.6,244.1h3.4v3.1h-3.4V244.1z M232.9,250.6h2.8v15.1h-2.8V250.6z"/>
			<path class="st0" d="M240.9,244h2.8v21.6h-2.8V244z"/>
			<path class="st0" d="M250.6,258.6c-0.1,3.1,1.2,5.4,4.3,5.4c1.8,0,3.3-1,3.5-3.1h2.8c-0.1,0.8-0.2,2-1.3,3.2
				c-0.7,0.8-2.2,2-5.2,2c-4.7,0-7-2.9-7-7.7c0-3,0.6-5.4,3-7.1c1.4-1,3.2-1.1,4.1-1.1c6.8,0,6.6,6,6.5,8.4H250.6z M258.6,256.7
				c0-1.4-0.2-4.4-3.7-4.4c-1.8,0-4,1.1-4.1,4.4H258.6z"/>
			<path class="st0" d="M95.6,290.7c-0.2-0.8-0.3-1.5-0.3-2.2c-1.4,2.5-3.4,2.7-4.7,2.7c-3.4,0-5.3-1.9-5.3-4.4
				c0-1.2,0.4-3.1,2.6-4.4c1.6-0.9,4-1,5.2-1c0.7,0,1.2,0,2,0.1c0-1.9,0-2.7-0.5-3.3c-0.6-0.8-1.8-1-2.6-1c-2.8,0-3,2-3,2.5h-2.8
				c0.1-0.8,0.2-1.8,1-2.8c1.1-1.3,3.3-1.6,4.9-1.6c2.2,0,4.5,0.7,5.3,2.2c0.5,0.9,0.5,1.6,0.5,2.3l-0.1,7.2c0,0.2,0,2.2,0.2,3.8
				H95.6z M93.7,283.2c-1.1,0-5.4,0-5.4,3.1c0,1,0.6,2.6,3.1,2.6c1.4,0,2.5-0.6,3.2-1.6c0.6-1,0.7-1.9,0.7-4
				C94.8,283.3,94.4,283.2,93.7,283.2z"/>
			<path class="st0" d="M102.7,278.1c0-0.7,0-1-0.1-2.5h2.8l0.1,2.5c1.4-2.4,3.9-2.7,5.1-2.7c3.2,0,6.3,2.2,6.3,7.8
				c0,5.6-3.3,8.1-6.9,8.1c-2.2,0-3.8-0.9-4.6-2.2v7.5h-2.8V278.1z M109.7,289.2c0.7,0,2.2-0.2,3.2-1.5c1.1-1.5,1.2-3.6,1.2-4.7
				c0-2.7-0.8-5.5-4.1-5.5c-4.5,0-4.5,4.8-4.5,6.1C105.4,285.4,105.7,289.2,109.7,289.2z"/>
			<path class="st0" d="M120.8,278.1c0-0.7,0-1-0.1-2.5h2.8l0.1,2.5c1.4-2.4,3.9-2.7,5.1-2.7c3.2,0,6.3,2.2,6.3,7.8
				c0,5.6-3.3,8.1-6.9,8.1c-2.2,0-3.8-0.9-4.6-2.2v7.5h-2.8V278.1z M127.7,289.2c0.7,0,2.2-0.2,3.2-1.5c1.1-1.5,1.2-3.6,1.2-4.7
				c0-2.7-0.8-5.5-4.1-5.5c-4.5,0-4.5,4.8-4.5,6.1C123.5,285.4,123.7,289.2,127.7,289.2z"/>
			<path class="st0" d="M147.1,278.7c0-1-0.1-2.1-0.2-3.1h2.9l0.1,2.9c0.5-2.1,2.3-2.8,3.6-3c0.8-0.1,1.5-0.1,2-0.1v2.8
				c-0.2-0.1-0.3-0.1-0.5-0.1c-0.2,0-0.5,0-0.8,0c-3.3,0-4.1,2-4.1,4.6v8h-2.8V278.7z"/>
			<path class="st0" d="M167.5,290.7c-0.2-0.8-0.3-1.5-0.3-2.2c-1.4,2.5-3.4,2.7-4.7,2.7c-3.4,0-5.3-1.9-5.3-4.4
				c0-1.2,0.4-3.1,2.6-4.4c1.6-0.9,4-1,5.2-1c0.7,0,1.2,0,2,0.1c0-1.9,0-2.7-0.5-3.3c-0.6-0.8-1.8-1-2.6-1c-2.8,0-3,2-3,2.5h-2.8
				c0.1-0.8,0.2-1.8,1-2.8c1.1-1.3,3.3-1.6,4.9-1.6c2.2,0,4.5,0.7,5.3,2.2c0.5,0.9,0.5,1.6,0.5,2.3l-0.1,7.2c0,0.2,0,2.2,0.2,3.8
				H167.5z M165.5,283.2c-1.1,0-5.4,0-5.4,3.1c0,1,0.6,2.6,3.1,2.6c1.4,0,2.5-0.6,3.2-1.6c0.6-1,0.7-1.9,0.7-4
				C166.6,283.3,166.2,283.2,165.5,283.2z"/>
			<path class="st0" d="M172.4,275.5h2.7v-3.2l2.8-0.9v4h3.4v2.1h-3.4v9c0,0.8,0,2,2,2c0.6,0,1.1-0.1,1.3-0.2v2.2
				c-0.5,0.1-1.3,0.2-2.3,0.2c-2.6,0-3.8-0.8-3.8-3.2v-10h-2.7V275.5z"/>
			<path class="st0" d="M186.1,283.6c-0.1,3.1,1.2,5.4,4.3,5.4c1.8,0,3.3-1,3.5-3.1h2.8c-0.1,0.8-0.2,2-1.3,3.2
				c-0.7,0.8-2.2,2-5.2,2c-4.7,0-7-2.9-7-7.7c0-3,0.6-5.4,3-7.1c1.4-1,3.2-1.1,4.1-1.1c6.8,0,6.6,6,6.5,8.4H186.1z M194,281.7
				c0-1.4-0.2-4.4-3.7-4.4c-1.8,0-4,1.1-4.1,4.4H194z"/>
			<path class="st0" d="M211.2,269h2.8v19.2c0,0.3,0.1,1.6,0.1,2.4h-2.8l-0.1-2.4c-0.2,0.4-0.6,1-1.4,1.6c-1.2,0.8-2.7,1.1-3.7,1.1
				c-2,0-6.5-1-6.5-7.6c0-5.7,3.3-8.2,6.8-8.2c3.2,0,4.3,1.9,4.7,2.5V269z M210.1,278.7c-0.6-0.8-1.7-1.5-3.3-1.5
				c-4.1,0-4.1,5-4.1,6c0,2.7,0.7,5.8,4.1,5.8c4.4,0,4.4-4.9,4.4-6.1C211.3,280.7,210.8,279.5,210.1,278.7z"/>
			<path class="st0" d="M97.2,344.7h-25v-9.5l24-34.6h8.6v37.6h8.1v6.5h-8.1v12h-7.7V344.7z M97.5,338.2V309l-19.1,29.2H97.5z"/>
			<path class="st0" d="M120.2,347.1h8.9v9.6h-8.9V347.1z"/>
			<path class="st0" d="M149.5,310c-3.4,2.9-9,6.2-12.9,8v-8c5.2-2.7,10.3-6.1,13.4-8.7h7.1v55.4h-7.7V310z"/>
			<path class="st0" d="M40.9,375.8l3.6-3.6c0.8-0.7,1.5-1.5,2.1-2.4c0.8-1.1,1-1.7,1-2.5c0-0.7-0.2-2.3-2.2-2.3
				c-2.2,0-2.3,1.9-2.3,2.4h-2.1c0-0.7,0.1-2,1.3-3c1-0.8,2.1-1,3-1c2.1,0,4.3,1.1,4.3,4c0,0.9-0.1,1.6-1.6,3.5
				c-0.4,0.5-2.2,2.3-2.6,2.7l-2.4,2.3h6.6v1.6h-8.8V375.8z"/>
			<path class="st0" d="M56.3,363.5c4.1,0,4.6,4.4,4.6,7c0,3.3-0.7,5.1-1.9,6.3c-1,0.9-2.1,1.1-2.8,1.1c-1.8,0-3.1-1.1-3.7-2.3
				c-0.5-0.9-0.9-2.3-0.9-4.7C51.7,368.8,51.9,363.5,56.3,363.5z M56.3,376.3c2.3,0,2.7-3,2.7-5.5c0-3.3-0.6-5.6-2.7-5.6
				c-2.4,0-2.7,3.2-2.7,5.7C53.6,373.9,54.2,376.3,56.3,376.3z"/>
			<path class="st0" d="M66,366c-0.9,0.7-2.2,1.5-3.2,2v-2c1.3-0.7,2.6-1.5,3.4-2.2h1.8v13.8H66V366z"/>
			<path class="st0" d="M74.4,374.4c0,1.4,1.3,2,2.3,2c2.4,0,2.7-2.3,2.7-3.2c0-1.9-1-3-2.6-3c-0.8,0-1.4,0.3-1.9,0.7
				s-0.5,0.8-0.6,1.2h-1.8l0.4-8.2h7.8v1.6h-6.1l-0.3,4.5c0.4-0.4,1.3-1.3,2.9-1.3c2.8,0,4.1,2.2,4.1,4.6c0,2.7-1.9,4.8-4.9,4.8
				c-2.2,0-4-1.2-4.1-3.6H74.4z"/>
			<path class="st0" d="M92.8,363.2h2.1l5.8,14.4h-2.2l-1.6-3.8h-6.7l-1.6,3.8h-2.1L92.8,363.2z M90.9,372.3h5.5l-2.7-7.1
				L90.9,372.3z"/>
			<path class="st0" d="M102.5,363.2h4.8c1.8,0,3,0.1,3.9,1.2c0.7,0.7,1.1,1.7,1.1,2.8c0,1.1-0.4,2-1.1,2.8
				c-0.8,0.8-1.8,1.2-4.4,1.2h-2.3v6.4h-2V363.2z M104.5,369.6h2.4c1.3,0,3.3-0.1,3.3-2.5c0-2.3-1.9-2.3-2.9-2.3h-2.8V369.6z"/>
			<path class="st0" d="M114.5,363.2h4.8c1.8,0,3,0.1,3.9,1.2c0.7,0.7,1.1,1.7,1.1,2.8c0,1.1-0.4,2-1.1,2.8
				c-0.8,0.8-1.8,1.2-4.4,1.2h-2.3v6.4h-2V363.2z M116.5,369.6h2.4c1.3,0,3.3-0.1,3.3-2.5c0-2.3-1.9-2.3-2.9-2.3h-2.8V369.6z"/>
			<path class="st0" d="M126.6,363.2h2v12.7h6.7v1.8h-8.7V363.2z"/>
			<path class="st0" d="M137.2,363.2h9.1v1.7h-7.1v4.5h6.7v1.7h-6.7v4.8h7.2v1.8h-9.2V363.2z"/>
			<path class="st0" d="M158.3,363.2h2.1l5.8,14.4h-2.2l-1.6-3.8h-6.7l-1.6,3.8h-2.1L158.3,363.2z M156.5,372.3h5.5l-2.7-7.1
				L156.5,372.3z"/>
			<path class="st0" d="M168.1,363.2h4.8c1.8,0,3,0.1,3.9,1.2c0.7,0.7,1.1,1.7,1.1,2.8c0,1.1-0.4,2-1.1,2.8
				c-0.8,0.8-1.8,1.2-4.4,1.2h-2.3v6.4h-2V363.2z M170.1,369.6h2.4c1.3,0,3.3-0.1,3.3-2.5c0-2.3-1.9-2.3-2.9-2.3h-2.8V369.6z"/>
			<path class="st0" d="M180.1,363.2h4.8c1.8,0,3,0.1,3.9,1.2c0.7,0.7,1.1,1.7,1.1,2.8c0,1.1-0.4,2-1.1,2.8
				c-0.8,0.8-1.8,1.2-4.4,1.2h-2.3v6.4h-2V363.2z M182.1,369.6h2.4c1.3,0,3.3-0.1,3.3-2.5c0-2.3-1.9-2.3-2.9-2.3h-2.8V369.6z"/>
			<path class="st0" d="M198.9,373.4c0,1,0.2,2.9,3.5,2.9c3,0,3.4-1.9,3.4-2.6c0-1.6-1.3-1.9-3.3-2.4c-2.2-0.5-3.2-0.8-3.9-1.3
				c-1.2-0.8-1.5-1.9-1.5-2.8c0-2.9,2.8-4.2,5.5-4.2c1,0,2.9,0.2,4.1,1.4c0.8,0.9,0.8,1.9,0.9,2.5h-2.1c-0.1-1.8-1.6-2.2-3-2.2
				c-2,0-3.2,0.9-3.2,2.3c0,1.3,0.8,1.7,2.6,2.1c3.4,0.9,3.8,1,4.7,1.5c1.3,0.9,1.4,2.3,1.4,2.9c0,2.6-2,4.5-5.7,4.5
				c-1.1,0-3.3-0.2-4.5-1.6c-0.8-1.1-0.8-2.2-0.8-2.9H198.9z"/>
			<path class="st0" d="M213.7,377.7v-12.7h-4.8v-1.7h11.7v1.7h-4.8v12.7H213.7z"/>
			<path class="st0" d="M222.7,364.8c1.5-1.6,3.5-1.9,4.8-1.9c4,0,6.5,2.6,6.5,7.5c0,3.8-1.5,7.7-6.7,7.7c-4.9,0-6.5-3.5-6.5-7.5
				C220.9,368.9,221.1,366.5,222.7,364.8z M224.2,375c0.8,1,2.1,1.3,3.2,1.3c1.2,0,2.4-0.3,3.2-1.3c1.2-1.4,1.3-3.7,1.3-4.7
				c0-3.3-1.1-5.8-4.4-5.8c-3.7,0-4.6,2.9-4.6,5.9C223,372,223.2,373.7,224.2,375z"/>
			<path class="st0" d="M236.8,363.2h5.2c0.7,0,2.3,0,3.3,0.7c1.1,0.7,1.6,1.8,1.6,2.9c0,1-0.4,1.9-1,2.6c-0.6,0.6-1.3,0.8-1.7,0.9
				c1.4,0.4,2,1,2.2,2.8c0.2,1.7,0.3,2.9,0.9,4.5h-2.1c-0.3-1-0.5-2.7-0.7-3.8c-0.2-2.1-0.7-2.7-3.2-2.7h-2.5v6.5h-2V363.2z
				 M238.7,369.4h3.2c0.2,0,1.4,0,1.9-0.3c0.3-0.2,1-0.7,1-1.9c0-2.3-2.1-2.3-2.9-2.3h-3.2V369.4z"/>
			<path class="st0" d="M249.7,363.2h9.1v1.7h-7.1v4.5h6.7v1.7h-6.7v4.8h7.2v1.8h-9.2V363.2z"/>
		</g>
		<polygon id="Star" class="st0" points="198.9,347.2 180.9,356.6 184.3,336.6 169.8,322.4 189.9,319.5 198.9,301.2 207.9,319.5 
			228,322.4 213.4,336.6 216.9,356.6 		"/>
	</g>
	<rect x="25" y="220" class="st0" width="250" height="4"/>
</g>
<g id="Bank">
</g>
<g id="WU_Flow">
</g>
<g id="ATM">
</g>
<g id="Transactions">
</g>
<g id="Location">
</g>
<g id="Globe">
</g>
<g id="Person">
</g>
<g id="Money">
</g>
<g id="Guides">
</g>
</svg>
